<?xml version="1.0" standalone="yes"?>

<svg version="1.1" viewBox="0.0 0.0 139.15748031496062 308.48818897637796" fill="none" stroke="none" stroke-linecap="square" stroke-miterlimit="10" xmlns="http://www.w3.org/2000/svg" xmlns:xlink="http://www.w3.org/1999/xlink"><clipPath id="p.0"><path d="m0 0l139.15749 0l0 308.4882l-139.15749 0l0 -308.4882z" clip-rule="nonzero"></path></clipPath><g clip-path="url(#p.0)"><path fill="#000000" fill-opacity="0.0" d="m0 0l139.15749 0l0 308.4882l-139.15749 0z" fill-rule="nonzero"></path><path fill="#000000" fill-opacity="0.0" d="m26.019754 14.50226c-15.873097 7.6754494 -28.25903 34.036835 -18.408234 48.312836c10.976352 15.907181 45.98388 28.011673 57.848522 12.712585c12.140099 -15.654282 21.444817 -46.74219 5.258011 -58.482903c-12.640072 -9.168176 -40.26129 -11.124593 -47.32731 2.5425167" fill-rule="evenodd"></path><path stroke="#666666" stroke-width="2.0" stroke-linejoin="round" stroke-linecap="butt" d="m26.019754 14.50226c-15.873097 7.6754494 -28.25903 34.036835 -18.408234 48.312836c10.976352 15.907181 45.98388 28.011673 57.848522 12.712585c12.140099 -15.654282 21.444817 -46.74219 5.258011 -58.482903c-12.640072 -9.168176 -40.26129 -11.124593 -47.32731 2.5425167" fill-rule="evenodd"></path><path fill="#000000" fill-opacity="0.0" d="m23.272978 66.62233c-5.239834 0 10.022951 4.567192 15.132532 3.5881958c10.122681 -1.9394989 20.65393 -9.052273 23.171627 -17.543861" fill-rule="evenodd"></path><path stroke="#666666" stroke-width="2.0" stroke-linejoin="round" stroke-linecap="butt" d="m23.272978 66.62233c-5.239834 0 10.022951 4.567192 15.132532 3.5881958c10.122681 -1.9394989 20.65393 -9.052273 23.171627 -17.543861" fill-rule="evenodd"></path><path fill="#000000" fill-opacity="0.0" d="m60.859726 81.336c14.654945 47.252075 15.742928 97.8784 15.742928 147.21022" fill-rule="evenodd"></path><path stroke="#666666" stroke-width="2.0" stroke-linejoin="round" stroke-linecap="butt" d="m60.859726 81.336c14.654945 47.252075 15.742928 97.8784 15.742928 147.21022" fill-rule="evenodd"></path><path fill="#000000" fill-opacity="0.0" d="m75.65412 230.44229c-12.28471 19.80223 -26.569061 39.007355 -34.120052 60.9151" fill-rule="evenodd"></path><path stroke="#666666" stroke-width="2.0" stroke-linejoin="round" stroke-linecap="butt" d="m75.65412 230.44229c-12.28471 19.80223 -26.569061 39.007355 -34.120052 60.9151" fill-rule="evenodd"></path><path fill="#000000" fill-opacity="0.0" d="m75.654465 227.90477c14.868378 28.766586 39.288322 51.92372 57.734436 78.68263" fill-rule="evenodd"></path><path stroke="#666666" stroke-width="2.0" stroke-linejoin="round" stroke-linecap="butt" d="m75.654465 227.90477c14.868378 28.766586 39.288322 51.92372 57.734436 78.68263" fill-rule="evenodd"></path><path fill="#000000" fill-opacity="0.0" d="m58.922806 83.00564c-6.5495186 26.925972 -13.88879 56.587303 -34.12005 76.140114" fill-rule="evenodd"></path><path stroke="#666666" stroke-width="2.0" stroke-linejoin="round" stroke-linecap="butt" d="m58.922806 83.00564c-6.5495186 26.925972 -13.88879 56.587303 -34.12005 76.140114" fill-rule="evenodd"></path><path fill="#000000" fill-opacity="0.0" d="m65.09217 82.38776c24.171082 -15.379967 27.14122 -11.491409 48.342163 -30.75993c12.358154 -11.231728 -3.5161438 -48.330135 13.184227 -48.330135" fill-rule="evenodd"></path><path stroke="#666666" stroke-width="2.0" stroke-linejoin="round" stroke-linecap="butt" d="m65.09217 82.38776c24.171082 -15.379967 27.14122 -11.491409 48.342163 -30.75993c12.358154 -11.231728 -3.5161438 -48.330135 13.184227 -48.330135" fill-rule="evenodd"></path></g></svg>

