<?xml version="1.0" encoding="UTF-8" standalone="no"?>
<!-- Created with Inkscape (http://www.inkscape.org/) -->

<svg
   xmlns:dc="http://purl.org/dc/elements/1.1/"
   xmlns:cc="http://creativecommons.org/ns#"
   xmlns:rdf="http://www.w3.org/1999/02/22-rdf-syntax-ns#"
   xmlns:svg="http://www.w3.org/2000/svg"
   xmlns="http://www.w3.org/2000/svg"
   xmlns:sodipodi="http://sodipodi.sourceforge.net/DTD/sodipodi-0.dtd"
   xmlns:inkscape="http://www.inkscape.org/namespaces/inkscape"
   id="svg2"
   version="1.1"
   inkscape:version="0.91 r"
   xml:space="preserve"
   width="1000"
   height="1000"
   viewBox="0 0 1000 1000"
   sodipodi:docname="frames.svg"><metadata
     id="metadata8"><rdf:RDF><cc:Work
         rdf:about=""><dc:format>image/svg+xml</dc:format><dc:type
           rdf:resource="http://purl.org/dc/dcmitype/StillImage" /><dc:title></dc:title></cc:Work></rdf:RDF></metadata><defs
     id="defs6"><clipPath
       clipPathUnits="userSpaceOnUse"
       id="clipPath20"><path
         d="M 0,800 800,800 800,0 0,0 0,800 Z"
         id="path22"
         inkscape:connector-curvature="0" /></clipPath></defs><sodipodi:namedview
     pagecolor="#ffffff"
     bordercolor="#666666"
     borderopacity="1"
     objecttolerance="10"
     gridtolerance="10"
     guidetolerance="10"
     inkscape:pageopacity="0"
     inkscape:pageshadow="2"
     inkscape:window-width="1319"
     inkscape:window-height="744"
     id="namedview4"
     showgrid="false"
     inkscape:zoom="0.6675088"
     inkscape:cx="500"
     inkscape:cy="320.22709"
     inkscape:window-x="47"
     inkscape:window-y="24"
     inkscape:window-maximized="1"
     inkscape:current-layer="g10" /><g
     id="g10"
     inkscape:groupmode="layer"
     inkscape:label="19653-NSB6U9"
     transform="matrix(1.25,0,0,-1.25,0,1000)"><g
       id="g148"
       transform="translate(745.55724,223.75594)"><path
         d="m 0,0 c -0.032,-12.73 -2.371,-26.767 -16.052,-31.51 -11.844,-4.105 -24.106,0.196 -36.118,0.818 -7.259,0.376 -13.06,-3.024 -14.353,-10.187 -0.348,8.259 -8.602,11.137 -15.914,11.577 -11.491,0.692 -27.296,-2.321 -37.448,4.12 -5.449,3.457 -8.02,9.874 -8.87,16.015 -0.801,5.786 0.736,11.446 0.223,17.196 -0.531,5.966 -4.35,10.489 -9.575,12.478 5.468,2.36 8.251,8.136 9.017,14.316 0.815,6.575 -0.313,13.421 2.097,19.737 2.49,6.526 8.408,10.924 14.973,12.868 12.765,3.78 24.766,-3.396 37.329,-1.293 5.955,0.997 11.286,4.792 12.73,10.543 1.729,-5.462 6.426,-9.513 12.447,-10.055 5.736,-0.516 11.303,1.953 16.873,2.905 7.2,1.231 15.558,1.544 22.133,-2.211 C -3.422,63.27 -1.831,55.173 -2.252,47.512 -2.565,41.811 -5.32,35.994 -4.346,30.23 -3.277,23.906 2.04,20.415 7.863,19.277 1.611,14.734 0.02,7.951 0,0 m 10.935,21.013 c -7.544,0.409 -13.686,4.654 -13.298,12.939 0.214,4.573 1.994,8.963 2.253,13.56 0.4,7.132 -0.826,15.583 -6.876,20.166 -6.463,4.895 -15.569,5.378 -23.265,4.337 -4.822,-0.653 -9.37,-2.373 -14.147,-3.168 -8.454,-1.407 -15.237,2.918 -17.063,11.311 -0.105,0.486 -0.745,0.533 -1.032,0.241 -0.602,0.079 -1.282,-0.258 -1.308,-1.043 -0.535,-15.992 -21.609,-10.207 -31.132,-9.013 -7.675,0.963 -15.733,0.589 -22.725,-3.029 -6.284,-3.252 -10.822,-8.722 -12.265,-15.687 -2.029,-9.789 2.462,-28.664 -12.066,-30.151 -1.011,-0.103 -1.47,-1.789 -0.265,-1.956 7.289,-1.014 11.721,-6.397 11.76,-13.695 0.024,-4.512 -0.915,-8.899 -0.511,-13.439 0.582,-6.544 2.84,-13.26 7.915,-17.684 5.825,-5.078 13.7,-5.436 21.042,-5.651 9.474,-0.278 33.528,3.077 33.78,-10.818 0.017,-0.925 1.136,-1.088 1.585,-0.517 0.106,-0.91 1.627,-0.847 1.734,0.193 1.639,15.811 23.924,7.445 33.929,6.802 7.865,-0.505 16.352,0.488 22.791,5.431 5.924,4.547 8.73,11.652 9.813,18.842 1.66,11.023 -2.17,23.842 9.888,30.047 0.993,0.511 0.451,1.928 -0.537,1.982"
         style="fill:#1d1d1b;fill-opacity:1;fill-rule:nonzero;stroke:none"
         id="path150"
         inkscape:connector-curvature="0" /></g><g
       id="g152"
       transform="translate(746.93594,240.68924)"><path
         d="m 0,0 c -0.025,-0.018 -0.051,-0.024 -0.076,-0.046 -3.262,-1.02 -5.763,-1.026 -7.509,-0.029 0.985,0.997 2.163,1.412 3.561,1.593 0.619,0.08 1.262,0.146 1.887,0.135 0.529,0.05 1.046,-0.019 1.552,-0.209 C -0.059,0.914 0.129,0.433 0,0 m -8.47,-21.758 c 0.356,-11.238 -5.03,-22.654 -17.39,-23.58 -9.241,-0.693 -18.354,2.289 -27.433,3.513 -4.006,0.54 -10.08,1.664 -12.97,-1.396 -0.084,0.029 -0.171,0.037 -0.257,0.036 -2.851,2.405 -6.81,2.191 -10.687,1.934 -9.052,-0.598 -18.286,-2.073 -27.358,-2.032 -4.983,0.023 -9.582,1.5 -13.054,5.243 -4.123,4.445 -3.919,10.041 -3.321,15.668 0.933,8.796 0.827,17.236 -0.885,25.936 -0.007,0.034 -0.026,0.054 -0.036,0.085 0.697,0.675 1.289,1.424 1.678,2.235 0.141,0.292 0.025,0.664 -0.201,0.874 2.931,6.11 0.268,12.696 -0.368,19.408 -1.768,18.662 16.358,14.38 28.028,12.938 7.909,-0.977 18.584,-1.432 26.078,2.03 0.844,0.39 1.666,0.893 2.422,1.481 2.246,-3.998 8.766,-3.876 13.272,-2.79 11.008,2.653 34.73,13.171 40.201,-2.999 2.054,-6.073 0.618,-13.85 -0.338,-19.992 -0.685,-4.406 -2.065,-9.059 -0.757,-13.485 0.466,-1.577 1.327,-2.993 2.416,-4.115 -2.825,-6.349 0.753,-14.434 0.96,-20.992 m -57.598,-27.913 c -0.056,-0.66 -0.41,-0.908 -1.061,-0.743 -0.977,-0.092 -0.878,0.039 -0.865,0.853 0.009,0.542 0.152,1.129 0.247,1.661 0.062,0.354 0.138,0.706 0.211,1.058 0.355,-0.372 1.07,-0.383 1.195,0.255 0.013,0.063 0.038,0.116 0.052,0.178 0.07,-0.204 0.138,-0.408 0.189,-0.62 0.125,-0.521 0.211,-1.05 0.19,-1.589 0.006,-0.357 -0.046,-0.708 -0.158,-1.053 m -63.406,52.235 c -1.209,0.268 -2.683,1.897 -1.061,2.554 0.569,0.23 1.431,0.093 2.041,0.042 1.091,-0.092 2.89,-0.39 4.166,-1.126 -1.439,-1.136 -3.018,-1.941 -5.146,-1.47 m 65.496,48.091 c 0.199,0.317 0.834,0.792 1.365,0.801 0.47,-2.433 -0.055,-4.342 -1.27,-5.83 -0.066,0.296 -0.119,0.606 -0.148,0.937 -0.017,0.194 -0.118,0.321 -0.245,0.396 -0.066,0.394 -0.117,0.79 -0.119,1.195 -0.004,0.788 -0.016,1.809 0.417,2.501 M 0.077,3.006 C -1.285,3.78 -3.414,3.452 -4.889,3.218 -6.511,2.959 -7.916,2.343 -8.954,1.089 c -0.57,0.707 -0.994,1.608 -1.269,2.707 -0.388,1.291 -0.539,2.601 -0.454,3.928 -0.063,3.254 0.906,6.451 1.459,9.635 0.589,3.388 1.012,6.816 1.171,10.253 0.29,6.302 -0.433,12.838 -5.991,16.724 -5.559,3.887 -12.542,3.456 -18.857,2.074 -5.861,-1.282 -25.444,-9.408 -30.141,-2.738 2.411,2.445 3.606,5.848 1.364,9.088 -0.292,0.422 -0.904,0.329 -1.088,-0.054 -0.913,0.33 -2.029,-0.087 -2.67,-1.202 -1.04,-1.811 -1.031,-5.251 0.036,-7.293 -6.414,-4.668 -21.455,-3.613 -27.038,-2.947 -7.354,0.876 -15.287,3.54 -22.474,0.399 -15.018,-6.561 -2.787,-24.449 -7.301,-35.779 -0.358,-0.314 -0.712,-0.638 -1.068,-0.956 -2.983,2.635 -10.11,3.33 -10.209,-0.386 -0.072,-2.675 3.1,-3.834 5.27,-3.784 1.669,0.039 3.452,0.728 4.97,1.77 1.027,-5.379 1.556,-10.751 1.376,-16.234 -0.144,-4.412 -1.111,-8.771 -1.2,-13.17 -0.127,-6.274 2.263,-11.679 7.6,-15.194 6.119,-4.031 13.171,-2.812 20.087,-2.318 4.922,0.352 9.845,0.697 14.766,1.069 4.368,0.33 9.63,1.383 13.551,-1.042 -0.011,-0.024 -0.022,-0.049 -0.035,-0.072 -0.117,0.153 -0.369,0.206 -0.477,-0.01 -0.757,-1.519 -3.658,-8.236 0.42,-7.979 1.573,0.1 2.453,1.718 2.682,3.1 0.21,1.269 -0.01,2.736 -0.504,4.042 0.065,0.115 0.078,0.256 -0.02,0.4 -0.085,0.127 -0.178,0.237 -0.267,0.355 5.161,5.231 25.86,-1.701 30.931,-2.293 6.336,-0.741 13.294,-0.8 18.655,3.142 5.042,3.707 7.806,9.644 8.671,15.719 1.223,8.592 -3.01,17.808 -1.209,26.143 2.464,-1.786 5.642,-2.174 8.307,0.044 1.708,0.93 2.131,3.559 -0.013,4.776"
         style="fill:#1d1d1b;fill-opacity:1;fill-rule:nonzero;stroke:none"
         id="path154"
         inkscape:connector-curvature="0" /></g><g
       id="g156"
       transform="translate(743.69224,122.63314)"><path
         d="m 0,0 c -0.05,0.016 -0.1,0.034 -0.161,0.015 -0.867,-0.267 -1.683,-0.345 -2.537,-0.086 0.014,1.394 0.027,2.788 0.04,4.183 0.788,-0.192 1.629,-0.273 2.381,-0.019 0.382,0.129 0.286,0.628 -0.091,0.672 -0.774,0.09 -1.525,0.074 -2.283,0.198 0.022,2.466 0.052,4.933 0.059,7.399 0,0.211 -0.086,0.357 -0.201,0.468 0.501,0.766 0.971,1.554 1.411,2.355 0.215,0.392 0.449,0.792 0.656,1.203 0.298,-1.997 0.473,-4.02 0.595,-6.054 -0.157,-0.035 -0.315,-0.075 -0.485,-0.107 -0.502,-0.094 -1.009,-0.09 -1.515,-0.038 C -2.646,10.242 -2.771,9.36 -2.254,9.279 -1.645,9.183 -0.775,9.09 -0.061,9.263 0.084,6.194 0.072,3.096 0,0 m -0.16,-4.879 c -0.351,0.043 -0.692,0.023 -1.053,0.029 -0.479,0.008 -0.95,0.096 -1.415,0.2 -0.04,0.009 -0.077,0.006 -0.115,0.003 0.014,1.301 0.025,2.602 0.038,3.903 0.892,-0.264 1.854,-0.248 2.69,0.181 -0.037,-1.443 -0.093,-2.878 -0.145,-4.316 m -0.198,-6.097 c -0.836,-0.058 -1.63,-0.103 -2.446,0.003 0.018,1.839 0.035,3.679 0.054,5.518 0.766,-0.327 1.755,-0.563 2.561,-0.298 -0.064,-1.75 -0.121,-3.491 -0.169,-5.223 m -0.074,-3.1 c -0.01,-0.67 -0.025,-1.342 -0.038,-2.014 -0.631,-0.003 -1.255,0.016 -1.897,0.118 -0.421,0.067 -0.6,-0.512 -0.179,-0.649 0.653,-0.214 1.361,-0.325 2.06,-0.315 -0.037,-1.791 -0.082,-3.586 -0.128,-5.382 -0.318,-0.019 -0.636,-0.037 -0.955,-0.024 -0.395,0.015 -0.779,0.083 -1.167,0.142 -0.058,2.761 -0.117,5.512 -0.097,8.228 0.005,0.655 0.013,1.31 0.019,1.965 0.806,-0.187 1.641,-0.176 2.433,0.05 -0.018,-0.706 -0.041,-1.417 -0.051,-2.119 m -0.619,-28.502 c -0.511,0.901 -1.012,1.99 -1.801,2.672 -0.082,0.07 -0.186,0.088 -0.289,0.084 0.067,0.66 0.125,1.322 0.178,1.985 l 2.18,-0.497 c 0.027,-1.689 0.083,-3.375 0.16,-5.059 -0.142,0.272 -0.277,0.548 -0.428,0.815 m -2.084,-1.746 c -0.525,1.007 -1.253,1.921 -1.93,2.833 0.386,-0.007 0.771,-0.013 1.157,-0.033 0.425,-0.022 0.648,0.235 0.72,0.545 0.362,-0.658 0.847,-1.271 1.23,-1.903 0.387,-0.639 0.759,-1.286 1.143,-1.926 -0.753,0.207 -1.532,0.358 -2.32,0.484 m -4.898,0.236 c -0.646,0.781 -1.359,1.515 -2.065,2.245 1.299,0.222 2.625,0.326 3.962,0.349 0.005,-0.071 0.023,-0.145 0.077,-0.222 0.552,-0.8 1.078,-1.654 1.684,-2.43 -1.211,0.123 -2.441,0.145 -3.658,0.058 m -5.153,-1.143 c -0.772,0.516 -1.381,1.105 -1.722,1.944 1.246,0.571 2.547,0.984 3.881,1.272 0.627,-0.725 1.245,-1.475 1.902,-2.183 -1.402,-0.182 -2.774,-0.51 -4.061,-1.033 m -4.473,-2.992 c -0.62,0.409 -1.155,0.873 -1.547,1.614 -0.072,0.135 -0.181,0.191 -0.295,0.2 0.4,0.39 0.821,0.763 1.27,1.113 0.835,0.651 1.718,1.18 2.623,1.645 0.264,-0.801 0.764,-1.537 1.453,-2.016 -1.291,-0.642 -2.479,-1.483 -3.504,-2.556 m -2.315,-3.416 c -0.714,0.587 -1.486,1.134 -2.279,1.567 0.619,1.163 1.396,2.217 2.295,3.175 0.007,-0.043 0.014,-0.085 0.037,-0.129 0.372,-0.716 0.944,-1.412 1.642,-1.881 -0.694,-0.848 -1.255,-1.766 -1.695,-2.732 m -3.471,-7.954 c 0.089,0.176 0.09,0.384 -0.089,0.545 0.155,0.292 -0.102,0.605 -0.418,0.581 -0.341,0.747 -0.3,1.861 -0.112,2.992 0.716,-0.627 1.488,-1.206 2.337,-1.608 0.251,-0.119 0.462,0.024 0.524,0.217 -0.088,-1.968 0.189,-3.961 0.835,-5.833 -1.089,1.028 -2.572,2.396 -3.077,3.106 m -0.294,-3.669 c -0.368,1.075 -0.768,2.198 -1.353,3.122 0.259,0.009 0.518,0.011 0.777,0.022 0.572,-1.045 1.889,-2.324 3.021,-3.234 -0.814,0.036 -1.63,0.06 -2.445,0.09 m -4.58,0.29 c 0.084,0.859 0.291,1.896 0.066,2.743 0.665,0.013 1.331,0.038 1.996,0.056 0.001,-0.008 -10e-4,-0.014 0,-0.023 0.148,-1 0.601,-2.028 1.072,-3.014 -1.056,0.037 -2.113,0.08 -3.169,0.116 0.013,0.04 0.031,0.076 0.035,0.122 m -0.971,0 c 0,-0.034 0.012,-0.058 0.017,-0.088 -1.165,0.039 -2.33,0.091 -3.495,0.127 -0.075,0.887 -0.169,1.779 -0.346,2.65 1.335,0.004 2.67,0.017 4.005,0.037 -0.293,-0.813 -0.183,-1.875 -0.181,-2.726 m 6.619,12 c 0.691,-0.629 1.481,-1.201 2.281,-1.7 -0.459,-1.289 -0.722,-2.642 -0.8,-4.011 -0.018,0.086 -0.069,0.171 -0.164,0.238 -0.858,0.609 -1.723,1.186 -2.539,1.845 0.265,1.166 0.634,2.259 0.871,2.874 0.101,0.262 0.237,0.501 0.351,0.754 m -11.011,-8.393 c -11.163,-0.124 -22.288,0.342 -33.467,0.99 -2.365,0.137 -4.76,0.281 -7.166,0.419 -0.134,0.106 -0.3,0.105 -0.443,0.025 -1.248,0.071 -2.494,0.144 -3.749,0.208 -0.146,0.159 -0.389,0.179 -0.535,0.027 -9.403,0.46 -18.952,0.589 -28.093,-0.789 -0.028,0.012 -0.052,0.026 -0.083,0.029 4.281,9.187 -6.267,18.566 -15.031,18.954 -0.002,0.014 10e-4,0.029 -0.002,0.043 1.137,7.324 0.098,15.2 -0.072,22.594 -0.184,7.976 -0.278,15.954 -0.458,23.931 2.493,-1.655 10.791,0.67 12.228,1.367 6.733,3.267 13.385,10.135 13.189,18 0.189,0.066 0.311,0.25 0.24,0.453 14.205,-0.072 28.399,0.593 42.601,0.88 -10e-4,-0.004 -10e-4,-0.008 -0.002,-0.012 -0.087,-0.597 0.735,-0.861 0.926,-0.256 0.029,0.093 0.056,0.193 0.084,0.289 7.221,0.136 14.446,0.152 21.674,-0.068 0.17,-0.218 0.522,-0.266 0.672,-0.023 1.145,-0.038 2.29,-0.07 3.436,-0.118 0.077,-0.058 0.172,-0.086 0.273,-0.088 2.297,-11.362 13.035,-15.452 23.454,-15.342 -0.091,-8.706 -0.061,-17.413 -0.114,-26.12 -0.051,-8.557 -0.883,-17.421 -0.035,-25.939 -6.6,0.454 -13.609,-1.443 -17.891,-6.781 -1.781,-2.222 -5.376,-9.429 -2.915,-12.456 -2.892,-0.121 -5.78,-0.183 -8.665,-0.216 -0.02,-0.001 -0.037,0.003 -0.056,-0.001 m -3.556,-3.427 c 0.015,0.765 -0.012,1.543 -0.137,2.28 -0.02,0.117 -0.075,0.191 -0.148,0.233 1.163,-0.013 2.325,-0.002 3.487,-0.003 -0.027,-0.87 0.032,-1.746 0.112,-2.614 -1.105,0.034 -2.209,0.072 -3.314,0.104 m -0.885,2.179 c -0.074,-0.702 -0.048,-1.432 0.011,-2.153 -1.174,0.033 -2.348,0.073 -3.522,0.104 -0.047,0.832 -0.107,1.7 -0.398,2.459 1.403,-0.031 2.807,-0.055 4.21,-0.072 -0.147,-0.052 -0.283,-0.166 -0.301,-0.338 m -8.689,-1.904 c 0.125,0.808 0.218,1.623 0.14,2.433 1.252,-0.038 2.504,-0.066 3.755,-0.096 -10e-4,-0.009 -0.009,-0.01 -0.01,-0.019 -0.116,-0.798 -0.013,-1.623 0.116,-2.43 -1.334,0.036 -2.667,0.079 -4.001,0.112 m -0.885,0.024 c -1.398,0.034 -2.795,0.079 -4.192,0.11 0.004,0.675 0.087,1.35 0.249,2.005 0.08,0.321 -0.378,0.438 -0.489,0.135 -0.261,-0.712 -0.366,-1.408 -0.361,-2.126 -1.26,0.028 -2.52,0.059 -3.78,0.086 0.02,0.845 0.043,1.687 -0.017,2.529 2.986,-0.109 5.972,-0.218 8.959,-0.311 -0.24,-0.783 -0.321,-1.607 -0.369,-2.428 m -9.173,0.223 c -1.507,0.031 -3.014,0.066 -4.52,0.096 0.143,0.811 0.287,1.623 0.337,2.445 0.004,0.062 -0.019,0.109 -0.051,0.146 1.417,-0.048 2.834,-0.1 4.252,-0.151 -0.062,-0.844 -0.038,-1.689 -0.018,-2.536 m -4.638,2.603 c -0.227,-0.817 -0.354,-1.657 -0.486,-2.495 -1.376,0.027 -2.753,0.057 -4.128,0.082 -1.182,0.023 -2.373,0.057 -3.56,0.086 0.16,0.865 0.334,1.745 0.376,2.622 1.094,-0.019 2.186,-0.024 3.281,-0.054 -0.212,-0.784 -0.216,-1.584 -0.053,-2.391 0.026,-0.132 0.255,-0.105 0.238,0.032 -0.101,0.802 -0.011,1.575 0.194,2.347 1.403,-0.04 2.807,-0.087 4.211,-0.134 -0.029,-0.026 -0.061,-0.051 -0.073,-0.095 m -8.783,-2.312 c -1.201,0.03 -2.398,0.055 -3.599,0.086 0.042,0.849 0.077,1.739 -0.029,2.597 1.278,-0.011 2.559,-0.044 3.839,-0.063 -0.147,-0.86 -0.172,-1.748 -0.211,-2.62 m -7.925,0.19 c -0.106,0.843 -0.111,1.682 -0.127,2.523 1.11,-0.003 2.22,-0.015 3.329,-0.023 0.016,-0.858 0.104,-1.722 0.106,-2.58 -1.104,0.029 -2.202,0.05 -3.308,0.08 m -4.518,0.118 c -0.038,0.775 -0.004,1.634 -0.129,2.417 1.193,0.002 2.386,-0.008 3.579,-0.01 -0.005,-0.839 0.11,-1.685 0.266,-2.504 -1.239,0.032 -2.476,0.066 -3.716,0.097 m -4.418,0.111 c 0.02,0.765 0.052,1.529 0.005,2.29 1.179,0.006 2.359,0.009 3.538,0.013 0.014,-0.791 0.215,-1.63 0.328,-2.4 -1.291,0.032 -2.579,0.071 -3.871,0.097 m -12.422,0.09 c -0.038,0.69 -0.04,1.447 -0.226,2.126 1.005,0.003 2.009,0.011 3.014,0.017 -0.025,-0.542 0.053,-1.126 0.04,-1.592 -0.013,-0.447 0.641,-0.429 0.684,0 0.048,0.486 0.214,1.056 0.248,1.597 1.202,0.007 2.404,0.015 3.605,0.023 0.001,-0.635 0.061,-1.27 0.102,-1.902 0.02,-0.291 0.434,-0.291 0.453,0 0.042,0.634 0.102,1.27 0.102,1.906 1.255,0.008 2.51,0.015 3.765,0.022 -0.046,-0.756 -0.014,-1.514 0.005,-2.275 -3.934,0.076 -7.868,0.125 -11.792,0.078 m -4.569,-0.094 c 0.189,0.717 0.4,1.47 0.476,2.206 1.079,-0.001 2.157,0.008 3.236,0.011 0.006,-0.714 0.229,-1.447 0.406,-2.132 -1.374,-0.019 -2.747,-0.043 -4.118,-0.085 m -0.481,-0.02 c -1.649,-0.054 -3.296,-0.12 -4.94,-0.213 0.192,0.195 0.384,0.391 0.576,0.586 0.57,0.58 1.287,1.173 1.77,1.86 0.95,-0.005 1.9,-0.004 2.85,-0.006 -0.154,-0.724 -0.196,-1.498 -0.256,-2.227 m -6.159,-0.276 c -0.187,-0.011 -0.375,-0.016 -0.561,-0.028 0.512,1.212 0.761,2.529 0.799,3.874 0.093,-0.217 0.393,-0.358 0.626,-0.15 0.494,0.442 0.989,0.884 1.484,1.326 0.297,0.265 0.587,0.531 0.853,0.82 -0.134,-0.966 -0.393,-1.945 -0.82,-2.927 -0.055,-0.127 -0.047,-0.248 -0.004,-0.35 -0.419,-0.426 -0.806,-0.9 -1.19,-1.307 -0.396,-0.419 -0.792,-0.838 -1.187,-1.258 m -1.951,11.881 c 1.023,0.621 2.021,1.434 2.519,2.493 0.132,0.28 -0.192,0.554 -0.433,0.335 -0.842,-0.766 -1.559,-1.589 -2.444,-2.275 -0.312,0.451 -0.645,0.881 -1.003,1.276 -0.563,0.621 -1.193,1.154 -1.848,1.646 0.456,0.484 0.91,0.968 1.36,1.458 0.321,0.349 0.689,0.698 0.965,1.096 3.711,-2.624 6.333,-6.689 6.122,-11.125 -0.033,-0.005 -0.066,0.002 -0.099,-0.014 -0.564,-0.271 -0.978,-0.737 -1.425,-1.164 -0.48,-0.458 -0.959,-0.915 -1.438,-1.372 -0.037,-0.036 -0.06,-0.074 -0.079,-0.113 0.009,1.38 -0.203,2.783 -0.599,4.128 1.079,0.611 2.105,1.332 2.899,2.288 0.263,0.316 -0.137,0.723 -0.452,0.453 -0.862,-0.741 -1.703,-1.487 -2.629,-2.138 -0.364,1.07 -0.836,2.096 -1.416,3.028 m -7.169,5.543 0.862,0.865 c 0.504,0.507 1.145,1.027 1.492,1.656 0.009,0.015 0.003,0.031 0.008,0.047 1.098,-0.406 2.155,-0.944 3.154,-1.573 -0.345,-0.318 -0.646,-0.708 -0.943,-1.04 -0.444,-0.498 -0.884,-1.001 -1.321,-1.505 -1.015,0.66 -2.107,1.184 -3.252,1.55 m -6.803,0.439 c 0.736,0.514 1.457,1.052 2.127,1.649 0.494,0.44 1.191,0.961 1.702,1.553 0.104,-0.073 0.23,-0.126 0.391,-0.127 1.477,-0.014 2.973,-0.287 4.42,-0.766 -0.547,-0.369 -1.01,-0.931 -1.462,-1.395 l -1.131,-1.161 c -1.959,0.508 -4.025,0.614 -6.047,0.247 m -0.386,7.038 c 1.233,-0.194 2.643,-0.239 3.806,0.179 0.101,-0.81 0.215,-1.618 0.363,-2.414 -0.947,-0.38 -1.671,-1.468 -2.403,-2.144 -0.613,-0.567 -1.244,-1.111 -1.871,-1.662 0.076,2.005 0.102,4.02 0.105,6.041 m 3.434,14.164 c -0.02,-1.267 -0.043,-2.535 -0.053,-3.808 -0.935,-0.089 -1.829,-0.106 -2.796,0.161 -0.354,0.098 -0.486,-0.42 -0.15,-0.542 0.911,-0.33 1.949,-0.534 2.938,-0.438 -0.005,-1.415 0.004,-2.829 0.054,-4.235 -1.149,0.051 -2.334,-0.066 -3.475,-0.107 -0.057,2.967 -0.157,5.943 -0.262,8.923 1.253,-0.024 2.496,-0.065 3.744,0.046 m -3.945,5.691 c 0.042,-0.015 0.065,-0.049 0.117,-0.051 1.288,-0.05 2.544,-0.171 3.823,-0.325 0.012,-0.002 0.021,0.003 0.033,0.002 0.012,-1.468 0.006,-2.949 -0.016,-4.447 -1.263,0.113 -2.522,0.07 -3.79,0.047 -0.057,1.59 -0.114,3.182 -0.167,4.774 m -0.149,5.657 c 0.07,0.047 0.118,0.112 0.143,0.193 0.535,0.003 1.338,-0.249 1.669,-0.318 0.565,-0.118 1.116,-0.257 1.691,-0.313 0.404,-0.039 0.571,0.598 0.209,0.771 -0.699,0.334 -1.449,0.478 -2.212,0.593 -0.423,0.065 -1.023,0.218 -1.519,0.174 -0.05,2.957 -0.051,5.908 0.022,8.848 1.26,-0.151 2.535,-0.335 3.795,-0.282 0.026,0.002 0.04,0.022 0.063,0.029 0.024,-1.322 0.042,-2.643 0.067,-3.964 -1.003,0.442 -2.469,0.406 -3.458,0.19 -0.367,-0.08 -0.272,-0.63 0.087,-0.64 0.649,-0.016 1.283,0.016 1.93,-0.083 0.489,-0.075 0.963,-0.236 1.455,-0.273 0.065,-3.383 0.131,-6.766 0.178,-10.149 -1.233,0.348 -2.581,0.445 -3.854,0.3 -0.059,-0.007 -0.09,-0.046 -0.136,-0.07 -0.053,1.665 -0.095,3.33 -0.13,4.994 m 0.217,15.018 c 1.18,-0.276 2.367,-0.552 3.565,-0.681 0.024,-1.349 0.044,-2.699 0.069,-4.048 -1.255,0.24 -2.553,0.255 -3.835,0.295 0.043,1.482 0.112,2.959 0.201,4.434 m 1.19,10.736 c 0.155,-1.016 0.607,-2.058 0.949,-2.963 0.397,-1.05 0.856,-2.093 1.451,-3.049 -0.065,-0.092 -0.113,-0.202 -0.111,-0.347 0.018,-1.423 0.048,-2.846 0.072,-4.268 -1.138,0.311 -2.319,0.49 -3.493,0.669 0.223,3.342 0.583,6.665 1.132,9.958 m 2.947,-50.056 c -0.507,-0.098 -1.007,-0.236 -1.523,-0.304 -0.725,-0.096 -1.445,-0.075 -2.166,0.002 -0.003,1.223 -0.019,2.448 -0.04,3.674 1.148,-0.042 2.342,-0.159 3.498,-0.104 0.052,-1.096 0.12,-2.188 0.231,-3.268 m 3.366,48.07 c 0.452,-0.824 0.957,-1.615 1.551,-2.348 0.489,-0.602 1.063,-1.317 1.728,-1.81 -2.63,-0.571 -5.344,-0.752 -6.026,0.594 -0.088,0.173 -0.323,0.208 -0.498,0.134 -0.404,0.992 -0.836,1.972 -1.197,2.982 -0.367,1.023 -0.553,2.178 -1.012,3.169 1.499,-1.445 3.411,-2.326 5.454,-2.721 m 5.722,0.121 c 0.711,-0.976 1.526,-1.997 2.449,-2.805 -0.828,-0.333 -2.339,-0.851 -3.995,-1.265 -0.559,0.682 -1.296,1.232 -1.877,1.902 -0.515,0.592 -0.952,1.238 -1.359,1.904 1.583,-0.187 3.216,-0.084 4.782,0.264 m 4.635,1.962 0.991,-1.075 c 0.349,-0.378 0.686,-0.784 1.059,-1.145 -1.077,-0.798 -2.213,-1.536 -3.393,-2.145 -0.475,0.393 -0.959,0.777 -1.401,1.204 -0.447,0.429 -0.863,0.885 -1.268,1.353 1.447,0.389 2.816,0.998 4.012,1.808 m 4.206,4.562 c 0.735,-0.872 1.625,-1.775 2.636,-2.382 -0.93,-1.081 -1.965,-2.09 -3.057,-3.027 -0.339,-0.291 -0.691,-0.575 -1.048,-0.856 -0.38,0.41 -0.802,0.787 -1.21,1.163 -0.334,0.308 -0.668,0.617 -1.002,0.925 1.495,1.132 2.734,2.566 3.681,4.177 m 1.855,4.922 c 1.102,-1.143 2.228,-2.31 3.47,-3.261 -0.551,-1.152 -1.247,-2.239 -2.049,-3.263 -0.378,0.233 -0.759,0.461 -1.12,0.72 -0.646,0.463 -1.246,0.979 -1.809,1.54 0.703,1.341 1.214,2.782 1.508,4.264 m 0.167,8.011 c 0.833,-0.835 1.664,-1.669 2.508,-2.493 0.722,-0.704 1.436,-1.553 2.236,-2.232 -0.071,-0.105 -0.121,-0.231 -0.116,-0.397 0.065,-1.941 -0.317,-3.734 -1.001,-5.397 -1.084,1.219 -2.391,2.307 -3.639,3.378 0.341,2.235 0.494,5.368 -0.866,7.241 0.291,-0.043 0.586,-0.065 0.878,-0.1 m 7.361,-0.292 c 0.013,-0.486 0.07,-0.975 0.109,-1.446 0.059,-0.696 0.136,-1.391 0.229,-2.084 -0.672,-0.07 -1.346,-0.131 -2.018,-0.208 -0.035,-0.004 -0.051,-0.028 -0.082,-0.037 -0.763,0.785 -1.726,1.453 -2.525,2.14 -0.713,0.614 -1.437,1.216 -2.156,1.822 2.124,-0.201 4.281,-0.228 6.443,-0.187 m 5.574,0.203 c -0.026,-0.208 -0.047,-0.418 -0.075,-0.626 -0.091,-0.679 -0.155,-1.361 -0.22,-2.043 -0.038,-0.4 0.629,-0.492 0.705,-0.096 0.129,0.674 0.259,1.346 0.362,2.025 0.04,0.257 0.091,0.514 0.125,0.771 1.056,0.043 2.112,0.089 3.153,0.108 0.458,0.009 0.915,0.012 1.372,0.02 -0.251,-1.017 -0.402,-2.052 -0.531,-3.092 -3.083,-0.175 -6.16,-0.403 -9.227,-0.707 0.024,1.101 0.033,2.345 -0.162,3.464 1.502,0.044 3.004,0.112 4.498,0.176 m 6.392,0.173 c 1.519,0.026 3.038,0.041 4.557,0.062 -0.326,-0.943 -0.476,-1.954 -0.585,-2.944 -1.466,-0.052 -2.933,-0.093 -4.396,-0.169 0.194,1.01 0.359,2.025 0.424,3.051 m 5.383,0.074 c 3.094,0.041 6.188,0.056 9.282,0.078 -0.177,-0.932 -0.23,-1.906 -0.277,-2.861 -1.315,-0.003 -2.63,-0.003 -3.944,-0.021 0.294,0.735 0.347,1.547 0.031,2.313 -0.172,0.416 -0.735,0.261 -0.671,-0.185 0.106,-0.734 0.091,-1.454 -0.119,-2.144 -1.64,-0.026 -3.279,-0.053 -4.916,-0.105 0.171,0.984 0.436,1.945 0.614,2.925 m 10.053,0.084 c 1.347,0.009 2.694,0.032 4.042,0.034 0.217,0.001 0.434,-10e-4 0.652,0 -0.153,-0.022 -0.296,-0.124 -0.339,-0.287 -0.131,-0.495 -0.029,-1 -0.035,-1.507 -0.004,-0.382 -0.049,-0.758 -0.111,-1.132 -1.5,0.017 -3,0.029 -4.5,0.029 0.146,0.949 0.29,1.917 0.291,2.863 m 9.278,0.027 c -0.413,-0.876 -0.47,-2 -0.415,-3.007 -1.25,0.025 -2.501,0.065 -3.751,0.081 0.236,0.915 0.38,1.977 -0.021,2.743 -0.081,0.154 -0.243,0.211 -0.396,0.19 1.528,0.002 3.055,-0.005 4.583,-0.007 m 0.672,-1.63 c 0.096,0.547 0.291,1.078 0.335,1.629 1.341,-0.002 2.683,-0.023 4.024,-0.028 -0.008,-0.034 -0.021,-0.063 -0.025,-0.1 -0.056,-0.677 0.076,-1.375 0.072,-2.057 -0.002,-0.324 -0.024,-0.646 -0.051,-0.967 -1.498,0.043 -2.995,0.092 -4.493,0.126 0.02,0.467 0.058,0.934 0.138,1.397 m 10.505,1.549 c -0.617,-0.939 -0.756,-2.2 -0.501,-3.269 -1.504,0.053 -3.003,0.119 -4.508,0.165 0.188,1.071 0.222,2.223 -0.118,3.149 1.709,-0.008 3.418,-0.032 5.127,-0.045 m 0.34,-3.242 c -0.08,1.21 0.213,2.154 0.634,3.234 1.483,-0.011 2.966,-0.034 4.449,-0.048 -0.261,-1.059 -0.185,-2.254 -0.002,-3.294 0.01,-0.058 0.033,-0.106 0.063,-0.147 -1.717,0.067 -3.432,0.136 -5.152,0.198 0.002,0.02 0.009,0.036 0.008,0.057 m 6.103,3.175 c 1.377,-0.014 2.753,-0.035 4.129,-0.052 -0.389,-0.965 -0.4,-2.115 -0.492,-3.14 -0.018,-0.204 0.096,-0.349 0.251,-0.428 -1.413,0.055 -2.815,0.112 -4.229,0.167 0.072,0.066 0.118,0.159 0.11,0.277 -0.079,1.102 0.095,2.11 0.231,3.176 m 4.634,-3.327 c 0.176,0.978 0.5,2.108 0.367,3.103 -0.008,0.056 -0.03,0.11 -0.059,0.162 1.856,-0.023 3.712,-0.052 5.568,-0.081 -0.359,-1.186 -0.458,-2.505 -0.64,-3.714 -1.831,0.072 -3.657,0.145 -5.49,0.217 0.125,0.053 0.225,0.152 0.254,0.313 m 6.77,3.171 c 0.921,-0.015 1.841,-0.039 2.761,-0.057 -0.536,-1.161 -0.478,-2.558 -0.293,-3.802 -1.041,0.041 -2.087,0.082 -3.131,0.124 0.263,1.212 0.613,2.491 0.663,3.735 m 3.619,-0.074 c 1.455,-0.029 2.91,-0.052 4.365,-0.09 -0.721,-1.945 -0.72,-3.839 -0.186,-5.598 -0.937,-0.505 -1.733,-1.229 -2.426,-2.035 -0.512,1.027 -0.958,2.1 -1.348,3.21 0.155,-0.027 0.324,0.021 0.435,0.19 0.888,1.356 2.061,2.305 3.178,3.445 0.315,0.321 -0.082,0.803 -0.468,0.607 -1.452,-0.739 -2.573,-2.201 -3.42,-3.565 -0.003,0 -0.005,0 -0.008,0 -0.08,0.093 -0.185,0.135 -0.293,0.145 -0.037,1.239 0.208,2.461 0.171,3.691 m 6.176,-9.318 c -0.642,-0.595 -1.224,-1.254 -1.824,-1.895 -0.302,-0.324 0.156,-0.777 0.484,-0.484 0.639,0.57 1.292,1.124 1.888,1.732 0.876,-0.962 1.912,-1.831 3.052,-2.588 -0.832,-0.614 -1.566,-1.36 -2.219,-2.16 -0.018,-0.023 -0.025,-0.048 -0.038,-0.071 -2.349,1.742 -4.105,3.958 -5.445,6.468 0.737,0.7 1.549,1.294 2.369,1.889 0.406,-1.024 1.007,-1.989 1.733,-2.891 m 7.47,-5.202 c -0.555,-0.732 -1.065,-1.482 -1.547,-2.274 -0.085,-0.139 -0.088,-0.268 -0.045,-0.377 -1.204,0.417 -2.375,0.959 -3.502,1.676 -0.117,0.074 -0.225,0.157 -0.339,0.233 0.748,0.791 1.566,1.495 2.394,2.195 0.961,-0.568 1.985,-1.054 3.039,-1.453 m 4.977,-1.135 c -0.581,-0.829 -1.118,-1.691 -1.746,-2.492 -0.023,-0.03 -0.017,-0.059 -0.03,-0.089 -1.389,0.189 -2.758,0.453 -4.091,0.858 0.048,0.031 0.094,0.07 0.134,0.122 0.594,0.787 1.139,1.578 1.638,2.424 1.347,-0.438 2.73,-0.712 4.095,-0.823 m 5.454,-48.938 c 0.373,-0.012 0.746,-0.024 1.119,-0.036 0.25,-0.008 0.507,-0.028 0.763,-0.029 -0.011,-1.47 -0.006,-2.938 0.01,-4.406 -0.699,0.083 -1.397,0.166 -2.096,0.248 0.098,1.402 0.168,2.809 0.204,4.223 m 1.955,5.348 c -0.031,-1.469 -0.055,-2.937 -0.07,-4.406 -0.257,-10e-4 -0.516,-0.02 -0.766,-0.028 -0.367,-0.012 -0.734,-0.024 -1.101,-0.035 0.029,1.576 0.038,3.156 0.02,4.74 0.052,-0.054 0.119,-0.098 0.212,-0.105 0.552,-0.041 1.129,-0.117 1.705,-0.166 m -1.705,0.817 c -0.098,0.002 -0.166,-0.036 -0.218,-0.087 -0.017,1.281 -0.041,2.563 -0.067,3.843 0.656,-0.19 1.398,-0.255 2.089,-0.178 -0.03,-1.191 -0.055,-2.382 -0.081,-3.573 -0.581,0.005 -1.165,-0.015 -1.723,-0.005 m -4.841,42.729 c 2.062,-0.054 4.037,0.33 5.75,1.207 -0.307,-0.576 -0.555,-1.201 -0.845,-1.764 -0.437,-0.847 -0.917,-1.668 -1.387,-2.497 -1.802,0.113 -3.606,0.214 -5.382,0.42 0.804,0.717 1.514,1.617 1.864,2.634 m 7.995,3.044 c -0.169,0.891 -1.233,0.828 -1.655,0.24 -0.154,0.049 -0.325,0.064 -0.523,-0.008 -4.562,-1.654 -8.805,-1.549 -13.127,0.848 -4.813,2.669 -7.589,7.417 -5.708,12.85 0.125,0.36 -0.082,0.641 -0.366,0.755 -0.085,0.257 -0.29,0.469 -0.604,0.448 -2.94,-0.194 -5.881,-0.353 -8.822,-0.536 -0.165,-0.01 -0.281,-0.079 -0.355,-0.173 -11.398,0.34 -22.794,0.548 -34.2,0.546 -6.891,-10e-4 -13.782,-0.057 -20.671,-0.167 -6.117,-0.098 -12.669,0.325 -18.707,-0.884 -0.023,0.019 -0.045,0.039 -0.068,0.058 -0.149,0.123 -0.34,0.007 -0.35,-0.138 -0.167,-0.036 -0.337,-0.059 -0.503,-0.097 -0.069,-0.016 -0.113,-0.065 -0.158,-0.11 -0.641,0.256 -1.45,-0.394 -1.009,-1.106 2.967,-4.795 -0.564,-12.659 -4.727,-15.494 -4.836,-3.292 -9.889,-2.25 -14.553,0.493 -0.024,0.15 -0.095,0.294 -0.197,0.408 -0.02,0.022 -0.04,0.044 -0.059,0.066 -0.159,0.178 -0.458,0.254 -0.683,0.181 -0.323,-0.105 -0.604,-0.119 -0.841,-0.408 -0.107,-0.13 -0.166,-0.27 -0.187,-0.414 -0.213,-0.078 -0.389,-0.251 -0.447,-0.558 -1.775,-9.391 -1.256,-18.968 -1.206,-28.477 0.055,-10.616 -0.265,-21.283 0.385,-31.883 0.003,-0.054 0.024,-0.093 0.035,-0.14 -0.373,-0.44 -0.019,-1.263 0.695,-1.11 4.311,0.927 9.121,-0.019 12.211,-3.373 3.642,-3.952 3.406,-8.369 2.355,-13.215 -0.149,-0.687 0.552,-1.182 1.095,-0.973 0.018,-0.002 0.03,-0.011 0.048,-0.012 0.073,-0.005 0.147,-0.008 0.22,-0.013 -0.002,-0.31 0.388,-0.583 0.668,-0.299 0.081,0.083 0.162,0.165 0.242,0.247 14.902,-0.977 30.003,-0.343 44.932,-0.616 15.353,-0.281 30.696,-0.812 46.045,-1.259 0.373,-0.01 0.612,0.175 0.743,0.423 0.346,-0.096 0.799,0.227 0.682,0.654 -1.288,4.71 -1.278,10.275 2.098,14.167 4.025,4.64 10.246,4.005 15.668,3.226 0.547,-0.078 0.945,0.246 1.094,0.643 0.18,0.068 0.329,0.229 0.352,0.484 1.041,11.172 0.722,22.552 0.895,33.766 0.158,10.226 1.188,20.867 -0.737,30.96"
         style="fill:#1d1d1b;fill-opacity:1;fill-rule:nonzero;stroke:none"
         id="path158"
         inkscape:connector-curvature="0" /></g><g
       id="g160"
       transform="translate(633.30014,145.60914)"><path
         d="M 0,0 C -0.066,1.47 0.166,4.298 -1.316,5.209 -2.701,6.061 -3.958,4.866 -4.373,3.557 -4.885,1.941 -4.859,0.173 -4.489,-1.487 c -2.272,-0.039 -5.798,-0.45 -4.438,-2.751 1.132,-1.914 4.739,-1.725 6.901,-1.064 0.355,-0.205 0.787,-0.266 1.161,-0.018 C 0.638,-4.323 0.07,-1.548 0,0"
         style="fill:#1d1d1b;fill-opacity:1;fill-rule:nonzero;stroke:none"
         id="path162"
         inkscape:connector-curvature="0" /></g><g
       id="g164"
       transform="translate(626.54474,69.930739)"><path
         d="m 0,0 c -0.071,0.288 -0.25,0.551 -0.559,0.723 -2.813,1.566 -5.85,2.345 -9.075,2.218 -0.729,-0.028 -1.472,-0.768 -1.18,-1.548 0.822,-2.195 2.559,-3.152 4.567,-3.65 -1.055,-1.606 -1.615,-3.66 0.483,-4.262 2.636,-0.757 5.268,3.903 5.925,5.881 C 0.245,-0.385 0.16,-0.158 0,0"
         style="fill:#1d1d1b;fill-opacity:1;fill-rule:nonzero;stroke:none"
         id="path166"
         inkscape:connector-curvature="0" /></g><g
       id="g168"
       transform="translate(736.97304,150.80794)"><path
         d="m 0,0 c -1.816,0.421 -3.54,0.223 -5.107,-0.526 -0.434,1.594 -1.101,3.116 -2.037,4.492 -0.482,0.708 -1.32,0.793 -1.965,0.253 -1.083,-0.906 -1.066,-2.301 -0.705,-3.565 0.474,-1.658 1.203,-3.322 2.003,-4.874 0.011,-0.346 0.165,-0.664 0.487,-0.868 0.15,-0.17 0.338,-0.229 0.523,-0.197 3.033,-0.549 5.954,0.718 7.59,3.346 C 1.227,-1.236 0.818,-0.19 0,0"
         style="fill:#1d1d1b;fill-opacity:1;fill-rule:nonzero;stroke:none"
         id="path170"
         inkscape:connector-curvature="0" /></g><g
       id="g172"
       transform="translate(735.97704,69.602139)"><path
         d="M 0,0 C -1.528,0.725 -3.465,1.644 -5.182,1.508 -5.33,1.497 -5.465,1.449 -5.591,1.386 -5.827,1.613 -6.295,1.602 -6.488,1.287 c -1.321,-2.159 -1.826,-7.216 0.844,-8.685 1.096,-0.603 2.416,-0.169 2.904,1.003 0.308,0.738 0.262,1.613 0.1,2.49 1.887,-0.706 4.038,-0.865 4.673,1.116 C 2.506,-1.312 1.13,-0.536 0,0"
         style="fill:#1d1d1b;fill-opacity:1;fill-rule:nonzero;stroke:none"
         id="path174"
         inkscape:connector-curvature="0" /></g><g
       id="g176"
       transform="translate(289.12664,61.739739)"><path
         d="M 0,0 C -0.416,0.105 -0.847,-0.478 -0.456,-0.783 1.102,-2 3.104,-3.147 2.785,-5.504 2.305,-9.045 -2.564,-7.944 -4.226,-6.248 -7.004,-3.414 -7.145,1.425 -7.055,5.21 -7.039,5.208 -7.026,5.216 -7.011,5.216 -6.894,5.115 -6.734,5.062 -6.533,5.119 -3.732,5.916 0.321,8.056 3.276,7.295 8.41,5.971 6.198,-1.347 1.172,-0.301 1.079,-0.281 1,-0.298 0.93,-0.327 0.639,-0.195 0.33,-0.084 0,0 m -102.188,4.036 c -15.771,0.082 -31.542,0.152 -47.313,0.274 -15.084,0.116 -30.632,1.379 -45.701,0.296 -0.001,0.03 -0.001,0.063 -0.002,0.093 -0.004,0.068 -0.038,0.106 -0.08,0.132 0.917,27.413 -1.153,54.942 -0.469,82.377 0.171,6.862 0.458,13.722 0.896,20.572 0.306,4.794 1.24,9.915 1.314,14.869 16.388,-0.968 33.053,-0.007 49.463,0.08 16.666,0.087 33.332,0.174 49.998,0.318 0.109,0.001 0.199,0.03 0.278,0.072 14.21,-1.045 28.65,-0.419 42.89,-0.491 14.369,-0.073 28.751,-0.293 43.12,-0.122 -2.063,-19.077 -2.342,-38.487 -2.3,-57.653 0.043,-19.495 0.774,-39.014 2.486,-58.436 -31.476,-1.849 -63.05,-2.544 -94.58,-2.381 M -199.49,-6.07 c -1.239,-1.263 -3.062,-2.479 -4.906,-2.343 -4.759,0.352 -1.742,5.197 0.628,6.218 0.61,0.263 0.175,1.271 -0.451,1.071 -0.108,-0.034 -0.204,-0.088 -0.308,-0.129 -0.002,0 -0.004,0.002 -0.006,10e-4 -2.337,-0.775 -5.082,0.229 -4.77,2.983 0.378,3.343 4.013,2.59 6.495,2.22 2.269,-0.339 4.695,-0.538 6.948,-0.028 0.013,-10e-4 0.027,-0.003 0.04,-0.004 0.024,-0.307 0.04,-0.616 0.064,-0.922 -0.475,-3.266 -1.446,-6.733 -3.734,-9.067 m 4.247,129.94 c -2.825,-0.5 -5.671,-1.04 -8.537,-0.597 -1.813,0.281 -4.512,0.833 -4.628,3.331 -0.083,1.786 1.347,2.718 2.672,3.497 0.538,-0.168 1.092,-0.14 1.575,0.216 0.363,0.267 0.334,0.82 -0.127,0.968 -0.942,0.302 -2.001,0.166 -2.417,1.333 -0.179,0.503 -0.09,1.08 0.158,1.581 0.131,-0.022 0.274,10e-4 0.42,0.113 2.935,2.253 6.989,0.977 9.091,-1.775 1.86,-2.436 2.151,-5.661 2.074,-8.679 -0.086,0.022 -0.179,0.03 -0.281,0.012 m 189.43,11.229 c 0.107,-0.01 0.222,0.017 0.324,0.107 1.22,1.063 2.93,1.492 4.222,0.274 1.119,-1.057 0.948,-2.283 0.844,-3.587 -0.2,-0.343 -0.365,-0.699 -0.485,-1.054 -0.198,-0.586 0.635,-0.865 0.951,-0.401 0.587,0.864 1.096,1.649 2.036,2.154 2.052,1.102 3.91,-0.866 3.374,-2.936 -0.467,-1.8 -2.305,-3.434 -3.824,-4.399 -2.373,-1.507 -5.278,-2.155 -8.085,-2.127 0.012,0.275 -0.14,0.544 -0.436,0.637 0.004,0.087 0.008,0.175 0.011,0.263 0.003,0.077 -0.016,0.137 -0.043,0.189 -0.097,3.859 -0.471,7.331 1.111,10.88 M 7.158,5.373 c -2.23,5.541 -9.53,2.401 -13.597,0.951 -0.041,0.038 -0.071,0.085 -0.127,0.106 -1.359,19.454 -2.283,38.917 -2.315,58.423 -0.032,19.277 1.17,38.443 1.939,57.686 0.113,0.027 0.212,0.072 0.286,0.142 2.894,-0.641 5.502,-0.531 8.267,0.96 2.36,1.272 5.001,3.575 5.338,6.411 0.222,1.871 -0.757,3.996 -2.747,4.4 -1.319,0.267 -2.565,-0.279 -3.521,-1.171 0.057,0.393 0.076,0.79 0.006,1.194 -0.177,1.026 -0.802,1.933 -1.675,2.494 -1.281,0.823 -3.009,0.742 -4.192,-0.131 -0.075,0.034 -0.162,0.039 -0.233,-0.032 -3.238,-3.24 -3.366,-8.651 -2.5,-12.98 -14.327,0.279 -28.671,0.17 -43.001,0.208 -14.153,0.037 -28.499,0.762 -42.633,-0.149 -0.076,0.203 -0.252,0.363 -0.535,0.362 -16.666,-0.066 -33.332,-0.189 -49.998,-0.312 -16.415,-0.121 -33.097,0.63 -49.476,-0.545 -0.004,1.394 -0.066,2.777 -0.253,4.129 -0.816,5.902 -7.009,12.413 -12.981,7.926 -0.067,-0.051 -0.112,-0.111 -0.154,-0.173 -0.84,-0.605 -1.337,-1.59 -1.088,-2.748 0.123,-0.572 0.546,-1.216 1.099,-1.712 -2.468,-1.196 -3.982,-4.314 -1.967,-6.761 3.036,-3.686 9.944,-2.381 13.891,-1.379 -0.275,-5.294 -0.926,-10.577 -1.263,-15.871 -0.748,-11.746 -1.019,-23.52 -1.056,-35.289 -0.07,-22.068 -0.212,-44.518 1.437,-66.562 -1.924,0.103 -3.841,-0.073 -5.769,0.14 -1.64,0.181 -3.317,0.754 -4.983,0.655 -1.992,-0.119 -3.576,-1.461 -4.053,-3.394 -0.696,-2.819 1.626,-5.145 4.092,-5.096 -2.353,-2.719 -2.13,-7.438 2.664,-7.07 6.745,0.517 8.822,8.046 8.757,13.662 14.672,-1.618 29.974,-0.727 44.695,-0.865 16.1,-0.15 32.2,-0.273 48.3,-0.198 31.54,0.146 63.052,0.391 94.532,2.537 -0.729,-5.152 0.199,-15.15 7.454,-14.547 4.706,0.391 5.261,5.395 2.562,7.944 3.382,-0.089 6.221,3.117 4.798,6.655"
         style="fill:#1d1d1b;fill-opacity:1;fill-rule:nonzero;stroke:none"
         id="path178"
         inkscape:connector-curvature="0" /></g><g
       id="g180"
       transform="translate(281.71294,185.10084)"><path
         d="M 0,0 C 0.018,0 0.018,0.028 0,0.028"
         style="fill:none;stroke:#1d1d1b;stroke-width:0.80000001;stroke-linecap:round;stroke-linejoin:round;stroke-miterlimit:4;stroke-dasharray:none;stroke-opacity:1"
         id="path182"
         inkscape:connector-curvature="0" /></g><g
       id="g184"
       transform="translate(104.61934,180.63044)"><path
         d="M 0,0 C -1.218,0.193 -2.435,0.39 -3.654,0.573 -4.39,0.684 -5.345,0.987 -6.02,0.511 -6.654,0.063 -6.636,-0.684 -6.662,-1.382 c -0.047,-1.266 -0.163,-2.53 -0.176,-3.797 -0.006,-0.638 1.016,-0.812 1.142,-0.154 0.13,0.68 0.225,1.366 0.318,2.052 0.077,0.565 0.159,1.129 0.258,1.69 0.027,0.155 0.168,0.703 0.086,0.653 0.082,0.05 1.705,-0.355 2.042,-0.411 0.835,-0.139 1.671,-0.276 2.506,-0.414 C 0.667,-1.953 1.158,-0.184 0,0"
         style="fill:#1d1d1b;fill-opacity:1;fill-rule:nonzero;stroke:none"
         id="path186"
         inkscape:connector-curvature="0" /></g><g
       id="g188"
       transform="translate(102.04524,71.450439)"><path
         d="m 0,0 c -1.201,0.004 -2.413,-0.157 -3.597,-0.407 0.08,1.205 0.205,2.392 0.422,3.607 0.152,0.855 -0.963,1.144 -1.284,0.354 -0.657,-1.617 -1.046,-3.463 -1.153,-5.205 -0.04,-0.64 0.648,-1.082 1.223,-0.932 1.455,0.381 2.893,0.546 4.389,0.652 1.227,0.086 1.257,1.927 0,1.931"
         style="fill:#1d1d1b;fill-opacity:1;fill-rule:nonzero;stroke:none"
         id="path190"
         inkscape:connector-curvature="0" /></g><g
       id="g192"
       transform="translate(279.26554,71.708439)"><path
         d="m 0,0 c -0.267,0.984 -0.473,1.976 -0.563,2.993 -0.071,0.807 0.118,1.644 -0.559,2.208 -0.29,0.241 -0.63,0.243 -0.922,0 C -2.799,4.57 -2.521,3.483 -2.421,2.606 -2.346,1.954 -2.23,1.312 -2.093,0.673 -3.328,0.625 -4.56,0.485 -5.768,0.233 c -0.806,-0.168 -0.641,-1.531 0.197,-1.455 1.566,0.142 3.096,0.17 4.662,0.029 C -0.287,-1.249 0.149,-0.547 0,0"
         style="fill:#1d1d1b;fill-opacity:1;fill-rule:nonzero;stroke:none"
         id="path194"
         inkscape:connector-curvature="0" /></g><g
       id="g196"
       transform="translate(278.34374,182.93094)"><path
         d="m 0,0 c -1.962,0.263 -3.99,0.308 -5.965,0.191 -0.832,-0.049 -0.819,-1.212 0,-1.284 1.592,-0.141 3.158,-0.356 4.73,-0.599 -0.531,-1.662 -1.033,-3.719 -0.393,-5.191 0.232,-0.533 1.127,-0.503 1.368,0 0.417,0.869 0.324,1.798 0.458,2.741 0.142,1.006 0.396,1.989 0.705,2.956 C 1.11,-0.541 0.568,-0.076 0,0"
         style="fill:#1d1d1b;fill-opacity:1;fill-rule:nonzero;stroke:none"
         id="path198"
         inkscape:connector-curvature="0" /></g><g
       id="g200"
       transform="translate(301.97474,253.82444)"><path
         d="M 0,0 C -0.507,0.916 -0.923,1.84 -1.261,2.768 -1.05,2.767 -0.84,2.778 -0.627,2.764 -0.543,2.556 -0.367,2.387 -0.061,2.332 3.263,1.739 6.403,0.685 9.298,-1.086 12.35,-2.954 16.699,-6.223 17.264,-10.07 9.789,-11.778 3.453,-6.239 0,0 M -3.392,4.195 C -5.848,3.859 -8.183,2.46 -9.874,0.492 c -0.444,0.158 -0.905,0.291 -1.396,0.369 -3.683,0.581 -7.939,-1.703 -8.771,-5.266 -0.471,0.056 -0.961,-0.203 -0.904,-0.803 0.077,-0.818 0.151,-1.636 0.228,-2.453 -2.622,2.413 -6.19,3.08 -9.951,3.307 -8.97,0.542 -18.073,0.219 -27.055,0.228 -18.595,0.018 -37.19,0.075 -55.785,0.085 -18.29,0.01 -36.588,-0.094 -54.874,0.357 -12.981,0.32 -29.083,2.465 -39.742,-6.318 0.449,5.879 -6.68,11.283 -12.647,8.512 -0.205,-0.096 -0.39,-0.224 -0.585,-0.336 -0.961,1.167 -2.777,2.967 -4.499,3.784 1.036,3.688 1.283,7.596 0.671,11.136 -0.245,1.418 -0.803,2.848 -1.581,4.136 0.426,0.379 0.815,0.793 1.148,1.245 2.425,3.293 2.17,7.772 -0.382,10.907 -2.457,3.018 -6.059,4.176 -9.775,4.357 2.821,1.47 3.898,5.319 4.411,8.31 1.171,6.833 1.358,13.974 1.621,20.891 0.348,9.151 2.46,23.341 -4.97,30.383 2.15,-0.528 4.323,-0.463 6.234,1.123 2.622,2.176 3.661,6.094 2.987,9.358 -0.203,0.986 -0.585,1.926 -1.084,2.801 2.919,3.176 3.46,8.581 2.646,12.686 -0.146,0.733 -0.341,1.458 -0.568,2.173 1.967,0.718 3.909,1.873 5.55,3.327 0.78,-0.824 1.684,-1.476 2.682,-1.847 6.471,-2.407 11.947,2.974 12.754,9.029 9.033,-9.577 25.327,-6.472 37.234,-6.354 18.917,0.186 37.802,-1.044 56.678,-2.13 18.83,-1.084 37.72,-1.989 56.579,-1.155 7.703,0.341 15.796,0.46 23.34,2.218 4.756,1.108 8.609,3.314 10.661,7.441 0.102,-0.769 0.303,-1.5 0.502,-1.994 1.327,-3.29 4.671,-5.487 8.117,-5.947 1.436,-0.191 2.914,0.01 4.312,0.491 1.179,-1.567 3.854,-3.037 6.019,-3.845 -1.487,-4.521 -1.79,-9.594 0.899,-12.474 -0.167,-0.309 -0.309,-0.611 -0.42,-0.901 -1.157,-3.039 -1.19,-6.51 1.023,-9.081 C 2.49,97.012 3.987,96.13 5.572,95.781 3.692,94.278 2.638,91.885 2.221,89.206 0.938,80.963 1.947,71.897 1.915,63.563 1.881,54.823 1.301,45.881 1.903,37.161 2.146,33.625 3.056,30.298 5.403,28.139 4.522,28.057 3.641,27.784 2.843,27.28 0.244,25.639 -1.224,22.452 -0.96,19.413 -0.888,18.577 -0.666,17.788 -0.339,17.056 -3.905,13.788 -4.568,8.974 -3.392,4.195 M -5.791,-9.576 c -0.067,0.009 -0.138,0.011 -0.213,-0.003 -2.525,-0.475 -4.674,1.005 -4.806,3.651 -0.079,1.593 0.613,3.193 1.555,4.52 2.701,-1.596 3.844,-5.102 3.464,-8.168 m -217.037,-3.225 c -0.002,-10e-4 -0.003,-0.003 -0.005,-0.004 -1.168,0.391 -1.085,4.037 -0.998,4.486 0.172,0.883 0.518,1.771 0.986,2.538 0.338,0.557 0.752,1.044 1.218,1.464 1.651,-2.909 2.098,-6.471 -1.201,-8.484 m 5.401,149.107 c 0.038,-0.038 0.074,-0.079 0.123,-0.108 2.208,-1.303 -0.355,-6.705 -1.61,-8.636 -1.547,2.666 -1.273,6.366 1.487,8.744 M -4.909,130.99 c 0.637,1.983 1.752,3.895 3.605,4.819 0.296,-3.659 -0.629,-7.285 -3.781,-8.994 -0.007,0.03 -0.008,0.059 -0.015,0.088 0.072,0.117 0.156,0.234 0.265,0.353 0.308,0.333 -0.027,0.882 -0.431,0.762 -0.079,0.941 0.011,1.895 0.357,2.972 M -232.788,-6.651 c -1.798,-1.767 -3.978,-3.219 -6.443,-3.874 -2.664,-1.221 -4.051,-0.08 -4.16,3.423 0.67,1.176 1.489,2.232 2.457,3.168 3.455,3.392 7.95,4.668 12.62,4.387 -0.986,-2.648 -2.437,-5.104 -4.474,-7.104 m 0.61,23.367 c -1.29,-0.097 -5.622,0.346 -3.78,3.292 0.124,0.198 0.125,0.395 0.062,0.569 2.937,1.015 5.203,-0.462 6.754,-2.869 -0.916,-0.557 -1.96,-0.912 -3.036,-0.992 m -3.861,91.512 c 0,0.001 0.002,0.002 0.002,0.004 0.459,1.235 3.774,0.982 4.741,0.457 0.911,-0.495 1.683,-1.174 2.331,-1.97 -2.697,-1.956 -5.055,-1.453 -7.074,1.509 m 7.163,14.255 c -3.617,-0.234 -14.861,1.016 -16.975,5.504 -0.624,7.258 8.567,4.711 11.612,2.941 2.833,-1.647 5.186,-4.241 6.717,-7.121 0.188,-0.354 0.364,-0.714 0.53,-1.08 -0.622,-0.113 -1.25,-0.204 -1.884,-0.244 M 3.57,124.756 c 1.635,2.561 3.796,4.417 6.289,6.115 0.86,0.586 1.755,1.118 2.65,1.648 0.045,0.026 5.77,2.733 4.5,0.48 -0.084,-0.148 -0.056,-0.298 0.026,-0.408 -1.234,-3.849 -4.359,-6.711 -7.894,-8.717 -1.999,-1.134 -4.259,-2.02 -6.6,-2.005 -0.095,0.001 -0.25,0.021 -0.45,0.057 0.431,1.008 0.928,1.968 1.479,2.83 m 9.12,-12.579 c -0.662,-1.918 -1.421,-3.464 -3.58,-4.161 -0.923,-0.297 -1.966,-0.347 -2.927,-0.265 -0.254,0.022 -1.579,0.265 -2.742,0.688 -0.119,0.102 -0.21,0.22 -0.321,0.328 2.156,3.22 6.239,5.907 9.57,3.41 M 5.425,17.411 C 6.288,17.391 9.551,16.923 8.737,15.396 8.735,15.394 8.736,15.391 8.734,15.388 7.607,14.852 6.492,14.527 5.121,14.789 c -1.272,0.244 -2.358,0.888 -3.123,1.824 1.147,0.403 2.178,0.826 3.427,0.798 M 12.584,-1.238 C 9.03,1.54 4.844,3.297 0.402,4.014 0.226,4.042 0.074,4.011 -0.066,3.958 c -0.551,0.16 -1.108,0.27 -1.667,0.307 -1.065,4.046 -0.48,8.099 2,11.697 0.778,-1.14 1.882,-2.047 3.252,-2.564 2.378,-0.898 5.807,-0.648 7.218,1.734 0.304,0.512 -0.231,1.055 -0.741,0.892 -0.02,1.032 -0.905,2.019 -1.909,2.485 C 6.185,19.391 3.484,19.295 1.665,18.172 1.57,18.315 1.39,18.395 1.205,18.274 1.178,18.256 1.157,18.236 1.131,18.219 c -0.054,0.156 -0.117,0.307 -0.156,0.472 -1.159,4.859 3.868,10.256 8.48,6.69 0.344,-0.266 0.931,0.067 0.656,0.505 -0.137,0.219 -0.302,0.401 -0.462,0.587 0.049,0.175 0.005,0.366 -0.2,0.457 -0.243,0.108 -0.456,0.237 -0.68,0.359 -0.203,0.142 -0.418,0.256 -0.637,0.364 -5.317,3.458 -4.558,11.02 -4.533,16.702 0.027,5.762 0.036,11.525 0.047,17.287 0.012,5.442 0.023,10.884 0.035,16.326 0.012,5.764 -1.629,16.241 5.865,17.848 0.324,0.069 0.493,0.33 0.533,0.616 0.04,0.023 0.081,0.042 0.12,0.066 0.476,0.301 0.341,1.24 -0.314,1.162 -2.319,-0.276 -4.761,-0.541 -6.64,1.174 -2.271,2.073 -2.224,5.25 -1.196,7.922 0.047,0.122 0.109,0.245 0.163,0.368 0.697,-0.423 1.503,-0.76 2.459,-0.968 0.334,-0.073 0.621,0.135 0.738,0.401 0.854,-0.213 1.591,-0.33 1.96,-0.333 3.198,-0.021 7.693,2.671 6.674,6.418 -0.09,0.328 -0.373,0.461 -0.646,0.431 -2.977,3.907 -8.437,0.572 -11.339,-3.033 -0.094,0.142 -0.207,0.275 -0.291,0.422 -0.002,0.074 -0.03,0.141 -0.092,0.184 -1.478,2.76 -1.284,6.32 -0.232,9.575 0.435,-0.107 0.815,-0.17 1.098,-0.171 6.736,-0.027 16.734,6.619 16.146,14.086 -0.024,0.307 -0.272,0.522 -0.54,0.594 -0.215,0.414 -0.622,0.773 -1.22,1.02 -1.868,0.772 -4.531,-1.375 -5.931,-2.189 -2.518,-1.463 -4.954,-3.073 -6.931,-5.238 -1.271,-1.391 -2.56,-3.56 -3.545,-6.01 -1.648,0.482 -3.843,1.325 -5.022,2.372 0.018,0.096 0.019,0.198 -0.022,0.308 -0.023,0.063 -0.042,0.122 -0.064,0.184 4.234,2.192 7.14,7.057 4.496,11.72 -0.201,0.353 -0.7,0.398 -1.015,0.205 -3.68,0.943 -6.439,-6.371 -5.543,-10.654 -0.021,-0.091 -0.032,-0.183 -0.037,-0.275 -0.248,-0.07 -0.5,-0.137 -0.769,-0.187 -2.153,-0.404 -4.377,-0.003 -6.277,1.096 -1.107,0.639 -2.177,1.556 -2.886,2.642 -0.601,0.921 -2.263,4.626 -0.425,5.064 0.434,0.104 0.33,0.757 -0.103,0.764 -0.487,0.009 -0.86,-0.12 -1.146,-0.342 -0.363,0.286 -1.003,0.241 -1.191,-0.339 -2.856,-8.788 -13.2,-9.192 -20.892,-9.858 -7.767,-0.673 -15.561,-0.997 -23.355,-1.083 -15.956,-0.175 -31.896,0.657 -47.822,1.529 -15.626,0.855 -31.257,1.804 -46.91,1.972 -7.627,0.082 -15.228,-0.25 -22.85,-0.366 -8.137,-0.124 -16.634,0.929 -22.138,7.419 -0.036,0.402 -0.09,0.803 -0.172,1.2 -0.14,0.68 -1.189,0.651 -1.347,0 -0.001,-0.006 -0.003,-0.013 -0.004,-0.019 -0.517,-0.079 -0.946,-0.58 -0.569,-1.145 0.078,-0.119 0.164,-0.226 0.244,-0.342 -0.885,-4.353 -1.596,-9.423 -7.188,-9.854 -2.174,-0.167 -3.946,0.54 -5.209,1.713 2.681,2.961 4.081,6.825 2.408,10.801 -0.171,0.406 -0.436,0.638 -0.883,0.672 l -0.194,0.015 c -0.027,0.271 -0.204,0.511 -0.536,0.468 -5.934,-0.768 -5.949,-7.491 -3.15,-11.795 -1.416,-1.422 -3.173,-2.411 -5.079,-3.014 -2.117,5.042 -6.239,9.276 -11.496,10.969 -4.711,1.518 -13.258,-0.418 -10.55,-7.089 0.133,-0.328 0.384,-0.482 0.637,-0.498 2.62,-5.315 14.63,-6.456 19.172,-5.834 0.356,0.049 0.717,0.119 1.08,0.201 0.658,-1.942 1.007,-3.991 0.944,-6.035 -0.057,-1.837 -0.393,-3.855 -1.293,-5.502 -0.324,-0.437 -0.648,-0.875 -0.971,-1.313 -1.228,1.461 -2.857,2.581 -4.72,3.071 -2.349,0.618 -5.572,0.064 -5.129,-2.922 0.005,-0.032 0.02,-0.053 0.028,-0.083 -1.887,-2.303 4.576,-4.39 6.509,-3.997 1.096,0.223 2.037,0.643 2.863,1.189 0.845,-1.627 1.123,-3.517 0.728,-5.347 -0.374,-1.725 -1.348,-3.72 -2.92,-4.66 -2.274,-1.36 -4.979,-0.579 -7.329,0.062 -0.147,0.081 -0.287,0.167 -0.44,0.243 -1.06,0.532 -1.997,-1.065 -0.932,-1.595 10.369,-5.156 7.724,-21.5 7.35,-31.104 -0.195,-5.005 -0.526,-10.003 -0.962,-14.993 -0.495,-5.655 -0.905,-10.051 -5.163,-14.054 -0.048,-0.046 -0.077,-0.094 -0.098,-0.144 -0.006,0 -0.013,0 -0.02,0 -0.727,-0.03 -0.733,-1.121 0,-1.135 4.952,-0.093 10.95,-1.944 12.073,-7.52 0.47,-2.333 -0.42,-4.72 -2.069,-6.351 -2.315,2.789 -5.739,4.324 -8.992,2.293 -0.089,-0.032 -0.175,-0.081 -0.254,-0.158 -0.01,-0.01 -0.017,-0.021 -0.027,-0.031 -0.414,-0.286 -0.825,-0.624 -1.23,-1.033 -0.181,-0.183 0.06,-0.525 0.285,-0.368 0.042,0.029 0.083,0.052 0.125,0.08 -0.536,-1.755 0.898,-3.546 2.816,-4.211 2.23,-0.773 4.77,-0.357 6.832,0.824 1.197,-2.59 1.737,-5.732 1.573,-8.08 -0.134,-1.907 -0.455,-3.829 -0.978,-5.69 -0.046,-0.004 -0.095,-0.001 -0.141,-0.009 -0.115,-0.019 -0.248,-0.048 -0.381,-0.086 -6.734,0.568 -15.332,-2.794 -17.486,-9.731 -2.528,-8.142 9.204,-4.611 12.412,-2.175 3.211,2.438 5.546,6.044 6.935,10.021 0.175,-0.084 0.334,-0.164 0.447,-0.235 1.231,-0.779 2.322,-1.776 3.222,-2.924 -2.095,-1.849 -3.284,-4.728 -2.975,-7.527 0.175,-1.586 1.733,-4.593 3.297,-3.7 5.224,0.321 3.94,7.042 2.043,10.602 1.058,0.564 2.268,0.844 3.515,0.786 2.679,-0.125 5.106,-1.734 6.058,-4.289 0.847,-2.271 0.257,-4.286 -0.555,-6.436 -0.379,-1.002 1.044,-1.375 1.585,-0.668 0.459,0.6 0.804,1.214 1.06,1.833 12.615,9.829 30.137,6.858 45.171,6.546 16.002,-0.333 32.011,-0.303 48.015,-0.366 15.985,-0.062 31.97,-0.112 47.956,-0.149 7.872,-0.019 15.744,-0.04 23.616,-0.075 6.556,-0.03 19.409,2.099 23.535,-4.49 0.409,-0.654 1.64,-0.452 1.562,0.423 -0.085,0.947 -0.163,1.894 -0.242,2.841 0.179,0.107 0.315,0.287 0.321,0.538 0.097,4.22 3.693,7.262 7.904,6.138 -0.317,-0.493 -0.608,-1.001 -0.84,-1.538 -0.966,-2.241 -1.112,-5.01 0.505,-6.992 1.333,-1.634 3.717,-2.527 5.611,-1.391 0.028,0.017 0.043,0.039 0.067,0.058 0.183,-0.022 0.377,0.062 0.457,0.302 1.24,3.743 -0.131,8.007 -3.31,10.056 0.026,0.028 0.05,0.06 0.076,0.088 1.48,1.569 3.33,2.486 5.302,2.815 2.991,-9.068 12.303,-17.383 20.739,-13.961 0.163,-0.02 0.328,0.028 0.421,0.164 0.402,0.193 0.38,0.649 0.148,0.942 0.161,3.735 -2.985,6.798 -5.778,8.982"
         style="fill:#1d1d1b;fill-opacity:1;fill-rule:nonzero;stroke:none"
         id="path202"
         inkscape:connector-curvature="0" /></g><g
       id="g204"
       transform="translate(743.24254,688.53704)"><path
         d="m 0,0 c -1.262,-2.444 -4.523,-3.708 -6.96,-2.328 -0.104,0.059 -0.202,0.067 -0.292,0.053 0.968,2.651 1.756,5.356 2.298,8.084 C -2.023,5.164 1.94,3.758 0,0 m -4.363,-9.046 c 0.725,-4.713 -4.877,-7.136 -8.535,-4.927 1.816,2.991 3.441,6.167 4.789,9.453 1.988,-0.871 3.396,-2.255 3.746,-4.526 m -6.166,-13.81 c -1.855,-3.697 -5.97,-1.018 -8.265,0.656 0.626,0.729 1.25,1.46 1.836,2.235 1.118,1.477 2.191,3.034 3.218,4.643 0.024,-0.047 0.048,-0.094 0.085,-0.134 1.899,-2.056 4.734,-4.194 3.126,-7.4 M -75.09,-38.757 c -0.386,0.061 -0.667,-0.163 -0.801,-0.444 -19.124,4.564 -35.577,19.321 -40.759,38.513 -6.303,23.346 1.862,48.935 23.663,60.705 2.313,1.248 4.706,2.295 7.155,3.172 0.161,-0.023 0.3,0.036 0.403,0.144 3.075,1.073 6.24,1.858 9.452,2.376 0.232,-0.121 0.511,-0.061 0.735,0.111 17.617,2.611 36.596,-2.83 50.323,-13.961 4.239,-3.436 7.943,-7.473 10.931,-11.973 0.007,-0.01 0.013,-0.02 0.021,-0.03 3.161,-4.768 5.516,-10.056 6.821,-15.718 2.126,-9.225 0.824,-17.985 -2.385,-26.381 -0.127,-0.112 -0.221,-0.272 -0.241,-0.487 -0.004,-0.054 10e-4,-0.097 0,-0.147 -1.103,-2.794 -2.411,-5.549 -3.875,-8.267 -11.999,-22.273 -37.139,-31.46 -61.443,-27.613 m 55.407,6.078 c -1.198,-1.078 -2.857,-1.279 -4.37,-0.878 -0.561,0.148 -2.006,0.683 -2.961,1.403 -0.236,0.422 -0.531,0.842 -0.889,1.258 -0.008,0.125 10e-4,0.251 0.049,0.379 0.008,0.023 0.003,0.047 10e-4,0.071 2.688,1.895 5.203,4.054 7.502,6.486 10e-4,-0.002 10e-4,-0.003 0.002,-0.004 1.973,-2.483 3.509,-6.156 0.666,-8.715 m -18.273,-3.563 c -0.022,0.065 -0.059,0.109 -0.09,0.163 3.006,1.269 5.896,2.788 8.626,4.566 5.125,-6.308 -5.862,-12.762 -8.536,-4.729 m -2.466,-6.318 c -0.417,-1.336 -1.352,-2.069 -2.806,-2.197 -2.944,-1.922 -5.059,-0.469 -6.346,4.358 0.006,0.485 -0.737,0.642 -0.904,0.226 -0.018,0.109 -0.032,0.219 -0.053,0.327 3.762,0.723 7.444,1.78 10.985,3.161 0.382,-2.102 0.389,-4.052 -0.876,-5.875 m -11.998,-1.853 c -2.976,-6.126 -8.929,-1.398 -9.694,2.766 -0.135,0.73 -1.36,0.741 -1.486,0 -0.29,-1.701 -0.697,-5.104 -2.272,-6.016 -3.728,-2.158 -10.83,0.837 -7.788,6.585 0.105,0.199 0.038,0.374 -0.091,0.478 0.079,-0.013 0.156,-0.028 0.235,-0.039 0.184,-0.025 0.33,0.052 0.43,0.166 7.004,-0.917 14.232,-0.816 21.233,0.383 0.033,-1.472 0.086,-2.978 -0.567,-4.323 m -29.393,-3.426 c -4.235,1.169 -3.272,6.535 -2.39,9.864 2.838,-1.028 5.788,-1.825 8.836,-2.362 -0.452,-3.493 -2.061,-8.712 -6.446,-7.502 m -4.182,8.557 c -2.166,-3.215 -6.352,-6.729 -9.794,-3.923 -3.383,2.757 -2.593,8.162 -0.593,11.529 3.359,-2.321 6.986,-4.279 10.841,-5.795 -0.164,-0.56 -0.319,-1.172 -0.454,-1.811 M -105,-34.799 c -3.859,2.393 -1.623,7.128 0.613,9.698 0.03,0.035 0.042,0.072 0.064,0.108 2.162,-2.198 4.502,-4.221 7.007,-6.03 -1.81,-2.19 -4.619,-5.676 -7.684,-3.776 m -10.434,9.461 c -2.282,3.864 1.538,6.82 3.65,9.445 0.051,0.064 0.087,0.13 0.11,0.197 1.858,-2.927 3.975,-5.676 6.33,-8.203 -2.634,-2.431 -7.606,-5.647 -10.09,-1.439 m -6.773,12.653 c -0.625,3.778 2.777,5.594 5.321,7.508 1.256,-3.375 2.814,-6.612 4.671,-9.657 -3.449,-1.35 -9.166,-2.851 -9.992,2.149 m -5.09,14.647 c -0.834,4.749 3.357,6.525 7.108,7.586 0.371,-4.413 1.284,-8.692 2.641,-12.787 -4.128,-0.726 -8.908,0.41 -9.749,5.201 m 0.125,16.818 c -0.647,2.487 0.243,4.137 2.672,4.95 1.524,0.812 3.137,1.292 4.837,1.439 0.069,0.011 0.128,0.037 0.185,0.067 -0.822,-4.601 -1.109,-9.386 -0.816,-14.266 -0.412,-0.043 -0.821,-0.115 -1.228,-0.198 -3.798,1.101 -5.914,3.738 -5.65,8.008 m 4.694,18.113 c 1.588,0.952 4.698,0.623 6.63,0.496 -1.498,-3.475 -2.644,-7.133 -3.408,-10.932 -0.058,0.073 -0.126,0.137 -0.215,0.18 -2.572,1.244 -11.36,5.248 -3.007,10.256 m 3.727,11.535 c 2.102,4.119 6.466,3.841 9.721,1.39 0.344,-0.259 0.678,-0.123 0.866,0.149 0.01,-0.005 0.02,-0.011 0.03,-0.015 -2.844,-3.4 -5.227,-7.152 -7.104,-11.184 -0.062,0.025 -0.121,0.055 -0.194,0.064 -0.304,0.04 -0.636,0.075 -0.978,0.106 -2.494,2.262 -3.869,6.495 -2.341,9.49 m 9.704,11.273 c 1.393,1.381 3.317,1.968 5.221,1.429 1.969,-0.558 2.823,-1.857 3.862,-3.409 -2.808,-2.117 -5.341,-4.497 -7.596,-7.096 -3.106,1.961 -4.411,6.177 -1.487,9.076 m 14.382,9.487 c 3.272,0.8 4.769,-2.364 6.725,-4.472 0.012,-0.035 0.022,-0.074 0.035,-0.109 0.022,-0.055 0.052,-0.098 0.085,-0.137 -3.748,-1.483 -7.203,-3.322 -10.344,-5.482 -1.361,3.408 -0.877,9.129 3.499,10.2 m 13.213,4.792 c 2.821,-1.109 3.644,-3.831 4.579,-6.411 -2.918,-0.512 -5.794,-1.236 -8.595,-2.195 -0.165,-0.057 -0.319,-0.127 -0.483,-0.185 -0.417,0.641 -0.914,1.294 -1.451,1.916 -0.162,3.855 1.296,8.705 5.95,6.875 m 11.126,2.457 c 4.722,0.516 4.224,-4.717 4.668,-7.97 -2.873,0.026 -5.74,-0.142 -8.575,-0.509 -0.922,3.346 -0.316,8.018 3.907,8.479 m 12.037,-1.295 c 5.408,1.18 4.739,-4.576 4.879,-7.95 -3.409,0.669 -6.862,1.082 -10.316,1.217 0.435,2.948 2.319,6.052 5.437,6.733 m 14.616,-3.702 c 3.886,-1.102 2.951,-5.066 3.201,-8.014 0.005,-0.051 0.021,-0.097 0.036,-0.144 -3.542,1.455 -7.211,2.617 -10.947,3.468 1.512,2.785 4.226,5.679 7.71,4.69 m 5.421,-8.979 c 1.636,2.402 6.549,5.96 9.016,2.504 1.636,-2.292 0.379,-4.857 -0.614,-7.16 -2.705,1.723 -5.552,3.239 -8.494,4.563 0.031,0.03 0.065,0.053 0.092,0.093 m 10.733,-5.093 c 2.414,1.966 5.999,2.397 8.262,-0.092 2.072,-2.279 0.978,-5.208 -1.199,-6.817 -2.501,2.364 -5.199,4.535 -8.079,6.468 0.099,0.167 0.194,0.341 0.287,0.518 0.159,-0.198 0.468,-0.29 0.729,-0.077 m 18.26,-9.099 c 1.128,-2.034 0.725,-4.197 -1.392,-5.39 -0.751,-0.423 -1.552,-0.723 -2.262,-1.168 -1.206,1.756 -2.516,3.443 -3.924,5.043 -0.746,0.848 -1.529,1.664 -2.328,2.465 0.156,-0.062 0.341,-0.057 0.482,0.07 2.869,2.594 7.375,2.678 9.424,-1.02 m 6.568,-10.604 c 1.646,-2.862 -0.105,-4.633 -2.124,-6.142 -0.841,-0.073 -1.643,-0.334 -2.337,-0.856 -1.249,3.318 -2.84,6.512 -4.751,9.51 0.134,0.063 0.272,0.129 0.409,0.194 3.189,0.517 6.982,0.459 8.803,-2.706 M 1.081,26.783 c 1.717,-3.226 -0.654,-6.978 -3.829,-8.045 -0.527,0.078 -1.059,0.14 -1.587,0.19 -0.373,3.554 -1.179,7.038 -2.336,10.403 1.359,0.288 2.479,0.656 3.949,0.28 1.545,-0.395 3.042,-1.397 3.803,-2.828 M 1.659,14.642 C 3.21,10.809 -0.38,7.367 -4.16,7.914 -4.368,7.945 -4.533,7.848 -4.628,7.71 c 0.368,2.331 0.567,4.67 0.545,6.991 -0.009,0.88 -0.052,1.756 -0.112,2.63 2.251,-0.47 4.781,-0.041 5.854,-2.689 M -2.189,6.853 c -0.021,0.007 -0.045,0.01 -0.067,0.017 3.053,0.232 5.615,2.622 5.732,5.962 0.118,3.37 -1.852,4.823 -4.354,5.519 2.976,1.541 4.86,5.129 3.603,8.502 -0.739,1.984 -2.951,3.789 -5.293,4.439 1.789,1.662 2.711,4.154 1.711,6.597 -1.287,3.139 -4.285,4.396 -7.398,4.511 0.375,0.359 0.698,0.754 0.928,1.201 1.014,1.974 0.319,4.521 -0.946,6.205 -2.141,2.85 -5.969,3.541 -8.863,1.974 0.843,1.946 0.651,4.417 -0.656,6.09 -2.531,3.242 -7.082,3.152 -9.973,0.605 1.241,2.962 1.485,6.656 -1.382,8.588 -3.551,2.393 -8.384,-0.812 -10.028,-4.062 -0.039,-0.077 -0.059,-0.151 -0.065,-0.222 -0.088,0.038 -0.174,0.082 -0.262,0.12 0.075,0.05 0.145,0.114 0.199,0.211 1.824,3.265 -0.016,8.553 -3.63,9.702 -3.895,1.238 -7.072,-1.352 -8.806,-4.57 0.557,3.894 -0.939,9.038 -5.652,8.649 -3.198,-0.264 -5.778,-2.776 -6.812,-5.736 -0.34,3.789 -2.129,7.586 -6.659,6.72 -4.636,-0.886 -5.999,-6.191 -4.04,-10.003 -0.078,-0.01 -0.156,-0.018 -0.233,-0.029 -0.999,4.07 -3.89,8.517 -8.509,8.156 -3.831,-0.299 -5.098,-4.086 -4.973,-7.606 -0.598,0.575 -1.212,1.084 -1.802,1.482 -2.027,1.367 -4.312,1.514 -6.378,0.117 -2.925,-1.978 -4.094,-5.888 -3.094,-9.166 -2.492,2.741 -7.699,2.725 -10.296,0.015 -2.144,-2.237 -2.399,-5.362 -1.18,-7.796 -3.184,0.962 -6.967,-0.432 -8.666,-3.55 -1.607,-2.947 -0.886,-7.795 1.591,-10.451 -3.472,0.035 -7.574,-0.704 -8.825,-3.931 -1.568,-4.044 1.857,-6.997 5.081,-8.858 -4.228,-1.181 -8.579,-4.017 -7.464,-8.941 0.709,-3.127 3.111,-6.01 6.078,-7.156 -3.605,-1.434 -6.299,-4.567 -5.285,-8.91 1.055,-4.524 5.72,-6.943 9.972,-5.955 -3.464,-1.878 -6.338,-5.959 -4.483,-9.799 1.654,-3.426 5.041,-3.504 8.199,-2.567 -2.445,-2.687 -3.611,-6.875 -1.169,-9.789 2.551,-3.045 6.016,-2.242 8.781,-0.283 -1.537,-2.867 -1.702,-6.402 1.151,-8.692 2.582,-2.072 5.195,-1.072 7.225,0.828 -0.952,-3.554 -0.367,-7.597 2.713,-9.83 3.557,-2.577 7.608,-0.211 10.096,2.998 -0.284,-3.579 0.562,-7.216 4.676,-7.871 3.572,-0.569 5.522,1.778 6.502,4.674 0.546,-2.19 2.445,-4.093 4.862,-4.83 4.333,-1.321 6.548,1.705 7.619,5.205 1.503,-3.042 4.49,-5.281 8.161,-4.022 2.653,0.909 3.942,3.394 4.171,6.012 0.705,-2.816 3.341,-4.783 6.607,-4.248 3.805,0.623 5.711,3.745 6.036,7.136 4.427,-4.763 12.536,0.188 11.399,5.851 1.646,-1.047 3.65,-1.569 5.564,-1.034 5.465,1.528 5.253,8.909 1.481,12.058 -0.019,0.015 -0.038,0.019 -0.057,0.033 0.014,0.015 0.026,0.033 0.04,0.048 2.64,-2.385 7.404,-5.02 9.897,-0.972 1.56,2.533 0.704,5.837 -1.328,7.873 2.999,-0.573 6.35,0.842 7.56,3.858 0.734,1.826 0.532,3.947 -0.356,5.686 -0.457,0.893 -1.101,1.707 -1.883,2.336 -0.089,0.072 -0.203,0.136 -0.315,0.2 2.934,-0.72 6.27,1.063 7.397,3.965 0.753,1.939 0.197,3.879 -1.318,5.276 -0.723,0.667 -1.612,1.129 -2.532,1.46"
         style="fill:#1d1d1b;fill-opacity:1;fill-rule:nonzero;stroke:none"
         id="path206"
         inkscape:connector-curvature="0" /></g><g
       id="g208"
       transform="translate(746.14494,540.55034)"><path
         d="m 0,0 c -0.425,0.194 -0.81,-0.126 -0.856,-0.473 -0.295,-0.073 -0.555,-0.305 -0.529,-0.635 0.097,-1.216 0.772,-1.622 1.844,-2.119 1.62,-0.751 2.907,-1.348 3.452,-3.206 1.232,-4.201 -3.502,-6.522 -6.845,-4.72 -0.309,0.166 -0.663,-0.101 -0.68,-0.389 -0.273,0.024 -0.555,0.029 -0.847,0.011 -0.918,-0.057 -1.142,-1.349 -0.22,-1.627 1.957,-0.59 3.774,-1.419 4.28,-3.624 0.365,-1.592 -0.287,-3.338 -1.25,-4.579 -1.861,-2.399 -4.813,-2.822 -7.656,-2.677 -0.295,0.113 -0.604,0.204 -0.945,0.243 -0.187,0.022 -0.327,-0.038 -0.432,-0.135 -0.096,0.01 -0.195,0.016 -0.29,0.027 -0.562,0.065 -0.613,-0.78 -0.128,-0.942 0.126,-0.042 0.256,-0.075 0.384,-0.112 0.935,-1.13 2.032,-1.818 2.498,-3.319 0.442,-1.421 0.372,-3.051 -0.44,-4.331 -1.807,-2.851 -6.133,-2.758 -8.317,-0.486 -0.412,0.43 -0.976,-0.025 -0.898,-0.496 -0.185,0.037 -0.372,0.072 -0.579,0.08 -0.475,0.019 -0.811,-0.561 -0.553,-0.963 0.577,-0.893 1.406,-1.476 1.764,-2.522 0.536,-1.563 0.067,-3.14 -1.154,-4.241 -2.752,-2.483 -6.418,-0.937 -8.717,1.258 -0.228,0.217 -0.556,0.178 -0.776,0.016 -0.603,0.193 -1.471,-0.359 -1.199,-1.088 0.33,-0.835 0.628,-1.68 0.895,-2.537 1.03,-2.958 0.314,-4.215 -2.149,-3.771 -1.471,-0.648 -2.516,-0.247 -3.136,1.204 -0.019,0.029 -0.032,0.061 -0.051,0.09 -0.251,1.047 -0.713,2.049 -1.384,2.902 -0.604,0.769 -1.92,-0.064 -1.622,-0.944 0.271,-0.806 0.681,-1.724 1.204,-2.606 0.398,-2.028 -0.296,-4.309 -2.219,-5.341 -2.881,-1.546 -6.14,0.588 -7.262,3.253 -0.135,0.321 -0.44,0.417 -0.687,0.344 -0.093,0.194 -0.185,0.39 -0.286,0.576 -0.459,0.852 -1.788,0.266 -1.545,-0.651 0.442,-1.664 1.349,-3.441 0.744,-5.188 -0.524,-1.512 -1.935,-2.668 -3.493,-2.943 -3.397,-0.601 -5.141,2.778 -4.926,5.671 0.033,0.451 -0.698,0.672 -0.884,0.239 -0.003,-0.007 -0.004,-0.014 -0.007,-0.021 0,0.052 0.004,0.106 0.003,0.157 -0.013,1.178 -1.705,1.142 -1.805,0 -0.253,-2.909 -0.928,-8.084 -5.07,-7.669 -2.768,0.277 -5.123,5.17 -4.176,7.63 0.14,0.362 -0.187,0.617 -0.506,0.611 -0.299,0.328 -0.846,0.364 -1.145,-0.1 -0.861,-1.333 -0.376,-2.894 -0.727,-4.381 -0.383,-1.62 -1.78,-2.834 -3.388,-3.178 -4.042,-0.863 -5.547,3.518 -4.536,6.646 0.122,0.378 -0.361,0.693 -0.664,0.476 -0.261,0.444 -0.958,0.518 -1.277,0.015 -1.303,-2.061 -1.776,-5.203 -4.826,-5.427 -3.626,-0.265 -4.367,3.42 -3.985,6.346 0.1,0.287 0.191,0.576 0.268,0.864 0.041,0.158 0.025,0.3 -0.013,0.433 0.043,0.161 0.087,0.32 0.136,0.468 0.196,0.586 -0.751,1.003 -1.012,0.427 -0.039,-0.087 -0.072,-0.179 -0.108,-0.268 -0.222,-0.032 -0.432,-0.149 -0.569,-0.399 -0.753,-1.371 -1.255,-3.113 -2.415,-4.218 -4.306,-4.1 -8.765,2.224 -5.645,6.231 0.74,0.951 -0.407,2.184 -1.349,1.349 -0.86,-0.762 -1.736,-1.511 -2.671,-2.181 -1.794,-1.287 -1.821,-1.438 -4.218,-0.51 -2.416,0.935 -2.606,1.314 -2.249,3.751 0.204,1.396 0.758,2.556 1.554,3.714 0.169,0.247 0.058,0.511 -0.143,0.657 -0.202,0.401 -0.748,0.671 -1.166,0.402 -2.148,-1.383 -4.34,-4.067 -7.2,-2.758 -3.559,1.628 -2.622,5.713 0.215,7.446 0.493,0.302 0.172,1.068 -0.392,0.929 -0.078,-0.019 -0.148,-0.05 -0.224,-0.072 0.098,0.721 -0.116,1.377 -1.05,1.319 -0.511,-0.032 -0.702,-0.86 -0.129,-0.954 0.375,-0.061 -1.728,-1.667 -1.641,-1.614 -0.544,-0.334 -1.149,-0.598 -1.761,-0.78 -1.263,-0.376 -2.921,-0.502 -3.913,0.497 -2.177,2.19 0.493,5.117 1.601,7.056 0.311,0.544 -0.095,1.066 -0.587,1.135 -0.093,0.143 -0.254,0.224 -0.475,0.135 -2.66,-1.075 -6.432,-1.46 -7.932,1.661 -1.475,3.067 1.859,4.959 3.597,6.772 0.529,0.552 0.003,1.749 -0.817,1.403 -0.25,-0.105 -0.497,-0.231 -0.741,-0.366 -2.794,0.177 -8.337,0.497 -7.272,5.301 0.386,1.742 2.584,3.172 3.915,4.071 0.89,0.601 0.357,2.066 -0.749,1.776 -1.127,0.085 -2.255,0.17 -3.383,0.254 -1.844,0.837 -2.456,2.154 -1.837,3.954 0.159,2.898 1.695,4.259 4.771,4.531 1.167,0.102 1.197,1.781 0,1.839 -0.111,0.005 -0.215,0 -0.323,0.001 0.778,0.095 0.78,1.15 -0.011,1.231 -3.141,0.32 -6.077,3.142 -5.21,6.503 0.806,3.127 3.494,3.647 6.159,4.277 0.767,0.182 0.663,1.225 0,1.454 -0.148,0.051 -0.297,0.08 -0.445,0.115 0.05,0.114 0.06,0.232 0.04,0.351 0.348,0.208 0.242,0.78 -0.207,0.797 -3.235,0.119 -6.839,5.591 -3.592,8.206 2.059,1.658 5.063,1.679 7.445,2.493 0.834,0.285 0.639,1.393 -0.2,1.481 -0.131,0.014 -0.275,0.017 -0.414,0.024 -0.028,0.029 -0.055,0.059 -0.094,0.081 -2.608,1.466 -4.517,4.275 -3.459,7.326 1.109,3.198 4.507,4.466 7.588,3.17 0.926,-0.389 1.501,0.953 0.917,1.574 -2.268,2.413 -2.637,6.466 0.524,8.531 2.039,1.331 4.2,0.761 6.32,0.142 0.643,-0.187 1.214,0.655 0.766,1.154 0.108,0.174 0.127,0.412 -0.038,0.587 -4.274,4.52 0.796,11.967 6.155,7.75 0.737,-0.58 1.802,-0.06 1.594,0.928 -0.584,2.773 -1.063,6.093 2.035,7.578 2.702,1.295 4.728,-0.154 6.44,-2.245 0.502,-0.614 1.531,0.047 1.307,0.761 -0.118,0.378 -0.285,0.725 -0.471,1.056 -0.144,2.829 0.869,6.195 4.304,5.988 2.438,-0.147 3.69,-2.432 5.496,-3.715 0.286,-0.204 0.569,-0.139 0.775,0.04 0.106,0.06 0.189,0.16 0.215,0.281 0.098,0.211 0.118,0.462 0.01,0.679 -0.16,0.321 -0.354,0.635 -0.569,0.941 -0.636,2.429 0.192,5.387 2.742,6.305 1.59,0.571 3.409,0.003 4.638,-1.084 1.176,-1.039 1.217,-2.329 1.945,-3.57 0.226,-0.385 0.921,-0.463 1.125,0 0.105,0.24 0.17,0.484 0.203,0.73 0.251,-0.541 1.215,-0.27 1.153,0.324 -0.259,2.437 1.994,5.31 4.436,5.793 3.454,0.683 4.233,-3.012 5.805,-5.138 0.242,-0.328 0.583,-0.41 0.874,-0.329 0.132,-0.56 0.993,-0.508 1.048,0.126 0.321,3.718 4.696,7.871 7.979,3.666 0.961,-1.231 1.386,-2.834 1.811,-4.313 0.226,-0.789 1.581,-0.916 1.729,0 0.487,3.026 2.054,4.23 4.964,4.251 1.733,0.63 2.913,0.119 3.539,-1.534 1.177,-0.933 1.637,-2.145 1.382,-3.637 -0.002,-0.692 0.624,-0.942 1.121,-0.773 -0.067,-0.244 -0.119,-0.494 -0.155,-0.748 -0.089,-0.635 0.809,-0.931 0.992,-0.274 0.867,3.124 4.656,5.475 7.725,3.715 2.769,-1.588 2.915,-4.783 1.859,-7.427 -0.385,-0.966 1.023,-1.344 1.545,-0.651 0.051,0.067 0.089,0.14 0.136,0.21 0.12,-0.075 0.276,-0.097 0.454,-0.007 2.297,1.165 5.774,2.743 7.83,0.223 1.762,-2.159 -0.694,-4.219 -0.608,-6.472 0.023,-0.595 0.693,-0.907 1.142,-0.63 0.019,-0.404 0.611,-0.698 0.971,-0.371 1.849,1.678 5.07,1.493 6.475,-0.703 0.694,-1.085 0.773,-2.447 0.448,-3.669 -0.34,-1.28 -1.176,-2.035 -1.913,-3.064 -0.513,-0.716 0.451,-1.414 1.102,-1.102 0.507,0.244 0.935,0.59 1.301,0.997 4.458,1.776 8.504,-3.814 4.033,-6.807 -0.88,-0.589 -0.311,-1.833 0.699,-1.658 1.769,0.305 4.027,0.547 5.657,-0.381 2.917,-1.662 2.176,-5.577 -1.151,-6.159 -1.212,-0.212 -0.68,-2 0.504,-1.828 0.481,0.07 0.936,0.217 1.365,0.415 0.881,0.026 1.74,0.207 2.641,-0.087 1.288,-0.421 2.19,-1.444 2.486,-2.755 0.451,-2.001 -0.794,-3.74 -2.524,-4.127 -0.338,-0.007 -0.672,-0.033 -1.002,-0.068 -0.378,0.031 -0.766,0.118 -1.156,0.287 -0.471,0.204 -0.873,-0.285 -0.669,-0.649 -0.115,-0.034 -0.234,-0.063 -0.345,-0.101 -0.879,-0.299 -0.694,-1.507 0.214,-1.582 2.997,-0.249 6.362,0.938 8.58,-1.874 1.809,-2.295 0.253,-4.35 -1.881,-5.26 C 1.75,22.435 0.83,22.185 0.067,21.448 -0.296,21.096 -0.153,20.353 0.382,20.254 1.408,20.065 2.395,20.379 3.424,20.117 4.861,19.752 6.125,18.74 6.751,17.398 8.321,14.031 4.954,10.654 1.638,10.784 1.288,10.797 1.078,10.495 1.051,10.191 0.748,10.099 0.456,9.982 0.191,9.806 -0.421,9.399 -0.208,8.396 0.575,8.391 1.884,8.382 2.901,8.669 4.174,8.117 5.676,7.466 6.69,6.131 6.802,4.477 7.055,0.771 3.264,-1.492 0,0 M 5.867,9.241 C 5.479,9.503 5.028,9.736 4.544,9.924 c 2.838,1.006 4.966,3.857 4.288,7.09 -0.358,1.71 -2.131,3.759 -4.134,4.758 1.745,1.083 2.89,2.884 2.229,5.207 -0.708,2.488 -2.913,3.874 -5.381,4.391 1.137,0.924 1.892,2.36 1.835,3.974 -0.067,1.884 -1.159,3.617 -2.802,4.53 -0.549,0.305 -1.231,0.553 -1.94,0.691 0.914,1.409 1.192,3.215 0.4,4.852 -1.281,2.651 -4.215,3.284 -6.981,3.165 2.36,4.025 -1.435,9.425 -5.802,8.088 0.843,2.217 0.501,5.082 -0.945,6.699 -2.019,2.258 -5.806,2.461 -7.906,0.308 1.325,2.519 2.202,5.811 -0.259,7.871 -2.557,2.14 -5.96,1.177 -8.479,-0.516 1.042,3.091 -0.778,7.047 -3.705,8.365 -3.142,1.416 -6.825,-0.161 -8.421,-2.995 0.033,7.348 -9.38,8.964 -12.474,3.296 -1.084,2.649 -2.826,5.113 -5.991,5.032 -3.154,-0.08 -4.939,-2.492 -5.517,-5.209 -1.134,3.114 -4.289,6.03 -7.684,4.887 -2.352,-0.792 -4.913,-3.409 -5.084,-6.035 -0.444,1.03 -1.259,1.971 -2.059,2.596 -1.714,1.34 -4.025,1.905 -6.099,1.109 -2.488,-0.956 -3.931,-3.634 -3.809,-6.185 -1.812,1.484 -4.225,2.301 -6.365,1.452 -2.529,-1.003 -3.633,-3.369 -3.612,-5.814 -1.735,1.406 -4.239,1.84 -6.414,0.916 -3.534,-1.502 -4.118,-4.795 -3.725,-8.08 -5.791,2.345 -11.469,-4.639 -7.76,-9.453 -5.456,2.04 -10.597,-4.874 -8.153,-10.374 -7.033,0.666 -10.559,-9.39 -4.088,-13.09 -3.476,-0.468 -7.694,-2.476 -7.833,-5.877 -0.126,-3.112 1.844,-6.985 5.032,-7.254 -0.008,-0.017 -0.01,-0.036 -0.017,-0.053 -2.959,-0.425 -5.661,-3.538 -5.963,-6.333 -0.4,-3.694 2.662,-7.22 6.309,-7.35 -7.628,-0.633 -7.47,-11.437 -1.153,-12.619 -1.7,-1.58 -2.937,-3.557 -2.195,-6.042 0.999,-3.346 4.345,-4.4 7.461,-4.176 -2.088,-1.857 -3.404,-4.726 -2.2,-7.365 1.483,-3.248 5.1,-4.016 8.117,-2.894 -1.104,-1.506 -1.836,-3.336 -1.585,-5.168 0.302,-2.196 1.867,-3.693 4.081,-3.858 1.208,-0.09 2.468,0.139 3.616,0.627 -0.506,-1.796 -0.126,-3.864 1.312,-5.327 2.432,-2.472 5.719,-1.888 8.29,-0.156 -1.035,-2.568 -1.014,-5.603 1.232,-7.516 2.28,-1.942 5.068,-0.562 7.411,1.223 -0.305,-2.576 0.778,-5.181 3.528,-6.34 3.137,-1.321 5.732,0.172 7.408,2.545 0.26,-2.363 1.519,-4.467 4.241,-5.085 2.319,-0.527 4.771,0.975 6.188,3.042 0.38,-2.422 2.331,-4.683 4.864,-4.964 1.92,-0.212 3.899,0.579 5.219,1.978 0.523,0.553 0.891,1.225 1.162,1.948 0.93,-2.2 2.717,-4.134 4.655,-4.442 4.045,-0.645 6.171,2.895 6.909,6.407 0.506,-2.806 3.257,-5.204 6.247,-4.846 2.074,0.248 4.012,1.613 4.918,3.499 0.483,1.006 0.604,2.086 0.505,3.161 1.849,-2.21 5.156,-3.186 7.879,-1.799 1.872,0.954 2.913,2.639 3.232,4.484 1.177,-1.036 2.607,-1.6 4.233,-1.089 3.694,1.161 3.335,5.164 2.348,8.214 2.759,-2.5 7.025,-3.167 9.946,-0.331 1.472,1.428 2.173,4.692 1.277,6.819 2.757,-1.306 6.395,-0.754 8.259,1.858 1.452,2.036 1.499,5.964 -0.156,8.199 3.448,-0.018 6.864,1.508 8.36,4.849 1.104,2.466 0.55,5.612 -1.239,7.474 2.418,-0.211 4.955,1.061 5.887,3.479 0.697,1.808 0.395,3.885 -0.624,5.513 C 4.151,-2.969 3.091,-2.32 1.967,-1.744 5.212,-2.009 8.34,0.279 8.502,3.931 8.595,6.034 7.62,8.061 5.867,9.241"
         style="fill:#1d1d1b;fill-opacity:1;fill-rule:nonzero;stroke:none"
         id="path210"
         inkscape:connector-curvature="0" /></g><g
       id="g212"
       transform="translate(647.64984,331.32754)"><path
         d="M 0,0 C -1.667,1.206 -3.297,2.563 -5.236,3.259 -5.833,3.473 -6.29,2.624 -5.847,2.209 -4.347,0.804 -2.386,-0.025 -0.558,-0.955 0.086,-1.283 0.572,-0.414 0,0"
         style="fill:#1d1d1b;fill-opacity:1;fill-rule:nonzero;stroke:none"
         id="path214"
         inkscape:connector-curvature="0" /></g><g
       id="g216"
       transform="translate(637.64294,338.07604)"><path
         d="M 0,0 C -0.73,0.789 -1.583,1.413 -2.235,2.285 -2.839,3.093 -3.264,3.989 -3.924,4.761 -4.246,5.137 -4.919,4.834 -4.9,4.356 -4.813,2.178 -2.561,-0.272 -0.47,-0.807 0.006,-0.929 0.326,-0.352 0,0"
         style="fill:#1d1d1b;fill-opacity:1;fill-rule:nonzero;stroke:none"
         id="path218"
         inkscape:connector-curvature="0" /></g><g
       id="g220"
       transform="translate(629.64354,346.12414)"><path
         d="M 0,0 C -1.813,1.667 -2.925,3.495 -3.769,5.802 -3.999,6.43 -5.075,6.399 -5.021,5.632 -4.828,2.892 -2.916,0.394 -0.374,-0.642 -0.012,-0.79 0.268,-0.247 0,0"
         style="fill:#1d1d1b;fill-opacity:1;fill-rule:nonzero;stroke:none"
         id="path222"
         inkscape:connector-curvature="0" /></g><g
       id="g224"
       transform="translate(621.87154,356.96934)"><path
         d="M 0,0 C -1.725,1.877 -2.684,4.164 -3.206,6.635 -3.35,7.314 -4.407,7.151 -4.403,6.473 -4.387,3.548 -2.866,1.01 -0.54,-0.699 -0.117,-1.01 0.327,-0.356 0,0"
         style="fill:#1d1d1b;fill-opacity:1;fill-rule:nonzero;stroke:none"
         id="path226"
         inkscape:connector-curvature="0" /></g><g
       id="g228"
       transform="translate(616.04624,368.53274)"><path
         d="M 0,0 C -0.643,2.344 -1.169,4.727 -1.828,7.063 -2.018,7.736 -3.123,7.63 -3.08,6.894 -2.936,4.401 -2.069,1.814 -0.882,-0.372 -0.62,-0.856 0.144,-0.525 0,0"
         style="fill:#1d1d1b;fill-opacity:1;fill-rule:nonzero;stroke:none"
         id="path230"
         inkscape:connector-curvature="0" /></g><g
       id="g232"
       transform="translate(611.36824,387.22324)"><path
         d="m 0,0 c -0.155,0.402 -0.885,0.545 -0.967,0 -0.304,-2.011 0.287,-4.292 0.638,-6.273 0.102,-0.578 1.046,-0.443 1.022,0.138 C 0.61,-4.176 0.713,-1.848 0,0"
         style="fill:#1d1d1b;fill-opacity:1;fill-rule:nonzero;stroke:none"
         id="path234"
         inkscape:connector-curvature="0" /></g><g
       id="g236"
       transform="translate(611.65404,397.92704)"><path
         d="M 0,0 C 0.059,1.171 0.315,2.323 0.334,3.495 0.344,4.068 -0.555,4.379 -0.81,3.805 -1.796,1.59 -1.644,-1.365 -0.986,-3.665 -0.811,-4.274 0.207,-4.184 0.156,-3.51 0.068,-2.334 -0.06,-1.182 0,0"
         style="fill:#1d1d1b;fill-opacity:1;fill-rule:nonzero;stroke:none"
         id="path238"
         inkscape:connector-curvature="0" /></g><g
       id="g240"
       transform="translate(613.47964,414.90774)"><path
         d="m 0,0 c -1.92,-1.785 -2.268,-5.343 -2.033,-7.805 0.069,-0.727 1.133,-0.755 1.153,0 0.034,1.326 0.181,2.62 0.574,3.89 0.355,1.146 1.007,2.18 1.293,3.34 C 1.13,0.005 0.433,0.403 0,0"
         style="fill:#1d1d1b;fill-opacity:1;fill-rule:nonzero;stroke:none"
         id="path242"
         inkscape:connector-curvature="0" /></g><g
       id="g244"
       transform="translate(618.19204,427.22014)"><path
         d="m 0,0 c -0.757,-0.881 -1.11,-2.04 -1.551,-3.105 -0.53,-1.279 -1.075,-2.554 -1.555,-3.853 -0.222,-0.6 0.729,-0.989 1.028,-0.433 0.617,1.145 1.176,2.321 1.751,3.488 0.513,1.043 1.214,2.132 1.377,3.292 C 1.126,-0.065 0.46,0.535 0,0"
         style="fill:#1d1d1b;fill-opacity:1;fill-rule:nonzero;stroke:none"
         id="path246"
         inkscape:connector-curvature="0" /></g><g
       id="g248"
       transform="translate(625.71454,437.22844)"><path
         d="m 0,0 c -2.059,-1.122 -3.275,-3.833 -3.936,-5.966 -0.138,-0.447 0.573,-0.768 0.771,-0.325 0.463,1.037 1.044,2.034 1.711,2.953 0.668,0.922 1.544,1.674 2.166,2.626 C 1.008,-0.258 0.435,0.238 0,0"
         style="fill:#1d1d1b;fill-opacity:1;fill-rule:nonzero;stroke:none"
         id="path250"
         inkscape:connector-curvature="0" /></g><g
       id="g252"
       transform="translate(634.94774,447.69254)"><path
         d="m 0,0 c -0.925,-0.452 -1.605,-1.253 -2.333,-1.963 -0.776,-0.756 -1.551,-1.512 -2.327,-2.268 -0.572,-0.559 0.277,-1.381 0.869,-0.869 0.821,0.711 1.642,1.421 2.463,2.132 0.772,0.668 1.606,1.273 2.136,2.16 C 1.129,-0.272 0.508,0.248 0,0"
         style="fill:#1d1d1b;fill-opacity:1;fill-rule:nonzero;stroke:none"
         id="path254"
         inkscape:connector-curvature="0" /></g><g
       id="g256"
       transform="translate(647.83194,454.34414)"><path
         d="m 0,0 c -2.156,-0.383 -4.409,-1.921 -6.004,-3.377 -0.461,-0.421 0.129,-1.139 0.654,-0.846 0.962,0.535 1.895,1.117 2.88,1.614 0.982,0.495 2.028,0.858 2.958,1.453 C 1.113,-0.757 0.696,0.124 0,0"
         style="fill:#1d1d1b;fill-opacity:1;fill-rule:nonzero;stroke:none"
         id="path258"
         inkscape:connector-curvature="0" /></g><g
       id="g260"
       transform="translate(662.65364,458.38084)"><path
         d="m 0,0 c -2.301,0.199 -4.689,-0.555 -6.646,-1.743 -0.68,-0.413 -0.085,-1.329 0.606,-1.036 2.031,0.858 4.038,1.24 6.2,1.6 C 0.87,-1.06 0.627,-0.054 0,0"
         style="fill:#1d1d1b;fill-opacity:1;fill-rule:nonzero;stroke:none"
         id="path262"
         inkscape:connector-curvature="0" /></g><g
       id="g264"
       transform="translate(677.00264,459.51554)"><path
         d="m 0,0 c -2.433,0.078 -4.899,-0.246 -7.346,-0.221 -0.65,0.007 -0.612,-0.911 0,-0.984 2.388,-0.286 5.142,-0.473 7.491,0.137 C 0.749,-0.911 0.605,-0.019 0,0"
         style="fill:#1d1d1b;fill-opacity:1;fill-rule:nonzero;stroke:none"
         id="path266"
         inkscape:connector-curvature="0" /></g><g
       id="g268"
       transform="translate(689.92234,458.55484)"><path
         d="m 0,0 c -1.975,1.13 -4.552,1.358 -6.726,0.681 -0.446,-0.139 -0.383,-0.853 0.114,-0.838 2.19,0.064 4.083,-0.247 6.186,-0.854 C 0.175,-1.185 0.546,-0.312 0,0"
         style="fill:#1d1d1b;fill-opacity:1;fill-rule:nonzero;stroke:none"
         id="path270"
         inkscape:connector-curvature="0" /></g><g
       id="g272"
       transform="translate(705.10284,454.91024)"><path
         d="M 0,0 C -2.059,2.142 -5.812,2.494 -8.571,1.951 -9.101,1.848 -8.98,0.992 -8.444,1.012 -6.998,1.067 -5.568,0.96 -4.17,0.568 -2.89,0.208 -1.778,-0.479 -0.538,-0.924 0.005,-1.12 0.36,-0.375 0,0"
         style="fill:#1d1d1b;fill-opacity:1;fill-rule:nonzero;stroke:none"
         id="path274"
         inkscape:connector-curvature="0" /></g><g
       id="g276"
       transform="translate(658.80984,328.00034)"><path
         d="M 0,0 C -1.783,0.533 -3.548,1.063 -5.214,1.905 -5.815,2.208 -6.326,1.352 -5.744,0.998 -4.061,-0.026 -2.271,-0.845 -0.312,-1.13 0.415,-1.235 0.744,-0.222 0,0"
         style="fill:#1d1d1b;fill-opacity:1;fill-rule:nonzero;stroke:none"
         id="path278"
         inkscape:connector-curvature="0" /></g><g
       id="g280"
       transform="translate(671.79734,325.93494)"><path
         d="M 0,0 C -2.023,0.385 -3.985,0.464 -5.958,1.149 -6.699,1.407 -6.999,0.253 -6.279,-0.017 -4.34,-0.744 -2.081,-1.379 0,-1.04 0.521,-0.954 0.508,-0.097 0,0"
         style="fill:#1d1d1b;fill-opacity:1;fill-rule:nonzero;stroke:none"
         id="path282"
         inkscape:connector-curvature="0" /></g><g
       id="g284"
       transform="translate(685.80224,326.30574)"><path
         d="m 0,0 c -2.087,0.393 -4.37,0.076 -6.482,0.006 -0.699,-0.023 -0.7,-1.064 0,-1.088 C -4.37,-1.152 -2.086,-1.469 0,-1.076 0.532,-0.976 0.533,-0.1 0,0"
         style="fill:#1d1d1b;fill-opacity:1;fill-rule:nonzero;stroke:none"
         id="path286"
         inkscape:connector-curvature="0" /></g><g
       id="g288"
       transform="translate(700.01604,329.20354)"><path
         d="m 0,0 c -1.925,-0.065 -4.077,-1.168 -5.861,-1.846 -0.637,-0.242 -0.398,-1.221 0.286,-1.04 1.037,0.275 2.065,0.576 3.094,0.877 0.936,0.274 1.926,0.483 2.746,1.031 C 0.675,-0.704 0.55,0.019 0,0"
         style="fill:#1d1d1b;fill-opacity:1;fill-rule:nonzero;stroke:none"
         id="path290"
         inkscape:connector-curvature="0" /></g><g
       id="g292"
       transform="translate(714.61944,335.05064)"><path
         d="m 0,0 c -1.011,-0.444 -1.945,-1.038 -2.957,-1.479 -1.016,-0.443 -2.071,-0.746 -3.135,-1.046 -0.718,-0.203 -0.396,-1.181 0.299,-1.085 2.23,0.308 4.812,1.155 6.514,2.675 C 1.266,-0.449 0.573,0.251 0,0"
         style="fill:#1d1d1b;fill-opacity:1;fill-rule:nonzero;stroke:none"
         id="path294"
         inkscape:connector-curvature="0" /></g><g
       id="g296"
       transform="translate(727.03364,344.60164)"><path
         d="m 0,0 c -0.963,-0.476 -1.728,-1.306 -2.593,-1.934 -0.875,-0.635 -1.789,-1.226 -2.723,-1.771 -0.6,-0.351 -0.073,-1.165 0.53,-0.907 1.913,0.819 4.439,1.984 5.607,3.791 C 1.169,-0.282 0.503,0.249 0,0"
         style="fill:#1d1d1b;fill-opacity:1;fill-rule:nonzero;stroke:none"
         id="path298"
         inkscape:connector-curvature="0" /></g><g
       id="g300"
       transform="translate(735.18744,355.70494)"><path
         d="m 0,0 c -1.259,-1.87 -2.264,-3.882 -3.588,-5.716 -0.317,-0.44 0.39,-0.982 0.751,-0.58 1.55,1.727 3.053,3.67 3.78,5.899 C 1.132,0.183 0.313,0.465 0,0"
         style="fill:#1d1d1b;fill-opacity:1;fill-rule:nonzero;stroke:none"
         id="path302"
         inkscape:connector-curvature="0" /></g><g
       id="g304"
       transform="translate(744.42964,368.23644)"><path
         d="m 0,0 c -0.818,-0.84 -1.239,-2.003 -1.798,-3.021 -0.614,-1.12 -1.29,-2.198 -1.962,-3.284 -0.324,-0.521 0.465,-1.164 0.868,-0.67 0.84,1.028 1.602,2.12 2.304,3.247 0.651,1.047 1.362,2.101 1.524,3.34 C 1,0.1 0.304,0.313 0,0"
         style="fill:#1d1d1b;fill-opacity:1;fill-rule:nonzero;stroke:none"
         id="path306"
         inkscape:connector-curvature="0" /></g><g
       id="g308"
       transform="translate(747.47014,382.05774)"><path
         d="m 0,0 c -1.505,-2.021 -1.876,-5.164 -2.011,-7.621 -0.031,-0.571 0.881,-0.7 1.004,-0.136 0.288,1.331 0.586,2.654 0.975,3.96 0.351,1.181 0.838,2.31 0.993,3.537 C 1.033,0.309 0.262,0.352 0,0"
         style="fill:#1d1d1b;fill-opacity:1;fill-rule:nonzero;stroke:none"
         id="path310"
         inkscape:connector-curvature="0" /></g><g
       id="g312"
       transform="translate(749.57714,393.93824)"><path
         d="m 0,0 c -0.187,0.736 -1.315,0.577 -1.317,-0.178 -0.004,-2.485 0.19,-4.751 -0.319,-7.222 -0.133,-0.647 0.79,-0.909 0.995,-0.274 C 0.124,-5.294 0.626,-2.463 0,0"
         style="fill:#1d1d1b;fill-opacity:1;fill-rule:nonzero;stroke:none"
         id="path314"
         inkscape:connector-curvature="0" /></g><g
       id="g316"
       transform="translate(749.17404,408.24864)"><path
         d="m 0,0 c -0.24,0.607 -1.275,0.599 -1.234,-0.167 0.133,-2.444 0.685,-4.856 0.821,-7.314 0.041,-0.749 1.114,-0.747 1.163,0 C 0.906,-5.085 0.896,-2.264 0,0"
         style="fill:#1d1d1b;fill-opacity:1;fill-rule:nonzero;stroke:none"
         id="path318"
         inkscape:connector-curvature="0" /></g><g
       id="g320"
       transform="translate(746.97064,413.27964)"><path
         d="M 0,0 C -0.362,2.036 -1.159,4.303 -2.355,6.002 -2.686,6.472 -3.592,6.204 -3.358,5.58 -2.619,3.613 -1.743,1.691 -0.985,-0.272 -0.749,-0.885 0.116,-0.653 0,0"
         style="fill:#1d1d1b;fill-opacity:1;fill-rule:nonzero;stroke:none"
         id="path322"
         inkscape:connector-curvature="0" /></g><g
       id="g324"
       transform="translate(718.37174,447.81554)"><path
         d="m 0,0 c -1.619,2.055 -4.536,2.884 -7.048,2.997 -0.83,0.037 -0.804,-1.199 0,-1.275 2.49,-0.235 4.247,-1.41 6.304,-2.686 C -0.106,-1.36 0.403,-0.512 0,0"
         style="fill:#1d1d1b;fill-opacity:1;fill-rule:nonzero;stroke:none"
         id="path326"
         inkscape:connector-curvature="0" /></g><g
       id="g328"
       transform="translate(727.49484,440.90884)"><path
         d="M 0,0 C -0.399,1.56 -1.849,2.925 -3.285,3.572 -3.815,3.811 -4.211,3.138 -3.74,2.795 -3.157,2.372 -2.605,1.917 -2.141,1.363 -1.686,0.819 -1.353,0.182 -0.951,-0.401 -0.625,-0.873 0.152,-0.595 0,0"
         style="fill:#1d1d1b;fill-opacity:1;fill-rule:nonzero;stroke:none"
         id="path330"
         inkscape:connector-curvature="0" /></g><g
       id="g332"
       transform="translate(734.85984,432.90904)"><path
         d="M 0,0 C -0.151,0.821 -0.88,1.567 -1.449,2.139 -2.074,2.766 -2.777,3.306 -3.552,3.735 -4.178,4.082 -4.652,3.204 -4.101,2.796 -3.471,2.331 -2.882,1.81 -2.368,1.22 -1.88,0.661 -1.543,-0.089 -0.979,-0.57 -0.523,-0.959 0.108,-0.585 0,0"
         style="fill:#1d1d1b;fill-opacity:1;fill-rule:nonzero;stroke:none"
         id="path334"
         inkscape:connector-curvature="0" /></g><g
       id="g336"
       transform="translate(742.31664,423.62394)"><path
         d="M 0,0 C -0.67,2.221 -2.307,4.261 -3.887,5.917 -4.422,6.479 -5.192,5.66 -4.722,5.082 -3.298,3.331 -2.378,1.387 -1.182,-0.499 -0.801,-1.1 0.219,-0.725 0,0"
         style="fill:#1d1d1b;fill-opacity:1;fill-rule:nonzero;stroke:none"
         id="path338"
         inkscape:connector-curvature="0" /></g><g
       id="g340"
       transform="translate(207.53944,721.34134)"><path
         d="m 0,0 c -0.59,-2.625 -2.224,-4.787 -5.346,-4.819 -0.086,0.039 -0.19,0.046 -0.313,-0.003 -0.002,0 -0.004,0 -0.007,0 -0.225,0.258 -0.45,0.516 -0.675,0.775 0.099,0.314 0.239,0.607 0.422,0.877 0.193,0.319 0.434,0.617 0.685,0.893 0.55,0.603 1.203,1.092 1.922,1.475 C -2.206,-0.214 -1.132,-0.155 0,0 m -43.533,0.871 c 1.82,-0.327 3.516,-1.345 4.297,-3.077 0.394,-0.872 0.591,-2.16 -0.238,-2.875 -0.847,-0.731 -2.131,0.206 -2.625,0.842 -1.136,1.466 -0.951,3.406 -1.434,5.11 M 9.176,-101.614 c -35.143,0.004 -70.379,0.703 -105.503,-0.627 -19.932,-0.755 -39.79,-1.801 -59.674,0.376 0.036,0.091 0.059,0.193 0.058,0.313 -0.233,16.504 -0.744,32.994 -0.741,49.503 0.003,16.15 0.749,32.326 0.528,48.471 25.156,-0.651 50.506,0.558 75.661,1.096 1.928,-2.169 4.727,-3.721 7.822,-4.427 9.565,-2.182 19.448,2.216 27.504,7.12 0.032,-0.135 0.051,-0.271 0.087,-0.406 0.105,-2.452 0.775,-5.282 2.982,-6.473 2.025,-1.094 4.649,-0.111 5.011,2.257 0.585,3.83 -3.294,7.039 -6.889,6.805 0.423,4.812 3.27,9.257 8.474,10.238 5.68,1.069 9.107,-2.684 9.781,-7.305 -0.162,-1.933 -0.615,-4.91 -2.93,-5.156 -1.004,-0.106 -1.959,0.506 -2.368,1.409 -0.505,1.113 -0.048,2.144 0.39,3.182 0.35,0.829 -0.504,1.499 -1.222,0.943 -2.941,-2.278 -0.972,-7.043 2.364,-7.538 1.563,-0.232 3.064,0.464 3.957,1.761 0.025,0.036 0.041,0.076 0.065,0.113 0.355,-0.214 0.834,-0.196 1.081,0.274 0.069,0.132 0.128,0.266 0.191,0.399 1.341,-2.412 4.298,-3.859 7.251,-2.595 1.969,0.842 3.522,2.676 3.801,4.829 0.356,2.741 -1.27,4.148 -3.701,4.782 -0.534,0.14 -1.058,-0.469 -0.741,-0.963 0.724,-1.132 2.295,-1.302 2.51,-2.813 0.241,-1.689 -1.101,-3.277 -2.52,-3.964 -2.703,-1.309 -5.258,0.692 -5.838,3.237 0.132,0.901 0.104,1.794 -0.035,2.665 1.506,6.516 7.304,10.535 14.746,8.05 3.416,-1.142 6.413,-3.54 8.015,-6.766 0.72,-1.449 1.099,-3.554 0.949,-5.598 -2.511,0.463 -5.521,-1.477 -6.92,-3.334 -0.659,-0.875 -1.458,-2.226 -0.909,-3.35 0.204,-0.419 0.556,-0.694 0.95,-0.814 0.077,-0.213 0.232,-0.393 0.499,-0.451 4.137,-0.911 7.102,2.659 8.051,6.411 8.909,-2.41 16.732,-7.957 26.183,-8.443 5.646,-0.29 11.24,1.579 13.918,6.099 12.451,-0.539 24.936,-0.427 37.394,-0.796 12.303,-0.365 24.583,-1.121 36.879,-1.614 -0.873,-16.282 -0.413,-32.686 -0.553,-48.988 -0.137,-16.047 -0.987,-32.341 -0.22,-48.374 -0.268,0.023 -0.535,0.042 -0.802,0.063 -0.149,0.012 -0.302,0.022 -0.452,0.043 -0.119,0.104 -0.272,0.174 -0.465,0.189 -0.038,0.017 -0.075,0.03 -0.112,0.041 -0.016,0.008 -0.027,0.02 -0.045,0.025 0,-0.003 10e-4,-0.007 10e-4,-0.01 -0.044,0.012 -0.086,0.021 -0.121,0.025 -0.098,0.01 -0.179,-0.019 -0.249,-0.065 -34.698,0.068 -69.395,0.147 -104.093,0.151 m 108.447,96.891 c 0.853,0.201 0.759,1.605 -0.243,1.686 -24.617,2.006 -50.012,3.129 -74.718,2.031 0.478,1.124 0.807,2.374 0.929,3.777 0.491,5.603 -4.213,11.705 -10.336,9.932 -4.669,-1.352 -6.137,-7.91 -2.144,-10.773 0.758,-0.544 1.448,0.584 0.931,1.207 -4.944,5.958 4.554,11.085 8.535,4.993 1.97,-3.014 1.207,-7.369 -0.731,-10.152 -3.71,-5.327 -11.272,-4.917 -16.847,-3.65 -7.255,1.649 -13.509,5.761 -20.854,6.906 0.707,5.091 -1.953,9.765 -6.132,12.567 -4.508,3.023 -10.563,4.15 -15.445,1.385 -2.466,-1.397 -4.248,-3.587 -5.158,-6.085 -1.934,3.477 -5.878,5.942 -10.085,5.598 -6.572,-0.538 -11.155,-6.475 -10.771,-12.618 -0.36,-0.132 -0.713,-0.289 -1.047,-0.509 -0.018,-0.012 -0.029,-0.028 -0.044,-0.042 -7.726,-3.883 -15.78,-8.534 -24.788,-6.831 -4.836,0.915 -9.7,3.69 -9.939,9.213 -0.123,2.858 1.304,6.062 3.794,7.634 6.727,4.249 13.714,-6.369 5.358,-8.608 -0.586,-0.157 -0.491,-1.175 0.149,-1.096 5.239,0.648 7.311,6.924 3.381,10.606 -4.906,4.594 -12.307,0.816 -14.054,-4.93 -0.949,-3.123 -0.498,-5.923 0.848,-8.232 -24.754,-0.349 -49.711,-0.101 -74.416,-1.641 -0.163,0.455 -0.849,0.425 -1.002,-0.055 -0.019,-10e-4 -0.038,-0.002 -0.057,-0.003 -0.712,-0.046 -0.735,-1.064 -0.048,-1.134 -1.201,-16.091 -0.989,-32.376 -0.993,-48.502 -0.005,-16.487 0.018,-33.032 0.795,-49.503 0.014,-0.308 0.175,-0.511 0.382,-0.63 -0.087,-0.295 0.012,-0.66 0.364,-0.724 17.07,-3.131 34.413,-2.292 51.66,-1.501 17.4,0.798 34.778,0.942 52.194,0.915 35.806,-0.054 71.612,-0.04 107.418,-0.048 19.543,-0.005 39.087,0.027 58.631,0.049 0.064,-0.054 0.122,-0.114 0.216,-0.146 0.513,-0.177 1.067,-0.014 1.599,0.013 0.377,0.019 0.751,0.009 1.126,-0.007 0.153,-0.055 0.319,-0.055 0.478,-0.023 0.023,-0.001 0.046,-0.002 0.068,-0.003 0.648,-0.037 0.847,0.627 0.62,1.082 0.995,16.184 0.315,32.658 0.363,48.873 0.048,16.299 0.698,32.692 0.013,48.979"
         style="fill:#1d1d1b;fill-opacity:1;fill-rule:nonzero;stroke:none"
         id="path342"
         inkscape:connector-curvature="0" /></g><g
       id="g344"
       transform="translate(256.42414,457.68324)"><path
         d="m 0,0 c -14.148,0.049 -28.348,0.427 -42.491,-0.128 -0.082,0.276 -0.306,0.5 -0.691,0.498 -3.489,-0.019 -7.301,-1.705 -9.77,-4.373 -1.97,0.94 -4.295,1.246 -6.473,0.962 -2.452,-0.319 -4.816,-1.231 -6.905,-2.564 -0.633,0.539 -1.308,1.003 -2.027,1.354 -5.075,2.476 -12.496,2.704 -16.924,-1.15 -1.255,1.712 -2.96,3.118 -4.891,3.953 -1.805,0.78 -3.673,0.904 -5.564,0.888 -0.029,0.338 -0.254,0.642 -0.699,0.615 -14.487,-0.884 -28.92,-0.498 -43.406,0.191 -14.214,0.676 -28.662,1.823 -42.877,0.636 0.042,0.073 0.072,0.158 0.077,0.262 0.753,16.457 0.126,33.031 0.024,49.5 -0.102,16.5 -0.196,33 -0.331,49.5 -0.001,0.145 -0.033,0.27 -0.084,0.377 0.026,-0.01 0.047,-0.024 0.079,-0.03 7.079,-1.279 14.545,-1.093 21.722,-1.321 7.536,-0.241 15.075,-0.359 22.615,-0.395 14.245,-0.068 28.626,-0.126 42.831,1.186 0.076,-0.051 0.163,-0.091 0.277,-0.097 4.355,-0.239 8.317,0.36 10.881,3.533 2.445,-2.191 5.777,-3.344 9.21,-2.944 2.609,0.304 4.864,1.46 6.696,3.127 4.459,-4.365 12.221,-4.359 16.273,-0.602 2.554,-1.787 5.747,-2.87 8.723,-2.528 13.98,-1.363 28.187,-1.251 42.206,-1.506 14.988,-0.272 30.416,-0.984 45.353,0.471 0.002,0 0.004,10e-4 0.006,10e-4 -0.443,-7.611 0.737,-15.112 1.13,-22.709 0.439,-8.479 0.144,-17.005 0.092,-25.492 C 44.958,34.129 44.415,16.976 44.914,-0.104 29.991,0.531 14.937,-0.052 0,0 m -52.123,-14.622 c -2.876,1.737 -1.986,5.595 -0.364,8.167 2.644,-1.931 2.768,-4.652 0.364,-8.167 m -11.185,-1.714 c 0.103,-5.553 -4.031,-8.684 -8.867,-6.237 -0.828,5.794 1.118,11.095 5.817,14.574 1.98,-2.216 2.993,-5.27 3.05,-8.337 m -22.729,3.041 c -0.269,-1.118 -0.747,-1.717 -1.432,-1.799 -1.453,0.661 1.713,6.708 1.425,6.254 0.18,0.283 0.368,0.546 0.562,0.796 0.252,-0.548 0.475,-1.113 0.625,-1.687 0.661,-1.472 0.268,-2.66 -1.18,-3.564 m 0.217,128.119 c 0.074,-0.209 0.222,-0.391 0.467,-0.464 0.968,-0.289 1.684,-2.515 1.727,-3.434 0.035,-0.739 -0.174,-1.592 -0.342,-2.316 -0.193,-0.832 -0.474,-1.641 -0.839,-2.409 -0.203,0.274 -0.412,0.543 -0.586,0.843 -0.806,1.383 -2.565,6.425 -0.427,7.78 m 15.22,-1.799 c -0.172,1.479 -0.221,2.951 -0.215,4.438 0.007,0.506 0.015,1.013 0.022,1.519 -0.247,2.614 1.25,4.289 4.445,5.048 2.077,-2.781 1.463,-8.273 0.836,-11.087 -0.518,-2.327 -1.502,-4.633 -2.99,-6.528 -1.252,1.953 -1.828,4.282 -2.098,6.61 m 15.362,-3.92 c 0.014,1.201 0.601,2.529 1.869,2.869 0.841,0.225 1.526,-0.15 1.873,-0.743 -0.004,-0.025 -0.017,-0.046 -0.018,-0.072 -0.13,-2.193 -0.873,-4.117 -2.004,-5.645 -0.26,0.205 -0.509,0.429 -0.762,0.646 -0.526,0.89 -0.972,1.807 -0.958,2.945 M 46.577,76.707 c -0.396,7.959 -1.739,15.818 -1.032,23.8 0.084,0.943 -1.228,1.037 -1.566,0.291 -0.049,0.011 -0.09,0.03 -0.145,0.032 -15.061,0.551 -30.271,-0.5 -45.353,-0.423 -13.473,0.068 -26.946,1.036 -40.413,1.172 -0.096,0.198 -0.286,0.358 -0.55,0.383 -2.221,0.208 -4.321,0.147 -6.466,0.933 -0.883,0.323 -1.699,0.744 -2.487,1.208 1.264,1.694 1.899,3.922 1.503,6.66 -0.009,0.572 -0.198,1.155 -0.591,1.668 -0.908,1.19 -2.554,1.334 -3.85,0.734 -3.564,-1.649 -2.579,-6.469 -0.389,-9.038 -3.174,-2.884 -8.092,-3.353 -12.137,0.364 -0.171,0.157 -0.318,0.329 -0.475,0.495 1.61,1.917 2.774,4.258 3.415,6.685 1.074,4.064 2.375,13.239 -3.016,14.794 -0.22,0.063 -0.411,0.017 -0.564,-0.084 -1.622,0.171 -3.503,-0.941 -4.352,-2.569 -2.487,-4.771 -1.158,-14.108 1.713,-18.479 0.093,-0.14 0.196,-0.269 0.293,-0.404 -0.46,-0.421 -0.943,-0.82 -1.475,-1.163 -2.91,-1.876 -6.425,-2.033 -9.55,-0.68 -1.015,0.439 -1.928,1.05 -2.726,1.789 0.152,0.277 0.297,0.564 0.433,0.869 1.188,2.665 2.595,8.892 -1.191,9.958 -0.025,0.08 -0.083,0.152 -0.188,0.198 -4.207,1.861 -4.21,-4.464 -3.459,-7.081 0.459,-1.599 1.249,-3.024 2.267,-4.236 -0.062,-0.085 -0.114,-0.176 -0.179,-0.259 -1.707,-2.17 -4.141,-2.905 -6.7,-3.205 -0.081,0.178 -0.247,0.307 -0.513,0.281 -14.789,-1.455 -29.624,-1.353 -44.467,-1.174 -7.212,0.087 -14.423,0.262 -21.632,0.47 -7.785,0.225 -15.816,1.155 -23.584,0.568 -0.251,-0.019 -0.406,-0.271 -0.384,-0.484 -0.495,0.413 -1.462,0.203 -1.458,-0.636 0.074,-16.5 0.187,-33 0.294,-49.5 0.106,-16.47 -0.311,-33.053 0.649,-49.5 0.011,-0.18 0.086,-0.314 0.192,-0.403 -0.46,-0.287 -0.386,-1.113 0.282,-1.102 14.525,0.241 28.922,-0.002 43.433,-0.731 13.469,-0.677 27.001,-1.362 40.477,-0.521 3.298,-0.386 6.682,0.027 9.668,-1.757 1.316,-0.787 2.454,-1.871 3.331,-3.132 -0.099,-0.117 -0.207,-0.223 -0.301,-0.346 -1.413,-1.841 -3.461,-5.694 -2.556,-8.069 0.124,-0.324 0.273,-0.595 0.444,-0.809 0.035,-0.139 0.11,-0.268 0.235,-0.346 1.637,-1.022 3.527,-0.381 4.637,1.18 1.508,2.119 0.831,5.322 -0.176,7.484 -0.087,0.187 -0.191,0.367 -0.288,0.55 1.072,0.945 2.341,1.573 3.865,2.014 3.176,0.918 7.239,0.659 10.34,-0.518 0.869,-0.33 1.653,-0.77 2.355,-1.295 -3.662,-2.889 -6.159,-7.147 -6.223,-11.683 -0.376,-0.703 -0.467,-1.611 -0.4,-2.346 0.048,-0.53 0.209,-1.011 0.44,-1.454 -0.176,-0.238 -0.215,-0.594 0.017,-0.859 3.267,-3.74 10.574,-2.505 12.194,2.395 1.401,4.238 -0.066,9.929 -3.128,13.57 2.083,1.248 4.514,2.162 6.944,2.219 1.356,0.071 2.631,-0.172 3.833,-0.702 -0.206,-0.319 -0.4,-0.644 -0.566,-0.982 -1.5,-3.04 -1.601,-8.212 2.374,-9.246 0.024,-0.006 0.045,-0.002 0.068,-0.005 0.135,-0.159 0.344,-0.236 0.616,-0.121 3,1.264 4.053,4.391 2.89,7.442 -0.551,1.442 -1.466,2.58 -2.593,3.443 0.056,0.057 0.112,0.122 0.168,0.175 2.263,2.151 5.104,2.622 7.907,3.592 14.398,-0.664 28.861,-0.336 43.269,-0.349 15.132,-0.014 30.383,-0.685 45.501,-0.075 0.691,0.028 0.883,0.749 0.596,1.187 0.046,0.083 0.08,0.178 0.084,0.295 0.715,17.092 0.384,34.27 0.493,51.376 0.053,8.486 0.326,17.013 -0.097,25.492"
         style="fill:#1d1d1b;fill-opacity:1;fill-rule:nonzero;stroke:none"
         id="path346"
         inkscape:connector-curvature="0" /></g><g
       id="g348"
       transform="translate(549.57204,361.00624)"><path
         d="m 0,0 c -0.097,-0.035 -0.194,-0.084 -0.285,-0.164 -23.944,-21.017 -47.93,-43.106 -68.757,-67.265 -1.559,9.415 -12.685,15.299 -21.613,14.917 -8.676,-0.371 -16.752,-6.935 -17.71,-15.628 -11.596,11.712 -23.057,23.557 -34.359,35.554 -11.301,11.995 -22.1,24.53 -33.669,36.265 7.902,1.511 11.405,10.501 11.618,17.783 0.231,7.883 -3.945,15.231 -11.396,18.041 0.135,0.089 0.273,0.172 0.406,0.264 0.406,0.281 0.893,0.523 1.159,0.948 0.171,0.275 0.014,0.574 -0.237,0.687 12.09,9.423 22.98,20.946 33.937,31.592 12.031,11.691 23.852,23.601 35.394,35.777 0.019,0.02 0.023,0.042 0.04,0.063 3.005,-8.207 11.762,-11.783 20.159,-11.963 8.288,-0.179 15.317,4.898 18.279,12.496 C -47.583,83.214 -24.122,59.489 -0.306,37.299 -20.065,36.519 -19.051,-1.686 0,0 m 2.249,36.933 c -0.032,0.13 -0.09,0.257 -0.216,0.373 -24.733,22.895 -46.622,47.934 -68.825,73.208 -0.152,0.173 -0.376,0.153 -0.544,0.047 -0.349,0.095 -0.779,-0.027 -0.945,-0.457 -6.127,-15.961 -29.935,-14.985 -36.611,-0.034 -0.187,0.418 -0.772,0.243 -0.885,-0.123 -0.236,0.107 -0.52,0.09 -0.756,-0.155 -11.399,-11.876 -22.941,-23.61 -34.733,-35.096 -11.733,-11.428 -24.659,-22.007 -35.776,-34.016 -0.142,-0.153 -0.116,-0.374 -0.01,-0.523 -0.219,-0.173 -0.439,-0.343 -0.657,-0.514 -0.225,-0.177 -0.178,-0.453 -0.019,-0.638 -0.041,-0.371 0.113,-0.768 0.564,-0.917 14.07,-4.656 15.06,-29.235 0.013,-33.348 -0.38,-0.104 -0.486,-0.418 -0.407,-0.695 -0.122,-0.178 -0.153,-0.427 0.023,-0.643 10.518,-12.93 22.299,-24.949 33.741,-37.058 11.472,-12.14 23.102,-24.129 34.874,-35.978 0.144,-0.145 0.306,-0.199 0.464,-0.203 -10e-4,-0.074 -0.011,-0.145 -0.01,-0.22 0.006,-0.471 0.787,-0.618 0.856,-0.116 1.151,8.299 7.041,15.009 15.597,15.996 8.838,1.019 20.414,-4.577 21.654,-14.218 0.103,-0.801 1.23,-0.915 1.415,-0.268 0.126,-0.004 0.258,0.04 0.379,0.158 23.028,22.607 45.376,45.63 69.447,67.174 0.585,0.524 0.106,1.281 -0.504,1.369 0.249,0.029 0.499,0.059 0.754,0.101 0.506,0.084 0.322,0.784 -0.112,0.829 -9.993,1.05 -14.123,8.925 -14.076,18.415 0.042,8.422 5.359,17.011 14.712,16.262 0.763,-0.061 0.956,0.799 0.593,1.288"
         style="fill:#1d1d1b;fill-opacity:1;fill-rule:nonzero;stroke:none"
         id="path350"
         inkscape:connector-curvature="0" /></g><g
       id="g352"
       transform="translate(540.96514,359.72104)"><path
         d="m 0,0 c -9.975,-9.585 -19.843,-19.278 -29.604,-29.08 -9.687,-9.727 -20.255,-19.241 -28.858,-29.969 -0.323,3.363 -4.423,6.301 -7.013,7.974 -4.039,2.61 -8.825,4.06 -13.62,4.302 -8.358,0.421 -21.62,-3.701 -21.838,-13.803 -21.421,20.336 -40.97,42.178 -60.602,64.212 7.689,2.8 9.485,11.298 9.867,18.652 0.405,7.795 -0.93,15.989 -7.846,20.559 0.032,0.015 0.064,0.028 0.095,0.053 11.199,9.105 21.256,20.011 31.5,30.165 10.216,10.127 20.516,20.245 30.213,30.875 9.121,-14.91 30.275,-13.976 40.5,-1.06 8.432,-11.107 18.511,-21.191 28.039,-31.34 C -19.087,60.802 -8.846,50.204 1.772,39.996 -5.295,35.266 -9.806,27.486 -10.386,18.964 -10.923,11.085 -8.282,1.863 0,0 m 2.757,39.322 c 0.257,0.173 0.291,0.449 0.206,0.677 0.035,0.153 0.008,0.319 -0.139,0.464 -10.396,10.183 -20.724,20.43 -30.683,31.044 -9.832,10.478 -18.821,21.802 -28.804,32.118 0.216,0.561 -0.684,1.024 -1.104,0.46 -10.466,-14.073 -29.148,-12.186 -39.479,0.684 -0.056,0.07 -0.124,0.103 -0.193,0.12 -0.16,0.165 -0.427,0.223 -0.644,0.011 -10.378,-10.175 -20.4,-20.715 -30.717,-30.954 -10.273,-10.195 -21.422,-19.811 -31.13,-30.536 -0.086,-0.096 -0.11,-0.198 -0.098,-0.291 -0.517,0.051 -0.877,-0.742 -0.336,-1.091 11.373,-7.347 10.654,-31.641 -1.625,-37.705 -0.171,-0.084 -0.216,-0.252 -0.185,-0.411 -0.145,-0.117 -0.218,-0.346 -0.07,-0.536 18.44,-23.493 39.771,-45.032 61.476,-65.491 0.465,-0.438 1.169,0.262 0.703,0.703 -0.113,0.107 -0.223,0.217 -0.336,0.324 2.143,5.597 5.012,9.429 10.821,11.564 3.328,1.223 6.948,1.733 10.485,1.566 3.932,-0.186 7.854,-1.207 11.329,-3.07 2.79,-1.495 8.519,-5.112 8.237,-8.82 -0.043,-0.553 0.621,-0.652 0.927,-0.326 0.059,0.012 0.119,0.035 0.178,0.086 10.523,9.255 19.768,20.234 29.649,30.179 9.941,10.004 20.021,19.87 30.199,29.633 0.01,0.009 0.012,0.02 0.021,0.029 0.03,-0.003 0.056,-0.011 0.087,-0.014 0.471,-0.051 0.56,0.707 0.111,0.819 -9.612,2.402 -12.374,12.982 -10.497,21.71 1.521,7.073 5.632,13.023 11.611,17.054"
         style="fill:#1d1d1b;fill-opacity:1;fill-rule:nonzero;stroke:none"
         id="path354"
         inkscape:connector-curvature="0" /></g><g
       id="g356"
       transform="translate(561.63784,622.16464)"><path
         d="m 0,0 c -0.391,-6.56 -7.548,-5.432 -12.024,-4.349 0.494,0.688 -0.452,1.63 -1,0.945 -12.503,-15.624 -25.862,-30.539 -40.101,-44.601 -7.019,-6.931 -14.267,-13.608 -21.623,-20.177 -7.552,-6.745 -15.584,-13.35 -21.92,-21.291 -0.016,-0.021 -0.022,-0.042 -0.033,-0.063 -0.523,0.189 -1.177,-0.337 -0.835,-0.961 0.956,-1.74 2.644,-3.076 3.195,-5.028 0.713,-2.526 -0.546,-6.478 -3.717,-6.612 -5.777,-0.246 -7.509,6.75 -5.667,10.964 0.02,0.036 0.032,0.073 0.044,0.111 0.011,0.023 0.018,0.049 0.029,0.072 0.187,0.398 -0.094,0.723 -0.416,0.746 -27.623,28.501 -56.684,55.713 -83.249,85.214 -0.192,0.213 -0.503,0.108 -0.636,-0.092 -0.13,0.049 -0.286,0.046 -0.454,-0.049 -2.122,-1.188 -4.472,-2.344 -6.969,-1.978 -2.758,0.404 -4.405,2.639 -3.777,5.373 0.501,2.179 2.201,3.707 4.359,4.207 2.384,0.553 4.368,-0.427 6.588,-1.057 0.526,-0.149 1.015,0.583 0.561,0.964 -0.133,0.111 -0.279,0.199 -0.417,0.3 0.051,0.011 0.1,0.03 0.143,0.071 28.68,27.206 54.059,57.524 85.268,82.064 0.363,0.064 0.627,0.538 0.293,0.85 -4.105,3.83 -5.544,11.876 1.036,14.342 3.681,1.38 6.614,-1.134 7.283,-4.685 0.574,-3.046 -0.699,-5.972 -2.081,-8.611 -0.425,-0.812 0.805,-1.533 1.231,-0.72 0.035,0.069 0.07,0.139 0.106,0.208 24.565,-30.221 56.565,-53.303 81.929,-82.729 0.139,-0.161 0.3,-0.205 0.452,-0.183 -0.233,-0.472 0.4,-1.071 0.854,-0.745 1.994,1.429 3.742,3.318 6.431,3.142 C -2.246,5.455 0.173,2.905 0,0 m 1.325,1.02 c -0.791,6.948 -9.32,7.296 -13.22,2.862 -0.002,0.126 -0.034,0.256 -0.13,0.375 -12.103,14.967 -26.909,27.498 -40.874,40.653 -14.377,13.544 -27.513,28.19 -41.419,42.18 1.549,3.232 2.619,6.878 1.171,10.337 -1.315,3.141 -4.374,5.132 -7.795,4.308 -7.408,-1.784 -8.503,-11.97 -2.971,-16.256 -15.383,-12.197 -29.612,-25.717 -43.448,-39.625 -7.097,-7.133 -14.11,-14.349 -21.143,-21.544 -6.713,-6.866 -14.196,-13.476 -19.915,-21.215 -0.041,-0.055 -0.052,-0.11 -0.052,-0.163 -4.544,2.839 -11.69,0.457 -12.413,-5.181 -0.329,-2.565 0.91,-4.919 3.283,-6.004 3.406,-1.557 6.982,0.064 9.752,2.127 0.088,0.065 0.142,0.144 0.182,0.227 11.151,-15.34 26.189,-28.271 39.501,-41.692 14.396,-14.513 28.705,-29.134 43.269,-43.477 -2.944,-5.027 0.483,-12.77 6.839,-12.58 2.869,0.086 4.893,2.705 5.31,5.375 0.551,3.533 -1.663,5.587 -3.473,8.271 0.017,0.011 0.034,0.017 0.051,0.032 29.409,26.87 58.502,53.785 83.551,84.879 3.056,-1.298 6.76,-2.423 9.957,-0.99 2.715,1.216 4.322,4.158 3.987,7.101"
         style="fill:#1d1d1b;fill-opacity:1;fill-rule:nonzero;stroke:none"
         id="path358"
         inkscape:connector-curvature="0" /></g><g
       id="g360"
       transform="translate(460.26234,79.796439)"><path
         d="M 0,0 C -12.849,1.057 -25.466,1.875 -38.373,1.447 -47.498,1.145 -56.58,0.833 -65.679,0.779 c 0.501,22.113 1.002,44.226 1.503,66.339 0.485,21.362 1.925,43.192 0.942,64.68 21.557,-1.444 43.22,-2.08 64.767,-3.188 21.549,-1.108 43.193,-2.365 64.757,-1.308 C 64.965,107.106 65.634,86.592 65.407,66.497 65.155,44.096 64.959,21.695 64.893,-0.708 43.254,-1.508 21.624,-1.779 0,0 m 82.484,130.143 c -4.753,-0.489 -9.511,-0.86 -14.271,-1.14 0.193,5.224 0.39,10.448 0.626,15.671 0.022,0.465 -0.763,0.588 -0.828,0.112 -0.721,-5.262 -1.236,-10.563 -1.613,-15.885 -43.141,-2.319 -86.555,3.107 -129.73,4.762 -0.216,4.114 -0.514,8.215 -0.939,12.296 -0.063,0.604 -0.97,0.635 -0.966,0 0.026,-4.078 0.047,-8.153 0.064,-12.227 -4.793,0.172 -9.582,0.297 -14.368,0.356 -0.674,0.008 -0.651,-0.973 0,-1.032 4.783,-0.432 9.577,-0.792 14.375,-1.125 0.083,-21.609 0.015,-43.176 -0.479,-64.813 L -67.159,0.773 c -4.132,-0.011 -8.269,0.028 -12.415,0.158 -0.536,0.017 -0.682,-0.88 -0.13,-0.957 4.15,-0.579 8.323,-0.865 12.505,-0.977 l -0.259,-11.34 c -0.022,-0.954 1.46,-0.954 1.481,0 0.086,3.769 0.171,7.538 0.257,11.307 8.154,-0.138 16.341,0.349 24.468,0.648 13.549,0.497 26.852,0.047 40.341,-1.29 21.886,-2.17 43.865,-1.665 65.801,-0.626 -0.011,-4.019 -0.026,-8.038 -0.027,-12.056 0,-0.942 1.462,-0.943 1.462,0 0.002,4.04 0.006,8.082 0.009,12.124 5.033,0.244 10.064,0.513 15.091,0.782 0.917,0.049 0.925,1.476 0,1.434 -5.031,-0.226 -10.06,-0.444 -15.089,-0.635 0.042,42.682 0.265,85.403 1.812,128.054 4.784,0.264 9.563,0.641 14.336,1.169 0.995,0.109 1.012,1.678 0,1.575"
         style="fill:#1d1d1b;fill-opacity:1;fill-rule:nonzero;stroke:none"
         id="path362"
         inkscape:connector-curvature="0" /></g></g></svg>