<?xml version="1.0" encoding="UTF-8" standalone="no"?>
<!-- Created with Inkscape (http://www.inkscape.org/) -->

<svg
   xmlns:dc="http://purl.org/dc/elements/1.1/"
   xmlns:cc="http://creativecommons.org/ns#"
   xmlns:rdf="http://www.w3.org/1999/02/22-rdf-syntax-ns#"
   xmlns:svg="http://www.w3.org/2000/svg"
   xmlns="http://www.w3.org/2000/svg"
   xmlns:sodipodi="http://sodipodi.sourceforge.net/DTD/sodipodi-0.dtd"
   xmlns:inkscape="http://www.inkscape.org/namespaces/inkscape"
   width="210mm"
   height="297mm"
   viewBox="0 0 744.09448819 1052.3622047"
   id="svg2"
   version="1.1"
   inkscape:version="0.91 r"
   sodipodi:docname="logo.svg">
  <defs
     id="defs4" />
  <sodipodi:namedview
     id="base"
     pagecolor="#ffffff"
     bordercolor="#666666"
     borderopacity="1.0"
     inkscape:pageopacity="0.0"
     inkscape:pageshadow="2"
     inkscape:zoom="0.35"
     inkscape:cx="235.19179"
     inkscape:cy="588.13647"
     inkscape:document-units="px"
     inkscape:current-layer="layer1"
     showgrid="false"
     inkscape:window-width="1319"
     inkscape:window-height="744"
     inkscape:window-x="47"
     inkscape:window-y="24"
     inkscape:window-maximized="1" />
  <metadata
     id="metadata7">
    <rdf:RDF>
      <cc:Work
         rdf:about="">
        <dc:format>image/svg+xml</dc:format>
        <dc:type
           rdf:resource="http://purl.org/dc/dcmitype/StillImage" />
        <dc:title></dc:title>
      </cc:Work>
    </rdf:RDF>
  </metadata>
  <g
     inkscape:label="Layer 1"
     inkscape:groupmode="layer"
     id="layer1">
    <g
       id="g4295">
      <g
         style="stroke-width:6;stroke-miterlimit:4;stroke-dasharray:none"
         id="g4292">
        <path
           sodipodi:nodetypes="cccsssssscssssssssssssscssccssccccccccsssssssccscsssscsssssssscssssccsssassssssccsscsssssccccsccc"
           style="fill:#000000;stroke:#000000;stroke-width:6;stroke-miterlimit:4;stroke-dasharray:none;stroke-opacity:1"
           d="m 540.13983,674.89462 c -22,-25.49567 -40.23929,-46.64157 -40.53175,-46.99082 l -0.53173,-0.63502 -4.9891,3.74033 c -15.58265,11.68236 -31.22419,22.58353 -44.30882,30.88044 -21.0302,13.33517 -43.84029,24.89897 -61.8261,31.34347 -35.14533,12.5928 -64.59096,12.7907 -109.6875,0.7369 -25.07359,-6.7018 -50.50852,-19.7999 -76.14583,-39.2122 -9.31233,-7.05121 -19.93656,-16.15792 -26.1037,-22.37517 l -2.24953,-2.26781 1.19813,-2.79911 c 1.68223,-3.93012 7.49392,-15.50727 10.39925,-20.71579 17.77457,-31.86537 39.54407,-58.66987 62.48501,-76.93698 3.89762,-3.10354 4.026,-3.20234 6.52144,-5.01832 27.83506,-20.25617 58.55639,-29.54399 87.25823,-26.38034 18.69198,2.06032 38.38825,9.22265 58.30367,21.2015 26.56785,15.98019 54.23179,40.95883 80.11956,72.34248 6.39067,7.74737 13.65519,17.26825 18.39969,24.11458 0.7742,1.11719 1.50289,2.03125 1.61927,2.03125 0.42085,0 19.56796,-15.08742 30.27814,-23.8584 26.86479,-22.00056 54.66757,-46.61816 60.75959,-53.79875 2.91433,-3.4351 3.79206,-4.02938 5.48275,-3.7122 1.05748,0.19839 2.34164,1.40763 2.62931,2.47591 0.3479,1.29198 -0.01,2.41427 -3.72808,11.70594 -4.21725,10.53783 -6.79871,17.456 -9.17309,24.58333 -6.30516,18.92679 -9.90429,35.29857 -11.10637,50.52084 -0.36025,4.56196 -0.36494,21.48252 -0.007,26.875 1.37225,20.69924 4.76194,42.25244 9.62873,61.22374 0.56948,2.22 1.03543,4.0635 1.03543,4.0967 0,0.06 -1.13422,0.6962 -4.16666,2.3383 l -1.5625,0.8461 -40,-46.3559 z m 38.64583,35.7677 c 0,-0.6585 -0.1192,-0.7408 -0.6167,-0.4262 -0.26036,0.1647 -0.24819,0.2544 0.0844,0.6219 0.50385,0.5567 0.53233,0.5462 0.53233,-0.1957 z M 571.16,690.76652 c -4.92794,-28.25338 -5.82496,-49.14549 -3.0905,-71.97918 1.82362,-15.22783 5.19006,-29.85035 11.53281,-50.094 1.14708,-3.66108 2.05927,-6.68286 2.02706,-6.71507 -0.0606,-0.0606 -5.05081,4.20529 -12.96887,11.08643 -9.79715,8.51414 -21.75407,18.5701 -44.4733,37.40271 -5.36685,4.44875 -11.7245,9.84756 -14.14706,12.0135 l -0.933,0.83416 0.59517,0.85886 c 2.35433,3.39729 17.05517,21.07554 30.94933,37.21758 13.22059,15.35951 31.42598,36.05331 31.57748,35.89371 0.0315,-0.033 -0.44956,-2.9666 -1.06912,-6.5187 z m -229.14517,0.7274 c 30.05281,-1.7484 60.42329,-13.2792 100.3125,-38.0857 12.94352,-8.04938 39.92121,-26.94277 45.51125,-31.87309 l 0.782,-0.6897 -4.03087,-5.35196 c -12.46292,-16.54754 -26.91217,-32.9489 -42.70711,-48.47696 -11.79119,-11.59195 -20.37927,-19.10608 -29.4511,-25.76822 -20.70034,-15.20183 -39.73842,-24.81972 -58.02171,-29.31209 -23.72943,-5.83055 -46.17503,-3.40807 -69.68663,7.52103 -15.3967,7.15698 -29.54939,17.51974 -45.02127,32.96507 -9.95287,9.9358 -17.40546,18.62119 -25.75113,30.01088 -8.92969,12.18673 -15.83922,23.41316 -23.43981,38.08448 l -3.43273,6.62614 1.44705,1.60302 c 6.21304,6.88273 21.83229,18.90873 37.4479,28.83292 27.31605,17.36018 49.60551,26.11078 79.75418,31.31058 14.29753,2.466 25.2036,3.2485 36.28748,2.6036 z m -80.74908,-87.38615 c -0.68209,-0.1064 -1.57271,-0.30109 -1.97917,-0.43263 -5.77263,-1.86829 -12.69929,-10.52384 -14.06153,-17.6184 -0.43685,-2.27506 -0.37874,-6.32106 0.12637,-8.79971 1.08573,-5.32775 3.70757,-9.66185 7.55814,-13.4513 4.82239,-4.74585 10.39442,-5.00819 15.92076,-4.71066 4.78506,0.25763 9.80366,2.07138 13.26759,5.53531 2.95934,2.95934 5.06714,6.6883 6.28267,11.11483 0.50204,1.82825 0.55542,2.37291 0.56539,5.76885 0.0122,4.14715 -0.27662,5.82129 -1.55755,9.02915 -2.17225,5.43997 -7.19539,10.96445 -11.39979,12.53752 -2.36281,0.88404 -3.72482,1.0632 -8.69106,1.14325 -2.63541,0.0425 -5.34973,-0.01 -6.03182,-0.11621 z m 9.05266,-8.63236 c 5.81777,-1.54618 9.98227,-7.17089 9.99638,-13.50139 0.0151,-6.7725 -4.0886,-12.73207 -9.78805,-14.21463 -1.64233,-0.42721 -4.48342,-0.48226 -6.04167,-0.11707 -0.6302,0.1477 -1.9427,0.64723 -2.91666,1.11007 -3.30863,1.57231 -6.00827,4.96946 -6.97121,8.77242 -0.46604,1.84054 -0.604,4.59121 -0.34114,6.80175 0.35543,2.98904 1.18502,4.53608 3.85726,7.19317 2.24987,2.23708 3.79069,3.22264 6.05925,3.87566 1.56555,0.45065 4.60252,0.49019 6.14584,0.08 z m 320.43455,-46.49895 c -0.10603,-0.17156 -0.76403,0.0974 -1.55063,0.63372 -0.26302,0.17934 -0.21352,0.29368 0.3125,0.72199 l 0.625,0.50891 0.36452,-0.83852 c 0.2005,-0.46119 0.31235,-0.92293 0.24861,-1.0261 z"
           id="path3454"
           inkscape:connector-curvature="0" />
      </g>
      <ellipse
         ry="24.243662"
         rx="25.253813"
         cy="466.18698"
         cx="222.75818"
         id="path4260"
         style="opacity:1;fill:none;fill-opacity:1;fill-rule:evenodd;stroke:#000000;stroke-width:15.06009007;stroke-linejoin:round;stroke-miterlimit:4;stroke-dasharray:none;stroke-dashoffset:0;stroke-opacity:1" />
      <circle
         r="46.467018"
         cy="383.85959"
         cx="319.73282"
         id="path4262"
         style="opacity:1;fill:none;fill-opacity:1;fill-rule:evenodd;stroke:#000000;stroke-width:15.06009007;stroke-linejoin:round;stroke-miterlimit:4;stroke-dasharray:none;stroke-dashoffset:0;stroke-opacity:1" />
    </g>
  </g>
</svg>
