<?xml version="1.0" encoding="UTF-8" standalone="no"?>
<!-- Created with Inkscape (http://www.inkscape.org/) -->

<svg
   xmlns:dc="http://purl.org/dc/elements/1.1/"
   xmlns:cc="http://creativecommons.org/ns#"
   xmlns:rdf="http://www.w3.org/1999/02/22-rdf-syntax-ns#"
   xmlns:svg="http://www.w3.org/2000/svg"
   xmlns="http://www.w3.org/2000/svg"
   xmlns:sodipodi="http://sodipodi.sourceforge.net/DTD/sodipodi-0.dtd"
   xmlns:inkscape="http://www.inkscape.org/namespaces/inkscape"
   width="85.170586mm"
   height="17.248459mm"
   viewBox="0 0 301.78551 61.116587"
   id="svg2"
   version="1.1"
   inkscape:version="0.91 r"
   sodipodi:docname="name.svg">
  <defs
     id="defs4" />
  <sodipodi:namedview
     id="base"
     pagecolor="#ffffff"
     bordercolor="#666666"
     borderopacity="1.0"
     inkscape:pageopacity="0.0"
     inkscape:pageshadow="2"
     inkscape:zoom="0.98994949"
     inkscape:cx="439.83316"
     inkscape:cy="11.517521"
     inkscape:document-units="px"
     inkscape:current-layer="layer1"
     showgrid="false"
     inkscape:window-width="1319"
     inkscape:window-height="744"
     inkscape:window-x="47"
     inkscape:window-y="24"
     inkscape:window-maximized="1"
     fit-margin-top="2"
     fit-margin-left="2"
     fit-margin-right="2"
     fit-margin-bottom="2" />
  <metadata
     id="metadata7">
    <rdf:RDF>
      <cc:Work
         rdf:about="">
        <dc:format>image/svg+xml</dc:format>
        <dc:type
           rdf:resource="http://purl.org/dc/dcmitype/StillImage" />
        <dc:title />
      </cc:Work>
    </rdf:RDF>
  </metadata>
  <g
     inkscape:label="Layer 1"
     inkscape:groupmode="layer"
     id="layer1"
     transform="translate(-15.979044,-38.296015)">
    <text
       xml:space="preserve"
       style="font-style:normal;font-weight:normal;font-size:40px;line-height:125%;font-family:sans-serif;letter-spacing:0px;word-spacing:0px;fill:#000000;fill-opacity:1;stroke:none;stroke-width:1px;stroke-linecap:butt;stroke-linejoin:miter;stroke-opacity:1"
       x="65.714287"
       y="129.50507"
       id="text3336"
       sodipodi:linespacing="125%"><tspan
         sodipodi:role="line"
         id="tspan3338"
         x="65.714287"
         y="129.50507" /></text>
    <g
       style="font-style:normal;font-variant:normal;font-weight:normal;font-stretch:normal;font-size:57.5px;line-height:125%;font-family:'Coming Soon';-inkscape-font-specification:'Coming Soon';text-align:start;letter-spacing:0px;word-spacing:0px;text-anchor:start;fill:#808080;fill-opacity:1;stroke:none;stroke-width:1px;stroke-linecap:butt;stroke-linejoin:miter;stroke-opacity:1"
       id="text3340">
      <path
         d="m 42.943573,61.779114 q 2.695312,0.72998 4.829102,2.414551 2.133789,1.628418 3.59375,3.762207 1.45996,2.077636 2.246093,4.379882 0.786133,2.246094 0.786133,4.211426 l -0.05615,0.842285 q -0.05615,1.516114 -0.22461,3.256836 -0.168457,1.684571 -1.010742,3.369141 -0.842285,1.628418 -2.695312,3.088379 -1.796875,1.403808 -5.053711,2.302246 -1.628418,0.505371 -2.976074,0.673828 -1.291504,0.224609 -2.526856,0.224609 -1.796875,0 -3.59375,-0.393066 -1.740723,-0.393066 -4.267578,-1.066895 -2.302246,-0.561523 -3.930664,-1.796875 -1.628418,-1.291503 -2.695313,-2.526855 -1.066894,-1.291504 -1.572265,-2.246094 -0.505371,-1.010742 -0.561524,-1.123047 -0.168457,-0.224609 -0.168457,-0.617675 0,-0.95459 0.95459,-1.459961 0.449219,-0.112305 0.617676,-0.112305 0.449219,0 0.842285,0.280762 0.449219,0.224609 0.617676,0.673828 l 0.393066,0.72998 q 0.393067,0.786133 1.235352,1.796875 0.842285,0.95459 2.133789,1.965332 1.291504,0.95459 3.088379,1.459961 2.358398,0.617676 3.874512,0.95459 1.572265,0.336914 3.032226,0.336914 1.90918,0 4.660645,-0.72998 2.41455,-0.729981 3.762207,-1.684571 1.347656,-0.954589 1.965332,-2.133789 0.617675,-1.179199 0.72998,-2.526855 0.168457,-1.347656 0.22461,-2.807617 l 0.05615,-1.010743 q 0,-1.179199 -0.617676,-2.919921 -0.561523,-1.740723 -1.68457,-3.425293 -1.123047,-1.684571 -2.86377,-3.088379 -1.68457,-1.403809 -3.930664,-1.965332 -1.516113,-0.449219 -3.256836,-0.617676 -1.68457,-0.168457 -3.36914,-0.336914 -1.965332,-0.168457 -3.874512,-0.393067 -1.853027,-0.224609 -3.369141,-0.786132 -1.516113,-0.617676 -2.526855,-1.628418 -0.95459,-1.066895 -1.123047,-2.86377 0,-0.224609 -0.05615,-0.393066 0,-0.168457 0,-0.336914 0,-2.189942 0.842285,-3.706055 0.898437,-1.572266 2.133789,-2.63916 1.291504,-1.066895 2.63916,-1.740723 1.403809,-0.673828 2.414551,-1.123047 1.291504,-0.617676 3.088379,-0.842285 1.853027,-0.280762 3.986816,-0.280762 1.90918,0 3.818359,0.22461 1.965332,0.224609 3.81836,0.673828 1.235351,0.280762 1.179199,1.853027 -0.112305,0.561524 -0.617676,0.898438 -0.505371,0.336914 -1.291504,0.280761 -1.628418,-0.449218 -3.481445,-0.617675 -1.796875,-0.168457 -3.481445,-0.168457 -1.796875,0 -3.312989,0.224609 -1.459961,0.168457 -2.470703,0.617676 -1.179199,0.505371 -2.302246,1.123047 -1.123047,0.561523 -1.965332,1.347656 -0.842285,0.786133 -1.347656,1.853027 -0.449219,1.066895 -0.449219,2.526856 0.112305,1.459961 2.189942,1.965332 2.133789,0.505371 5.783691,0.786133 1.796875,0.168457 3.59375,0.393066 1.853027,0.168457 3.59375,0.617676 z"
         style=""
         id="path3338" />
      <path
         d="m 86.517792,83.566223 q 0,0.729981 0.168457,1.572266 0.224609,0.786133 0.449219,1.516113 0.280761,0.673828 0.561523,1.291504 0.280762,0.561523 0.449219,0.842285 0.112304,0.224609 0.168457,0.393067 0.05615,0.168457 0.05615,0.393066 0,0.898437 -0.842285,1.347656 -0.280762,0.22461 -0.729981,0.22461 -0.954589,0 -1.403808,-0.786133 0,-0.05615 -0.336914,-0.673828 -0.336914,-0.617676 -0.729981,-1.572266 -0.336914,-1.010742 -0.673828,-2.189941 -0.280762,-1.1792 -0.280762,-2.358399 0,-0.280762 -0.05615,-0.617676 0,-0.336914 -0.05615,-0.786132 -0.05615,-0.729981 -0.112305,-1.628418 -0.05615,-0.898438 -0.05615,-2.133789 0,-0.786133 -0.112305,-1.684571 -0.112305,-0.898437 -0.224609,-1.909179 -0.168457,-1.347657 -0.336914,-2.86377 -0.112305,-1.516113 -0.112305,-3.256836 0,-1.066894 -0.449219,-2.302246 -0.449219,-1.235352 -1.347656,-2.246094 -0.898438,-1.066894 -2.189941,-1.740722 -1.291504,-0.729981 -2.976075,-0.729981 -2.133789,0 -3.818359,0.786133 -1.628418,0.72998 -2.86377,1.90918 -1.235351,1.123046 -2.077636,2.526855 -0.842285,1.347656 -1.347657,2.526856 0.280762,3.088378 0.729981,6.569824 0.449219,3.481445 0.898437,6.513672 0.505372,2.976074 0.842286,4.997558 0.336914,2.021485 0.336914,2.189942 0,0.561523 -0.393067,1.010742 -0.393066,0.449219 -1.179199,0.561523 -0.617676,0 -1.066895,-0.393066 -0.393066,-0.336914 -0.505371,-0.898438 0,-0.168457 -0.280761,-1.68457 -0.22461,-1.516113 -0.617676,-3.818359 -0.336914,-2.302246 -0.786133,-5.109864 -0.449219,-2.863769 -0.842285,-5.727539 -1.235352,-0.280761 -1.179199,-1.853027 0.224609,-1.235352 0.842285,-2.86377 -0.112305,-1.235351 -0.168457,-2.302246 -0.05615,-1.123047 -0.05615,-2.077636 0,-2.695313 -0.168457,-5.727539 -0.168457,-3.032227 -0.393066,-5.615235 -0.168457,-2.63916 -0.393066,-4.379883 -0.168457,-1.740722 -0.168457,-1.853027 0,-0.617676 0.393066,-1.010742 0.449219,-0.449219 1.179199,-0.561524 0.617676,0 1.066895,0.393067 0.449219,0.393066 0.505371,1.010742 0,0.168457 0.168457,1.853027 0.168457,1.628418 0.393066,4.099121 0.22461,2.470704 0.393067,5.446778 0.168457,2.919922 0.168457,5.615234 1.740722,-2.189941 4.267578,-3.706055 2.583008,-1.572265 6.120605,-1.572265 2.246094,0 4.099121,0.898437 1.90918,0.898438 3.200684,2.358399 1.347656,1.403808 2.077637,3.256836 0.72998,1.796875 0.72998,3.649902 0,1.628418 0.112305,3.032227 0.168457,1.403808 0.336914,2.695312 0.112305,1.066895 0.224609,2.077637 0.112305,0.95459 0.112305,1.90918 0,2.189941 0.168457,3.425292 0.05615,0.505372 0.05615,0.898438 0.05615,0.393066 0.05615,0.842285 z"
         style=""
         id="path3340" />
      <path
         d="m 94.659882,56.107727 q -0.95459,0 -1.628418,-0.617676 -0.617676,-0.673828 -0.617676,-1.628418 0,-0.95459 0.617676,-1.572265 0.673828,-0.617676 1.628418,-0.617676 0.898437,0 1.516113,0.617676 0.673828,0.617675 0.673828,1.572265 0,0.95459 -0.673828,1.628418 -0.617676,0.617676 -1.516113,0.617676 z m 0.72998,2.358398 q 0.617676,0 1.010742,0.393067 0.449219,0.336914 0.561524,0.898437 0,0.168457 0.224609,1.740723 0.280762,1.572266 0.617676,3.818359 0.336914,2.246094 0.617676,4.829102 0.336914,2.526855 0.449218,4.54834 0.112305,1.965332 0.393067,4.604492 0.280761,2.63916 0.617676,5.053711 0.33691,2.358398 0.56152,4.099121 0.28076,1.68457 0.28076,1.796875 0,0.617676 -0.39306,1.010742 -0.393068,0.449219 -1.179201,0.561524 -0.617676,0 -1.066894,-0.393067 -0.393067,-0.336914 -0.505372,-0.95459 0,-0.168457 -0.280761,-1.853027 -0.22461,-1.68457 -0.561524,-4.042969 -0.336914,-2.41455 -0.617675,-5.053711 -0.280762,-2.63916 -0.393067,-4.660644 -0.112305,-1.965332 -0.449219,-4.492188 -0.280761,-2.526855 -0.617675,-4.772949 -0.280762,-2.246094 -0.561524,-3.818359 -0.224609,-1.628418 -0.224609,-1.740723 0,-0.561523 0.336914,-1.010742 0.336914,-0.449219 0.95459,-0.561524 l 0.224609,0 z"
         style=""
         id="path3342" />
      <path
         d="m 129.41818,58.185364 q -0.50537,0 -0.95459,-0.336914 -0.44922,-0.336914 -0.56152,-0.898438 0,-0.112304 -0.39307,-1.235351 -0.39306,-1.1792 -1.2915,-2.470703 -0.84229,-1.347657 -2.3584,-2.414551 -1.51611,-1.066895 -3.76221,-1.066895 -1.96533,0 -3.59375,1.628418 -0.78613,0.842285 -1.2915,1.90918 -0.44922,1.066894 -0.44922,2.189941 l 0.22461,8.535157 q 1.62842,-0.112305 3.36914,-0.22461 1.79688,-0.112305 3.6499,-0.224609 0.61768,0 1.0669,0.449219 0.44922,0.449218 0.50537,1.123046 0,0.617676 -0.44922,1.123047 -0.44922,0.449219 -1.06689,0.449219 -1.79688,0.112305 -3.5376,0.224609 -1.74072,0.112305 -3.36914,0.22461 0.22461,3.088379 0.72998,6.794433 0.56152,3.649903 1.06689,6.906739 0.50537,3.256836 0.89844,5.502929 0.39307,2.189942 0.39307,2.358399 0,1.291504 -1.57227,1.572265 -1.2915,0 -1.57227,-1.291504 0,-0.168457 -0.2246,-1.235351 -0.16846,-1.066895 -0.50538,-2.751465 -0.28076,-1.740723 -0.61767,-3.874512 -0.33692,-2.189941 -0.67383,-4.548339 -0.33691,-2.358399 -0.61768,-4.716797 -0.28076,-2.358399 -0.44921,-4.436036 -2.41455,0.22461 -3.93067,0.393067 -1.51611,0.168457 -1.74072,0.224609 -0.56152,0 -1.01074,-0.393066 -0.44922,-0.393067 -0.56153,-1.179199 0,-0.617676 0.39307,-1.010743 0.39307,-0.449218 1.01074,-0.561523 0.0562,0 1.57227,-0.168457 1.57226,-0.168457 4.09912,-0.449219 l 0,-0.72998 -0.22461,-8.198242 q 0,-1.628418 0.67383,-3.256836 0.72998,-1.628418 1.96533,-2.919922 1.23535,-1.235352 2.69531,-1.90918 1.51612,-0.673828 3.14453,-0.673828 2.58301,0 4.49219,1.066894 1.90918,1.010743 3.20068,2.526856 1.34766,1.516113 2.13379,3.256836 0.78614,1.740723 1.0669,3.144531 0,1.235352 -1.1792,1.516113 l -0.39307,0.05615 z"
         style=""
         id="path3344" />
      <path
         d="m 140.48019,87.55304 q 1.1792,0 2.58301,-1.066895 1.40381,-1.123047 2.69531,-2.976074 1.34766,-1.853028 2.41456,-4.323731 1.06689,-2.526855 1.57226,-5.334472 -0.39307,-2.695313 -0.61767,-5.671387 -0.22461,-2.976074 -0.28077,-6.345215 -0.61767,-0.505371 -0.61767,-1.235351 -0.39307,-0.168457 -0.84229,-0.280762 -0.39306,-0.112305 -0.89844,-0.112305 -0.72998,0 -2.07763,0.336914 -1.34766,0.280762 -2.91992,1.010742 -1.57227,0.673829 -3.20069,1.796875 -1.57226,1.123047 -2.91992,2.751465 -1.2915,1.628418 -2.13379,3.762207 -0.84228,2.133789 -0.84228,4.829102 0,4.267578 0.67382,6.794433 0.72999,2.526856 1.85303,3.874512 1.1792,1.347656 2.58301,1.796875 1.45996,0.393067 2.97607,0.393067 z m 12.46582,-13.701172 q 0.50538,3.481445 1.1792,6.23291 0.67383,2.751465 1.23536,4.660644 0.61767,1.90918 1.01074,2.976075 0.44922,1.010742 0.44922,1.066894 0.0562,0.168457 0.0562,0.336914 0.0562,0.112305 0.0562,0.280762 0,1.010742 -0.89844,1.459961 -0.44922,0.112305 -0.67382,0.112305 -1.0669,0 -1.40381,-0.898438 -0.11231,-0.224609 -1.0669,-2.63916 -0.89844,-2.470703 -1.90918,-6.850586 -0.89844,2.189941 -2.13379,4.042969 -1.1792,1.853027 -2.583,3.200683 -1.34766,1.347657 -2.86377,2.077637 -1.45996,0.786133 -2.91993,0.786133 -5.72753,0 -8.479,-3.930664 -2.75146,-3.930664 -2.75146,-12.072754 0,-3.369141 1.01074,-5.952149 1.01074,-2.63916 2.58301,-4.604492 1.62841,-1.965332 3.59375,-3.312988 2.02148,-1.347656 3.93066,-2.189941 1.90918,-0.842286 3.5376,-1.1792 1.62842,-0.393066 2.583,-0.393066 1.68458,0 2.91993,0.673828 1.23535,0.617676 2.02148,1.459961 0.84229,0.786133 1.23535,1.516113 0.39307,0.673828 0.39307,0.729981 0.16846,0.280761 0.16846,0.617675 0,0.561524 -0.50537,1.1792 0.50537,2.63916 0.50537,6.96289 0,0.898438 -0.11231,1.796875 -0.0562,0.898438 -0.16846,1.853028 z"
         style=""
         id="path3346" />
      <path
         d="m 203.09006,71.942688 q 0.50537,0.842285 1.62842,2.358398 1.12304,1.459961 2.41455,3.200684 1.34765,1.68457 2.75146,3.481445 1.45996,1.796875 2.58301,3.312989 1.1792,1.459961 1.90918,2.41455 0.78613,0.898438 0.78613,0.95459 0.39307,0.393067 0.39307,0.95459 0,0.786133 -0.61768,1.235352 -0.44922,0.336914 -0.95459,0.336914 -0.84228,0 -1.23535,-0.561524 -0.1123,-0.112304 -0.95459,-1.066894 -0.78613,-1.010742 -1.96533,-2.470703 -1.1792,-1.516114 -2.58301,-3.312989 -1.40381,-1.796875 -2.75146,-3.537597 -1.29151,-1.740723 -2.41455,-3.200684 -1.0669,-1.516113 -1.62842,-2.414551 -0.78614,-1.291504 -1.79688,-2.807617 -0.95459,-1.572266 -2.02148,-3.088379 -1.01074,-1.516113 -2.07764,-2.863769 -1.01074,-1.403809 -1.96533,-2.414551 -1.62842,1.853027 -3.08838,3.59375 -1.40381,1.740723 -2.52686,3.144531 -1.12304,1.347656 -1.79687,2.189942 l -0.67383,0.898437 q -0.22461,0.280762 -0.56152,0.449219 0.16846,2.470703 0.44922,5.222168 0.28076,2.695312 0.50537,5.053711 0.22461,2.358398 0.39306,3.930664 0.16846,1.572265 0.16846,1.68457 0,0.617676 -0.39306,1.066895 -0.39307,0.449218 -1.1792,0.505371 -0.61768,0 -1.0669,-0.393067 -0.39307,-0.393066 -0.44922,-1.010742 -0.0562,-0.168457 -0.22461,-1.516113 -0.1123,-1.347656 -0.33691,-3.312988 -0.16846,-2.021485 -0.39307,-4.436036 -0.22461,-2.41455 -0.44922,-4.716796 -0.16845,-2.358399 -0.33691,-4.323731 -0.1123,-1.965332 -0.1123,-3.088379 0,-1.68457 -0.16846,-4.32373 -0.11231,-2.63916 -0.33692,-5.390625 -0.22461,-2.807618 -0.50537,-5.334473 -0.28076,-2.526855 -0.56152,-4.042969 0,-0.561523 0.39307,-1.010742 0.39306,-0.449219 1.1792,-0.561523 0.56152,0 0.95459,0.336914 0.44921,0.336914 0.56152,0.898437 0.33691,1.572266 0.61767,4.211426 0.28077,2.583008 0.50538,5.446777 0.2246,2.86377 0.33691,5.559082 0.16846,2.639161 0.16846,4.211426 l 0,0.898438 q 0.78613,-1.010743 1.90918,-2.358399 1.12304,-1.403808 2.35839,-2.919922 1.29151,-1.516113 2.69532,-3.088379 1.40381,-1.628418 2.75146,-3.088378 2.02149,-2.189942 3.70606,-3.874512 1.74072,-1.684571 2.97607,-2.807617 1.2915,-1.1792 2.02149,-1.796875 0.72998,-0.617676 0.78613,-0.673829 0.39306,-0.336914 1.01074,-0.336914 0.72998,0 1.23535,0.561524 0.33692,0.449219 0.33692,1.010742 0,0.729981 -0.56153,1.179199 -0.0562,0.05615 -2.63916,2.358399 -2.58301,2.302246 -6.56982,6.513672 -0.28076,0.280761 -0.50537,0.561523 -0.22461,0.280762 -0.50537,0.561523 1.06689,1.066895 2.18994,2.583008 1.1792,1.459961 2.24609,3.088379 1.12305,1.628418 2.13379,3.256836 1.01074,1.572266 1.85303,2.919922 z"
         style=""
         id="path3348" />
      <path
         d="m 243.07053,83.566223 q 0,0.729981 0.16845,1.572266 0.22461,0.786133 0.44922,1.516113 0.28076,0.673828 0.56153,1.291504 0.28076,0.561523 0.44921,0.842285 0.11231,0.224609 0.16846,0.393067 0.0562,0.168457 0.0562,0.393066 0,0.898437 -0.84228,1.347656 -0.28076,0.22461 -0.72998,0.22461 -0.95459,0 -1.40381,-0.786133 0,-0.05615 -0.33691,-0.673828 -0.33692,-0.617676 -0.72999,-1.572266 -0.33691,-1.010742 -0.67382,-2.189941 -0.28077,-1.1792 -0.28077,-2.358399 0,-0.280762 -0.0562,-0.617676 0,-0.336914 -0.0562,-0.786132 -0.0562,-0.729981 -0.1123,-1.628418 -0.0562,-0.898438 -0.0562,-2.133789 0,-0.786133 -0.1123,-1.684571 -0.11231,-0.898437 -0.22461,-1.909179 -0.16846,-1.347657 -0.33691,-2.86377 -0.11231,-1.516113 -0.11231,-3.256836 0,-1.066894 -0.44922,-2.302246 -0.44922,-1.235352 -1.34765,-2.246094 -0.89844,-1.066894 -2.18995,-1.740722 -1.2915,-0.729981 -2.97607,-0.729981 -2.13379,0 -3.81836,0.786133 -1.62842,0.72998 -2.86377,1.90918 -1.23535,1.123046 -2.07764,2.526855 -0.84228,1.347656 -1.34765,2.526856 0.28076,3.088378 0.72998,6.569824 0.44922,3.481445 0.89844,6.513672 0.50537,2.976074 0.84228,4.997558 0.33692,2.021485 0.33692,2.189942 0,0.561523 -0.39307,1.010742 -0.39307,0.449219 -1.1792,0.561523 -0.61768,0 -1.0669,-0.393066 -0.39306,-0.336914 -0.50537,-0.898438 0,-0.168457 -0.28076,-1.68457 -0.22461,-1.516113 -0.61767,-3.818359 -0.33692,-2.302246 -0.78614,-5.109864 -0.44922,-2.863769 -0.84228,-5.727539 -1.23535,-0.280761 -1.1792,-1.853027 0.22461,-1.235352 0.84228,-2.86377 -0.1123,-1.235351 -0.16845,-2.302246 -0.0562,-1.123047 -0.0562,-2.077636 0,-2.695313 -0.16845,-5.727539 -0.16846,-3.032227 -0.39307,-5.615235 -0.16846,-2.63916 -0.39306,-4.379883 -0.16846,-1.740722 -0.16846,-1.853027 0,-0.617676 0.39306,-1.010742 0.44922,-0.449219 1.1792,-0.561524 0.61768,0 1.0669,0.393067 0.44922,0.393066 0.50537,1.010742 0,0.168457 0.16846,1.853027 0.16845,1.628418 0.39306,4.099121 0.22461,2.470704 0.39307,5.446778 0.16846,2.919922 0.16846,5.615234 1.74072,-2.189941 4.26757,-3.706055 2.58301,-1.572265 6.12061,-1.572265 2.24609,0 4.09912,0.898437 1.90918,0.898438 3.20068,2.358399 1.34766,1.403808 2.07764,3.256836 0.72998,1.796875 0.72998,3.649902 0,1.628418 0.11231,3.032227 0.16845,1.403808 0.33691,2.695312 0.11231,1.066895 0.22461,2.077637 0.1123,0.95459 0.1123,1.90918 0,2.189941 0.16846,3.425292 0.0562,0.505372 0.0562,0.898438 0.0562,0.393066 0.0562,0.842285 z"
         style=""
         id="path3350" />
      <path
         d="m 260.19699,87.55304 q 1.1792,0 2.58301,-1.066895 1.40381,-1.123047 2.69531,-2.976074 1.34766,-1.853028 2.41455,-4.323731 1.0669,-2.526855 1.57227,-5.334472 -0.39307,-2.695313 -0.61768,-5.671387 -0.22461,-2.976074 -0.28076,-6.345215 -0.61768,-0.505371 -0.61768,-1.235351 -0.39306,-0.168457 -0.84228,-0.280762 -0.39307,-0.112305 -0.89844,-0.112305 -0.72998,0 -2.07763,0.336914 -1.34766,0.280762 -2.91993,1.010742 -1.57226,0.673829 -3.20068,1.796875 -1.57227,1.123047 -2.91992,2.751465 -1.29151,1.628418 -2.13379,3.762207 -0.84229,2.133789 -0.84229,4.829102 0,4.267578 0.67383,6.794433 0.72998,2.526856 1.85303,3.874512 1.1792,1.347656 2.58301,1.796875 1.45996,0.393067 2.97607,0.393067 z m 12.46582,-13.701172 q 0.50537,3.481445 1.1792,6.23291 0.67383,2.751465 1.23535,4.660644 0.61768,1.90918 1.01074,2.976075 0.44922,1.010742 0.44922,1.066894 0.0562,0.168457 0.0562,0.336914 0.0562,0.112305 0.0562,0.280762 0,1.010742 -0.89844,1.459961 -0.44922,0.112305 -0.67383,0.112305 -1.06689,0 -1.40381,-0.898438 -0.1123,-0.224609 -1.06689,-2.63916 -0.89844,-2.470703 -1.90918,-6.850586 -0.89844,2.189941 -2.13379,4.042969 -1.1792,1.853027 -2.58301,3.200683 -1.34765,1.347657 -2.86377,2.077637 -1.45996,0.786133 -2.91992,0.786133 -5.72754,0 -8.479,-3.930664 -2.75147,-3.930664 -2.75147,-12.072754 0,-3.369141 1.01074,-5.952149 1.01075,-2.63916 2.58301,-4.604492 1.62842,-1.965332 3.59375,-3.312988 2.02149,-1.347656 3.93067,-2.189941 1.90918,-0.842286 3.53759,-1.1792 1.62842,-0.393066 2.58301,-0.393066 1.68457,0 2.91992,0.673828 1.23536,0.617676 2.02149,1.459961 0.84228,0.786133 1.23535,1.516113 0.39307,0.673828 0.39307,0.729981 0.16845,0.280761 0.16845,0.617675 0,0.561524 -0.50537,1.1792 0.50537,2.63916 0.50537,6.96289 0,0.898438 -0.1123,1.796875 -0.0562,0.898438 -0.16846,1.853028 z"
         style=""
         id="path3352" />
      <path
         d="m 308.82492,82.948547 q 0,0.786133 0.16846,1.628418 0.22461,0.842285 0.50537,1.628418 0.28076,0.729981 0.56152,1.347657 0.28076,0.617675 0.44922,0.954589 0.16846,0.336914 0.16846,0.786133 0,0.898438 -0.78613,1.347656 -0.22461,0.112305 -0.39307,0.168457 -0.16846,0.05615 -0.39307,0.05615 -0.89844,0 -1.34765,-0.842285 -0.0562,-0.05615 -0.39307,-0.673828 -0.33691,-0.673829 -0.72998,-1.684571 -0.33691,-1.010742 -0.67383,-2.246094 -0.28076,-1.235351 -0.28076,-2.470703 0,-0.280761 -0.0562,-0.617675 0,-0.393067 -0.0562,-0.842286 -0.0562,-0.786132 -0.1123,-1.68457 -0.0562,-0.95459 -0.0562,-2.246094 0,-0.842285 -0.11231,-1.740722 -0.1123,-0.95459 -0.22461,-2.077637 -0.16845,-1.403809 -0.33691,-2.976074 -0.11231,-1.628418 -0.11231,-3.425293 0,-1.123047 -0.50537,-2.414551 -0.44921,-1.347656 -1.34765,-2.470703 -0.89844,-1.123047 -2.2461,-1.853027 -1.2915,-0.729981 -3.03222,-0.729981 -2.18994,0 -3.93067,0.842285 -1.68457,0.786133 -2.91992,2.021485 -1.23535,1.235351 -2.13379,2.695312 -0.84228,1.403809 -1.34765,2.695313 -0.50538,1.235351 -0.78614,2.133789 -0.22461,0.898437 -0.22461,1.010742 -0.16845,0.505371 -0.44921,0.786133 l 0,1.010742 q 0,1.347656 0.39306,3.088379 0.39307,1.740722 0.89844,3.706054 0.61767,2.526856 1.1792,5.278321 0.61767,2.751465 0.61767,5.615234 0,0.673828 -0.44921,1.123047 -0.44922,0.449219 -1.12305,0.449219 -0.61768,0 -1.12305,-0.449219 -0.44922,-0.449219 -0.44922,-1.123047 0,-2.583008 -0.56152,-5.166015 -0.50537,-2.583008 -1.12305,-4.941407 -0.56152,-2.077636 -1.01074,-3.986816 -0.39307,-1.965332 -0.39307,-3.59375 0,-1.628418 -0.22461,-4.099121 -0.2246,-2.470703 -0.56152,-4.772949 -0.28076,-2.358399 -0.56152,-4.042969 -0.22461,-1.740723 -0.22461,-1.853028 0,-0.561523 0.39306,-1.010742 0.39307,-0.449218 1.1792,-0.561523 0.61768,0 1.01075,0.393066 0.44921,0.336914 0.56152,0.95459 0,0.112305 0.1123,0.729981 0.11231,0.561523 0.22461,1.572265 0.11231,0.95459 0.28077,2.189942 0.16845,1.235351 0.33691,2.583007 0.84228,-1.572265 1.96533,-3.088379 1.1792,-1.516113 2.69531,-2.695312 1.57227,-1.179199 3.48145,-1.90918 1.90918,-0.72998 4.26758,-0.72998 2.30224,0 4.15527,0.95459 1.90918,0.898437 3.25684,2.41455 1.34765,1.516114 2.07763,3.425293 0.78614,1.90918 0.78614,3.81836 0,1.68457 0.1123,3.200683 0.16846,1.516114 0.33691,2.807618 0.11231,1.123046 0.22461,2.189941 0.11231,1.066895 0.11231,2.021484 0,2.246094 0.16846,3.59375 0.0562,0.505371 0.0562,0.95459 0.0562,0.393067 0.0562,0.842285 z"
         style=""
         id="path3354" />
    </g>
  </g>
</svg>
