<?xml version="1.0" standalone="yes"?>

<svg version="1.1" viewBox="0.0 0.0 328.6955380577428 100.0" fill="none" stroke="none" stroke-linecap="square" stroke-miterlimit="10" xmlns="http://www.w3.org/2000/svg" xmlns:xlink="http://www.w3.org/1999/xlink"><clipPath id="p.0"><path d="m0 0l328.69553 0l0 100.0l-328.69553 0l0 -100.0z" clip-rule="nonzero"></path></clipPath><g clip-path="url(#p.0)"><path fill="#000000" fill-opacity="0.0" d="m0 0l328.69553 0l0 100.0l-328.69553 0z" fill-rule="nonzero"></path><path fill="#9fc5e8" d="m3.9757156 28.174877l314.50897 -19.273209l-34.48065 20.590572l36.371277 13.237106l-33.54416 6.9638405l31.484497 16.90382l-309.62204 15.609116l33.071377 -15.4227295l-39.187073 -2.8989372l33.073994 -15.422878z" fill-rule="nonzero"></path><path stroke="#666666" stroke-width="2.0" stroke-linejoin="round" stroke-linecap="butt" d="m3.9757156 28.174877l314.50897 -19.273209l-34.48065 20.590572l36.371277 13.237106l-33.54416 6.9638405l31.484497 16.90382l-309.62204 15.609116l33.071377 -15.4227295l-39.187073 -2.8989372l33.073994 -15.422878z" fill-rule="nonzero"></path><path fill="#000000" fill-opacity="0.0" d="m54.310516 14.737152l209.367 -11.669858l3.2619019 58.36316l-209.36702 11.669857z" fill-rule="nonzero"></path><path fill="#666666" d="m77.13246 47.589844q2.106102 -0.11738968 3.6272278 -0.061332703q1.5367203 0.055187225 2.44767 0.11395645q-0.23332214 -0.53471756 -0.39727783 -0.9481087q-0.1492157 -0.42986298 -0.29145813 -0.7349205q-0.28633118 -0.9229927 -0.79813385 -2.240303q-0.4962082 -1.3181763 -1.1103363 -2.786274q-0.5994034 -1.4845695 -1.2291336 -2.9517975q-0.6297302 -1.4672279 -1.2143097 -2.6865845q-0.5074768 1.2802277 -1.0790024 2.8144112q-0.5559311 1.5333176 -1.0797882 3.080494q-0.50912476 1.5307045 -0.96282196 2.9331284q-0.45457458 1.3868217 -0.71427155 2.340252q-0.060569763 0.31636047 -0.18266296 0.65180206q-0.10649872 0.33456802 -0.23809052 0.7800827q1.5531006 -0.21176147 3.2223892 -0.30480576zm7.4600067 -2.3250198q0.24378967 0.72192764 0.8041382 2.0678253q0.5594864 1.3303032 1.2273941 2.920597q0.6835022 1.5894241 1.417305 3.2386398q0.7485275 1.6327515 1.3253479 2.9933815q0.59156036 1.344162 0.9844742 2.2142677q0.40764618 0.8536377 0.40938568 0.8848381q0.08672333 0.15166092 0.09980774 0.3856697q0.04184723 0.7488327 -0.6444931 1.0687752q-0.12044525 0.08495712 -0.38565826 0.099739075q-0.31201935 0.017391205 -0.6188965 -0.15329361q-0.3060074 -0.15508652 -0.43439484 -0.4922104q-0.053771973 -0.12220001 -0.55075836 -1.1742973q-0.48138428 -1.0529633 -1.177002 -2.5791168q-0.6800232 -1.5270233 -1.5317459 -3.3261604q-0.836998 -1.815609 -1.633194 -3.4613495q-0.7861481 -0.06572342 -1.8089142 -0.16521072q-0.86240387 -0.030174255 -2.1000977 -0.05508423q-1.2385635 -0.04050827 -2.720642 0.042102814q-1.0140457 0.056518555 -2.0870132 0.17892456q-1.0573654 0.12153244 -2.0670624 0.25605774q-0.60873413 1.7084007 -1.328331 3.6733665q-0.70487213 1.9484978 -1.3621597 3.6283073q-0.6416855 1.678936 -1.0919876 2.8620796q-0.43470764 1.1822777 -0.47453308 1.3096886q-0.27713776 0.64141846 -0.97917175 0.6805496q-0.265213 0.014781952 -0.4255829 -0.054523468q-0.68827057 -0.27462387 -0.7283783 -0.99225235q-0.010467529 -0.18721008 0.10126495 -0.42817307q-0.0026168823 -0.04680252 0.36541748 -1.0219231q0.38363647 -0.9759865 0.94130707 -2.4780998q0.5576706 -1.5021133 1.2391891 -3.3084679q0.6806412 -1.8219528 1.2911224 -3.4991493q-1.0859528 0.17007446 -1.7818832 0.31840897q-0.69680023 0.13273239 -0.8060074 0.13882065q-0.43682098 0.024349213 -0.74806213 -0.22434235q-0.2965088 -0.2651596 -0.4050293 -0.8068352q-0.024414062 -0.43681717 0.20950317 -0.7315407q0.23304749 -0.31032562 0.6655121 -0.41267776q0.07800293 -0.004348755 1.0998077 -0.20214462q1.0218048 -0.19779968 2.573166 -0.44076157q0.27278137 -0.7194214 0.45893097 -1.3088188q0.18527222 -0.60499954 0.3177414 -1.0349121q0.28392792 -1.0799751 0.87358093 -2.849907q0.589653 -1.7699356 1.2641907 -3.7010918q0.6736679 -1.9467583 1.370781 -3.7539825q0.6962433 -1.8228226 1.2236786 -3.0259132q0.043128967 -0.6283741 0.5734558 -0.939621q0.15164948 -0.08669853 0.49486542 -0.10582924q0.31201935 -0.017391205 0.55300903 0.09436989q0.5296478 0.23651505 0.6425247 0.85619354q0.564621 1.1422234 1.351326 2.898037q0.786705 1.7558136 1.5639114 3.621704q0.79193115 1.8494148 1.4347458 3.5506554q0.642807 1.7012367 1.0141144 2.74469zm22.639015 10.819351q2.3897552 -2.042408 2.1778793 -5.83337q-0.17437744 -3.1201286 -0.8649597 -5.1160393q-0.67497253 -1.9967804 -1.61837 -3.1961365q-0.9433975 -1.1993561 -2.0547333 -1.763382q-1.1113281 -0.5640259 -2.1740189 -0.81777954q-0.16036987 -0.069309235 -0.31637573 -0.060611725q-0.15600586 0.008693695 -0.31201172 0.017391205q-0.54602814 0.030433655 -1.0633774 0.29401016q-0.51734924 0.2635765 -0.8899307 0.5973282q-0.6715164 0.5851517 -1.3385849 1.5299911q-0.66793823 0.92923737 -1.1762848 2.193863q-0.49274445 1.2637558 -0.7678604 2.7814178q-0.25951385 1.5167923 -0.16360474 3.2328644q0.29436493 1.6267662 0.61556244 3.1737862q0.32120514 1.5470238 0.63194275 2.9068375q0.43865967 0.28853607 0.47789764 0.99056244q0.3294525 0.29462433 0.7325516 0.50689316q0.40309906 0.21227264 0.8772278 0.29538727q0.7151108 0.19488144 1.9631729 0.12531662q1.2480621 -0.069568634 2.6650238 -0.47718048q1.4325638 -0.4084854 2.598854 -1.3811493zm-4.027878 -18.86758q3.9655914 0.9526596 6.0199127 4.1088486q2.0543213 3.1561852 2.369957 8.803623q0.27726746 4.96101 -2.9841995 7.646679q-1.4192963 1.2058563 -3.1733704 1.741806q-1.7384796 0.53507996 -3.3453598 0.62464523q-1.5132751 0.08434677 -2.591568 -0.16853714q-0.23836517 -0.064956665 -0.4784851 -0.16111755q-0.23924255 -0.08056259 -0.43080902 -0.14812851q0.047950745 0.85803604 -1.0327682 1.1217117q-0.39001465 0.02173996 -0.7012558 -0.22694778q-0.31036377 -0.23308945 -0.411911 -0.64995956q-0.03643036 -0.09186554 -0.18051147 -0.70980453q-0.12848663 -0.61880875 -0.34116364 -1.624157q-0.5029068 -0.59793854 -0.7474747 -1.0537834q-0.22896576 -0.45671463 -0.2775116 -0.4853058q-0.03817749 -0.12306976 -0.07460785 -0.21493149q-0.020835876 -0.09273529 -0.027809143 -0.21754074q-0.026153564 -0.4680214 0.3152237 -0.80003357q-0.20396423 -0.84933853 -0.31354523 -1.9699783q-0.09484863 -1.1371078 -0.30249023 -2.6122131q-0.3110199 -2.2048569 -0.6462631 -4.2831726q-0.33525085 -2.078312 -0.4180832 -3.5603752q-0.10462952 -1.872078 -0.34714508 -3.9712105q-0.22691345 -2.1000023 -0.46846008 -3.9018517q-0.22594452 -1.8027191 -0.41789246 -2.997013q-0.17721558 -1.2107639 -0.18157196 -1.2887669q-0.024414062 -0.43681717 0.2407074 -0.7332821q0.2798462 -0.31293488 0.7903137 -0.41963387q0.42121887 -0.023477554 0.74980164 0.25554276q0.327713 0.2634201 0.39892578 0.6976299q0.0061035156 0.109205246 0.18331909 1.3199692q0.19194794 1.194294 0.4170227 2.981411q0.24067688 1.7862511 0.46932983 3.9174538q0.24338531 2.1147308 0.34976196 4.018013l0.034873962 0.62402344q0.552536 -1.3140335 1.3036194 -2.4356995q0.76667786 -1.1225319 1.7397461 -1.9122849q1.5388718 -1.3064156 3.2861633 -1.4038048q0.31201172 -0.017391205 0.61104584 0.012886047q0.29815674 0.014678955 0.6145325 0.07529068zm20.508972 19.748611q0.7332382 -0.040870667 1.8475876 -0.8228493q1.1143494 -0.7819786 2.1331635 -2.1533012q1.0188141 -1.3713264 1.6968384 -3.2400818q0.67715454 -1.8843536 0.5507355 -4.14645q-0.12207031 -2.1840897 -0.7449188 -3.808197q-0.6228485 -1.6241035 -1.3738098 -2.7402916q-0.73535156 -1.117054 -1.4540482 -1.6560173q-0.71956635 -0.5545654 -1.0359421 -0.61517715q-0.6552353 0.03652191 -1.1795578 0.17529297q-0.52519226 0.123168945 -0.71066284 0.16480637q-0.46801758 0.0260849 -0.87983704 -0.3421936q-0.96105194 0.44480133 -1.9451752 1.8767891q-0.9693985 1.4155197 -1.772232 3.2912292q-0.7881012 1.8592415 -1.2667084 3.9359703q-0.4630127 2.075859 -0.36710358 3.7919312q0.10027313 1.794075 0.79579926 3.0385475q0.6946564 1.2288704 1.6743011 1.9567299q0.9796448 0.7278557 2.0458221 1.0440102q1.0809021 0.29968643 1.9857483 0.24925232zm1.544342 -21.369064q0.81124115 -0.04521942 1.9330292 0.70601654q1.1209183 0.73563004 2.1545334 2.1490479q1.0327301 1.3978195 1.8351288 3.4344444q0.80152893 2.0210266 0.9453888 4.5951347q0.14648438 2.6209068 -0.633667 4.902237q-0.7654419 2.2648582 -2.0311584 3.9785805q-1.2501221 1.7128525 -2.774353 2.721115q-1.5242386 1.0082664 -2.8503036 1.08218q-1.5288773 0.08521652 -3.0440826 -0.42499924q-1.5152054 -0.51021576 -2.7471695 -1.5526466q-1.2319641 -1.0424271 -2.0723572 -2.6387558q-0.8247833 -1.5971985 -0.9451065 -3.7500916q-0.07585907 -1.357254 0.17580414 -3.014454q0.26727295 -1.6580696 0.7832794 -3.3456497q0.5151367 -1.703186 1.2565308 -3.2781372q0.7561188 -1.5914192 1.6562347 -2.8465843q0.9148407 -1.2716331 1.9667892 -2.0501328q1.0510712 -0.7941017 2.1899261 -0.8575783q0.4212265 -0.023479462 0.75494385 0.06746292q0.3484497 0.074474335 0.6223831 0.21569824q0.20280457 -0.011302948 0.3891449 -0.037338257q0.20106506 -0.04250717 0.43508148 -0.05554962zm28.526894 11.445774q0.868515 0.13938141 0.9295502 1.2314262q-0.14361572 0.7904663 -0.43103027 1.8080406q-0.27182007 1.0167007 -0.76116943 2.06118q0.3386383 1.8590355 0.6025696 3.2214584q0.27867126 1.3459511 0.334198 1.4993477q0.024414062 0.43682098 -0.2407074 0.733284q-0.24864197 0.31119537 -0.7903137 0.41963196q-0.4368286 0.024349213 -0.7471924 -0.20874023q-0.2947693 -0.2339592 -0.39718628 -0.6664276q-0.004348755 -0.07800293 -0.14756775 -0.6803436q-0.12760925 -0.60320663 -0.28912354 -1.5331612q-1.1401367 1.4406853 -2.7753143 2.4238358q-1.6187134 0.99788284 -3.8340302 1.1213608q-1.6068878 0.08956528 -2.9687042 -0.4761467q-1.3618011 -0.5657158 -2.3571472 -1.5743866q-0.9953308 -1.008667 -1.5825348 -2.274826q-0.572464 -1.2826309 -0.6491852 -2.655487q-0.06539917 -1.1700478 -0.21742249 -2.2100754q-0.15289307 -1.0556259 -0.32739258 -1.9379082q-0.12159729 -0.77568436 -0.23971558 -1.4889679q-0.11898804 -0.72888184 -0.15821838 -1.430912q-0.04359436 -0.7800331 -0.12527466 -1.4014511q-0.066085815 -0.62228394 -0.17024231 -1.0859566q-0.05038452 -0.34147644 -0.09814453 -0.63615036q-0.032165527 -0.29554367 -0.049606323 -0.6075554q-0.030517578 -0.5460205 -0.20318604 -1.1154213q-0.15794373 -0.58586884 -0.37391663 -1.0902557q-0.20126343 -0.52085495 -0.4276123 -0.93076706q-0.21162415 -0.42638397 -0.33390808 -0.6543083q-0.16734314 -0.19411087 -0.18478394 -0.5061264q-0.036621094 -0.65522766 0.5231781 -0.99941254q0.22703552 -0.13785172 0.507843 -0.15350342q0.6552429 -0.03652191 0.9977722 0.4921112q0.002609253 0.04680252 0.2619171 0.48617554q0.25842285 0.42377472 0.5472717 1.1118927q0.30444336 0.68724823 0.5552063 1.5339775q0.26637268 0.84586334 0.31433105 1.7038994q0.0113220215 0.20280838 0.042617798 0.48274994q0.046035767 0.2634735 0.09466553 0.5737457q0.105911255 0.49487305 0.17373657 1.1483612q0.08255005 0.6370201 0.13224792 1.5262566q0.03312683 0.592823 0.1468811 1.2281036q0.11375427 0.6352768 0.23535156 1.410965q0.13467407 1.0096931 0.30491638 2.0956535q0.18583679 1.0850868 0.25559998 2.3331413q0.046203613 0.8268318 0.4243927 1.7134094q0.39291382 0.87010574 1.0605469 1.6153564q0.6676178 0.7452507 1.6012421 1.2096367q0.948349 0.44791794 2.165207 0.38009262q1.2012634 -0.06695938 2.1493225 -0.46408463q0.9627991 -0.41360092 1.7105865 -1.0343018q0.74690247 -0.63630295 1.3152161 -1.3878479q0.5674591 -0.76714325 0.9450836 -1.570652q-0.26742554 -1.4248276 -0.48805237 -2.8522606q-0.22149658 -1.4430351 -0.36488342 -2.608738q-0.15473938 -1.3685074 -0.47079468 -3.1036072q-0.30134583 -1.7515717 -0.60694885 -3.2994614q-0.30560303 -1.5478897 -0.5391083 -2.6459732q-0.23352051 -1.0980797 -0.23788452 -1.1760826q-0.02178955 -0.39001846 0.22598267 -0.71681213q0.26338196 -0.32766724 0.80503845 -0.43610382q0.3900299 -0.02173996 0.68478394 0.21221924q0.31036377 0.23308945 0.4101715 0.61875534q0.0069732666 0.12480545 0.23962402 1.2072868q0.24824524 1.0816116 0.56944275 2.6286316q0.3211975 1.5470238 0.6234131 3.3141937q0.3169403 1.7506981 0.47340393 3.1504097q0.017440796 0.31201553 0.052230835 0.6543579q0.04951477 0.32587433 0.102508545 0.7141533q0.19146729 -0.21411514 0.41938782 -0.33636093q0.22703552 -0.1378479 0.65086365 -0.11452484zm16.91806 -11.740978q0.34757996 0.058872223 0.60165405 0.404644q0.2531891 0.3301735 0.25250244 0.8779335q-0.1574707 0.8225403 -1.2807312 0.8851471q-0.001739502 -0.031200409 -1.4656982 -0.18434143q-1.448349 -0.15401077 -3.8690796 -0.066028595q0.23388672 2.2248077 0.31410217 3.6600685q0.04185486 0.7488289 0.21218872 2.1164703q0.1850586 1.3511696 0.4005432 2.9666824q0.23020935 1.599041 0.4812622 3.2908173q0.25105286 1.6917725 0.48464966 3.071537q0.23274231 1.3641624 0.37779236 2.2793846q0.16064453 0.9143486 0.16238403 0.9455528q0.024414062 0.43681717 -0.25543213 0.74975204q-0.2798462 0.31293106 -0.77471924 0.4187622q-0.43681335 0.024349213 -0.76452637 -0.23907089q-0.32684326 -0.24782181 -0.38246155 -0.6828995q-0.0069732666 -0.12480545 -0.18408203 -1.0538902q-0.16152954 -0.9299507 -0.3786621 -2.294983q-0.21800232 -1.3806305 -0.46731567 -3.0412064q-0.25016785 -1.6761742 -0.48124695 -3.2908173q-0.21548462 -1.615509 -0.40055847 -2.9666786q-0.17033386 -1.3676414 -0.21392822 -2.1476746q-0.08282471 -1.4820633 -0.30973816 -3.5820618q-1.0096893 0.1345253 -1.9855652 0.3141098q-0.9611511 0.16312027 -1.7194824 0.31493378q-0.75920105 0.1362114 -1.2384796 0.24117279q-0.4792633 0.10495758 -0.55726624 0.109306335q-0.39001465 0.02173996 -0.7168579 -0.22607803q-0.327713 -0.26342392 -0.43623352 -0.8050957q-0.02178955 -0.39001846 0.21125793 -0.7003441q0.23304749 -0.31032562 0.6655121 -0.41267776q0.031188965 -0.0017356873 0.5095825 -0.122299194q0.4940033 -0.12142944 1.2376099 -0.2567711q0.7583313 -0.1518135 1.7203522 -0.29933167q0.97761536 -0.14838791 2.0341034 -0.28552246q-0.13903809 -1.0876961 -0.3083954 -2.1580544q-0.15377808 -1.071228 -0.30230713 -2.048851q-0.14941406 -0.9932251 -0.32217407 -1.844305q-0.15715027 -0.8519478 -0.3168335 -1.469017q-0.02180481 -0.39001656 0.2259674 -0.71681213q0.26338196 -0.32766533 0.8050537 -0.43610382q0.39001465 -0.02173996 0.69950867 0.19574928q0.30949402 0.21748734 0.41104126 0.63435745q0.33322144 1.2020683 0.6849365 3.2951126q0.35173035 2.0930443 0.6783447 4.2970314q1.3260651 -0.07390976 2.3912811 -0.055038452q1.0808105 0.018001556 1.8522339 0.10020065q0.77053833 0.06659317 1.2134552 0.15145111q0.45765686 0.06838608 0.50445557 0.065776825zm51.03958 12.444439q0.026168823 0.46801758 0.0055236816 0.9386482q-0.005050659 0.46975708 -0.058639526 0.910923q-0.05445862 0.42556763 -0.07946777 0.8181915q-0.009399414 0.39175415 0.012390137 0.7817726q0.039245605 0.70202637 0.30638123 1.2818108q0.05290222 0.106594086 0.07461548 0.21493149q0.020828247 0.092731476 0.027801514 0.21753693q0.039245605 0.7020302 -0.6453552 1.0531731q-0.30766296 0.095394135 -0.3856659 0.09974289q-0.7332306 0.040870667 -1.0844879 -0.6437683q-0.2341919 -0.5503197 -0.34010315 -1.0451927q-0.106781006 -0.51047134 -0.13729858 -1.0564957q-0.027893066 -0.4992218 -0.022857666 -0.9689789q0.020645142 -0.47063065 0.07424927 -0.91179657q0.05445862 -0.4255638 0.06472778 -0.80171967q0.025878906 -0.3770256 0.0040893555 -0.76704025q-0.030517578 -0.5460243 -0.13468933 -1.0096931q-0.104156494 -0.46367264 -0.24125671 -0.9568062q-0.11114502 -0.5884781 -0.2552185 -1.2064171q-0.12849426 -0.61880875 -0.16946411 -1.3520393q-0.030517578 -0.5460243 -0.038467407 -0.96810913q0.006790161 -0.4385605 0.013580322 -0.87711716q0.0075683594 -0.7046356 -0.024002075 -1.8296242q-0.016860962 -1.1414566 -0.14067078 -3.3567467q-0.1002655 -1.794075 -1.0062561 -2.6042862q-0.741272 -0.662899 -1.7614288 -0.71558q-1.0210266 -0.068286896 -1.6138611 -0.035240173q-0.5460205 0.030433655 -1.2037811 0.3018341q-0.6421509 0.2705307 -1.3085327 0.66761017q-0.6516571 0.3806038 -1.2244263 0.77246094q-0.55804443 0.3753891 -0.93499756 0.63113785q-0.19670105 0.1205101 -0.3483429 0.20721054q-0.1516571 0.086696625 -0.25650024 0.17078781q-0.1958313 0.1361084 -0.6012726 0.72208023q-0.38983154 0.5851021 -0.69555664 1.2750626q-0.21482849 0.3562584 -0.56666565 0.5010605q0.056671143 1.0140457 0.20085144 1.9136658q0.15890503 0.8831482 0.28050232 1.6588326q0.12159729 0.7756882 0.23971558 1.4889679q0.11810303 0.71328354 0.15559387 1.3841095q0.04534912 0.81123734 0.11054993 1.417923q0.08081055 0.6058159 0.13990784 1.1032982q0.16404724 0.6950722 0.19456482 1.2410965q0.030517578 0.5460205 0.18844604 1.1318893q0.17266846 0.569397 0.37393188 1.0902557q0.21684265 0.5199852 0.4284668 0.9463692q0.22636414 0.40991592 0.34864807 0.63783646q0.16645813 0.17851257 0.18389893 0.4905281q0.017440796 0.31201172 -0.10813904 0.5850487q-0.1108551 0.2565651 -0.41415405 0.42996597q-0.22703552 0.1378479 -0.5078583 0.1534996q-0.65522766 0.03652191 -0.9986267 -0.5077095q-0.0017547607 -0.031200409 -0.26104736 -0.47057724q-0.2592926 -0.43937683 -0.5637512 -1.1266212q-0.28884888 -0.688118 -0.5552063 -1.5339813q-0.25076294 -0.8467293 -0.2987213 -1.7047653q-0.010467529 -0.18721008 -0.056488037 -0.45067978q-0.031295776 -0.27994156 -0.079940796 -0.5902176q-0.10676575 -0.51047134 -0.1902008 -1.1630898q-0.06869507 -0.6690903 -0.118392944 -1.5583267q-0.030517578 -0.5460243 -0.1451416 -1.1969032q-0.115493774 -0.666481 -0.23535156 -1.410965q-0.13467407 -1.0096931 -0.32051086 -2.0947838q-0.17024231 -1.0859566 -0.24172974 -2.3652115q-0.04360962 -0.7800331 -0.43826294 -1.6813393q-0.37905884 -0.9021797 -1.0449371 -1.61623q-0.6667633 -0.7296486 -1.6151123 -1.1775627q-0.933609 -0.464386 -2.1504822 -0.39656067q-1.5132751 0.08434677 -2.6813965 0.7441292q-1.1533966 0.64331055 -1.9790802 1.5500412q-0.82569885 0.90673447 -1.3618469 1.9538193q-0.5205536 1.0462189 -0.84614563 1.9407234q-0.32559204 0.89450455 -0.44847107 1.4960251l-0.12113953 0.63272476q-0.013763428 0.31375122 -0.27975464 0.59461594l0.037490845 0.67082596q0.05406189 0.9672394 0.41848755 2.167572q0.3635559 1.1847267 0.7523041 2.5401917q0.5656738 1.7211876 1.078537 3.6174583q0.5119934 1.8806725 0.6235962 3.8775558q0.024414062 0.43681717 -0.28489685 0.78269196q-0.30929565 0.3458748 -0.74612427 0.370224q-0.46801758 0.0260849 -0.79833984 -0.28413773q-0.33033752 -0.31022263 -0.3547516 -0.7470398q-0.1002655 -1.794075 -0.5905609 -3.56641q-0.49028015 -1.772335 -1.0030518 -3.3869286q-0.4728546 -1.4603195 -0.8433838 -2.7698555q-0.37052917 -1.3095322 -0.4359131 -2.4795837q-0.06365967 -1.1388474 -0.3138275 -2.8150215q-0.25105286 -1.6917763 -0.5601349 -3.3020706q-0.29348755 -1.6111641 -0.5157623 -2.7881165q-0.22227478 -1.1769524 -0.2266388 -1.2549553q-0.024414062 -0.43682098 0.22511292 -0.73241425q0.26423645 -0.31206512 0.8059082 -0.42050362q0.3900299 -0.021738052 0.68478394 0.21221924q0.31036377 0.23308945 0.41278076 0.66555977q0.0043640137 0.07800293 0.105041504 0.47927094q0.10067749 0.40127182 0.23176575 1.0668793q0.14582825 0.6491432 0.2891388 1.5331612q0.14242554 0.86841965 0.31954956 1.7975044q0.5161896 -1.1242218 1.2690125 -2.2146835q0.7675476 -1.1069298 1.7986755 -1.9781647q1.0302429 -0.8868351 2.3283997 -1.4599686q1.2973022 -0.5887356 2.8885803 -0.6774311q1.2480621 -0.06956673 2.3627777 0.27518082q1.1147308 0.34474754 2.011139 0.98335075q0.8964081 0.6386032 1.5718842 1.5242577q0.67459106 0.87005615 1.0900879 1.8640976q0.28848267 -0.43861008 0.61076355 -0.83215714q0.33789062 -0.394413 0.6706543 -0.6007538q0.19844055 -0.08930588 0.4973755 -0.34070587q0.48179626 -0.33983994 1.1767578 -0.7854576q0.70970154 -0.46208572 1.4835358 -0.89645195q0.7738495 -0.43436432 1.6179352 -0.731802q0.84410095 -0.29743576 1.6241302 -0.34091377q0.35882568 -0.020000458 0.9213257 -0.03570366q0.5625 -0.015705109 1.2264557 0.10378075q0.6795502 0.1186142 1.3990173 0.39149666q0.7194824 0.27288246 1.3454437 0.8326645q1.5692596 1.4774551 1.7174835 4.129566q0.12817383 2.2932968 0.1302948 3.4512253q0.0021209717 1.1579247 0.0119018555 1.8928947q-0.022399902 0.43942642 -0.0014648438 0.8138428q0.020050049 0.35881424 0.048828125 0.87363815q0.03225708 0.57722473 0.13903809 1.0876961q0.105895996 0.49487305 0.2144165 1.0365486q0.15531921 0.5390663 0.28292847 1.142273q0.12760925 0.60321045 0.16423035 1.2584381zm12.604065 -15.28764q-0.3432312 0.019130707 -1.3675537 0.45180893q-1.0095978 0.41620636 -2.0631866 1.4451866q-1.0544739 1.0133781 -1.9266815 2.7677612q-0.8574829 1.737915 -0.9432678 4.4030685q0.6621094 -0.19339752 1.4784851 -0.42669296q0.8311157 -0.24976349 1.663971 -0.46832657q0.83283997 -0.21856308 1.5755768 -0.36950684q0.75746155 -0.16741562 1.2254944 -0.19350433q0.5460205 -0.030433655 1.3745117 -0.32699966q0.82762146 -0.31216812 1.6240387 -0.62259674q0.6577606 -0.27140045 1.2253876 -0.47518158q0.58236694 -0.22025299 1.1196747 -0.40669632q-0.24319458 -1.5513687 -0.8208008 -2.6459198q-0.5628662 -1.1110191 -1.2746887 -1.8068619q-0.6970825 -0.712307 -1.4659729 -1.0293846q-0.75416565 -0.33354568 -1.4249878 -0.29615402zm8.377502 17.451443q0.42121887 -0.023479462 0.7333374 0.2408104q0.31123352 0.24869156 0.41975403 0.7903671q0.023544312 0.42121506 -0.22511292 0.73241043q-0.23304749 0.31032562 -0.64990234 0.411808q-0.07800293 0.004348755 -0.69680786 0.1327362q-0.6179199 0.14398575 -1.4698639 0.30101776q-0.8510742 0.17263031 -1.7827606 0.30280685q-0.9316864 0.13017654 -1.6025085 0.1675682q-5.179474 0.2887001 -8.109863 -2.3022346q-2.9156647 -2.6074028 -3.4754944 -7.5839577q-0.22012329 -2.538559 0.20393372 -4.471405q0.423172 -1.9484444 1.2209625 -3.3543968q0.7969208 -1.4215546 1.8392792 -2.3716621q1.0414734 -0.9657059 2.0432281 -1.5223198q1.0164795 -0.573082 1.8319855 -0.8219776q0.8302307 -0.2653656 1.2202606 -0.28710556q1.0140533 -0.05652237 2.197281 0.39395142q1.1823578 0.43487358 2.2227478 1.4097347q1.0559998 0.9739914 1.8478394 2.5417252q0.79096985 1.5521393 1.069046 3.7275352q0.25144958 0.29896927 0.2732544 0.6889839q0.02178955 0.39001465 -0.19651794 0.6838722q-0.14361572 0.7904663 -1.0016632 0.838295q-0.39001465 0.021736145 -0.6839142 -0.19662094q-1.0321655 0.29227066 -2.1474915 0.7769661q-0.99398804 0.41534042 -1.9611511 0.7509346q-0.9524231 0.3191223 -1.7324677 0.36260223q-0.42121887 0.023479462 -1.1474762 0.18915176q-0.7115326 0.14920425 -1.5582428 0.3998413q-0.84757996 0.23503494 -1.7090149 0.50214005q-0.8623047 0.251503 -1.553009 0.49344254q0.29115295 2.4094048 1.3247681 3.8228226q1.0327301 1.3978157 2.3885345 2.1360054q1.3549347 0.7225914 2.8197632 0.8913307q1.480423 0.16787338 2.6504822 0.1026535q0.62402344 -0.03478241 1.5089111 -0.1623497q0.9004822 -0.12843704 1.7056274 -0.2828598q0.81985474 -0.17089462 1.4395294 -0.28367996l0.58847046 -0.11104584l0.15426636 -0.03989792z" fill-rule="nonzero"></path></g></svg>

