<?xml version="1.0" standalone="yes"?>

<svg version="1.1" viewBox="0.0 0.0 448.0 100.0" fill="none" stroke="none" stroke-linecap="square" stroke-miterlimit="10" xmlns="http://www.w3.org/2000/svg" xmlns:xlink="http://www.w3.org/1999/xlink"><clipPath id="p.0"><path d="m0 0l448.0 0l0 100.0l-448.0 0l0 -100.0z" clip-rule="nonzero"></path></clipPath><g clip-path="url(#p.0)"><path fill="#000000" fill-opacity="0.0" d="m0 0l448.0 0l0 100.0l-448.0 0z" fill-rule="nonzero"></path><path fill="#9fc5e8" d="m18.047167 21.978333l416.38318 -1.923996l-47.011993 21.178871l47.011993 17.327896l-44.771515 5.774971l40.294006 21.178871l-409.6652 -1.923996l44.77153 -15.4039l-51.489513 -5.774971l44.774998 -15.4039z" fill-rule="nonzero"></path><path stroke="#666666" stroke-width="2.0" stroke-linejoin="round" stroke-linecap="butt" d="m18.047167 21.978333l416.38318 -1.923996l-47.011993 21.178871l47.011993 17.327896l-44.771515 5.774971l40.294006 21.178871l-409.6652 -1.923996l44.77153 -15.4039l-51.489513 -5.774971l44.774998 -15.4039z" fill-rule="nonzero"></path><path fill="#000000" fill-opacity="0.0" d="m36.088688 14.486423l375.81863 0.03579521l0 66.436035l-375.81863 -0.03579712z" fill-rule="nonzero"></path><path fill="#666666" d="m110.13082 48.56535q2.109375 1.9836426E-4 3.625 0.14096832q1.53125 0.14076996 2.4375 0.2502327q-0.203125 -0.5468941 -0.34375 -0.96878433q-0.125 -0.43751144 -0.25 -0.7500229q-0.234375 -0.9375229 -0.671875 -2.2813148q-0.421875 -1.3437881 -0.953125 -2.8438377q-0.515625 -1.5156746 -1.0625 -3.015728q-0.546875 -1.5000534 -1.0625 -2.750103q-0.578125 1.2499466 -1.234375 2.7498856q-0.640625 1.499939 -1.25 3.015503q-0.59375 1.4999466 -1.125 2.8748932q-0.53125 1.3593254 -0.84375 2.296795q-0.078125 0.31249237 -0.21875 0.6406059q-0.125 0.32811356 -0.28125 0.7655983q1.5625 -0.12485123 3.234375 -0.12469101zm7.578125 -1.905529q0.203125 0.7343941 0.6875 2.1094398q0.484375 1.3594208 1.0625 2.9844742q0.59375 1.6250572 1.234375 3.3126183q0.65625 1.6719398 1.15625 3.0626106q0.515625 1.3750496 0.859375 2.265709q0.359375 0.87503433 0.359375 0.90628433q0.078125 0.15625763 0.078125 0.39063263q0 0.75 -0.703125 1.0311813q-0.125 0.078113556 -0.390625 0.07808685q-0.3125 -3.0517578E-5 -0.609375 -0.18755722q-0.296875 -0.1719017 -0.40625 -0.51566315q-0.046875 -0.12500381 -0.484375 -1.2031708q-0.421875 -1.078167 -1.03125 -2.6407242q-0.59375 -1.5625572 -1.34375 -3.4063797q-0.734375 -1.8594437 -1.4375 -3.5470085q-0.78125 -0.109451294 -1.796875 -0.26579666q-0.859375 -0.07820892 -2.09375 -0.17207718q-1.234375 -0.10948944 -2.71875 -0.109630585q-1.015625 -9.918213E-5 -2.09375 0.06229782q-1.0625 0.062400818 -2.078125 0.14042664q-0.703125 1.6718102 -1.53125 3.593605q-0.8125 1.9061737 -1.5625 3.5467262q-0.734375 1.6405563 -1.25 2.7967567q-0.5 1.1562004 -0.546875 1.2811966q-0.3125 0.6249695 -1.015625 0.62490463q-0.265625 -2.670288E-5 -0.421875 -0.07816696q-0.671875 -0.31256104 -0.671875 -1.031311q0 -0.1875 0.125 -0.42186356q0 -0.046875 0.421875 -0.99996185q0.4375 -0.95308304 1.078125 -2.421772q0.640625 -1.468689 1.421875 -3.2342377q0.78125 -1.7811775 1.484375 -3.4217339q-1.09375 0.10926819 -1.796875 0.21857834q-0.703125 0.093681335 -0.8125 0.093673706q-0.4375 -4.196167E-5 -0.734375 -0.26569748q-0.28125 -0.2812767 -0.359375 -0.82815933q0 -0.4375 0.25 -0.7187233q0.25 -0.2968521 0.6875 -0.37493515q0.078125 7.6293945E-6 1.109375 -0.140522q1.03125 -0.14052582 2.59375 -0.29662704q0.3125 -0.7030945 0.53125 -1.2812004q0.21875 -0.5937271 0.375 -1.0155869q0.34375 -1.0624695 1.03125 -2.7967758q0.6875 -1.7343102 1.46875 -3.6248627q0.78125 -1.9061737 1.578125 -3.6717224q0.796875 -1.7811775 1.390625 -2.9529953q0.078125 -0.6249924 0.625 -0.90618896q0.15625 -0.07810974 0.5 -0.07807922q0.3125 3.0517578E-5 0.546875 0.1250534q0.515625 0.2656746 0.59375 0.8906822q0.5 1.1719208 1.1875 2.9688644q0.6875 1.7969398 1.359375 3.703251q0.6875 1.8906937 1.234375 3.6251183q0.546875 1.7344284 0.859375 2.796959zm19.031242 13.048687q0.265625 -0.1562233 0.625 -0.15618896q0.578125 5.340576E-5 0.890625 0.46883392q0.203125 0.31251907 0.203125 0.6250191q0 0.5 -0.515625 0.8905754l-0.265625 0.2030983q-0.3125 0.2030983 -0.828125 0.3905487q-0.5 0.20307541 -1.15625 0.37488937q-0.640625 0.17181396 -1.375 0.17174149q-0.9375 -8.773804E-5 -2.265625 -0.5783386q-1.328125 -0.5626259 -2.609375 -1.906498q-1.265625 -1.3438721 -2.2499924 -3.5470886q-0.96875 -2.2188454 -1.203125 -5.4532394q-0.03125 -0.23437881 -0.03125 -0.4531288q0 -0.21875 0 -0.453125q0 -2.53125 0.90625 -4.562416q0.921875 -2.0311623 2.2031174 -3.4529152q1.296875 -1.4373741 2.6875 -2.2341194q1.390625 -0.7967415 2.359375 -0.87477493q0.203125 -0.046855927 0.40625 -0.04683304q0.21875 1.9073486E-5 0.421875 3.8146973E-5q1.125 1.0681152E-4 1.96875 0.21893692q0.84375 0.21883011 1.15625 0.37511063q0.421875 0.07816696 0.890625 0.6094589q0.46875 0.5156708 0.46875 2.0000458q0 0.46875 -0.328125 0.7812195q-0.328125 0.31246948 -0.765625 0.31242752q-0.46875 -4.5776367E-5 -0.78125 -0.3125763q-0.3125 -0.31253052 -0.3125 -0.7812805q0 -0.3125 -0.078125 -0.6250076q-0.234375 -0.07814407 -0.828125 -0.2344513q-0.578125 -0.15630722 -1.390625 -0.15638351q-0.15625 -1.5258789E-5 -0.296875 -2.670288E-5q-0.140625 -1.5258789E-5 -0.328125 0.046840668q-0.625 0.07806778 -1.671875 0.7029686q-1.03125 0.6249008 -2.03125 1.7810555q-0.984375 1.1405296 -1.734375 2.781086q-0.734375 1.6405525 -0.734375 3.7186775q0 0.1875 0 0.34375q0 0.15625 0.03125 0.3593788q0.15625 2.6562653 0.890625 4.453209q0.75 1.7969475 1.703125 2.906414q0.96875 1.1094666 1.921875 1.6095581q0.953125 0.48446655 1.625 0.4845276q0.46875 4.5776367E-5 0.890625 -0.10928726q0.4375 -0.12495804 0.78125 -0.26555252q0.359375 -0.14059067 0.546875 -0.2968216l0.203125 -0.10935593zm24.023438 -2.0758362q0 0.515625 0.125 1.0781364q0.140625 0.56251144 0.3125 1.0625305q0.1875 0.48439026 0.375 0.89065933q0.203125 0.40626907 0.3125 0.6094055q0.078125 0.15625763 0.109375 0.28126144q0.046875 0.109378815 0.046875 0.2656288q0 0.625 -0.578125 0.9374428q-0.203125 0.15623093 -0.515625 0.15620041q-0.65625 -6.1035156E-5 -0.96875 -0.54696655q0 -0.03125 -0.234375 -0.4687729q-0.234375 -0.43751907 -0.5 -1.1094208q-0.25 -0.6875229 -0.46875 -1.5000458q-0.203125 -0.8281441 -0.203125 -1.6562691q0 -0.1875 -0.03125 -0.4218788q-0.015625 -0.234375 -0.046875 -0.5468788q-0.046875 -0.5156288 -0.09375 -1.1406326q-0.03125 -0.6250038 -0.03125 -1.4843788q0 -0.546875 -0.078125 -1.1718826q-0.078125 -0.6250076 -0.15625 -1.3281403q-0.109375 -0.93751144 -0.21875 -1.9843941q-0.09375 -1.0625114 -0.09375 -2.2656364q0 -0.75 -0.3125 -1.6094017q-0.3125 -0.8594055 -0.9375 -1.5782166q-0.625 -0.7188072 -1.53125 -1.20327q-0.890625 -0.5000839 -2.0625 -0.50019836q-1.484375 -1.411438E-4 -2.640625 0.53100204q-1.140625 0.5311394 -2.0 1.3279343q-0.859375 0.7967911 -1.453125 1.7654839q-0.578125 0.9530716 -0.9375 1.7655373q0.203125 2.156269 0.515625 4.5781746q0.3125 2.4219055 0.640625 4.515686q0.328125 2.0781555 0.5625 3.4844284q0.234375 1.4062729 0.234375 1.5312729q0 0.390625 -0.28125 0.7030983q-0.265625 0.3124733 -0.8125 0.3905449q-0.421875 -3.8146973E-5 -0.71875 -0.25006866q-0.296875 -0.2500267 -0.375 -0.64065933q0 -0.125 -0.171875 -1.1718903q-0.171875 -1.0625153 -0.4375 -2.656292q-0.25 -1.6093979 -0.5625 -3.5781784q-0.3125 -1.9844055 -0.578125 -3.9688072q-0.859375 -0.20320511 -0.828125 -1.2969513q0.15625 -0.85935974 0.59375 -1.9843178q-0.078125 -0.8593826 -0.125 -1.6250153q-0.03125 -0.765625 -0.03125 -1.421875q0 -1.875 -0.125 -3.9843903q-0.109375 -2.1093826 -0.25 -3.921898q-0.140625 -1.8281364 -0.28125 -3.0312767q-0.125 -1.2187614 -0.125 -1.2968864q0 -0.421875 0.28125 -0.7187233q0.296875 -0.2968464 0.8125 -0.3749218q0.421875 4.005432E-5 0.734375 0.28131866q0.3125 0.26565552 0.359375 0.70316124q0 0.109375 0.109375 1.2656326q0.125 1.1562653 0.28125 2.8750267q0.15625 1.7187653 0.265625 3.7656517q0.125 2.0468864 0.125 3.9218864q1.203125 -1.5155106 2.984375 -2.593464q1.78125 -1.0779572 4.234375 -1.0777245q1.5625 1.487732E-4 2.875 0.62527466q1.3125 0.6251259 2.21875 1.6252136q0.921875 1.0000877 1.421875 2.2657585q0.515625 1.2656746 0.515625 2.5625496q0 1.125 0.09375 2.1093826q0.109375 0.96876144 0.21875 1.8750229q0.078125 0.7343826 0.15625 1.4218903q0.078125 0.6875076 0.078125 1.3437576q0 1.53125 0.125 2.3906364q0.03125 0.3437538 0.046875 0.6250038q0.03125 0.2656288 0.03125 0.5781288zm5.6171875 -19.093216q-0.65625 -6.1035156E-5 -1.109375 -0.4532318q-0.453125 -0.45316696 -0.453125 -1.109417q0 -0.671875 0.453125 -1.093708q0.453125 -0.43745422 1.109375 -0.4373932q0.625 6.1035156E-5 1.078125 0.437603q0.453125 0.42191696 0.453125 1.093792q0 0.65625 -0.453125 1.109333q-0.453125 0.45308304 -1.078125 0.453022zm0.515625 1.6406746q0.421875 3.8146973E-5 0.71875 0.25006866q0.296875 0.2500267 0.375 0.64065933q0 0.125 0.171875 1.2187653q0.171875 1.0937691 0.40625 2.656292q0.234375 1.5625191 0.453125 3.343792q0.21875 1.7656441 0.296875 3.1719017q0.078125 1.3750076 0.265625 3.2187767q0.203125 1.8281441 0.4375 3.484417q0.234375 1.6562729 0.40625 2.8594131q0.171875 1.1875153 0.171875 1.2656403q0 0.4375 -0.28125 0.7187233q-0.265625 0.2968521 -0.8125 0.3749237q-0.421875 -3.8146973E-5 -0.71875 -0.25006866q-0.296875 -0.2500267 -0.375 -0.68753433q0 -0.109375 -0.171875 -1.2812691q-0.171875 -1.1875153 -0.40625 -2.8437881q-0.234375 -1.6562729 -0.4375 -3.484417q-0.1875 -1.8437653 -0.265625 -3.250023q-0.078125 -1.3750076 -0.296875 -3.1250305q-0.21875 -1.7656441 -0.4375 -3.328167q-0.203125 -1.5625191 -0.390625 -2.6719093q-0.171875 -1.1093941 -0.171875 -1.1875191q0 -0.390625 0.234375 -0.7031021q0.234375 -0.3124771 0.671875 -0.39056015l0.15625 1.5258789E-5zm16.554688 2.0328255q-0.34375 -3.0517578E-5 -1.390625 0.3748703q-1.03125 0.35927582 -2.140625 1.327919q-1.109375 0.9530182 -2.078125 2.6560516q-0.953125 1.6874084 -1.1875 4.3436394q0.671875 -0.15618896 1.5 -0.34360886q0.84375 -0.20304489 1.6875 -0.37483978q0.84375 -0.17179489 1.59375 -0.2810974q0.765625 -0.12492752 1.234375 -0.124881744q0.546875 4.9591064E-5 1.390625 -0.2498703q0.84375 -0.26554108 1.65625 -0.5310898q0.671875 -0.23431015 1.25 -0.40613174q0.59375 -0.18744278 1.140625 -0.3436432q-0.15625 -1.5625114 -0.671875 -2.687561q-0.5 -1.1406746 -1.171875 -1.8751144q-0.65625 -0.75006104 -1.40625 -1.1095085q-0.734375 -0.37506866 -1.40625 -0.3751335zm7.390625 17.89133q0.421875 3.8146973E-5 0.71875 0.28131866q0.296875 0.2656517 0.375 0.81253433q0 0.421875 -0.265625 0.7187233q-0.25 0.2968521 -0.671875 0.37493896q-0.078125 -7.6293945E-6 -0.703125 0.093681335q-0.625 0.10931778 -1.484375 0.21860886q-0.859375 0.12491989 -1.796875 0.20295334q-0.9375 0.07803726 -1.609375 0.07797241q-5.1875 -4.9591064E-4 -7.96875 -2.7507591q-2.765625 -2.7658882 -3.046875 -7.765915q-0.078125 -2.5468826 0.453125 -4.453083q0.53125 -1.9218216 1.40625 -3.2811165q0.875 -1.3749161 1.96875 -2.2654343q1.09375 -0.906147 2.125 -1.4060478q1.046875 -0.5155258 1.875 -0.7185745q0.84375 -0.21866989 1.234375 -0.21863174q1.015625 9.918213E-5 2.171875 0.515831q1.15625 0.5001106 2.140625 1.531456q1.0 1.0313454 1.703125 2.6407852q0.703125 1.5938187 0.859375 3.781334q0.234375 0.3125229 0.234375 0.7031479q0 0.390625 -0.234375 0.6718521q-0.1875 0.7812309 -1.046875 0.7811508q-0.390625 -3.8146973E-5 -0.671875 -0.23443985q-1.046875 0.23427582 -2.1875 0.6560402q-1.015625 0.35927963 -2.0 0.64043427q-0.96875 0.26553345 -1.75 0.26546097q-0.421875 -4.196167E-5 -1.15625 0.124889374q-0.71875 0.109306335 -1.578125 0.3123474q-0.859375 0.18741989 -1.734375 0.40608597q-0.875 0.20304108 -1.578125 0.40610123q0.15625 2.4218903 1.109375 3.890728q0.953125 1.4532166 2.265625 2.2658424q1.3125 0.7970009 2.765625 1.0471382q1.46875 0.25014114 2.640625 0.25025177q0.625 6.1035156E-5 1.515625 -0.07798004q0.90625 -0.07804108 1.71875 -0.18733597q0.828125 -0.124923706 1.453125 -0.20298767l0.59375 -0.07806778l0.15625 -0.031234741zm18.320312 -19.685757q0.34375 0.10940933 0.578125 0.45318222q0.234375 0.32814407 0.203125 0.9062691q-0.046875 0.078121185 -0.34375 1.1562157q-0.28125 1.0780983 -0.71875 2.6093063q-0.421875 1.5155869 -0.953125 3.2186584q-0.53125 1.6874504 -1.03125 3.0155296q-0.515625 1.2968254 -1.078125 3.062397q-0.5625 1.7499466 -1.03125 3.3592758q-0.46875 1.5937042 -0.78125 2.7186737q-0.3125 1.1093483 -0.3125 1.1405983q-0.28125 0.8280983 -1.375 0.7811165q-0.78125 -0.26569748 -0.734375 -1.3750687l0.15625 -0.57810974q-0.078125 -0.12500763 -0.9375 -1.4688416q-0.859375 -1.3438301 -2.078125 -3.7970695q-1.203125 -2.4688644 -2.515625 -6.0158653q-1.3125 -3.562626 -2.28125 -8.140842q0 -0.34375 0.265625 -0.6562271q0.28125 -0.3124733 0.828125 -0.4374199q0.859375 8.392334E-5 1.046875 0.8594742q0.703125 3.1719437 1.578125 5.8282776q0.890625 2.656334 1.78125 4.781418q0.90625 2.1250877 1.71875 3.687664q0.828125 1.5625801 1.40625 2.5470085q0.515625 -1.6874504 1.109375 -3.6405182q0.609375 -1.9530678 1.15625 -3.4373894q0.515625 -1.2812004 1.03125 -2.9530296q0.53125 -1.6874466 0.953125 -3.1874084q0.4375 -1.515583 0.703125 -2.5624313q0.28125 -1.0624733 0.28125 -1.0937233q0.125 -0.35936356 0.453125 -0.59370804q0.328125 -0.23434448 0.921875 -0.18741226zm13.0390625 1.7981186q-0.34375 -3.4332275E-5 -1.390625 0.3748665q-1.03125 0.35927582 -2.140625 1.3279228q-1.109375 0.9530182 -2.078125 2.6560516q-0.953125 1.6874084 -1.1875 4.3436356q0.671875 -0.15618515 1.5 -0.34360886q0.84375 -0.20304108 1.6875 -0.37483597q0.84375 -0.17179489 1.59375 -0.28110123q0.765625 -0.124923706 1.234375 -0.124881744q0.546875 5.340576E-5 1.390625 -0.24986649q0.84375 -0.2655449 1.65625 -0.5310936q0.671875 -0.23431015 1.25 -0.40612793q0.59375 -0.1874466 1.140625 -0.3436432q-0.15625 -1.5625153 -0.671875 -2.6875648q-0.5 -1.1406708 -1.171875 -1.8751106q-0.65625 -0.75006104 -1.40625 -1.1095085q-0.734375 -0.37506866 -1.40625 -0.3751335zm7.390625 17.891327q0.421875 4.196167E-5 0.71875 0.28131866q0.296875 0.26565552 0.375 0.81253815q0 0.421875 -0.265625 0.7187233q-0.25 0.2968521 -0.671875 0.37493515q-0.078125 -7.6293945E-6 -0.703125 0.09368515q-0.625 0.109313965 -1.484375 0.21860886q-0.859375 0.12491608 -1.796875 0.20295334q-0.9375 0.07803345 -1.609375 0.07797241q-5.1875 -4.9591064E-4 -7.96875 -2.7507591q-2.765625 -2.7658882 -3.046875 -7.7659187q-0.078125 -2.5468788 0.453125 -4.453079q0.53125 -1.9218254 1.40625 -3.2811165q0.875 -1.3749161 1.96875 -2.265438q1.09375 -0.906147 2.125 -1.4060478q1.046875 -0.5155258 1.875 -0.7185707q0.84375 -0.21866989 1.234375 -0.21863174q1.015625 9.536743E-5 2.171875 0.515831q1.15625 0.5001106 2.140625 1.5314522q1.0 1.0313454 1.703125 2.640789q0.703125 1.5938187 0.859375 3.78133q0.234375 0.3125229 0.234375 0.7031479q0 0.390625 -0.234375 0.6718521q-0.1875 0.78123474 -1.046875 0.7811508q-0.390625 -3.4332275E-5 -0.671875 -0.23443985q-1.046875 0.23427582 -2.1875 0.656044q-1.015625 0.35927963 -2.0 0.64043427q-0.96875 0.26553345 -1.75 0.26545715q-0.421875 -3.8146973E-5 -1.15625 0.124889374q-0.71875 0.109306335 -1.578125 0.31235123q-0.859375 0.18741989 -1.734375 0.40608597q-0.875 0.20304108 -1.578125 0.4060974q0.15625 2.4218903 1.109375 3.8907318q0.953125 1.4532166 2.265625 2.2658424q1.3125 0.7969971 2.765625 1.0471382q1.46875 0.25013733 2.640625 0.25025177q0.625 5.722046E-5 1.515625 -0.077983856q0.90625 -0.07803726 1.71875 -0.18733597q0.828125 -0.12491989 1.453125 -0.20298386l0.59375 -0.078071594l0.15625 -0.031234741zm37.257828 -3.3245735q0 0.46875 -0.046875 0.9374924q-0.03125 0.46875 -0.109375 0.9062424q-0.078125 0.42186737 -0.125 0.81248856q-0.03125 0.3906212 -0.03125 0.7812462q0 0.703125 0.234375 1.2968979q0.046875 0.109378815 0.0625 0.21875381q0.015625 0.093753815 0.015625 0.21875381q0 0.703125 -0.703125 1.0155563q-0.3125 0.07809448 -0.390625 0.07808685q-0.734375 -6.866455E-5 -1.046875 -0.7032242q-0.203125 -0.5625191 -0.28125 -1.0625267q-0.078125 -0.5156326 -0.078125 -1.0625076q0 -0.5 0.03125 -0.9687462q0.046875 -0.4687462 0.125 -0.90623856q0.078125 -0.42186737 0.109375 -0.79686356q0.046875 -0.3749962 0.046875 -0.7656212q0 -0.546875 -0.078125 -1.0156326q-0.078125 -0.46875763 -0.1875 -0.9687691q-0.078125 -0.5937576 -0.1875 -1.2187653q-0.09375 -0.62501144 -0.09375 -1.3593864q0 -0.546875 0.015625 -0.9687462q0.03125 -0.4375 0.0625 -0.8749962q0.046875 -0.7031212 0.078125 -1.8281174q0.046875 -1.1406212 0.046875 -3.3593712q0 -1.796875 -0.859375 -2.65633q-0.703125 -0.70319366 -1.71875 -0.81266403q-1.015625 -0.12509537 -1.609375 -0.12515259q-0.546875 -5.340576E-5 -1.21875 0.23425674q-0.65625 0.23431396 -1.34375 0.5936241q-0.671875 0.34368515 -1.265625 0.7030029q-0.57814026 0.3436966 -0.96876526 0.57803345q-0.203125 0.10935593 -0.359375 0.18746567q-0.15625 0.07810974 -0.265625 0.1562233q-0.203125 0.12498093 -0.640625 0.68743896q-0.421875 0.56246185 -0.765625 1.2343025q-0.234375 0.3437271 -0.59375 0.46869278q0 1.015625 0.09375 1.9218864q0.109375 0.89063644 0.1875 1.6718903q0.078125 0.7812576 0.15625 1.5000153q0.078125 0.7187576 0.078125 1.3906326q0 0.8125 0.03125 1.4218788q0.046875 0.6093788 0.078125 1.1093826q0.125 0.70313644 0.125 1.2500114q0 0.546875 0.125 1.1406364q0.140625 0.57814026 0.3125 1.1094055q0.1875 0.5312691 0.375 0.96878815q0.203125 0.42189407 0.3125 0.6562767q0.15625 0.18751526 0.15625 0.50001526q0 0.3125 -0.140625 0.57811356q-0.125 0.24998856 -0.4375 0.40620804q-0.234375 0.12497711 -0.515625 0.12495041q-0.65625 -6.1035156E-5 -0.96875 -0.56259155q0 -0.03125 -0.234375 -0.4843979q-0.234375 -0.4531479 -0.5 -1.1562996q-0.25 -0.7031479 -0.46875 -1.562542q-0.203125 -0.8593941 -0.203125 -1.7187691q0 -0.1875 -0.03125 -0.4531288q-0.015625 -0.2812538 -0.046875 -0.5937538q-0.078125 -0.5156326 -0.125 -1.1718864q-0.03125 -0.6718788 -0.03125 -1.5625038q0 -0.546875 -0.078125 -1.2031326q-0.078125 -0.6718826 -0.15625 -1.4218903q-0.078125 -1.0156326 -0.203125 -2.109394q-0.109375 -1.0937614 -0.109375 -2.3750114q0 -0.78125 -0.34375 -1.7031593q-0.328125 -0.9219055 -0.953125 -1.6719627q-0.625 -0.76568604 -1.546875 -1.2657738q-0.90625 -0.51571274 -2.125 -0.5158272q-1.515625 -1.449585E-4 -2.71875 0.5934906q-1.1875 0.57801056 -2.0625 1.4373055q-0.875 0.8592911 -1.46875 1.8748589q-0.578125 1.0155716 -0.953125 1.8905334q-0.375 0.87496567 -0.53125 1.4687004l-0.15625 0.62498474q-0.03125 0.3124962 -0.3125 0.5780945l0 0.671875q0 0.96875 0.296875 2.1875305q0.296875 1.2031517 0.609375 2.5781822q0.46875 1.7500458 0.875 3.671959q0.40625 1.9062881 0.40625 3.9062881q0 0.4375 -0.328125 0.7655945q-0.328125 0.32809067 -0.765625 0.32805252q-0.46875 -4.5776367E-5 -0.78125 -0.3282013q-0.3125 -0.32815552 -0.3125 -0.7656555q0 -1.796875 -0.390625 -3.5937881q-0.390625 -1.7969093 -0.8125 -3.4375763q-0.390625 -1.4844131 -0.6875 -2.8125648q-0.296875 -1.3281517 -0.296875 -2.5000267q0 -1.140625 -0.15625 -2.8281403q-0.15625 -1.7031403 -0.375 -3.3281631q-0.203125 -1.6250191 -0.359375 -2.8125343q-0.15625 -1.1875153 -0.15625 -1.2656403q0 -0.4375 0.265625 -0.7187233q0.28125 -0.2968483 0.828125 -0.3749199q0.390625 3.4332275E-5 0.671875 0.25006485q0.296875 0.2500267 0.375 0.68753433q0 0.078125 0.078125 0.48438263q0.078125 0.40625763 0.171875 1.0781403q0.109375 0.65626144 0.203125 1.5468941q0.09375 0.87501144 0.21875 1.8125229q0.578125 -1.0936966 1.390625 -2.1404953q0.828125 -1.0624199 1.90625 -1.8748169q1.078125 -0.828022 2.40625 -1.3278961q1.328125 -0.5154991 2.921875 -0.5153465q1.25 1.18255615E-4 2.34375 0.40647507q1.09375 0.406353 1.953125 1.0939331q0.859375 0.6875839 1.484375 1.6095161q0.625 0.90631104 0.984375 1.9219704q0.3125 -0.42184448 0.65625 -0.79681396q0.359375 -0.37496567 0.703125 -0.56243134q0.203125 -0.07810593 0.515625 -0.3124504q0.5 -0.31245422 1.21875 -0.71863556q0.73439026 -0.42180252 1.5312653 -0.81235504q0.796875 -0.3905487 1.65625 -0.6404648q0.859375 -0.24991989 1.640625 -0.2498436q0.359375 3.4332275E-5 0.921875 0.015712738q0.5625 0.015678406 1.21875 0.17198944q0.671875 0.15631485 1.375 0.4688835q0.703125 0.31256485 1.296875 0.9063721q1.484375 1.5626411 1.484375 4.218891q0 2.296875 -0.0625 3.4531174q-0.0625 1.1562462 -0.09375 1.8906174q-0.046875 0.4374962 -0.046875 0.8124962q0 0.359375 0 0.875q0 0.578125 0.078125 1.0937576q0.078125 0.5000076 0.15625 1.0468903q0.125 0.54688644 0.21875 1.1562691q0.09375 0.60938644 0.09375 1.2656364zm13.4375 -14.561222q-0.34375 -3.4332275E-5 -1.390625 0.3748665q-1.03125 0.35927963 -2.140625 1.3279228q-1.109375 0.9530182 -2.078125 2.6560516q-0.953125 1.6874084 -1.1875 4.3436356q0.671875 -0.15618515 1.5 -0.34360504q0.84375 -0.20304489 1.6875 -0.37483978q0.84375 -0.17179489 1.59375 -0.2810974q0.765625 -0.12492752 1.234375 -0.124881744q0.546875 4.9591064E-5 1.390625 -0.2498703q0.84375 -0.2655449 1.65625 -0.5310898q0.671875 -0.23431396 1.25 -0.40613174q0.59375 -0.18744278 1.140625 -0.3436432q-0.15625 -1.5625153 -0.671875 -2.687561q-0.5 -1.1406746 -1.171875 -1.8751144q-0.65625 -0.75006104 -1.40625 -1.1095085q-0.734375 -0.37506866 -1.40625 -0.3751335zm7.390625 17.89133q0.421875 3.8146973E-5 0.71875 0.28131866q0.296875 0.2656517 0.375 0.81253433q0 0.421875 -0.265625 0.7187233q-0.25 0.2968521 -0.671875 0.37493515q-0.078125 -3.8146973E-6 -0.703125 0.09368515q-0.625 0.109313965 -1.484375 0.21860886q-0.859375 0.12491608 -1.796875 0.20295334q-0.9375 0.07803726 -1.609375 0.07797241q-5.1875 -4.9591064E-4 -7.96875 -2.7507591q-2.765625 -2.7658882 -3.046875 -7.765915q-0.078125 -2.5468826 0.453125 -4.453083q0.53125 -1.9218254 1.40625 -3.2811165q0.875 -1.3749161 1.96875 -2.265438q1.09375 -0.9061432 2.125 -1.4060478q1.046875 -0.515522 1.875 -0.7185707q0.84375 -0.21866989 1.234375 -0.21863174q1.015625 9.536743E-5 2.171875 0.515831q1.15625 0.5001106 2.140625 1.531456q1.0 1.0313454 1.703125 2.6407852q0.703125 1.5938187 0.859375 3.781334q0.234375 0.3125229 0.234375 0.7031479q0 0.390625 -0.234375 0.6718521q-0.1875 0.7812309 -1.046875 0.7811508q-0.390625 -3.8146973E-5 -0.671875 -0.23443985q-1.046875 0.23427582 -2.1875 0.6560402q-1.015625 0.35927963 -2.0 0.64043427q-0.96875 0.26553345 -1.75 0.26546097q-0.421875 -4.196167E-5 -1.15625 0.124889374q-0.71875 0.109306335 -1.578125 0.3123474q-0.859375 0.18741989 -1.734375 0.40608597q-0.875 0.20304108 -1.578125 0.40610123q0.15625 2.4218864 1.109375 3.890728q0.953125 1.4532166 2.265625 2.2658424q1.3125 0.7970009 2.765625 1.0471382q1.46875 0.25014114 2.640625 0.25025177q0.625 5.722046E-5 1.515625 -0.07798004q0.90625 -0.07804108 1.71875 -0.18733597q0.828125 -0.124923706 1.453125 -0.20298767l0.59375 -0.07806778l0.15625 -0.031234741zm23.039032 -2.8884315q0 0.546875 0.140625 1.1406364q0.140625 0.57814026 0.328125 1.1094093q0.203125 0.5156441 0.390625 0.95315933q0.203125 0.42189407 0.3125 0.6562805q0.125 0.23438644 0.125 0.54688644q0 0.640625 -0.546875 0.9530754q-0.15625 0.07810974 -0.28125 0.1093483q-0.109375 0.046863556 -0.265625 0.046848297q-0.625 -6.1035156E-5 -0.9375 -0.59383774q-0.046875 -0.03125763 -0.28125 -0.48440552q-0.234375 -0.45314407 -0.484375 -1.1562958q-0.25 -0.7031479 -0.46875 -1.562542q-0.21875 -0.8593979 -0.21875 -1.7187729q0 -0.203125 -0.015625 -0.453125q-0.015625 -0.2500038 -0.0625 -0.5625076q-0.03125 -0.5468788 -0.078125 -1.1875076q-0.03125 -0.65625 -0.03125 -1.546875q0 -0.59375 -0.078125 -1.2343826q-0.078125 -0.6406326 -0.15625 -1.4218903q-0.125 -0.98438644 -0.21875 -2.093773q-0.09375 -1.1093826 -0.09375 -2.3593826q0 -0.78125 -0.34375 -1.7031593q-0.328125 -0.9219055 -0.953125 -1.7032166q-0.625 -0.7813072 -1.546875 -1.281395q-0.90625 -0.51571274 -2.125 -0.5158272q-1.515625 -1.449585E-4 -2.71875 0.5778656q-1.1875 0.56238556 -2.046875 1.4216805q-0.859375 0.8592911 -1.46875 1.8592339q-0.59375 0.9843178 -0.953125 1.8749084q-0.34375 0.8749695 -0.53125 1.4999504q-0.171875 0.62498474 -0.171875 0.70310974q-0.109375 0.34373856 -0.3125 0.5468445l0 0.703125q0 0.9375 0.265625 2.1562767q0.28125 1.2031517 0.640625 2.562561q0.421875 1.7656631 0.828125 3.6875763q0.421875 1.906292 0.421875 3.906292q0 0.46875 -0.3125 0.7812195q-0.3125 0.31246948 -0.78125 0.31242752q-0.4375 -4.196167E-5 -0.765625 -0.3125763q-0.328125 -0.31253052 -0.328125 -0.7812805q0 -1.8125 -0.375 -3.6094093q-0.375 -1.7969131 -0.796875 -3.4375763q-0.390625 -1.4375381 -0.6875 -2.7813148q-0.296875 -1.3594055 -0.296875 -2.4844055q0 -1.140625 -0.15625 -2.8593903q-0.15625 -1.7187614 -0.37496948 -3.3281593q-0.203125 -1.6250191 -0.390625 -2.8125381q-0.171875 -1.2031403 -0.171875 -1.2812653q0 -0.390625 0.265625 -0.7030983q0.28125 -0.3124733 0.8280945 -0.3905487q0.4375 4.196167E-5 0.71875 0.26569366q0.296875 0.25003052 0.375 0.67191315q0 0.078125 0.078125 0.5000076q0.078125 0.40625763 0.15625 1.0937653q0.078125 0.6718788 0.1875 1.5312653q0.125 0.85938644 0.25 1.7968979q0.578125 -1.0936928 1.375 -2.1404915q0.8125 -1.0624237 1.875 -1.8748207q1.078125 -0.828022 2.40625 -1.3278961q1.328125 -0.5154991 2.96875 -0.5153427q1.609375 1.5258789E-4 2.90625 0.65652466q1.3125 0.6407509 2.25 1.7033424q0.9375 1.0469627 1.46875 2.3751373q0.53125 1.3281746 0.53125 2.6562996q0 1.171875 0.09375 2.2343864q0.09375 1.0468826 0.21875 1.9375191q0.078125 0.7812576 0.15625 1.5312653q0.078125 0.7343826 0.078125 1.4062576q0 1.5625 0.109375 2.5000114q0.046875 0.3437538 0.0625 0.6406288q0.015625 0.2968788 0.015625 0.6093788zm17.585938 -15.70145q0.34375 0.07815552 0.578125 0.4375534q0.234375 0.3437729 0.203125 0.8906441q-0.203125 0.8124809 -1.328125 0.8123741q0 -0.03125 -1.453125 -0.26576233q-1.4375 -0.23451233 -3.859375 -0.2816162q0.109375 2.2343826 0.109375 3.6718826q0 0.75 0.09375 2.1250114q0.109375 1.3593826 0.234375 2.984398q0.140625 1.6093864 0.296875 3.3125267q0.15625 1.7031403 0.3125 3.0937805q0.15625 1.3750153 0.25 2.296898q0.109375 0.92188644 0.109375 0.95313644q0 0.4375 -0.296875 0.7343445q-0.296875 0.2968483 -0.796875 0.3749237q-0.4375 -3.8146973E-5 -0.75 -0.28131866q-0.3125 -0.26565552 -0.34375 -0.70315933q0 -0.125 -0.125 -1.0625114q-0.109375 -0.93751144 -0.25 -2.312523q-0.140625 -1.3906403 -0.296875 -3.0625305q-0.15625 -1.6875153 -0.296875 -3.3125267q-0.125 -1.6250114 -0.234375 -2.984398q-0.09375 -1.3750076 -0.09375 -2.1562576q0 -1.484375 -0.109375 -3.5937614q-1.015625 0.07802963 -2.0 0.20293427q-0.96875 0.10928345 -1.734375 0.21858597q-0.765625 0.09367752 -1.25 0.17175674q-0.484375 0.07807541 -0.5625 0.07806778q-0.390625 -3.4332275E-5 -0.703125 -0.26568985q-0.3125 -0.28128052 -0.390625 -0.82816315q0 -0.390625 0.25 -0.6874771q0.25 -0.2968483 0.6875 -0.37493134q0.03125 0 0.515625 -0.09370422q0.5 -0.09370041 1.25 -0.18737793q0.765625 -0.10930252 1.734375 -0.20296097q0.984375 -0.09365463 2.046875 -0.17168045q-0.078125 -1.0937576 -0.1875 -2.171894q-0.09375 -1.0781326 -0.1875 -2.0625153q-0.09375 -1.0000114 -0.21875 -1.8593979q-0.109375 -0.8593826 -0.234375 -1.4843979q0 -0.390625 0.265625 -0.7030983q0.28125 -0.3124733 0.828125 -0.3905449q0.390625 3.4332275E-5 0.6875 0.23443985q0.296875 0.2344017 0.375 0.65628433q0.265625 1.2187767 0.5 3.3281746q0.234375 2.109398 0.4375 4.328167q1.328125 1.2588501E-4 2.390625 0.07835007q1.078125 0.078228 1.84375 0.20330048q0.765625 0.10944748 1.203125 0.21886444q0.453125 0.09379578 0.5 0.09379959zm13.4375 7.032528q6.90625 3.360035 6.90625 7.06316q0 1.140625 -0.515625 2.2343254q-0.5 1.0937042 -1.203125 2.0155106q-0.703125 0.90618134 -1.46875 1.5936089q-0.75 0.68743134 -1.265625 0.96863174q-0.46875 0.26557922 -1.234375 0.51550674q-0.75 0.26555252 -1.5625 0.45297623q-0.796875 0.2030487 -1.515625 0.31235504q-0.71875 0.124931335 -1.1875 0.12488556q-1.015625 -9.536743E-5 -2.171875 -0.343956q-1.15625 -0.32823563 -2.21875 -1.0939598q-1.046875 -0.7657242 -1.890625 -2.0158043q-0.828125 -1.2500801 -1.296875 -3.078251q0 -0.859375 1.09375 -1.093647q0.34375 3.4332275E-5 0.65625 0.21881485q0.3125 0.20315552 0.390625 0.59378815q0.4375 1.640667 1.234375 2.5626144q0.796875 0.9219513 1.640625 1.3907814q0.84375 0.4688301 1.5625 0.5626488q0.71875 0.093818665 1.0 0.09384537q0.34375 3.4332275E-5 0.96875 -0.09365463q0.625 -0.09369278 1.265625 -0.26550674q0.65625 -0.18743515 1.25 -0.37488174q0.609375 -0.20306396 0.921875 -0.39053726q0.359375 -0.20309067 0.9375 -0.71865845q0.59375 -0.5311928 1.109375 -1.218647q0.53125 -0.6874466 0.921875 -1.4686623q0.390625 -0.78121185 0.390625 -1.4843369q0 -0.390625 -0.234375 -0.9062729q-0.234375 -0.5312691 -0.84375 -1.1719551q-0.59375 -0.6563034 -1.71875 -1.390789q-1.109375 -0.750103 -2.859375 -1.6096458q-1.140625 -0.5469818 -2.375 -1.1252251q-1.21875 -0.59386826 -2.28125 -1.0783424q-1.046875 -0.48447418 -1.75 -0.84391785l-0.703125 -0.31256485l-0.625 -0.26568604l0 -0.703125q0 -1.796875 0.890625 -3.140541q0.90625 -1.3592873 2.1875 -2.2654152q1.296875 -0.9217529 2.71875 -1.3903656q1.421875 -0.4686165 2.515625 -0.4685135q1.140625 1.1062622E-4 1.921875 0.2814331q0.78125 0.2657013 1.28125 0.5938721q0.515625 0.3281746 0.765625 0.6250763q0.25 0.2968979 0.296875 0.3750267q0.1875 0.26564407 0.1875 0.5781441q0 0.59375 -0.5 0.9062004q-0.3125 0.18746948 -0.59375 0.18744278q-0.578125 -5.340576E-5 -0.890625 -0.5000839q-0.046875 -3.8146973E-6 -0.1875 -0.14064407q-0.125 -0.14063644 -0.421875 -0.29691315q-0.296875 -0.15628052 -0.75 -0.28132248q-0.4375 -0.14066696 -1.109375 -0.14073181q-0.65625 -6.1035156E-5 -1.59375 0.28110123q-0.9375 0.26553345 -1.875 0.8279457q-0.9375 0.56240845 -1.6875 1.3904648q-0.734375 0.8124275 -0.9375 1.9061584q0.515625 0.23442459 1.25 0.5782471q0.75 0.32819366 1.625 0.7345276q0.875 0.40633392 1.8125 0.85954666q0.9375 0.45321655 1.765625 0.84391785z" fill-rule="nonzero"></path></g></svg>

