<?xml version="1.0" standalone="yes"?>

<svg version="1.1" viewBox="0.0 0.0 326.9527559055118 105.12860892388451" fill="none" stroke="none" stroke-linecap="square" stroke-miterlimit="10" xmlns="http://www.w3.org/2000/svg" xmlns:xlink="http://www.w3.org/1999/xlink"><clipPath id="p.0"><path d="m0 0l326.95276 0l0 105.12861l-326.95276 0l0 -105.12861z" clip-rule="nonzero"></path></clipPath><g clip-path="url(#p.0)"><path fill="#000000" fill-opacity="0.0" d="m0 0l326.95276 0l0 105.12861l-326.95276 0z" fill-rule="nonzero"></path><path fill="#ead1dc" d="m31.842813 27.49805l263.14636 -1.8019371l-29.710693 19.835278l29.710693 16.228607l-28.294739 5.4086037l25.465057 19.835274l-258.90073 -1.8019333l28.294765 -14.426674l-32.540405 -5.4086l28.296957 -14.426674z" fill-rule="nonzero"></path><path stroke="#666666" stroke-width="2.0" stroke-linejoin="round" stroke-linecap="butt" d="m31.842813 27.49805l263.14636 -1.8019371l-29.710693 19.835278l29.710693 16.228607l-28.294739 5.4086037l25.465057 19.835274l-258.90073 -1.8019333l28.294765 -14.426674l-32.540405 -5.4086l28.296957 -14.426674z" fill-rule="nonzero"></path><path fill="#000000" fill-opacity="0.0" d="m74.4399 21.436094l175.12112 0.033525467l0 62.221306l-175.12112 -0.03352356z" fill-rule="nonzero"></path><path fill="#666666" d="m128.68796 49.424603q1.875 0.5159836 3.359375 1.6725197q1.484375 1.1409073 2.5 2.6098518q1.015625 1.4689445 1.5625 3.0471764q0.546875 1.578228 0.546875 2.953228l-0.046875 0.5781174q-0.03125 1.0624924 -0.15625 2.2499695q-0.109375 1.1874809 -0.703125 2.3436165q-0.578125 1.1561356 -1.859375 2.1558914q-1.265625 0.98413086 -3.53125 1.6087036q-1.125 0.35915375 -2.046875 0.49960327q-0.921875 0.14044952 -1.78125 0.1402893q-1.25 -2.4414062E-4 -2.484375 -0.28173065q-1.21875 -0.28147888 -2.984375 -0.7505722q-1.59375 -0.39093018 -2.734375 -1.2661438q-1.125 -0.87522125 -1.875 -1.7503586q-0.734375 -0.89076996 -1.09375 -1.5627136q-0.34375 -0.68756485 -0.390625 -0.7656975q-0.109375 -0.15627289 -0.109375 -0.4375229q0 -0.65625 0.65625 -1.0154991q0.3125 -0.078063965 0.4375 -0.07804108q0.3125 6.1035156E-5 0.59375 0.18761444q0.296875 0.17193222 0.421875 0.4844551l0.265625 0.5000534q0.28125 0.5469284 0.859375 1.234539q0.59375 0.68761444 1.484375 1.3752823q0.90625 0.6720505 2.15625 1.031662q1.640625 0.4221878 2.703125 0.6567688q1.078125 0.234581 2.09375 0.23477936q1.328125 2.5177002E-4 3.25 -0.49938202q1.671875 -0.51530457 2.609375 -1.1713715q0.9375 -0.6716995 1.359375 -1.4841194q0.4375 -0.8280411 0.53125 -1.765522q0.109375 -0.9374809 0.140625 -1.9530983l0.046875 -0.7031174q0 -0.8125 -0.421875 -2.015705q-0.40625 -1.2188263 -1.1875 -2.39085q-0.78125 -1.1720276 -1.96875 -2.1410027q-1.1875 -0.9846039 -2.75 -1.3755264q-1.0625 -0.312706 -2.25 -0.42230606q-1.1875 -0.12522888 -2.359375 -0.25045395q-1.375 -0.109638214 -2.6875 -0.26613617q-1.296875 -0.15649796 -2.359375 -0.56295395q-1.046875 -0.42207336 -1.734375 -1.1409569q-0.6875 -0.7188797 -0.796875 -1.9689026q0 -0.15625 -0.03125 -0.2656288q-0.015625 -0.12500381 -0.015625 -0.2500038q0 -1.515625 0.609375 -2.5936356q0.609375 -1.0780067 1.484375 -1.8122139q0.875 -0.74983215 1.828125 -1.218399q0.96875 -0.4685669 1.671875 -0.7809334q0.890625 -0.42170334 2.15625 -0.5933342q1.28125 -0.18725586 2.765625 -0.18697357q1.328125 2.5558472E-4 2.671875 0.15676498q1.34375 0.15650558 2.640625 0.46925354q0.859375 0.20328903 0.8125 1.2970314q-0.078125 0.39060974 -0.4375 0.6249161q-0.34375 0.23431015 -0.890625 0.18732834q-1.125 -0.31271362 -2.40625 -0.42233658q-1.265625 -0.12524033 -2.4375 -0.1254654q-1.25 -2.4032593E-4 -2.28125 0.14019012q-1.03125 0.14042664 -1.734375 0.45279312q-0.828125 0.34358978 -1.609375 0.765316q-0.78125 0.40610123 -1.375 0.9528618q-0.578125 0.5467644 -0.90625 1.2966995q-0.328125 0.73431396 -0.328125 1.749939q0.078125 1.0156403 1.53125 1.3752937q1.46875 0.34402847 4.015625 0.53201675q1.25 0.12524033 2.515625 0.26610947q1.265625 0.12524033 2.484375 0.43797302zm24.21875 8.910889q0.421875 0.5469551 1.296875 1.484623q0.890625 0.93766785 1.9375 2.03162q1.0625 1.0939522 2.171875 2.2347908q1.109375 1.1252136 2.03125 2.047264q0.921875 0.9220505 1.5 1.5315399q0.59375 0.59386444 0.625 0.59386444q0.359375 0.31256866 0.359375 0.79694366q0 0.390625 -0.3125 0.78118896q-0.390625 0.31243134 -0.78125 0.31235504q-0.46875 -9.1552734E-5 -0.78125 -0.3126526q-0.078125 -0.07814026 -0.703125 -0.7188797q-0.625 -0.6251221 -1.5625 -1.5315552q-0.9375 -0.9220505 -2.0625 -2.047264q-1.109375 -1.1408386 -2.1875 -2.2504196q-1.0625 -1.125206 -1.953125 -2.0628777q-0.875 -0.93766403 -1.296875 -1.515873q-0.859375 -1.062664 -1.921875 -2.3909912q-1.046875 -1.3283272 -2.1875 -2.5316696q-0.65625 0.5779991 -1.265625 1.1716347q-0.609375 0.57800674 -1.109375 1.0466614q-0.203125 0.20308685 -0.515625 0.31240082q0.234375 2.0000458 0.5 4.0157204q0.28125 2.0000534 0.515625 3.6407242q0.234375 1.6406708 0.390625 2.7032013q0.15625 1.0469055 0.15625 1.1719055q0 0.4375 -0.28125 0.7186966q-0.265625 0.2968216 -0.8125 0.37483978q-0.390625 -6.866455E-5 -0.6875 -0.2501297q-0.28125 -0.2500534 -0.359375 -0.68756866q0 -0.109375 -0.1875 -1.1250381q-0.171875 -1.0312805 -0.390625 -2.5469437q-0.203125 -1.531292 -0.46875 -3.4219666q-0.25 -1.8906746 -0.484375 -3.8282204q-0.234375 -1.9375458 -0.375 -3.6875725q-0.125 -1.7656479 -0.125 -3.046898q0 -1.875 -0.125 -3.984398q-0.109375 -2.109398 -0.25 -3.9219246q-0.140625 -1.8281517 -0.265625 -3.0312996q-0.109375 -1.2187729 -0.109375 -1.2968979q0 -0.421875 0.296875 -0.7186928q0.296875 -0.29681778 0.796875 -0.3748474q0.4375 8.392334E-5 0.75 0.29701996q0.3125 0.29693604 0.34375 0.71881485q0 0.125 0.109375 1.3437729q0.125 1.2031479 0.265625 3.0156746q0.140625 1.8125267 0.25 3.9219246q0.125 2.109398 0.125 4.031273q0 0.703125 0.046875 1.5468826q0.0625 0.82813644 0.140625 1.8437767q0.46875 -0.42178345 1.09375 -0.9997902q0.625 -0.5936279 1.265625 -1.1560059q0.65625 -0.5779991 1.28125 -1.0622559q0.625 -0.48425674 1.046875 -0.7185478q0.4375 -0.23429489 1.0 -0.81230927q0.5625 -0.5936432 1.109375 -1.2185402q0.703125 -0.7811127 1.390625 -1.437233q0.6875 -0.6717415 1.34375 -1.0309906q0.234375 -0.10933304 0.515625 -0.10927963q0.625 1.2207031E-4 0.96875 0.5470619q0.125 0.23439789 0.125 0.5468979q0 0.265625 -0.140625 0.5312233q-0.140625 0.2499733 -0.453125 0.40616608q-0.421875 0.23429108 -1.0 0.82793045q-0.5625 0.5780182 -1.109375 1.2029152q-0.703125 0.7811127 -1.375 1.4528618q-0.65625 0.6561241 -1.3125 0.99974823q-0.28125 0.1561966 -0.9375 0.6716957q1.125 1.2502136 2.203125 2.5785446q1.078125 1.3283348 1.9375 2.3753738zm10.8515625 -12.841675q-0.65625 -1.2588501E-4 -1.109375 -0.45333862q-0.453125 -0.45320892 -0.453125 -1.1094589q0 -0.671875 0.453125 -1.0936661q0.453125 -0.43741226 1.109375 -0.43728638q0.625 1.2207031E-4 1.078125 0.437706q0.453125 0.42196274 0.453125 1.0938377q0 0.65625 -0.453125 1.1092873q-0.453125 0.45304108 -1.078125 0.452919zm0.515625 1.6407242q0.421875 8.010864E-5 0.71875 0.25013733q0.296875 0.25005722 0.375 0.6406975q0 0.125 0.171875 1.2187843q0.171875 1.0937805 0.40625 2.6563263q0.234375 1.5625458 0.453125 3.3438377q0.21875 1.765667 0.296875 3.1719322q0.078125 1.3750153 0.265625 3.2187996q0.203125 1.8281631 0.4375 3.484459q0.234375 1.6562958 0.40625 2.8594513q0.171875 1.1875305 0.171875 1.2656555q0 0.4375 -0.28125 0.7186966q-0.265625 0.29682922 -0.8125 0.3748474q-0.421875 -8.392334E-5 -0.71875 -0.25013733q-0.296875 -0.2500534 -0.375 -0.68756866q0 -0.109375 -0.171875 -1.2812881q-0.171875 -1.1875305 -0.40625 -2.8438263q-0.234375 -1.6562958 -0.4375 -3.484459q-0.1875 -1.8437843 -0.265625 -3.2500496q-0.078125 -1.3750153 -0.296875 -3.1250572q-0.21875 -1.765667 -0.4375 -3.328209q-0.203125 -1.5625381 -0.390625 -2.6719513q-0.171875 -1.1094055 -0.171875 -1.1875305q0 -0.390625 0.234375 -0.70308304q0.234375 -0.31245422 0.671875 -0.3904953l0.15625 3.0517578E-5zm11.3984375 4.220932q0 1.25 0.15625 3.0156555q0.15625 1.7500305 0.375 3.6719475q0.21875 1.906292 0.46875 3.7969627q0.25 1.8906746 0.484375 3.4375954q0.234375 1.5469208 0.390625 2.5313263q0.15625 0.9687805 0.15625 1.0469055q0 0.90625 -1.09375 1.0935364q-0.421875 -7.6293945E-5 -0.71875 -0.25013733q-0.296875 -0.2500534 -0.375 -0.68756866q-0.03125 -0.10938263 -0.1875 -1.1250381q-0.15625 -1.0312805 -0.375 -2.5469437q-0.21875 -1.5312958 -0.46875 -3.4219666q-0.25 -1.8906746 -0.484375 -3.8282204q-0.234375 -1.9375458 -0.375 -3.6875725q-0.140625 -1.7656517 -0.140625 -3.0469017q0 -1.875 -0.125 -3.984398q-0.109375 -2.109394 -0.234375 -3.9219208q-0.109375 -1.8281441 -0.234375 -3.0312958q-0.109375 -1.2187691 -0.109375 -1.2968941q0 -0.421875 0.265625 -0.7187004q0.28125 -0.2968216 0.828125 -0.37483978q0.4375 8.392334E-5 0.71875 0.29701233q0.296875 0.29693222 0.375 0.7188225q0 0.125 0.109375 1.3437691q0.125 1.2031517 0.234375 3.0156708q0.125 1.8125229 0.234375 3.9219208q0.125 2.109398 0.125 4.031273zm9.7265625 0.0018615723q0 1.25 0.15625 3.0156555q0.15625 1.7500305 0.375 3.6719475q0.21875 1.906292 0.46875 3.7969627q0.25 1.8906746 0.484375 3.4375954q0.234375 1.5469208 0.390625 2.5313263q0.15625 0.9687805 0.15625 1.0469055q0 0.90625 -1.09375 1.0935364q-0.421875 -7.6293945E-5 -0.71875 -0.25013733q-0.296875 -0.2500534 -0.375 -0.68756866q-0.03125 -0.10938263 -0.1875 -1.1250381q-0.15625 -1.0312805 -0.375 -2.5469437q-0.21875 -1.5312958 -0.46875 -3.4219666q-0.25 -1.8906746 -0.484375 -3.8282204q-0.234375 -1.937542 -0.375 -3.6875725q-0.140625 -1.7656517 -0.140625 -3.0469017q0 -1.875 -0.125 -3.984398q-0.109375 -2.109394 -0.234375 -3.9219208q-0.109375 -1.8281441 -0.234375 -3.031292q-0.109375 -1.2187729 -0.109375 -1.2968979q0 -0.421875 0.265625 -0.7187004q0.28125 -0.29681778 0.828125 -0.37483978q0.4375 8.392334E-5 0.71875 0.29701233q0.296875 0.29693222 0.375 0.7188225q0 0.125 0.109375 1.3437691q0.125 1.2031517 0.234375 3.0156708q0.125 1.8125229 0.234375 3.9219208q0.125 2.109398 0.125 4.031273zm16.257812 4.143738q6.90625 3.3606987 6.90625 7.0638237q0 1.140625 -0.515625 2.2342758q-0.5 1.0936508 -1.203125 2.015396q-0.703125 0.9061127 -1.46875 1.5934677q-0.75 0.68735504 -1.265625 0.96850586q-0.46875 0.26553345 -1.234375 0.5153885q-0.75 0.26548004 -1.5625 0.45282745q-0.796875 0.20297241 -1.515625 0.31221008q-0.71875 0.12486267 -1.1875 0.12477112q-1.015625 -1.9073486E-4 -2.171875 -0.344162q-1.15625 -0.32834625 -2.21875 -1.0941772q-1.046875 -0.76582336 -1.890625 -2.0159836q-0.828125 -1.2501602 -1.296875 -3.0783768q0 -0.859375 1.09375 -1.0935402q0.34375 6.484985E-5 0.65625 0.21887589q0.3125 0.20318222 0.390625 0.5938225q0.4375 1.6407127 1.234375 2.5627403q0.796875 0.9220276 1.640625 1.3909378q0.84375 0.46891022 1.5625 0.56279755q0.71875 0.09388733 1.0 0.093940735q0.34375 6.866455E-5 0.96875 -0.093566895q0.625 -0.09362793 1.265625 -0.26538086q0.65625 -0.1873703 1.25 -0.37475586q0.609375 -0.20301056 0.921875 -0.39044952q0.359375 -0.20305634 0.9375 -0.7185745q0.59375 -0.53113556 1.109375 -1.2185364q0.53125 -0.6874008 0.921875 -1.4685745q0.390625 -0.7811737 0.390625 -1.4842987q0 -0.390625 -0.234375 -0.9062958q-0.234375 -0.5312958 -0.84375 -1.1720352q-0.59375 -0.65636444 -1.71875 -1.3909531q-1.109375 -0.7502136 -2.859375 -1.6099243q-1.140625 -0.54709244 -2.375 -1.125454q-1.21875 -0.5939827 -2.28125 -1.0785637q-1.046875 -0.48457336 -1.75 -0.8440819l-0.703125 -0.31263733l-0.625 -0.26574326l0 -0.703125q0 -1.796875 0.890625 -3.1404533q0.90625 -1.3592033 2.1875 -2.2652092q1.296875 -0.92162704 2.71875 -1.3901024q1.421875 -0.46847916 2.515625 -0.46826935q1.140625 2.1743774E-4 1.921875 0.2816162q0.78125 0.2657776 1.28125 0.59399796q0.515625 0.32822418 0.765625 0.62514496q0.25 0.2969246 0.296875 0.37505722q0.1875 0.26565933 0.1875 0.57815933q0 0.59375 -0.5 0.90615463q-0.3125 0.18744278 -0.59375 0.18738937q-0.578125 -1.1062622E-4 -0.890625 -0.50017166q-0.046875 -7.6293945E-6 -0.1875 -0.14065933q-0.125 -0.1406517 -0.421875 -0.29695892q-0.296875 -0.15630722 -0.75 -0.28139114q-0.4375 -0.14070892 -1.109375 -0.14083862q-0.65625 -1.2588501E-4 -1.59375 0.28094482q-0.9375 0.2654457 -1.875 0.8277664q-0.9375 0.5623207 -1.6875 1.3903008q-0.734375 0.81235886 -0.9375 1.9060707q0.515625 0.23447418 1.25 0.5783653q0.75 0.32826996 1.625 0.7346878q0.875 0.40641403 1.8125 0.8597183q0.9375 0.4533081 1.765625 0.8440895z" fill-rule="nonzero"></path></g></svg>

