<?xml version="1.0" standalone="yes"?>

<svg version="1.1" viewBox="0.0 0.0 435.0 100.0" fill="none" stroke="none" stroke-linecap="square" stroke-miterlimit="10" xmlns="http://www.w3.org/2000/svg" xmlns:xlink="http://www.w3.org/1999/xlink"><clipPath id="p.0"><path d="m0 0l435.0 0l0 100.0l-435.0 0l0 -100.0z" clip-rule="nonzero"></path></clipPath><g clip-path="url(#p.0)"><path fill="#000000" fill-opacity="0.0" d="m0 0l435.0 0l0 100.0l-435.0 0z" fill-rule="nonzero"></path><path fill="#9fc5e8" d="m4.8871226 30.70428l415.61414 -25.144379l-45.75583 23.767384l47.90396 14.678398l-44.378235 8.262917l41.41147 18.897964l-409.1215 20.927788l43.841064 -17.876595l-51.729843 -2.894043l43.84453 -17.87679z" fill-rule="nonzero"></path><path stroke="#666666" stroke-width="2.0" stroke-linejoin="round" stroke-linecap="butt" d="m4.8871226 30.70428l415.61414 -25.144379l-45.75583 23.767384l47.90396 14.678398l-44.378235 8.262917l41.41147 18.897964l-409.1215 20.927788l43.841064 -17.876595l-51.729843 -2.894043l43.84453 -17.87679z" fill-rule="nonzero"></path><path fill="#000000" fill-opacity="0.0" d="m22.482037 22.217987l375.2234 -20.925238l3.7061462 66.33081l-375.22336 20.92524z" fill-rule="nonzero"></path><path fill="#666666" d="m103.25674 35.375164q0.61026764 0.27895355 0.6468735 0.9341812q0.013076782 0.23400879 -0.09603882 0.5217819q-0.4451828 0.99507904 -1.0981369 2.7529144q-0.637352 1.7569656 -1.310173 3.719349q-0.6736908 1.9467812 -1.2572708 3.8259392q-0.58444977 1.8635597 -0.9064789 3.1021614q-0.19042206 0.7930832 -0.64414215 2.1955223q-0.43898773 1.3859711 -1.0191727 3.0458488q-0.56544495 1.6434097 -1.1742172 3.3518333q-0.6096344 1.6928215 -1.1248856 3.1143417q-0.5005188 1.4050484 -0.8694382 2.3645744q-0.3533249 0.95866394 -0.37754822 1.0852127q-0.20088959 0.6058731 -0.82056427 0.7186737q-0.19234467 0.19851685 -0.41938782 0.33637238q-0.2296524 0.091056824 -0.4168625 0.101493835q-0.702034 0.039154053 -1.0515289 -0.6142731q-0.053771973 -0.12220001 -0.51169586 -1.035614q-0.45791626 -0.91342163 -1.1274567 -2.2532196q-0.65480804 -1.3562698 -1.4501038 -2.9863892q-0.7961807 -1.6457214 -1.5403214 -3.200451q-0.72940826 -1.5711975 -1.3512726 -2.8980064q-0.62273407 -1.3424072 -0.9003296 -2.1093903q-0.3669281 -0.96544266 -0.9610748 -2.356392q-0.5785446 -1.391819 -1.2897415 -2.9170876q-0.7112045 -1.5252647 -1.4371262 -3.0340614q-0.72592926 -1.5087929 -1.3416901 -2.7263985q-0.47628784 1.2785072 -1.01577 2.8265724q-0.54035187 1.5324631 -1.0503693 3.0475883q-0.4944229 1.5142517 -0.9169388 2.9149513q-0.4077835 1.3842278 -0.66750336 2.3376694q-0.19042969 0.7930832 -0.65974426 2.196392q-0.47019196 1.3877106 -1.0191727 3.0458488q-0.54985046 1.64254 -1.1586151 3.3509598q-0.6096344 1.6928215 -1.1248856 3.1143417q-0.5005188 1.4050522 -0.8694458 2.3645782q-0.35331726 0.95866394 -0.3775406 1.0852051q-0.20088959 0.60588074 -0.867363 0.7212906q-0.09874725 0.19329834 -0.3725891 0.33376312q-0.10746002 0.03729248 -0.21579742 0.05898285q-0.09185791 0.03642273 -0.20106506 0.042510986q-0.702034 0.039154053 -1.0515289 -0.6142731q-0.053779602 -0.12220001 -0.51169586 -1.035614q-0.4579239 -0.91342163 -1.1274567 -2.2532196q-0.65480804 -1.3562698 -1.4501114 -2.9863892q-0.7961731 -1.6457214 -1.5403137 -3.200451q-0.7294121 -1.5711975 -1.3512764 -2.8980064q-0.62273407 -1.3424072 -0.9003258 -2.1093903q-0.45801163 -1.1951027 -1.2464294 -2.9820976q-0.77368927 -1.8034706 -1.6444702 -3.6641197q-0.8716507 -1.8762512 -1.7328453 -3.5652962q-0.8611908 -1.6890411 -1.4153328 -2.644043q-0.13787842 -0.22705078 -0.15269852 -0.4922638q-0.034866333 -0.62402725 0.54053116 -0.96910095q0.17848969 -0.16644669 0.49050522 -0.18384552q0.6708336 -0.037410736 1.0150986 0.52241516q0.6070442 1.0615959 1.4890671 2.8433723q0.8811531 1.7661781 1.7866211 3.6874886q0.9210701 1.9204445 1.6956329 3.7395134q0.79016113 1.8181992 1.2099953 2.890236q0.31489944 0.87444687 1.0634003 2.5071793q0.76322937 1.6162605 1.648735 3.4604378q0.8855133 1.8441811 1.7692795 3.6571617q0.8837662 1.8129768 1.499527 3.0305786q0.44944763 -1.198761 1.1396179 -3.1308098q0.6892929 -1.9476547 1.3907013 -3.9585762q0.7170105 -2.011795 1.3058167 -3.7973518q0.5879364 -1.8011551 0.84939575 -2.7233963q0.28045654 -1.1423874 0.8649063 -3.005947q0.5835724 -1.879158 1.2529068 -3.903942q0.66846466 -2.0403862 1.3629913 -3.894436q0.6936569 -1.869648 1.181282 -2.945343q0.1385727 -0.32071304 0.38034058 -0.47504044q0.25736237 -0.15519714 0.5693817 -0.17259598q0.265213 -0.014789581 0.50619507 0.09696579q0.61026764 0.27894974 0.65122986 1.0121841q0.6408615 1.1066551 1.5064163 2.873703q0.8655472 1.7670479 1.7215958 3.6441689q0.87078094 1.8606491 1.6253891 3.6025848q0.77020264 1.741066 1.190033 2.8131027q0.31490326 0.87444687 1.0634003 2.5071793q0.76322937 1.6162605 1.6487427 3.4604416q0.8855057 1.8441772 1.7692719 3.657158q0.8837662 1.8129768 1.499527 3.0305824q0.44944763 -1.198761 1.1396179 -3.1308136q0.6892929 -1.9476509 1.3907013 -3.9585762q0.7170105 -2.011795 1.3058167 -3.7973518q0.5879364 -1.8011551 0.84939575 -2.7233925q0.28045654 -1.1423912 0.8649063 -3.005947q0.5835724 -1.8791618 1.2529144 -3.903946q0.66846466 -2.0403862 1.3629837 -3.894436q0.6936569 -1.869648 1.181282 -2.945343q0.1385727 -0.32071304 0.38034058 -0.47504044q0.25737 -0.15519714 0.5693817 -0.17259598q0.265213 -0.014789581 0.50619507 0.09696579zm11.88813 27.771767q0.7332306 -0.04088974 1.8475952 -0.8229027q1.114357 -0.7820091 2.1331863 -2.153366q1.018837 -1.371357 1.6968918 -3.240139q0.6771774 -1.8843765 0.5507889 -4.146473q-0.122039795 -2.1840935 -0.7448578 -3.8081856q-0.6228256 -1.6240883 -1.373764 -2.7402573q-0.7353363 -1.1170387 -1.4540176 -1.655983q-0.7195587 -0.55454636 -1.0359344 -0.61515045q-0.65522766 0.036540985 -1.1795502 0.1753273q-0.5251999 0.123184204 -0.71066284 0.16482544q-0.4680252 0.026100159 -0.87983704 -0.3421669q-0.96105194 0.44482803 -1.945198 1.8768501q-0.96941376 1.4155464 -1.7722778 3.2912865q-0.7881241 1.8592682 -1.2667694 3.936016q-0.46303558 2.0758781 -0.36715698 3.7919502q0.100242615 1.7940788 0.7957535 3.0385323q0.6946335 1.2288513 1.674263 1.9566841q0.9796295 0.7278328 2.0457993 1.0439606q1.0809021 0.2996521 1.9857483 0.24919128zm1.5446625 -21.36916q0.81124115 -0.045238495 1.9330139 0.70596313q1.1209106 0.73560333 2.1544952 2.1489944q1.0327072 1.3977928 1.8350754 3.4343987q0.8014908 2.0210075 0.9453201 4.5951195q0.1464386 2.6209106 -0.63375854 4.9022675q-0.7654648 2.264885 -2.0312042 3.9786491q-1.2501373 1.7128906 -2.7743912 2.7212029q-1.5242462 1.0083084 -2.8503113 1.0822601q-1.5288773 0.085258484 -3.0440674 -0.4249115q-1.5151978 -0.5101776 -2.7471466 -1.5525703q-1.2319412 -1.0423965 -2.0723038 -2.6387062q-0.82476044 -1.5971794 -0.9450531 -3.7500725q-0.07583618 -1.3572578 0.17585754 -3.0144691q0.26729584 -1.658081 0.7833252 -3.3456802q0.5151596 -1.7032013 1.2565765 -3.2781792q0.7561493 -1.5914459 1.6562729 -2.8466377q0.9148636 -1.2716637 1.9668198 -2.0501976q1.0510788 -0.79413223 2.1899414 -0.8576431q0.42121887 -0.023487091 0.7549362 0.06744385q0.34844208 0.074466705 0.6223755 0.21568298q0.2028122 -0.011310577 0.3891449 -0.037353516q0.20106506 -0.042510986 0.43508148 -0.055561066zm21.07846 -0.86250687q0.8580322 -0.047847748 1.4431152 0.060367584q0.6006775 0.10734558 0.96907043 0.25894165q0.38401794 0.15072632 0.6137543 0.34135437q0.22886658 0.17502975 0.31384277 0.29548264q0.20202637 0.2547722 0.21946716 0.5667877q0.034866333 0.62402344 -0.4174652 0.9309387q-0.22355652 0.20025635 -0.61357117 0.22200775q-0.46801758 0.026100159 -0.8304138 -0.29797363q-0.08062744 -0.042453766 -0.4299469 -0.13251877q-0.33457947 -0.10653305 -1.1458282 -0.061294556q-0.46801758 0.026103973 -1.6517487 0.68679047q-1.1690063 0.64421463 -2.342987 2.0398712q-1.1739655 1.3956566 -2.0529938 3.5886307q-0.8798981 2.177372 -0.70817566 5.250702q0.15356445 0.5078621 0.29240417 1.032196q0.15357971 0.5078621 0.3400879 1.0451851q0.51971436 1.7393837 1.0481567 3.634777q0.5431671 1.8789215 0.6547394 3.8758087q0.026153564 0.46801758 -0.2840271 0.7983017q-0.31019592 0.33028412 -0.7470093 0.35464478q-0.46801758 0.026100159 -0.7974701 -0.26851654q-0.3294525 -0.29460907 -0.35560608 -0.7626343q-0.10110474 -1.8096733 -0.5913696 -3.5820007q-0.4902649 -1.7723274 -1.003006 -3.3869057q-0.47021484 -1.4135094 -0.84158325 -2.7386398q-0.37225342 -1.340725 -0.43501282 -2.463974q-0.06362915 -1.1388474 -0.31552124 -2.846222q-0.25189972 -1.7073746 -0.5600891 -3.302063q-0.29346466 -1.6111565 -0.51571655 -2.7881088q-0.22312927 -1.1925507 -0.22748566 -1.2705536q-0.02178955 -0.39001846 0.2259903 -0.71681976q0.26337433 -0.32767487 0.8050461 -0.43613052q0.39002228 -0.02174759 0.68564606 0.22780228q0.31036377 0.23308182 0.411911 0.6499481q0.004348755 0.07800293 0.13020325 0.65000916q0.14059448 0.55553436 0.29774475 1.4074783q0.17274475 0.85107803 0.35856628 1.9361649q0.20141602 1.0842171 0.38723755 2.169304q0.69026184 -1.6503716 1.6831207 -2.926384q1.0075989 -1.2924843 2.0855255 -2.166359q1.0926514 -0.8903465 2.1152344 -1.3542557q1.037323 -0.4803772 1.7861633 -0.5221405zm18.559982 10.780163q0.4517212 0.5225334 1.3776703 1.4098549q0.9415436 0.8864479 2.0478058 1.9202042q1.121872 1.0328865 2.2931519 2.1099625q1.1704254 1.0614777 2.1422882 1.9305878q0.97187805 0.8691063 1.5830994 1.445343q0.62594604 0.55976486 0.65715027 0.55802536q0.37625122 0.29200363 0.40327454 0.7756233q0.02178955 0.39001465 -0.26843262 0.79743195q-0.3725891 0.33376694 -0.76260376 0.35551453q-0.46801758 0.026100159 -0.7974701 -0.26851273q-0.08236694 -0.07365036 -0.74212646 -0.67847824q-0.658905 -0.58922577 -1.6455078 -1.441864q-0.98747253 -0.86824036 -2.1734772 -1.9288483q-1.1712952 -1.077076 -2.3096313 -2.124691q-1.1236115 -1.0640869 -2.065155 -1.9505386q-0.9259491 -0.88731766 -1.3794098 -1.4410515q-0.9173279 -1.0129967 -2.0522614 -2.279892q-1.1193542 -1.267765 -2.3253174 -2.4055061q-0.62298584 0.6137657 -1.198288 1.2405205q-0.57618713 0.61115646 -1.0492554 1.1070175q-0.19148254 0.21411896 -0.49739075 0.34072495q0.34558105 1.9838333 0.7232361 3.9815292q0.39239502 1.9812241 0.717926 3.606247q0.32554626 1.6250191 0.54081726 2.6771622q0.2144165 1.0365448 0.22138977 1.1613503q0.024398804 0.43682098 -0.24072266 0.7332916q-0.24864197 0.311203 -0.7903137 0.41965866q-0.39001465 0.02174759 -0.7003784 -0.21133041q-0.2947693 -0.23395157 -0.39717102 -0.66642q-0.0061035156 -0.10920334 -0.24996948 -1.1128082q-0.22914124 -1.0200729 -0.5321045 -2.5211601q-0.28823853 -1.5175552 -0.6589203 -3.3904457q-0.35508728 -1.8737602 -0.6971741 -3.7951927q-0.34210205 -1.9214325 -0.58013916 -3.6608772q-0.22329712 -1.7559128 -0.29478455 -3.0351677q-0.104599 -1.8720818 -0.34707642 -3.9712105q-0.22688293 -2.1000023 -0.46839905 -3.9018478q-0.24240112 -1.8174477 -0.43432617 -3.0117378q-0.17718506 -1.210762 -0.18154907 -1.288765q-0.023529053 -0.42121887 0.25631714 -0.7341614q0.27986145 -0.3129425 0.77471924 -0.4187889q0.4368286 -0.024360657 0.7653961 0.25465393q0.32858276 0.27901077 0.38331604 0.69849014q0.0069732666 0.12480545 0.18417358 1.3355675q0.19192505 1.1942902 0.43344116 2.9961357q0.24151611 1.8018494 0.46839905 3.9018478q0.24247742 2.0991325 0.34970093 4.018013q0.039230347 0.7020302 0.13310242 1.5418549q0.1085968 0.8233566 0.24325562 1.8330498q0.44448853 -0.44731903 1.0362701 -1.0593452q0.59091187 -0.6276245 1.1991577 -1.2249184q0.6229706 -0.6137657 1.219986 -1.1321869q0.5970154 -0.5184212 1.0051575 -0.77592087q0.42373657 -0.25836945 0.953125 -0.86691666q0.5285034 -0.6241455 1.0396576 -1.2786217q0.65844727 -0.81918335 1.3082733 -1.5126953q0.6489563 -0.70910645 1.2841339 -1.1044655q0.22790527 -0.12225342 0.508728 -0.13791275q0.62402344 -0.034801483 0.99775696 0.4920807q0.13787842 0.22705078 0.15530396 0.5390663q0.014831543 0.2652092 -0.11076355 0.53824997q-0.12646484 0.25744247 -0.4297638 0.43084717q-0.4081421 0.2575035 -0.95224 0.88251877q-0.52937317 0.6085434 -1.0405426 1.2630234q-0.65844727 0.81918335 -1.2917938 1.52742q-0.6186218 0.69176865 -1.2546844 1.0715256q-0.27209473 0.17166519 -0.8985596 0.7230301q1.1929932 1.1854134 2.3435364 2.451439q1.1505432 1.2660255 2.066986 2.2634163zm43.338135 6.1120033q0.86938477 0.15495682 0.93040466 1.2470016q-0.054473877 0.42557144 -0.3837433 0.6943207q-0.31454468 0.2522812 -0.8631897 0.23592758q-0.031204224 0.001739502 -1.8236237 -0.14868927q-1.7933044 -0.16602707 -4.8354645 0.0036239624q-1.5132751 0.08439255 -3.1131744 0.29880905q-1.5851746 0.19794464 -2.9354706 0.3984413q-1.3346863 0.19962692 -2.2022247 0.35755157q-0.8666687 0.17352676 -0.94467163 0.17787933l-0.74884033 0.04175949q-0.42121887 0.023490906 -0.7489319 -0.23992157q-0.32769775 -0.26341248 -0.39804077 -0.6820183q-0.03817749 -0.12306595 -0.19967651 -1.0530167q-0.14590454 -0.93082047 -0.36302185 -2.2958488q-0.20237732 -1.3815002 -0.45166016 -3.0420723q-0.2501526 -1.6761703 -0.48120117 -3.2908096q-0.23106384 -1.6146393 -0.4005127 -2.9666786q-0.17030334 -1.3676376 -0.21388245 -2.1476707q-0.06538391 -1.1700516 -0.27656555 -2.9892387q-0.19647217 -1.835659 -0.45968628 -3.7458382q-0.26409912 -1.9257851 -0.5645294 -3.661747q-0.28572083 -1.7524376 -0.53219604 -2.8028412q-0.02178955 -0.39001846 0.22598267 -0.7168217q0.26338196 -0.32767296 0.8050537 -0.4361267q0.8580475 -0.047851562 1.0914459 0.76854324q0.25901794 -0.4056759 0.72268677 -0.509779q0.07800293 -0.004350662 0.9455414 -0.16227722q0.8666687 -0.17352486 2.2005005 -0.38875198q1.349411 -0.21609688 2.9813995 -0.4166546q1.6311035 -0.216156 3.2223816 -0.3048973q3.1981506 -0.17835236 5.101532 -0.0028133392q1.9181061 0.15907097 1.9987335 0.20152283q0.86849976 0.13935661 0.92951965 1.2314034q-0.15487671 0.8693466 -1.278122 0.93198776q-0.7861481 -0.065704346 -1.8089142 -0.16516113q-0.86239624 -0.030151367 -2.1000824 -0.055023193q-1.2385712 -0.040473938 -2.720642 0.042175293q-1.5132751 0.08439255 -3.1131744 0.29880905q-1.5851746 0.19794846 -2.9346008 0.41404343q-1.3338165 0.21522903 -2.2004852 0.3887558q-0.86753845 0.15792465 -0.9455414 0.1622734q-0.35882568 0.020011902 -0.6821594 -0.16539764q0.27514648 1.2835464 0.5252991 2.9597168q0.24928284 1.660572 0.45262146 3.3393517q0.21807861 1.6623116 0.37976074 3.1556282q0.16168213 1.4933128 0.21659851 2.4761543q0.3406067 -0.06594086 1.1154022 -0.20304489q0.7748108 -0.13710785 1.8460388 -0.29074097q1.070343 -0.16923523 2.3452454 -0.31858063q1.2905121 -0.15021515 2.6434174 -0.3039093q0.4368286 -0.024360657 0.7818756 0.26938248q0.345047 0.29374313 0.37120056 0.7617645q0.024398804 0.43681717 -0.26930237 0.78183365q-0.29371643 0.34501266 -0.7149353 0.36850357q-1.399704 0.1563034 -2.782074 0.34294128q-1.3832397 0.17103577 -2.4700623 0.32553864q-1.0868225 0.15450668 -1.8295593 0.3054695q-0.7280121 0.13449478 -0.837204 0.14058685q0.15208435 1.3217049 0.39875793 2.9354744q0.24578857 1.5981674 0.4924469 3.211937q0.24665833 1.6137695 0.44992065 3.010872q0.21885681 1.3962288 0.39160156 2.2473068q0.46540833 -0.07290268 1.4109497 -0.2351799q0.94467163 -0.17787552 2.1866302 -0.35668182q1.2410889 -0.1944046 2.6251984 -0.34984207q1.3841095 -0.15543365 2.7413788 -0.23112488q3.1981506 -0.17835236 5.101532 -0.002811432q1.9181061 0.15906906 1.996109 0.1547203zm16.2379 -3.3311844q0.5072479 0.67593 1.0448151 1.3345184q0.55319214 0.65771866 1.0049133 1.1802521q0.46733093 0.52166367 0.79852295 0.84747696l0.30085754 0.3431549q0.2800293 0.25041962 0.30444336 0.6872406q0.03050232 0.5460243 -0.3438263 0.84858704q-0.25039673 0.27999878 -0.6872101 0.30435944q-0.54603577 0.030452728 -0.83303833 -0.34477615q-0.048538208 -0.028591156 -0.3650055 -0.3708763q-0.2999878 -0.3275528 -0.8011322 -0.8942795q-0.5011444 -0.56672287 -1.0708008 -1.2391739q-0.5696564 -0.672451 -1.109848 -1.377842q-0.33641052 -0.41941833 -0.8410492 -1.0485458q-0.5055084 -0.6447258 -1.0924988 -1.3475075q-0.5878601 -0.71838 -1.2398834 -1.4644852q-0.65200806 -0.7461014 -1.2372589 -1.4176826q-0.9891968 1.9017792 -1.6976776 3.506218q-0.7084656 1.6044388 -1.1743927 2.7884674q-0.46678162 1.1684303 -0.6971283 1.8072472l-0.24333191 0.6864891q-0.22599792 0.71681976 -0.97483826 0.75857925q-0.26519775 0.014789581 -0.3943634 -0.056251526q-0.7168579 -0.22606277 -0.7586975 -0.97489166q-0.008712769 -0.15600967 0.05621338 -0.39436722q0.03982544 -0.12741852 0.30999756 -0.89365005q0.26930237 -0.78183365 0.7915344 -2.0785446q0.5369568 -1.3131866 1.330307 -3.0788498q0.80895996 -1.7665367 1.9151154 -3.8156815l-0.30085754 -0.3431549q-0.2826538 -0.29722214 -0.7535553 -1.1629715q-0.45617676 -0.8822174 -1.418808 -2.7064476q-0.3841858 -0.71409225 -0.7865906 -1.4741135q-0.3868103 -0.7608948 -0.7857208 -1.4585152q-0.3841858 -0.71408844 -0.7119751 -1.259182q-0.3277893 -0.54509354 -0.5324402 -0.84666824q-0.22024536 -0.30070496 -0.2376709 -0.6127167q-0.03312683 -0.59282684 0.4174652 -0.9309387q0.30155945 -0.20460892 0.61357117 -0.22200775q0.5928192 -0.03306198 0.9309845 0.41755676q0.54019165 0.70539093 1.3450012 2.2254372q0.82040405 1.5191765 1.6945801 3.1605492q0.43969727 0.86748886 0.895874 1.7497063q0.455307 0.8666153 0.7648926 1.3657799q1.1364899 -2.0664864 2.5320892 -4.2569695q1.4111938 -2.1913528 3.161255 -4.479847q0.24342346 -0.40480804 0.78944397 -0.43525696q0.39001465 -0.021751404 0.71510315 0.19485855q0.41007996 0.33706665 0.43797302 0.83628845q0.024398804 0.43681717 -0.22599792 0.71681976q-1.7898865 2.4159088 -3.27211 4.736416q-1.4674988 2.3040352 -2.6290894 4.481468q0.58525085 0.67158127 1.3049011 1.5078049q0.73524475 0.83535767 1.440155 1.688057q0.71965027 0.8362274 1.3248596 1.584938q0.6208191 0.7478447 0.9919281 1.2279243zm21.050049 -5.7121964q0.15931702 -0.5096626 0.1938324 -1.0123634q0.03363037 -0.5183029 0.0048675537 -1.0331268q-0.069732666 -1.2480507 -0.55633545 -2.3946114q-0.47099304 -1.1474304 -1.1967316 -2.0928612q-0.71102905 -0.9619026 -1.5823212 -1.7114258q-0.8565674 -0.765995 -1.695694 -1.2199745q-1.0133667 -0.49121094 -2.3706207 -0.4155197q-1.2168579 0.06785965 -2.5167847 0.60983276q-1.2999115 0.5419693 -2.288498 1.6143036q-0.3725891 0.33376312 -0.73139954 0.35377502q-0.23402405 0.013050079 -0.4750061 -0.09870529q0.27079773 1.2055397 0.59284973 2.768158q0.322052 1.5626183 0.6545563 3.3124428q0.33164978 1.7342262 0.66851807 3.5620537q0.33599854 1.8122292 0.58613586 3.4883995q0.55911255 0.20355988 0.70492554 0.8526993q0.002609253 0.046798706 0.10928345 0.275589q0.122283936 0.22792053 0.52537537 0.44018173q0.643219 0.30841446 1.3764496 0.2675209q0.46801758 -0.026100159 0.91433716 -0.1605339q0.44544983 -0.15003586 0.8293762 -0.2809906q1.0234528 -0.44830704 2.0130005 -1.2233582q1.0042877 -0.791523 1.8429718 -1.7459526q0.8534241 -0.9709015 1.4667206 -2.0379562q0.6280365 -1.0835228 0.93019104 -2.1175766zm-3.8119812 -11.367882q1.1780701 0.6385193 2.264389 1.5951424q1.0863037 0.95661926 1.9360657 2.1611748q0.8497772 1.2045517 1.3806458 2.5833817q0.5308838 1.37883 0.61369324 2.8608932q0.08105469 1.4508629 -0.286026 2.7232742q-0.3514862 1.2715454 -1.0930023 2.5648384q-0.7259064 1.2924232 -1.7257385 2.443634q-0.9842377 1.1503372 -2.1999512 2.0788422q-1.2157135 0.92850876 -2.484436 1.4687386q-1.2504883 0.5861664 -2.4673462 0.65402603q-1.2480621 0.06960297 -2.4070587 -0.50738525l0.05317688 0.9516411q0.11941528 2.137291 0.3793335 4.548435q0.2755127 2.4102707 0.5465698 4.460861q0.27194214 2.066185 0.4899292 3.4468155q0.21798706 1.3806305 0.22235107 1.4586334q0.023529053 0.42121887 -0.2398529 0.74889374q-0.24777222 0.3268051 -0.7911835 0.40405273q-0.4368286 0.024360657 -0.7489319 -0.23992157q-0.29562378 -0.24954987 -0.39804077 -0.68201447q-0.001739502 -0.031204224 -0.21972656 -1.4118347q-0.21798706 -1.3806305 -0.49079895 -3.4624176q-0.27194214 -2.066185 -0.5500641 -4.523262q-0.2616577 -2.4423447 -0.3836975 -4.626438q-0.079315186 -1.4196625 -0.3798523 -3.4373093q-0.28492737 -2.0185165 -0.6574402 -4.2042885q-0.37251282 -2.1857758 -0.80656433 -4.3524704q-0.4340515 -2.1666908 -0.81248474 -3.898304q-0.3637085 -1.7480888 -0.6128082 -2.845295q-0.234375 -1.113678 -0.23873901 -1.1916809q-0.049682617 -0.88923645 1.0310364 -1.1529465q0.4368286 -0.024360657 0.7307129 0.1939888q0.30949402 0.2174797 0.411911 0.6499481l0.16577148 0.7262726q1.3299713 -1.4043579 2.9661255 -2.0902748q1.6508942 -0.70238876 3.2421722 -0.79113007q2.0749054 -0.11571121 3.5598602 0.69348526zm17.94806 -0.17150497q-0.34321594 0.019138336 -1.3675385 0.45184708q-1.009613 0.41623688 -2.0632172 1.4452477q-1.0544891 1.0134125 -1.926712 2.767826q-0.8575134 1.7379417 -0.9433441 4.4031067q0.66212463 -0.1934166 1.4785004 -0.42673874q0.8311157 -0.24978638 1.6639557 -0.46837616q0.8328552 -0.21858597 1.575592 -0.3695526q0.75746155 -0.1674385 1.2254944 -0.19353867q0.5460205 -0.030448914 1.3745117 -0.32704163q0.82762146 -0.312191 1.624054 -0.6226425q0.65774536 -0.27141953 1.2253876 -0.47521973q0.58236694 -0.22026825 1.11969 -0.40672302q-0.24317932 -1.5513687 -0.82077026 -2.6459045q-0.56285095 -1.1110115 -1.2746582 -1.8068314q-0.69706726 -0.7122917 -1.4659576 -1.0293465q-0.7541504 -0.3335228 -1.4249878 -0.29611206zm8.377213 17.451244q0.42123413 -0.023487091 0.7333374 0.24079132q0.31121826 0.24868393 0.41973877 0.7903557q0.023529053 0.42121887 -0.22509766 0.7324219q-0.23306274 0.31033325 -0.64993286 0.4118271q-0.07800293 0.004348755 -0.69680786 0.13275528q-0.6179199 0.14400482 -1.4698486 0.30105972q-0.8510742 0.17265701 -1.7827606 0.30286026q-0.9316864 0.13020325 -1.6025238 0.16761398q-5.1794586 0.28884506 -8.109802 -2.3020096q-2.915619 -2.6073265 -3.4753723 -7.5838814q-0.22007751 -2.5385551 0.20399475 -4.4714203q0.42321777 -1.9484596 1.2210236 -3.3544388q0.79693604 -1.4215813 1.8393097 -2.3717194q1.0414886 -0.9657402 2.0432434 -1.5223808q1.0164948 -0.5731125 1.8320007 -0.8220329q0.8302307 -0.2653923 1.2202606 -0.2871399q1.0140381 -0.056552887 2.1972656 0.39389038q1.1823425 0.43483734 2.2227325 1.4096718q1.0559845 0.9739647 1.8477936 2.5416794q0.7909546 1.5521202 1.0689697 3.7275124q0.25146484 0.29896164 0.2732544 0.6889801q0.02178955 0.39001846 -0.1965332 0.68387985q-0.14361572 0.79047394 -1.0016785 0.8383217q-0.39001465 0.021751404 -0.6838989 -0.19659805q-1.0321808 0.29230118 -2.1474915 0.77703094q-0.9940033 0.41536713 -1.9611664 0.750988q-0.9524231 0.31915283 -1.7324677 0.36265182q-0.42121887 0.023490906 -1.1474762 0.1891861q-0.7115326 0.14922714 -1.5582428 0.39988708q-0.84757996 0.23505783 -1.7090302 0.50218964q-0.8623047 0.2515297 -1.553009 0.4934883q0.29112244 2.409401 1.324707 3.8227959q1.0326996 1.397789 2.3884888 2.1359444q1.3549194 0.72255325 2.819748 0.8912506q1.4804077 0.16783142 2.650467 0.10257721q0.6240387 -0.03479767 1.5089111 -0.16239166q0.90049744 -0.12846375 1.7056427 -0.2829094q0.81985474 -0.17091751 1.4395142 -0.28372192l0.58847046 -0.11106491l0.15426636 -0.039901733zm13.949249 -21.325413q0.8580322 -0.047851562 1.4431152 0.06036377q0.6006775 0.10734558 0.9690857 0.25894165q0.3840027 0.15073013 0.613739 0.34135818q0.22888184 0.17502594 0.31384277 0.29548264q0.20202637 0.2547722 0.2194519 0.5667839q0.03488159 0.62402725 -0.41744995 0.9309387q-0.22354126 0.20026016 -0.6135864 0.22200775q-0.46801758 0.026100159 -0.8304138 -0.29797363q-0.080596924 -0.04244995 -0.42993164 -0.13251495q-0.33459473 -0.106536865 -1.145813 -0.061294556q-0.4680481 0.026100159 -1.6517639 0.68678665q-1.1690063 0.64421463 -2.342987 2.039875q-1.1739502 1.3956566 -2.0529785 3.5886269q-0.87991333 2.177372 -0.7081909 5.2507057q0.15356445 0.5078621 0.29241943 1.0321922q0.15356445 0.5078621 0.3400879 1.0451851q0.51971436 1.7393875 1.0481567 3.634777q0.54315186 1.8789215 0.6547241 3.8758087q0.026153564 0.46801758 -0.2840271 0.7983017q-0.31018066 0.33028412 -0.7470093 0.35464478q-0.46801758 0.026100159 -0.79748535 -0.26851273q-0.32943726 -0.29461288 -0.35559082 -0.7626343q-0.10110474 -1.8096771 -0.5913696 -3.5820007q-0.4902649 -1.7723274 -1.0030212 -3.3869095q-0.47018433 -1.4135094 -0.84158325 -2.738636q-0.37225342 -1.3407288 -0.43499756 -2.4639778q-0.06362915 -1.1388474 -0.31552124 -2.846222q-0.2518921 -1.7073708 -0.5600891 -3.3020592q-0.29345703 -1.6111603 -0.51571655 -2.7881126q-0.22311401 -1.1925507 -0.22747803 -1.2705536q-0.02178955 -0.39001465 0.22598267 -0.71681976q0.2633667 -0.32767487 0.8050537 -0.4361267q0.39001465 -0.021751404 0.6856384 0.22779846q0.31036377 0.23308182 0.41189575 0.64995193q0.0043640137 0.07800293 0.1302185 0.65000534q0.14059448 0.55553436 0.2977295 1.4074821q0.17276001 0.8510742 0.35858154 1.936161q0.20141602 1.0842171 0.38723755 2.169304q0.6902771 -1.6503677 1.683136 -2.9263802q1.0075684 -1.2924843 2.0855103 -2.1663628q1.0926514 -0.8903465 2.1152344 -1.3542519q1.037323 -0.480381 1.7861633 -0.5221405zm6.954132 -1.4363155q-0.6552429 0.036539078 -1.1329346 -0.3906498q-0.47769165 -0.42718887 -0.51431274 -1.0824165q-0.037475586 -0.67082787 0.39141846 -1.1172771q0.42800903 -0.46204948 1.083252 -0.49858856q0.62402344 -0.034801483 1.1008606 0.3767872q0.47595215 0.39598656 0.51342773 1.0668163q0.036621094 0.65522766 -0.39053345 1.1328773q-0.42715454 0.4776497 -1.051178 0.5124512zm0.60635376 1.6093578q0.42123413 -0.023490906 0.7315674 0.20959091q0.31036377 0.23308182 0.41015625 0.6187477q0.0069885254 0.12480545 0.23962402 1.207283q0.23260498 1.0824738 0.5538025 2.62949q0.321167 1.5470161 0.63894653 3.3133125q0.31692505 1.7506981 0.47335815 3.150406q0.15472412 1.3685112 0.4447937 3.198948q0.30477905 1.8139687 0.63119507 3.4545898q0.32641602 1.6406174 0.5651245 2.832302q0.237854 1.1760788 0.24221802 1.2540817q0.024414062 0.43682098 -0.24072266 0.7332916q-0.24862671 0.311203 -0.7903137 0.41965485q-0.4212036 0.023490906 -0.7315674 -0.2095871q-0.31036377 -0.23308182 -0.41278076 -0.66555023q-0.0061035156 -0.10920334 -0.24307251 -1.2696838q-0.237854 -1.1760826 -0.56427 -2.8167038q-0.32641602 -1.6406174 -0.63119507 -3.454586q-0.29006958 -1.8304405 -0.4465332 -3.2301483q-0.15472412 -1.3685112 -0.47076416 -3.1036034q-0.31689453 -1.7506943 -0.62246704 -3.298584q-0.28997803 -1.5487556 -0.539093 -2.6459618q-0.23348999 -1.0980759 -0.237854 -1.1760826q-0.02178955 -0.39001465 0.1947937 -0.71508026q0.21658325 -0.3250618 0.64904785 -0.42742538l0.15600586 -0.008701324zm16.642334 1.106308q-0.3432312 0.019138336 -1.3675537 0.45184708q-1.009613 0.41623688 -2.0632324 1.4452477q-1.0544739 1.0134125 -1.9266968 2.767826q-0.8575134 1.7379417 -0.94332886 4.4031067q0.6621094 -0.1934166 1.4784851 -0.42673492q0.8311157 -0.24979019 1.663971 -0.46837997q0.8328552 -0.21858597 1.575592 -0.3695526q0.7574463 -0.16743469 1.2254639 -0.19353485q0.5460205 -0.030452728 1.3745422 -0.32704163q0.8276062 -0.31219482 1.6240234 -0.62264633q0.6577759 -0.27141953 1.2254028 -0.4752159q0.58236694 -0.22026825 1.11969 -0.40672684q-0.24319458 -1.5513687 -0.82077026 -2.6459045q-0.5628662 -1.1110077 -1.2746582 -1.8068275q-0.6970825 -0.7122917 -1.4659424 -1.0293465q-0.7541809 -0.3335266 -1.4249878 -0.29611588zm8.377197 17.451248q0.42123413 -0.023490906 0.7333374 0.24079132q0.31121826 0.24868011 0.41973877 0.79035187q0.023529053 0.42121887 -0.22509766 0.7324219q-0.23306274 0.31033325 -0.64993286 0.4118271q-0.07800293 0.004348755 -0.69680786 0.13275528q-0.6179199 0.14400482 -1.4698486 0.30105972q-0.8510742 0.17265701 -1.7827759 0.30286026q-0.93167114 0.13020325 -1.6025085 0.16761398q-5.1794434 0.28884506 -8.109802 -2.3020096q-2.915619 -2.6073265 -3.4753723 -7.5838776q-0.22009277 -2.538559 0.20401001 -4.4714203q0.42318726 -1.9484634 1.2210083 -3.3544426q0.79693604 -1.4215775 1.8392944 -2.3717194q1.0415039 -0.9657402 2.043274 -1.5223808q1.0164795 -0.5731125 1.8319702 -0.8220329q0.83026123 -0.2653885 1.2202759 -0.2871399q1.0140381 -0.056552887 2.1972656 0.39389038q1.1823425 0.43484116 2.2227173 1.4096718q1.0559998 0.9739647 1.8478088 2.5416832q0.7909546 1.5521164 1.0689697 3.7275085q0.25146484 0.29896545 0.2732544 0.6889801q0.02178955 0.39001846 -0.1965332 0.68387985q-0.14361572 0.79047394 -1.0016785 0.8383255q-0.39001465 0.02174759 -0.6838989 -0.19660187q-1.0321655 0.29230118 -2.1474915 0.77703094q-0.99401855 0.41536713 -1.9611511 0.750988q-0.9524536 0.31915283 -1.7324829 0.36265564q-0.4212036 0.023490906 -1.1474915 0.1891861q-0.71151733 0.14922333 -1.5582275 0.39988327q-0.8475952 0.23505783 -1.7090149 0.50218964q-0.8623352 0.2515297 -1.553009 0.4934883q0.29110718 2.4094048 1.3246765 3.8227959q1.0327148 1.3977928 2.3885193 2.1359444q1.3549194 0.72255325 2.8197327 0.8912506q1.4804077 0.16783142 2.6504822 0.102581024q0.62402344 -0.034801483 1.5089111 -0.16239548q0.9004822 -0.12846375 1.7056274 -0.2829094q0.81985474 -0.17091751 1.4395142 -0.28372192l0.58847046 -0.111061096l0.15426636 -0.039901733zm22.842072 -4.1689606q0.030517578 0.5460243 0.20404053 1.1310196q0.17266846 0.56939316 0.38949585 1.0893784q0.23156738 0.5035095 0.4432068 0.9298897q0.22634888 0.4099083 0.3486023 0.637825q0.13790894 0.22705078 0.15533447 0.5390663q0.035736084 0.63962555 -0.4928589 0.98209q-0.15164185 0.086704254 -0.27471924 0.124866486q-0.1065979 0.052890778 -0.26260376 0.061592102q-0.62402344 0.03479767 -0.9691467 -0.5406265q-0.048553467 -0.028591156 -0.30786133 -0.46796036q-0.25927734 -0.4393692 -0.5481262 -1.1274796q-0.28881836 -0.68811035 -0.5551758 -1.5339661q-0.26635742 -0.8458557 -0.31430054 -1.7038918q-0.0113220215 -0.20280838 -0.040863037 -0.45154953q-0.029571533 -0.24874115 -0.09378052 -0.5581436q-0.06173706 -0.5442848 -0.14425659 -1.1813011q-0.06781006 -0.65348816 -0.117492676 -1.5427246q-0.03314209 -0.59282684 -0.1468811 -1.2281036q-0.11373901 -0.6352768 -0.23532104 -1.4109612q-0.17971802 -0.9758835 -0.33520508 -2.078308q-0.15551758 -1.1024284 -0.22525024 -2.350483q-0.0435791 -0.7800331 -0.43823242 -1.6813316q-0.37902832 -0.9021683 -1.0466309 -1.6474037q-0.66763306 -0.7452316 -1.6159668 -1.1931229q-0.93359375 -0.46435928 -2.1504517 -0.39649963q-1.5132751 0.08439255 -2.6822815 0.7286072q-1.1542969 0.6277466 -1.964386 1.5336342q-0.8101196 0.9058876 -1.3627625 1.9382591q-0.53790283 1.0159035 -0.8470459 1.9251518q-0.29440308 0.8927765 -0.4467163 1.5272446q-0.13674927 0.6335983 -0.13238525 0.71160126q-0.090026855 0.3493042 -0.28152466 0.56342316l0.039215088 0.7020302q0.05230713 0.936039 0.38552856 2.1380997q0.3479309 1.1855927 0.78256226 2.5228386q0.5197449 1.7393875 1.0325623 3.6356468q0.5275574 1.8797913 0.63912964 3.8766785q0.026153564 0.4680214 -0.26843262 0.79743195q-0.29455566 0.32941437 -0.76260376 0.35551453q-0.4367981 0.024360657 -0.78186035 -0.26938248q-0.34506226 -0.29374313 -0.3711853 -0.7617607q-0.101135254 -1.8096809 -0.57577515 -3.5828743q-0.4746704 -1.7731972 -0.98742676 -3.3877792q-0.47021484 -1.4135094 -0.84158325 -2.738636q-0.37225342 -1.3407288 -0.43499756 -2.4639778q-0.06362915 -1.1388474 -0.31552124 -2.846222q-0.2518921 -1.7073708 -0.5600891 -3.3020592q-0.29345703 -1.6111603 -0.54693604 -2.7863693q-0.2387085 -1.1916828 -0.24307251 -1.2696857q-0.02178955 -0.39001656 0.22598267 -0.71681976q0.26339722 -0.32767487 0.8050537 -0.43612862q0.4368286 -0.024360657 0.7324524 0.22519112q0.31036377 0.23307991 0.41189575 0.6499481q0.0043640137 0.07800293 0.105895996 0.49487114q0.10067749 0.401268 0.21704102 1.0833473q0.115478516 0.6664772 0.27261353 1.518425q0.17276001 0.85107803 0.34985352 1.7801552q0.51620483 -1.1242371 1.2534485 -2.213852q0.75198364 -1.1060867 1.7674866 -1.9764824q1.0302734 -0.8868656 2.3284302 -1.4600372q1.2973022 -0.5887737 2.9353943 -0.6801243q1.6068726 -0.08961296 2.9383545 0.4934044q1.3461914 0.5665455 2.3415222 1.5751896q0.9944458 0.9930458 1.598938 2.2895203q0.6045227 1.2964783 0.6786194 2.6225357q0.06536865 1.1700478 0.21826172 2.2256737q0.15200806 1.0400238 0.32650757 1.9223022q0.12158203 0.77568436 0.24142456 1.5201645q0.11895752 0.72888184 0.1564331 1.3997116q0.08718872 1.5600662 0.24868774 2.490017q0.065979004 0.34060287 0.09814453 0.63614655q0.032165527 0.29554367 0.049591064 0.6075554zm15.201996 1.6561089q0.25650024 -0.17079544 0.6153259 -0.19080734q0.5772095 -0.03219223 0.91537476 0.41843033q0.22024536 0.30070114 0.23770142 0.6127167q0.027893066 0.4992218 -0.46514893 0.91794586l-0.25387573 0.21760178q-0.3006897 0.22020721 -0.8050537 0.4361267q-0.48788452 0.23064804 -1.1335449 0.438797q-0.6300354 0.2072792 -1.3632812 0.24816895q-0.93603516 0.052200317 -2.294342 -0.4510727q-1.3574524 -0.4876747 -2.71167 -1.7579918q-1.3386536 -1.271183 -2.444397 -3.416069q-1.0910339 -2.161354 -1.5054626 -5.37764q-0.044281006 -0.23226929 -0.056488037 -0.45067978q-0.012207031 -0.21841049 -0.025268555 -0.45241928q-0.14120483 -2.5273094 0.6502991 -4.605858q0.8071289 -2.0794144 2.00708 -3.5704193q1.2146606 -1.5074711 2.5586853 -2.380537q1.3440247 -0.87306404 2.3068848 -1.0050087q0.20019531 -0.05811119 0.40301514 -0.06942177q0.2184143 -0.012180328 0.42123413 -0.023490906q1.12323 -0.062641144 1.9778748 0.10878754q0.8546448 0.17142868 1.1753845 0.3100357q0.42559814 0.054512024 0.9232483 0.5588341q0.49679565 0.48872185 0.57958984 1.970787q0.026153564 0.46801758 -0.2840271 0.7983017q-0.31018066 0.33028412 -0.7470093 0.35464478q-0.46801758 0.026100159 -0.79745483 -0.26851273q-0.32946777 -0.29461288 -0.35562134 -0.7626343q-0.017425537 -0.31201172 -0.112854004 -0.6196766q-0.2383728 -0.06495285 -0.8399353 -0.18789864q-0.5859375 -0.12381554 -1.3971863 -0.078575134q-0.15600586 0.008699417 -0.29638672 0.01653099q-0.14041138 0.007829666 -0.3250122 0.065071106q-0.6196594 0.11280441 -1.6300659 0.79512215q-0.9947815 0.6814461 -1.9287109 1.8915787q-0.91922 1.1936569 -1.5765381 2.8734894q-0.64172363 1.6789589 -0.52578735 3.753849q0.010467529 0.18721008 0.019195557 0.34321594q0.00869751 0.15600586 0.051239014 0.35707474q0.30419922 2.6434135 1.1376648 4.396599q0.8490906 1.7523155 1.8626099 2.8068924q1.0291443 1.0537071 2.0086975 1.4998589q0.9786682 0.43054962 1.6494751 0.3931389q0.4680481 -0.026100159 0.8831482 -0.15879822q0.4298401 -0.14916229 0.7652283 -0.308712q0.35098267 -0.16041565 0.52944946 -0.32686234l0.19671631 -0.120513916zm13.524628 -18.281425q-0.34320068 0.019140244 -1.3675232 0.45184708q-1.009613 0.41623688 -2.0632324 1.4452477q-1.0544739 1.0134125 -1.9266968 2.767826q-0.8575134 1.7379417 -0.9433594 4.4031067q0.6621399 -0.1934166 1.4785156 -0.42673492q0.8311157 -0.24979019 1.663971 -0.46837997q0.8328247 -0.21858597 1.5755615 -0.3695526q0.7574768 -0.16743469 1.2254944 -0.19353485q0.5460205 -0.030452728 1.3745117 -0.32704163q0.8276367 -0.31219482 1.624054 -0.62264633q0.6577759 -0.27141953 1.2254028 -0.4752159q0.58236694 -0.22026825 1.11969 -0.40672684q-0.24319458 -1.5513687 -0.82077026 -2.6459045q-0.5628662 -1.1110077 -1.2746582 -1.8068275q-0.6970825 -0.7122936 -1.4659729 -1.0293484q-0.7541504 -0.3335247 -1.4249878 -0.29611397zm8.377228 17.451248q0.42123413 -0.023490906 0.7333374 0.24079132q0.31121826 0.24868011 0.41973877 0.79035187q0.023529053 0.42121887 -0.22512817 0.7324219q-0.23303223 0.31033325 -0.64990234 0.4118271q-0.07800293 0.004348755 -0.69680786 0.13275528q-0.6179199 0.14400482 -1.4698486 0.30105972q-0.8510742 0.17265701 -1.7827759 0.30286026q-0.93167114 0.13020325 -1.6025085 0.16761398q-5.1794434 0.28884506 -8.109802 -2.3020096q-2.915619 -2.6073265 -3.4753723 -7.5838776q-0.22009277 -2.538559 0.20401001 -4.4714203q0.42318726 -1.9484634 1.2210083 -3.3544426q0.79693604 -1.4215775 1.8392944 -2.3717175q1.0415039 -0.9657402 2.043274 -1.5223827q1.0164795 -0.5731125 1.8319702 -0.8220329q0.83026123 -0.2653904 1.2202759 -0.2871399q1.0140381 -0.05655098 2.1972656 0.39389038q1.1823425 0.43483925 2.2227173 1.4096737q1.0559692 0.9739628 1.8478088 2.5416813q0.7909241 1.5521164 1.0689697 3.7275085q0.25146484 0.29896545 0.2732544 0.6889801q0.02178955 0.39001846 -0.1965332 0.68387985q-0.14364624 0.79047394 -1.0016785 0.8383255q-0.39001465 0.021751404 -0.6838989 -0.19660187q-1.032196 0.29230118 -2.1474915 0.77703094q-0.99401855 0.41536713 -1.9611816 0.7509918q-0.9524231 0.31914902 -1.7324524 0.36265182q-0.42123413 0.023490906 -1.1474915 0.1891861q-0.71151733 0.14922333 -1.5582275 0.39988327q-0.8475952 0.23506165 -1.7090149 0.50218964q-0.8623352 0.2515297 -1.5530396 0.4934883q0.2911377 2.4094048 1.324707 3.8227959q1.0327148 1.3977928 2.3885193 2.1359444q1.3549194 0.72255325 2.8197327 0.8912544q1.4804077 0.1678276 2.6504517 0.10257721q0.62405396 -0.034801483 1.5089417 -0.16239548q0.9004822 -0.12846375 1.7055969 -0.2829094q0.81988525 -0.17091751 1.4395447 -0.28372192l0.58847046 -0.111061096l0.15426636 -0.039901733z" fill-rule="nonzero"></path></g></svg>

