<?xml version="1.0" encoding="UTF-8" standalone="no"?>
<svg
   xmlns:dc="http://purl.org/dc/elements/1.1/"
   xmlns:cc="http://creativecommons.org/ns#"
   xmlns:rdf="http://www.w3.org/1999/02/22-rdf-syntax-ns#"
   xmlns:svg="http://www.w3.org/2000/svg"
   xmlns="http://www.w3.org/2000/svg"
   xmlns:sodipodi="http://sodipodi.sourceforge.net/DTD/sodipodi-0.dtd"
   xmlns:inkscape="http://www.inkscape.org/namespaces/inkscape"
   version="1.1"
   viewBox="0 0 326.95276 80"
   stroke-miterlimit="10"
   id="svg2"
   inkscape:version="0.91 r"
   sodipodi:docname="section_education.svg"
   width="326.95276"
   height="80"
   style="fill:none;stroke:none;stroke-linecap:square;stroke-miterlimit:10">
  <metadata
     id="metadata23">
    <rdf:RDF>
      <cc:Work
         rdf:about="">
        <dc:format>image/svg+xml</dc:format>
        <dc:type
           rdf:resource="http://purl.org/dc/dcmitype/StillImage" />
        <dc:title></dc:title>
      </cc:Work>
    </rdf:RDF>
  </metadata>
  <defs
     id="defs21" />
  <sodipodi:namedview
     pagecolor="#ffffff"
     bordercolor="#666666"
     borderopacity="1"
     objecttolerance="10"
     gridtolerance="10"
     guidetolerance="10"
     inkscape:pageopacity="0"
     inkscape:pageshadow="2"
     inkscape:window-width="640"
     inkscape:window-height="480"
     id="namedview19"
     showgrid="false"
     inkscape:zoom="0.89615393"
     inkscape:cx="163.47638"
     inkscape:cy="52.564304"
     inkscape:window-x="57"
     inkscape:window-y="34"
     inkscape:window-maximized="0"
     inkscape:current-layer="svg2" />
  <clipPath
     id="p.0">
    <path
       d="m 0,0 326.95276,0 0,105.12861 L 0,105.12861 0,0 Z"
       id="path5"
       inkscape:connector-curvature="0"
       style="clip-rule:nonzero" />
  </clipPath>
  <g
     clip-path="url(#p.0)"
     id="g7"
     transform="translate(2.2317595,-17.317451)">
    <path
       d="m 0,0 326.95276,0 0,105.12861 -326.95276,0 z"
       id="path9"
       inkscape:connector-curvature="0"
       style="fill:#000000;fill-opacity:0;fill-rule:nonzero" />
    <path
       d="M 7.2548227,22.39701 322.11877,34.003329 285.79053,51.118499 320.68896,67.85134 286.62649,71.497809 316.30304,91.401167 6.6608877,76.626944 41.080868,64.516508 2.3683877,57.795866 36.790988,45.685541 Z"
       id="path11"
       inkscape:connector-curvature="0"
       style="fill:#ead1dc;fill-rule:nonzero" />
    <path
       d="M 7.2548227,22.39701 322.11877,34.003329 285.79053,51.118499 320.68896,67.85134 286.62649,71.497809 316.30304,91.401167 6.6608877,76.626944 41.080868,64.516508 2.3683877,57.795866 36.790988,45.685541 Z"
       id="path13"
       inkscape:connector-curvature="0"
       style="fill-rule:nonzero;stroke:#666666;stroke-width:2;stroke-linecap:butt;stroke-linejoin:round" />
    <path
       d="M 58.659855,13.95174 268.1496,22.832576 265.68275,81.230812 56.192997,72.349975 Z"
       id="path15"
       inkscape:connector-curvature="0"
       style="fill:#000000;fill-opacity:0;fill-rule:nonzero" />
    <path
       d="m 96.0279,60.976646 q 0.850037,0.239342 0.803871,1.332119 -0.09586,0.41819 -0.449852,0.653408 -0.337723,0.220268 -0.882126,0.150272 -0.03123,-0.0013 -1.800323,-0.326545 -1.76844,-0.340832 -4.812584,-0.469883 -1.514267,-0.06419 -3.127472,-0.0075 -1.596932,0.04177 -2.960366,0.109088 -1.347816,0.06797 -2.226646,0.140191 -0.879494,0.08783 -0.95755,0.08452 l -0.749329,-0.03177 q -0.421493,-0.01787 -0.721839,-0.312103 -0.300354,-0.294235 -0.329384,-0.71772 -0.02594,-0.12621 -0.09565,-1.067509 -0.0541,-0.940636 -0.136566,-2.320366 -0.0662,-1.39468 -0.151749,-3.071682 -0.08489,-1.692615 -0.156807,-3.322124 -0.07191,-1.629509 -0.108207,-2.991642 -0.03564,-1.377747 -0.0027,-2.158299 0.04945,-1.170834 0.01733,-3.001961 -0.01585,-1.846077 -0.09085,-3.772857 -0.07433,-1.942395 -0.203423,-3.699437 -0.112808,-1.771995 -0.255302,-2.841488 0.01649,-0.390278 0.295059,-0.69125 0.29419,-0.300308 0.843872,-0.355201 0.858605,0.0364 1.010987,0.871727 0.297485,-0.378365 0.769111,-0.436566 0.07805,0.0033 0.956887,-0.06891 0.879486,-0.08783 2.227966,-0.171414 1.36409,-0.08292 3.007858,-0.122715 1.644432,-0.0554 3.236748,0.0121 3.200249,0.135666 5.077309,0.496743 1.893333,0.346126 1.969406,0.39627 0.850692,0.223732 0.804527,1.316506 -0.239212,0.850006 -1.363197,0.802356 -0.775933,-0.142364 -1.784058,-0.341491 -0.855301,-0.114457 -2.084618,-0.260403 -1.228645,-0.16156 -2.711692,-0.22443 -1.51426,-0.06419 -3.127472,-0.0075 -1.596932,0.04177 -2.961022,0.124698 -1.34848,0.08358 -2.227974,0.171414 -0.87883,0.07222 -0.956886,0.06891 -0.359047,-0.01522 -0.662697,-0.231399 0.148209,1.304321 0.233101,2.996937 0.08555,1.677002 0.123604,3.36763 0.05433,1.675682 0.06908,3.177654 0.01475,1.501972 -0.0268,2.48547 0.345421,-0.03228 1.129929,-0.09285 0.784508,-0.06058 1.865616,-0.108581 1.081779,-0.06361 2.365173,-0.0874 1.299011,-0.02313 2.660461,-0.04361 0.437111,0.01853 0.751748,0.344651 0.314643,0.326118 0.29486,0.794449 -0.01846,0.43711 -0.344535,0.751709 -0.326066,0.314598 -0.747559,0.296726 -1.408287,0.0185 -2.802284,0.06887 -1.393334,0.03477 -2.490059,0.08211 -1.096726,0.04734 -1.850662,0.124851 -0.737679,0.06256 -0.846955,0.05793 0.022,1.330254 0.109528,2.960422 0.08819,1.61456 0.17572,3.244728 0.08752,1.630169 0.153061,3.040463 0.08115,1.410953 0.169769,2.274857 0.470307,-0.02698 1.427193,-0.09589 0.957542,-0.08452 2.211037,-0.140853 1.254158,-0.07195 2.646827,-0.0911 1.392678,-0.01916 2.750832,0.03842 3.200249,0.135669 5.077309,0.496746 1.893333,0.346126 1.971382,0.349434 z m 16.77485,-1.900585 q 0.1992,-0.27306 0.59409,-0.365792 -0.16954,-1.539814 -0.31489,-3.281906 -0.12975,-1.741436 -0.2452,-3.450985 -0.0998,-1.708885 -0.1601,-3.244064 -0.044,-1.550133 0.004,-2.689739 0.0112,-0.265389 0.0224,-0.530777 0.0119,-0.280998 -0.006,-0.594544 -0.61587,-0.229415 -0.71108,-0.93721 0.003,-0.07806 -0.0831,-0.253746 -0.0864,-0.175693 -0.39203,-0.345039 -0.30563,-0.16935 -0.74273,-0.187878 -0.4215,-0.01787 -0.86454,0.1041 -0.42678,0.107021 -0.79242,0.247909 -1.11454,0.468842 -2.29568,1.40403 -1.16488,0.920238 -2.21542,2.095547 -1.03427,1.160358 -1.85592,2.470485 -0.82165,1.310124 -1.21785,2.544449 -0.32584,1.049645 -0.372,2.142418 -0.0574,1.358166 0.34589,2.548187 0.40326,1.190022 1.03497,2.155144 0.64731,0.965786 1.43138,1.655861 0.80035,0.675129 1.53517,1.050339 0.45844,0.25402 1.19215,0.285126 1.29572,0.05493 2.98081,-0.593029 1.6851,-0.647961 3.12811,-2.228886 z m 2.06358,-12.939835 q -0.0528,1.248886 0.0132,3.018894 0.0666,1.754394 0.21969,3.684486 0.15372,1.914479 0.32304,3.829617 0.16998,1.899528 0.32325,3.454292 0.15393,1.53915 0.26849,2.529267 0.11523,0.974506 0.11193,1.052558 -0.0171,0.405888 -0.31133,0.706196 -0.27858,0.300972 -0.82826,0.355866 -0.39027,-0.01654 -0.69128,-0.295166 -0.30167,-0.263016 -0.36192,-0.687824 0.004,-0.09367 -0.0776,-0.753964 -0.0653,-0.675247 -0.17525,-1.774639 -1.66157,1.571659 -3.53532,2.242901 -1.85813,0.671898 -3.49728,0.602409 -1.32694,-0.05625 -2.13586,-0.528435 -1.14774,-0.596019 -2.18599,-1.56274 -1.02264,-0.966053 -1.7999,-2.187569 -0.761651,-1.220855 -1.200539,-2.678253 -0.422608,-1.472347 -0.354683,-3.080288 0.05407,-1.280109 0.472473,-2.669884 0.452926,-1.466507 1.393079,-2.990554 0.94017,-1.524048 2.12152,-2.834565 1.19764,-1.325462 2.57139,-2.377597 1.37441,-1.067746 2.72772,-1.635933 1.43269,-0.596108 2.60351,-0.546471 0.46833,0.01985 0.88587,0.131386 0.43316,0.112198 0.96767,0.416359 -0.0167,-1.455139 -0.053,-2.817272 -0.0356,-1.377747 -0.10007,-2.443932 -0.0482,-1.081135 -0.0829,-1.739448 -0.0185,-0.67326 -0.0152,-0.751317 0.0185,-0.43711 0.31133,-0.706195 0.30914,-0.284039 0.8276,-0.340256 0.42149,0.01787 0.70557,0.327053 0.28474,0.293575 0.34433,0.733993 -0.005,0.10928 0.0532,1.331574 0.0741,1.207348 0.12316,3.007915 0.0647,1.801232 0.0836,3.94458 0.0352,2.128403 -0.0452,4.032955 z m 23.8197,9.032604 q 0.85068,0.223732 0.80452,1.316509 -0.2203,0.77261 -0.60594,1.75716 -0.37004,0.985211 -0.95929,1.976769 0.15503,1.883255 0.28433,3.264972 0.14557,1.366765 0.18581,1.524861 -0.0185,0.437111 -0.31132,0.706199 -0.27793,0.285363 -0.82761,0.340256 -0.4371,-0.01853 -0.72316,-0.280884 -0.27045,-0.261688 -0.33003,-0.70211 0.003,-0.07806 -0.0803,-0.691521 -0.0679,-0.6128 -0.13767,-1.554096 -1.27568,1.322155 -2.99925,2.140515 -1.70863,0.834625 -3.92539,0.740654 -1.60793,-0.06817 -2.90782,-0.764473 -1.2999,-0.696305 -2.19172,-1.797566 -0.89182,-1.101261 -1.35224,-2.418819 -0.44416,-1.332508 -0.38613,-2.706284 0.0495,-1.17083 -2e-5,-2.220745 -0.0488,-1.065521 -0.13613,-1.960647 -0.0451,-0.783864 -0.0928,-1.505284 -0.0471,-0.73703 -0.0174,-1.439525 0.033,-0.780556 0.0125,-1.406983 -0.005,-0.625767 -0.0631,-1.097408 -0.0167,-0.344769 -0.0354,-0.642704 -0.003,-0.297272 0.0101,-0.609493 0.0231,-0.546387 -0.093,-1.129952 -0.0998,-0.598514 -0.2654,-1.121624 -0.1493,-0.538055 -0.33444,-0.968159 -0.16886,-0.445049 -0.26825,-0.683849 -0.14754,-0.209564 -0.13434,-0.521786 0.0277,-0.655662 0.61849,-0.943397 0.23944,-0.114964 0.52043,-0.10305 0.65566,0.02779 0.9448,0.587417 -0.002,0.04683 0.21307,0.509484 0.21569,0.447036 0.43579,1.160121 0.23571,0.713749 0.40239,1.580964 0.18229,0.867874 0.14602,1.726482 -0.009,0.202946 -0.005,0.484608 0.02,0.266708 0.038,0.580253 0.0569,0.502865 0.0605,1.159855 0.0198,0.64204 -0.0178,1.531872 -0.0251,0.59322 0.026,1.236584 0.051,0.64336 0.0961,1.427223 0.0352,1.018032 0.0983,2.11544 0.0787,1.098068 0.026,2.346955 -0.0349,0.827388 0.25463,1.746727 0.30585,0.904392 0.89732,1.711418 0.59147,0.807026 1.47514,1.360573 0.89995,0.5386 2.1176,0.590221 1.20204,0.05096 2.18443,-0.251453 0.99866,-0.317364 1.80361,-0.861886 0.80562,-0.560131 1.44478,-1.25243 0.63981,-0.707912 1.09428,-1.470596 -0.12666,-1.44416 -0.20648,-2.886337 -0.0792,-1.457787 -0.10777,-2.631924 -0.02,-1.377086 -0.16472,-3.134792 -0.12842,-1.772656 -0.28104,-3.343025 -0.1526,-1.570374 -0.27751,-2.686039 -0.12489,-1.11567 -0.1216,-1.193722 0.0165,-0.390278 0.29506,-0.69125 0.29419,-0.300308 0.84387,-0.355202 0.39028,0.01654 0.66072,0.278233 0.28606,0.262352 0.34763,0.655937 -0.005,0.124889 0.12028,1.224945 0.14118,1.100716 0.30939,2.671753 0.16823,1.571034 0.29599,3.359299 0.14403,1.773319 0.16274,3.181625 -0.0132,0.312222 -0.0121,0.656327 0.0174,0.329154 0.0321,0.720756 0.21151,-0.19434 0.4503,-0.293693 0.23944,-0.11496 0.65896,-0.05026 z m 14.72013,8.052567 q 0.27199,-0.14486 0.63104,-0.129639 0.57761,0.02449 0.87004,0.506054 0.18976,0.320828 0.17656,0.633045 -0.0211,0.499558 -0.55275,0.867996 l -0.27396,0.191689 q -0.3208,0.189712 -0.84387,0.355209 -0.50812,0.181763 -1.17103,0.325692 -0.64731,0.144584 -1.38103,0.113479 -0.93665,-0.0397 -2.23918,-0.673569 -1.30319,-0.618248 -2.52658,-2.015068 -1.20778,-1.39616 -2.0983,-3.639015 -0.87424,-2.257801 -0.97189,-5.499222 -0.0213,-0.235489 -0.0121,-0.454044 0.009,-0.218556 0.0191,-0.452721 0.10683,-2.528995 1.09799,-4.520054 1.00678,-1.990394 2.34688,-3.356735 1.35639,-1.38129 2.77939,-2.118557 1.42302,-0.737263 2.39419,-0.774288 0.20492,-0.03823 0.40787,-0.02962 0.21855,0.0093 0.4215,0.01787 1.12399,0.04765 1.95774,0.301941 0.83376,0.254291 1.13939,0.423637 0.4182,0.09593 0.86411,0.646553 0.44656,0.535019 0.38391,2.018074 -0.0198,0.468331 -0.36079,0.766655 -0.34102,0.298325 -0.77814,0.279793 -0.46832,-0.01985 -0.76735,-0.34531 -0.29903,-0.325459 -0.27925,-0.793789 0.0132,-0.312222 -0.0517,-0.627754 -0.23087,-0.08798 -0.81749,-0.269242 -0.57102,-0.180595 -1.38279,-0.215007 -0.15611,-0.0066 -0.2966,-0.01257 -0.1405,-0.006 -0.32981,0.03293 -0.62774,0.05159 -1.70005,0.631687 -1.0567,0.580765 -2.1046,1.69363 -1.03163,1.097916 -1.8502,2.705315 -0.80296,1.608059 -0.89067,3.68433 -0.008,0.187336 -0.0145,0.343445 -0.007,0.156112 0.0161,0.360378 0.044,2.660503 0.70187,4.486881 0.67349,1.827038 1.57895,2.975796 0.92105,1.149418 1.85222,1.689338 0.93182,0.524315 1.6031,0.552773 0.46832,0.01985 0.89444,-0.07156 0.44238,-0.106358 0.79176,-0.2323 0.36499,-0.125278 0.55892,-0.273449 l 0.20755,-0.100674 z m 13.23185,1.264694 q 0.82738,0.03507 1.82758,-0.688839 1.01581,-0.723251 1.97531,-1.964973 0.97579,-1.256676 1.7827,-2.958401 0.82253,-1.701065 1.26401,-3.637226 -0.20186,-1.885243 -0.27092,-3.952522 -0.0684,-2.082894 -7.2e-4,-4.425877 -0.42193,-0.377586 -0.40083,-0.87714 -0.26012,-0.136139 -0.55342,-0.226769 -0.29332,-0.09063 -0.63675,-0.10519 -0.51517,-0.02184 -1.46106,0.157009 -0.94589,0.178849 -2.0591,0.616467 -1.11322,0.437618 -2.25456,1.171184 -1.14136,0.733567 -2.11055,1.83413 -0.96852,1.084953 -1.62439,2.542858 -0.64024,1.458565 -0.71939,3.331894 -0.12529,2.966106 0.28413,4.750671 0.42569,1.769619 1.18228,2.740036 0.7566,0.970417 1.74317,1.30938 0.98659,0.338966 2.03251,0.383308 z m 9.06636,-9.155464 q 0.25684,2.434936 0.64405,4.374954 0.38788,1.924404 0.73771,3.268551 0.34984,1.34415 0.61611,2.074833 0.26628,0.730682 0.2643,0.777519 0.0266,0.110596 0.0376,0.220535 0.0273,0.09499 0.0227,0.20427 -0.0303,0.718109 -0.66797,1.00386 -0.31552,0.06482 -0.47163,0.05821 -0.74931,-0.03177 -0.95711,-0.666138 -0.0714,-0.159424 -0.63963,-1.88816 -0.56816,-1.728741 -1.14208,-4.802681 -0.6884,1.4878 -1.58612,2.747783 -0.89708,1.244374 -1.88891,2.140667 -0.99184,0.896294 -2.06018,1.382736 -1.05275,0.487091 -2.06746,0.444077 -3.98081,-0.168755 -5.78555,-2.982094 -1.78914,-2.812679 -1.54976,-8.4795 0.0989,-2.341659 0.87791,-4.122764 0.77898,-1.781105 1.94473,-3.092282 1.18203,-1.326126 2.59536,-2.204551 1.42895,-0.877766 2.78027,-1.399125 1.352,-0.536968 2.48654,-0.739097 1.15082,-0.217075 1.82208,-0.188622 1.17083,0.04964 2.0103,0.538758 0.83948,0.489116 1.37775,1.074939 0.53825,0.585823 0.78253,1.09663 0.26056,0.495858 0.25923,0.527077 0.11632,0.208241 0.10643,0.442406 -0.0165,0.390278 -0.39334,0.796554 0.28124,1.857327 0.15462,4.854656 -0.0264,0.624443 -0.1152,1.246239 -0.0888,0.621796 -0.19523,1.289765 z m 19.25374,-8.567204 q 0.34014,0.09261 0.55915,0.461598 0.21965,0.353371 0.16534,0.898434 -0.23723,0.803173 -1.36122,0.755523 0.001,-0.03122 -1.44061,-0.326934 -1.42632,-0.295052 -3.84404,-0.444462 0.015,2.237015 -0.0457,3.673237 -0.0316,0.749328 0.004,2.127075 0.0519,1.362797 0.10821,2.991642 0.0726,1.613899 0.1568,3.322124 0.0842,1.708226 0.18166,3.104229 0.0981,1.380394 0.15283,2.30542 0.0704,0.925682 0.0691,0.956909 -0.0185,0.437104 -0.3276,0.721146 -0.30915,0.284035 -0.81199,0.340912 -0.43711,-0.01853 -0.73745,-0.312767 -0.30101,-0.278626 -0.31377,-0.717056 0.005,-0.124886 -0.08,-1.066849 -0.0697,-0.9413 -0.15217,-2.321026 -0.0818,-1.395344 -0.16736,-3.072346 -0.0849,-1.692615 -0.15682,-3.322124 -0.0563,-1.628845 -0.1082,-2.991642 -0.0356,-1.377747 -0.003,-2.158299 0.0627,-1.483051 0.0424,-3.59518 -1.01802,0.03504 -2.00679,0.118233 -0.97251,0.06825 -1.74205,0.145095 -0.76889,0.06124 -1.25614,0.118779 -0.48724,0.05754 -0.56529,0.05423 -0.39027,-0.01654 -0.69128,-0.29517 -0.30036,-0.294235 -0.35533,-0.843933 0.0165,-0.390274 0.27879,-0.676296 0.26231,-0.286022 0.70271,-0.345547 0.0312,0.0013 0.51912,-0.07183 0.50351,-0.07249 1.25679,-0.134387 0.76956,-0.07685 1.7414,-0.129487 0.98745,-0.05197 2.0523,-0.08503 -0.0319,-1.096085 -0.0957,-2.177883 -0.0482,-1.081135 -0.10028,-2.068604 -0.0515,-1.003078 -0.14009,-1.866981 -0.073,-0.863244 -0.17151,-1.492981 0.0165,-0.390274 0.29506,-0.691246 0.29419,-0.300313 0.84387,-0.355202 0.39027,0.01654 0.67699,0.263283 0.28671,0.246742 0.34697,0.67155 0.21394,1.228913 0.35908,3.346337 0.14514,2.11742 0.25444,4.342796 1.32694,0.05626 2.38518,0.17931 1.07387,0.123722 1.83353,0.281036 0.76033,0.141705 1.19281,0.269512 0.44876,0.112858 0.4956,0.114846 z m 4.6837,-2.772861 q -0.65567,-0.02779 -1.08926,-0.49971 -0.43359,-0.471912 -0.4059,-1.127579 0.0284,-0.671276 0.49889,-1.073581 0.47117,-0.41792 1.12684,-0.390126 0.62444,0.02647 1.05869,0.482777 0.43492,0.440689 0.40655,1.111965 -0.0277,0.655666 -0.49952,1.089195 -0.47185,0.433529 -1.09629,0.407059 z m 0.44591,1.661003 q 0.42151,0.01787 0.70757,0.28022 0.28605,0.262348 0.34762,0.655937 -0.005,0.124886 0.12029,1.224942 0.12555,1.100055 0.29377,2.671089 0.16822,1.571037 0.3116,3.359962 0.14403,1.77332 0.16274,3.181626 0.02,1.377083 0.12955,3.227131 0.12577,1.835102 0.29004,3.499801 0.16427,1.664704 0.28521,2.874031 0.1216,1.193726 0.1183,1.271782 -0.0185,0.437111 -0.31134,0.706192 -0.2779,0.285362 -0.82759,0.340256 -0.42149,-0.01787 -0.70755,-0.28022 -0.28605,-0.262352 -0.34565,-0.702766 0.005,-0.109284 -0.11765,-1.287392 -0.1216,-1.193718 -0.28586,-2.858421 -0.16426,-1.664704 -0.29005,-3.499802 -0.10952,-1.850048 -0.12822,-3.258354 -0.02,-1.377083 -0.16472,-3.134793 -0.14404,-1.773315 -0.29665,-3.343689 -0.13699,-1.569709 -0.27751,-2.686039 -0.12489,-1.115665 -0.1216,-1.193721 0.0165,-0.390278 0.26384,-0.69257 0.24735,-0.302296 0.68776,-0.36182 l 0.1561,0.0066 z m 14.94753,20.99569 q 0.73371,0.0311 1.91926,-0.638039 1.18555,-0.669136 2.33371,-1.934135 1.14816,-1.265007 2.00586,-3.058414 0.85837,-1.809018 0.95398,-4.072624 0.0923,-2.185551 -0.36855,-3.862828 -0.46087,-1.677276 -1.09895,-2.861614 -0.62247,-1.183678 -1.28496,-1.790405 -0.66182,-0.622341 -0.97075,-0.713631 -0.65565,-0.02779 -1.19104,0.05898 -0.53474,0.07116 -0.72338,0.09444 -0.46833,-0.01985 -0.84212,-0.426674 -0.99999,0.348584 -2.11955,1.677357 -1.10332,1.313824 -2.08591,3.101936 -0.96633,1.773163 -1.64592,3.793064 -0.664,2.020565 -0.73654,3.737786 -0.0758,1.795272 0.49453,3.101852 0.57102,1.290974 1.47471,2.111233 0.90368,0.820259 1.9338,1.239265 1.04637,0.404061 1.95182,0.442444 z m 3.62876,-21.115257 q 0.81177,0.03442 1.85463,0.891853 1.04354,0.841832 1.93381,2.34964 0.89095,1.492199 1.49013,3.597592 0.59984,2.089783 0.49103,4.665611 -0.1108,2.622662 -1.11054,4.816662 -0.98346,2.179047 -2.41086,3.760636 -1.41178,1.582252 -3.0274,2.436462 -1.61562,0.85421 -2.94255,0.797958 -1.52988,-0.06485 -2.98786,-0.720947 -1.45799,-0.65609 -2.58198,-1.81411 -1.12401,-1.15802 -1.80409,-2.828949 -0.66448,-1.670269 -0.57347,-3.824596 0.0574,-1.358166 0.47006,-2.982769 0.42828,-1.62394 1.10702,-3.252907 0.67939,-1.644573 1.5714,-3.139385 0.90828,-1.509758 1.92692,-2.67078 1.03493,-1.175972 2.15804,-1.847756 1.12376,-0.687397 2.26337,-0.639084 0.42149,0.01787 0.7447,0.141041 0.33949,0.108227 0.59828,0.275589 0.20295,0.0086 0.39093,9.35e-4 0.20427,-0.02262 0.43843,-0.0127 z m 28.23255,19.150467 q -0.0231,0.546387 0.0924,1.145561 0.11609,0.583573 0.28101,1.122284 0.18118,0.523773 0.35005,0.968827 0.18513,0.430099 0.28451,0.668899 0.11501,0.239456 0.10181,0.551682 -0.027,0.640052 -0.58661,0.929115 -0.15941,0.07143 -0.28561,0.09737 -0.11125,0.0422 -0.26737,0.03558 -0.62443,-0.02647 -0.9116,-0.632927 -0.0455,-0.0332 -0.26055,-0.495857 -0.21504,-0.462647 -0.43515,-1.175736 -0.22009,-0.713081 -0.40237,-1.580955 -0.1823,-0.867874 -0.14603,-1.726486 0.009,-0.202942 0.004,-0.453385 -0.005,-0.250438 -0.0387,-0.564644 -0.008,-0.54771 -0.0279,-1.18975 -0.004,-0.65699 0.0341,-1.546822 0.025,-0.59322 -0.026,-1.236584 -0.051,-0.643364 -0.0961,-1.427227 -0.0833,-0.988792 -0.13019,-2.10115 -0.0468,-1.112354 0.006,-2.361241 0.033,-0.780555 -0.27156,-1.716167 -0.28892,-0.934952 -0.8804,-1.741978 -0.59146,-0.807026 -1.49141,-1.345626 -0.88367,-0.553547 -2.10133,-0.605168 -1.51426,-0.06419 -2.74071,0.462456 -1.21018,0.511703 -2.10504,1.333916 -0.89489,0.822208 -1.54592,1.795509 -0.63475,0.958351 -1.0314,1.832958 -0.38037,0.859661 -0.59407,1.476166 -0.1981,0.617161 -0.2014,0.695217 -0.12378,0.33881 -0.3353,0.533154 l -0.0297,0.702495 q -0.0396,0.936665 0.17438,2.165581 0.23023,1.213966 0.53191,2.587349 0.34698,1.781921 0.67175,3.719292 0.34105,1.922416 0.25664,3.920639 -0.0198,0.46833 -0.3452,0.767318 -0.32541,0.298981 -0.79373,0.279129 -0.43711,-0.01853 -0.75176,-0.34465 -0.31463,-0.326118 -0.29486,-0.794449 0.0765,-1.81089 -0.22232,-3.62204 -0.29883,-1.811161 -0.65109,-3.468193 -0.32961,-1.452762 -0.56949,-2.807891 -0.23924,-1.370736 -0.19176,-2.494732 0.0481,-1.139611 -0.0354,-2.863446 -0.0836,-1.723838 -0.23421,-3.341045 -0.13435,-1.632153 -0.27157,-2.826538 -0.12094,-1.209332 -0.11765,-1.287388 0.0165,-0.390278 0.29506,-0.69125 0.29419,-0.300308 0.84387,-0.355201 0.43711,0.01853 0.7069,0.295833 0.28606,0.262348 0.34631,0.687157 -0.003,0.07806 0.057,0.502865 0.0609,0.409198 0.10995,1.099392 0.0497,0.674587 0.1227,1.53783 0.0886,0.863903 0.17395,1.805862 0.62376,-1.06829 1.46411,-2.080482 0.85661,-1.027138 1.95244,-1.793915 1.11211,-0.781723 2.46014,-1.225025 1.3487,-0.458912 2.98786,-0.389423 1.60792,0.06816 2.87594,0.778759 1.28429,0.695644 2.1761,1.796905 0.89248,1.085648 1.36719,2.435089 0.47473,1.349445 0.41867,2.676388 -0.0495,1.17083 -6.2e-4,2.236355 0.0495,1.049911 0.13678,1.945037 0.0451,0.783863 0.0915,1.536503 0.0471,0.73703 0.0187,1.408306 -0.066,1.561108 0.004,2.502404 0.0323,0.345432 0.0354,0.6427 0.003,0.297272 -0.0101,0.609497 z"
       id="path17"
       inkscape:connector-curvature="0"
       style="fill:#666666;fill-rule:nonzero" />
  </g>
</svg>
