<?xml version="1.0" standalone="yes"?>

<svg version="1.1" viewBox="0.0 0.0 389.254593175853 100.0" fill="none" stroke="none" stroke-linecap="square" stroke-miterlimit="10" xmlns="http://www.w3.org/2000/svg" xmlns:xlink="http://www.w3.org/1999/xlink"><clipPath id="p.0"><path d="m0 0l389.2546 0l0 100.0l-389.2546 0l0 -100.0z" clip-rule="nonzero"></path></clipPath><g clip-path="url(#p.0)"><path fill="#000000" fill-opacity="0.0" d="m0 0l389.2546 0l0 100.0l-389.2546 0z" fill-rule="nonzero"></path><path fill="#ead1dc" d="m17.773634 23.921988l357.5526 -1.6927433l-40.36969 18.633308l40.36969 15.2451935l-38.44577 5.0808563l34.60089 18.633305l-351.78378 -1.6927414l38.445778 -13.552452l-44.214584 -5.0808563l38.44876 -13.552448z" fill-rule="nonzero"></path><path stroke="#666666" stroke-width="2.0" stroke-linejoin="round" stroke-linecap="butt" d="m17.773634 23.921988l357.5526 -1.6927433l-40.36969 18.633308l40.36969 15.2451935l-38.44577 5.0808563l34.60089 18.633305l-351.78378 -1.6927414l38.445778 -13.552452l-44.214584 -5.0808563l38.44876 -13.552448z" fill-rule="nonzero"></path><path fill="#000000" fill-opacity="0.0" d="m59.276905 13.312336l280.44064 0.031493187l0 58.450848l-280.44064 -0.03149414z" fill-rule="nonzero"></path><path fill="#666666" d="m92.85662 40.16923q0 -0.671875 -0.25 -1.5469055q-0.25 -0.8750267 -0.796875 -1.7344627q-0.546875 -0.85943604 -1.375 -1.5626564q-0.8125 -0.70321655 -1.90625 -1.0158386q-2.109375 -0.5471115 -3.640625 -0.7816582q-1.515625 -0.23454666 -2.765625 -0.23468399q-1.375 -1.5640259E-4 -2.53125 0.2340889q-1.140625 0.2342453 -2.515625 0.5465927q0.15625 1.3281441 0.296875 2.9062843q0.140625 1.5781403 0.234375 3.1094017q0.09375 1.5156326 0.15625 2.8906403q0.0625 1.3593826 0.0625 2.2187576q0 0.203125 0 0.484375q0 0.265625 0.03125 0.5781288q0.546875 6.1035156E-5 1.078125 1.2207031E-4q0.53125 5.722046E-5 1.078125 0.031368256q0.859375 0.046974182 1.6875 0.047065735q0.84375 9.536743E-5 1.703125 1.9073486E-4q1.5625 1.7547607E-4 2.953125 -0.07779312q1.390625 -0.0779686 2.40625 -0.35910416q1.328125 -0.39047623 2.109375 -0.9060135q0.78125 -0.53116226 1.171875 -1.1561165q0.390625 -0.62495804 0.515625 -1.3593178q0.140625 -0.74998474 0.21875 -1.5312271l0.046875 -0.46874237l0.03125 -0.3124962zm-3.78125 -7.9691772q1.4375 0.39078903 2.5625 1.2971649q1.140625 0.8907509 1.875 2.0314598q0.75 1.1250839 1.140625 2.359501q0.390625 1.2187958 0.390625 2.2812958q0 0.15625 -0.015625 0.2812462q-0.015625 0.109375 -0.015625 0.265625l-0.046875 0.4687462q-0.078125 0.81248856 -0.28125 1.7812157q-0.1875 0.9531059 -0.734375 1.8905449q-0.546875 0.93743896 -1.640625 1.7810631q-1.09375 0.8280029 -2.96875 1.3434181q-1.171875 0.3436203 -2.671875 0.45282364q-1.5 0.09358215 -3.21875 0.09339142q-0.859375 -9.918213E-5 -1.71875 -1.9454956E-4q-0.859375 -9.536743E-5 -1.765625 -0.047073364q-0.5 -0.03130722 -1.0 -0.031360626q-0.484375 -5.722046E-5 -0.984375 -1.1062622E-4q0.109375 1.7187614 0.296875 3.6875305q0.203125 1.9687729 0.375 3.687542q0.1875 1.7187729 0.3125 2.8906631q0.140625 1.1718903 0.140625 1.2500153q0 0.4375 -0.296875 0.74996567q-0.28125 0.31246948 -0.796875 0.35928726q-0.421875 -4.9591064E-5 -0.734375 -0.28133392q-0.3125 -0.28128433 -0.359375 -0.70316696q-0.03125 -0.12500381 -0.140625 -1.0625153q-0.09375 -0.9375076 -0.234375 -2.3125267q-0.125 -1.3906364 -0.28125 -3.0625305q-0.15625 -1.6875191 -0.296875 -3.3125343q-0.140625 -1.6250153 -0.234375 -2.9844017q-0.09375 -1.3750076 -0.09375 -2.1562576q0 -0.96875 -0.0625 -2.3750076q-0.0625 -1.4062576 -0.1875 -2.968773q-0.109375 -1.5625114 -0.25 -3.1094017q-0.125 -1.5468903 -0.28125 -2.7969055q-0.078125 -0.078136444 -0.125 -0.20314026q-0.03125 -0.14062881 -0.109375 -0.45313644q0 -0.15625 0.078125 -0.39061737q-0.046875 -0.20312881 -0.0625 -0.43750763q-0.015625 -0.234375 -0.09375 -0.54688454q0 -0.390625 0.265625 -0.7030945q0.28125 -0.31246948 0.828125 -0.39053345q0.390625 4.386902E-5 0.703125 0.2813301q0.3125 0.26565933 0.390625 0.81254387q1.40625 -0.3435936 2.65625 -0.57782745q1.25 -0.23423386 2.6875 -0.23407364q1.375 1.5449524E-4 3.03125 0.25034142q1.65625 0.250185 3.96875 0.8441944zm20.78125 6.2054596q0.859375 9.536743E-5 1.4375 0.14078522q0.59375 0.14069366 0.953125 0.3126068q0.375 0.17191696 0.59375 0.37506866q0.21875 0.18752289 0.296875 0.31253433q0.1875 0.26564407 0.1875 0.5781441q0 0.625 -0.46875 0.9061966q-0.234375 0.1874733 -0.625 0.18743134q-0.46875 -5.340576E-5 -0.8125 -0.34384155q-0.078125 -0.04688263 -0.421875 -0.15629578q-0.328125 -0.12503815 -1.140625 -0.1251297q-0.46875 -5.340576E-5 -1.6875 0.59355927q-1.203125 0.5779915 -2.453125 1.9059753q-1.25 1.3279839 -2.25 3.4684982q-1.0 2.1248856 -1.0 5.2030106q0.125 0.51564026 0.234375 1.0469017q0.125 0.51564026 0.28125 1.0625343q0.421875 1.7656708 0.84375 3.6875916q0.4375 1.9062996 0.4375 3.9062996q0 0.46875 -0.328125 0.78121567q-0.328125 0.31246185 -0.765625 0.31241226q-0.46875 -5.340576E-5 -0.78125 -0.31258774q-0.3125 -0.31253433 -0.3125 -0.78128433q0 -1.8125 -0.390625 -3.6094208q-0.390625 -1.796917 -0.8125 -3.4375877q-0.390625 -1.4375458 -0.6875 -2.78133q-0.296875 -1.3594055 -0.296875 -2.4844055q0 -1.140625 -0.15625 -2.859394q-0.15625 -1.7187691 -0.375 -3.328167q-0.203125 -1.6250229 -0.359375 -2.812542q-0.15625 -1.2031403 -0.15625 -1.2812653q0 -0.390625 0.265625 -0.7030945q0.28125 -0.31246948 0.828125 -0.39053345q0.390625 4.196167E-5 0.671875 0.2657013q0.296875 0.25003052 0.375 0.67191696q0 0.078125 0.09375 0.6562576q0.109375 0.56251526 0.21875 1.4219017q0.125 0.85939026 0.25 1.9531517q0.140625 1.0937653 0.265625 2.1875305q0.78125 -1.6092873 1.84375 -2.827919q1.078125 -1.2342529 2.203125 -2.046627q1.140625 -0.8279953 2.1875 -1.234127q1.0625 -0.42175674 1.8125 -0.42167282zm14.5234375 2.6266327q-0.34375 -4.196167E-5 -1.390625 0.3748436q-1.03125 0.35925674 -2.140625 1.3278847q-1.109375 0.9529991 -2.078125 2.6560135q-0.953125 1.6873932 -1.1875 4.3436165q0.671875 -0.1561737 1.5 -0.34357834q0.84375 -0.20303345 1.6875 -0.37481308q0.84375 -0.17177963 1.59375 -0.2810707q0.765625 -0.12491226 1.234375 -0.124858856q0.546875 6.1035156E-5 1.390625 -0.24984741q0.84375 -0.26552963 1.65625 -0.5310631q0.671875 -0.2342987 1.25 -0.40610886q0.5937424 -0.18743134 1.1406174 -0.3436203q-0.15625 -1.5625191 -0.671875 -2.6875763q-0.49999237 -1.1406822 -1.1718674 -1.8751335q-0.65625 -0.7500725 -1.40625 -1.1095314q-0.734375 -0.37508392 -1.40625 -0.3751564zm7.3906174 17.891453q0.421875 4.9591064E-5 0.71875 0.2813301q0.296875 0.26565933 0.375 0.81254196q0 0.421875 -0.265625 0.7187233q-0.25 0.29684448 -0.671875 0.3749237q-0.078125 -1.1444092E-5 -0.703125 0.09366989q-0.625 0.109306335 -1.484375 0.21858215q-0.859375 0.12490463 -1.7968674 0.20292282q-0.9375 0.078022 -1.609375 0.07794571q-5.1875 -5.836487E-4 -7.96875 -2.7508965q-2.765625 -2.765934 -3.046875 -7.7659645q-0.078125 -2.5468864 0.453125 -4.4530754q0.53125 -1.921814 1.40625 -3.2810936q0.875 -1.3749008 1.96875 -2.2654037q1.09375 -0.9061241 2.125 -1.4060097q1.046875 -0.51550674 1.875 -0.7185402q0.84375 -0.21865463 1.234375 -0.21860886q1.015625 1.1062622E-4 2.171875 0.5158653q1.15625 0.5001335 2.1406174 1.5314903q1.0 1.0313644 1.703125 2.6408195q0.703125 1.5938263 0.859375 3.7813454q0.234375 0.3125267 0.234375 0.7031517q0 0.390625 -0.234375 0.6718483q-0.1875 0.7812271 -1.046875 0.78113174q-0.390625 -4.196167E-5 -0.671875 -0.2344513q-1.046875 0.23426056 -2.1874924 0.65600586q-1.015625 0.35926056 -2.0 0.64039993q-0.96875 0.2655182 -1.75 0.26543045q-0.421875 -4.9591064E-5 -1.15625 0.1248703q-0.71875 0.10929108 -1.578125 0.3123207q-0.859375 0.18740463 -1.734375 0.40605545q-0.875 0.20302582 -1.578125 0.40607452q0.15625 2.4218903 1.109375 3.890747q0.953125 1.4532318 2.265625 2.2658806q1.3125 0.7970238 2.765625 1.047184q1.46875 0.25016785 2.640625 0.25029755q0.625 6.866455E-5 1.515625 -0.07795334q0.9062424 -0.07802582 1.7187424 -0.18730927q0.828125 -0.12490463 1.453125 -0.20296097l0.59375 -0.078056335l0.15625 -0.031234741zm13.7109375 -11.560959q6.90625 3.3601494 6.90625 7.0632744q0 1.140625 -0.515625 2.2343178q-0.5 1.0936928 -1.203125 2.0154877q-0.703125 0.9061737 -1.46875 1.593586q-0.75 0.6874161 -1.265625 0.96860886q-0.46875 0.2655716 -1.234375 0.5154877q-0.75 0.26554108 -1.5625 0.45294952q-0.796875 0.20303345 -1.515625 0.31232834q-0.71875 0.12491989 -1.1875 0.124866486q-1.015625 -1.1444092E-4 -2.171875 -0.34399414q-1.15625 -0.3282547 -2.21875 -1.093998q-1.046875 -0.76574326 -1.890625 -2.0158386q-0.828125 -1.2500916 -1.296875 -3.07827q0 -0.859375 1.09375 -1.0936279q0.34375 3.8146973E-5 0.65625 0.21882248q0.3125 0.20316315 0.390625 0.5937958q0.4375 1.6406746 1.234375 2.5626373q0.796875 0.92196655 1.640625 1.3908119q0.84375 0.46884155 1.5625 0.5626755q0.71875 0.09383011 1.0 0.093860626q0.34375 3.8146973E-5 0.96875 -0.093639374q0.625 -0.093681335 1.265625 -0.26548386q0.65625 -0.18742752 1.25 -0.37485886q0.609375 -0.20305634 0.921875 -0.390522q0.359375 -0.20308685 0.9375 -0.718647q0.59375 -0.53118134 1.109375 -1.2186241q0.53125 -0.68743896 0.921875 -1.468647q0.390625 -0.7812042 0.390625 -1.4843292q0 -0.390625 -0.234375 -0.9062767q-0.234375 -0.5312767 -0.84375 -1.1719704q-0.59375 -0.65631866 -1.71875 -1.3908195q-1.109375 -0.7501221 -2.859375 -1.6096954q-1.140625 -0.5470009 -2.375 -1.125267q-1.21875 -0.5938873 -2.28125 -1.0783806q-1.046875 -0.48449326 -1.75 -0.84394455l-0.703125 -0.3125801l-0.625 -0.26569748l0 -0.703125q0 -1.796875 0.890625 -3.140522q0.90625 -1.3592758 2.1875 -2.2653809q1.296875 -0.92173004 2.71875 -1.3903198q1.421875 -0.46858978 2.515625 -0.4684677q1.140625 1.296997E-4 1.921875 0.28146744q0.78125 0.26571274 1.28125 0.59389114q0.515625 0.32818604 0.765625 0.62508774q0.25 0.2969017 0.296875 0.37503433q0.1875 0.26564407 0.1875 0.5781441q0 0.59375 -0.5 0.9061966q-0.3125 0.18746185 -0.59375 0.18743134q-0.578125 -6.484985E-5 -0.890625 -0.5000992q-0.046875 -7.6293945E-6 -0.1875 -0.14064789q-0.125 -0.14063644 -0.421875 -0.29692078q-0.296875 -0.15628433 -0.75 -0.28133392q-0.4375 -0.14067459 -1.109375 -0.14075089q-0.65625 -7.247925E-5 -1.59375 0.2810707q-0.9375 0.265522 -1.875 0.8279152q-0.9375 0.5623932 -1.6875 1.3904343q-0.734375 0.8124199 -0.9375 1.906147q0.515625 0.23443222 1.25 0.57826614q0.75 0.32820892 1.625 0.7345543q0.875 0.40634918 1.8125 0.859581q0.9375 0.453228 1.765625 0.84394836zm18.9375 -6.326q-0.34375 -3.8146973E-5 -1.390625 0.3748436q-1.03125 0.35926056 -2.140625 1.3278847q-1.109375 0.9530029 -2.078125 2.6560173q-0.953125 1.6873932 -1.1875 4.3436165q0.671875 -0.1561737 1.5 -0.34358215q0.84375 -0.20302963 1.6875 -0.37480927q0.84375 -0.17177963 1.59375 -0.2810707q0.765625 -0.12491608 1.234375 -0.12486267q0.546875 6.1035156E-5 1.390625 -0.2498436q0.84375 -0.26552963 1.65625 -0.5310631q0.671875 -0.2342987 1.25 -0.40610886q0.59375 -0.18743515 1.140625 -0.34362411q-0.15625 -1.5625153 -0.671875 -2.6875725q-0.5 -1.1406822 -1.171875 -1.8751335q-0.65625 -0.7500725 -1.40625 -1.1095314q-0.734375 -0.37508392 -1.40625 -0.37516022zm7.390625 17.891457q0.421875 4.5776367E-5 0.71875 0.2813301q0.296875 0.26565933 0.375 0.81254196q0 0.421875 -0.265625 0.7187195q-0.25 0.2968483 -0.671875 0.3749237q-0.078125 -7.6293945E-6 -0.703125 0.093673706q-0.625 0.10930252 -1.484375 0.21858215q-0.859375 0.12490463 -1.796875 0.20292282q-0.9375 0.078022 -1.609375 0.07794571q-5.1875 -5.836487E-4 -7.96875 -2.7508965q-2.765625 -2.765934 -3.046875 -7.7659683q-0.078125 -2.5468826 0.453125 -4.4530716q0.53125 -1.9218178 1.40625 -3.2810936q0.875 -1.3749008 1.96875 -2.2654037q1.09375 -0.9061279 2.125 -1.4060097q1.046875 -0.51550674 1.875 -0.7185402q0.84375 -0.21865463 1.234375 -0.21861267q1.015625 1.1444092E-4 2.171875 0.51586914q1.15625 0.5001297 2.140625 1.5314903q1.0 1.0313644 1.703125 2.6408157q0.703125 1.5938301 0.859375 3.7813492q0.234375 0.3125267 0.234375 0.7031517q0 0.390625 -0.234375 0.6718483q-0.1875 0.7812271 -1.046875 0.78113174q-0.390625 -4.5776367E-5 -0.671875 -0.2344513q-1.046875 0.23425674 -2.1875 0.65600586q-1.015625 0.35926056 -2.0 0.64039993q-0.96875 0.26551437 -1.75 0.26542664q-0.421875 -4.5776367E-5 -1.15625 0.1248703q-0.71875 0.10929489 -1.578125 0.31232452q-0.859375 0.18740082 -1.734375 0.40605545q-0.875 0.20302582 -1.578125 0.4060707q0.15625 2.421894 1.109375 3.890751q0.953125 1.4532318 2.265625 2.2658806q1.3125 0.79701996 2.765625 1.047184q1.46875 0.25016403 2.640625 0.25029755q0.625 6.866455E-5 1.515625 -0.07795715q0.90625 -0.078022 1.71875 -0.18730545q0.828125 -0.12490845 1.453125 -0.20296097l0.59375 -0.07806015l0.15625 -0.031230927zm23.039062 -2.8880386q0 0.546875 0.140625 1.1406403q0.140625 0.57814026 0.328125 1.1094131q0.203125 0.5156479 0.390625 0.95316696q0.203125 0.4218979 0.3125 0.65628815q0.125 0.23438644 0.125 0.54688644q0 0.640625 -0.546875 0.95306396q-0.15625 0.07810974 -0.28125 0.10934448q-0.109375 0.046863556 -0.265625 0.046844482q-0.625 -6.866455E-5 -0.9375 -0.5938568q-0.046875 -0.031253815 -0.28125 -0.48440552q-0.234375 -0.4531517 -0.484375 -1.1563034q-0.25 -0.7031517 -0.46875 -1.5625534q-0.21875 -0.8593979 -0.21875 -1.7187729q0 -0.203125 -0.015625 -0.4531288q-0.015625 -0.25 -0.0625 -0.5625076q-0.03125 -0.5468788 -0.078125 -1.1875076q-0.03125 -0.6562538 -0.03125 -1.5468788q0 -0.59375 -0.078125 -1.2343826q-0.078125 -0.6406326 -0.15625 -1.4218941q-0.125 -0.98438644 -0.21875 -2.093773q-0.09375 -1.1093864 -0.09375 -2.3593864q0 -0.78125 -0.34375 -1.7031631q-0.328125 -0.92191315 -0.953125 -1.7032318q-0.625 -0.7813225 -1.546875 -1.2814255q-0.90625 -0.5157242 -2.125 -0.5158615q-1.515625 -1.7166138E-4 -2.71875 0.5778198q-1.1875 0.5623665 -2.046875 1.4216423q-0.859375 0.85927963 -1.46875 1.859211q-0.59375 0.98431015 -0.953125 1.8748932q-0.34375 0.87496185 -0.53125 1.4999428q-0.171875 0.6249771 -0.171875 0.7031021q-0.109375 0.34373856 -0.3125 0.54684067l0 0.703125q0 0.9375 0.265625 2.1562805q0.28125 1.2031555 0.640625 2.5625725q0.421875 1.7656708 0.828125 3.6875916q0.421875 1.9062996 0.421875 3.9062996q0 0.46875 -0.3125 0.78121567q-0.3125 0.31246185 -0.78125 0.31241226q-0.4375 -4.9591064E-5 -0.765625 -0.31258774q-0.328125 -0.31253815 -0.328125 -0.78128815q0 -1.8125 -0.375 -3.609417q-0.375 -1.796917 -0.796875 -3.4375877q-0.390625 -1.4375458 -0.6875 -2.7813263q-0.296875 -1.3594093 -0.296875 -2.4844093q0 -1.140625 -0.15625 -2.859394q-0.15625 -1.7187653 -0.375 -3.328167q-0.203125 -1.6250229 -0.390625 -2.812542q-0.171875 -1.2031441 -0.171875 -1.2812691q0 -0.390625 0.265625 -0.7030983q0.28125 -0.31246567 0.828125 -0.39052963q0.4375 4.9591064E-5 0.71875 0.2657051q0.296875 0.25003433 0.375 0.67191696q0 0.078125 0.078125 0.5000076q0.078125 0.40626144 0.15625 1.0937691q0.078125 0.6718826 0.1875 1.5312691q0.125 0.85939026 0.25 1.7969055q0.578125 -1.0936852 1.375 -2.1404724q0.8125 -1.0624084 1.875 -1.8747902q1.078125 -0.8280029 2.40625 -1.3278542q1.328125 -0.5154762 2.96875 -0.5152893q1.609375 1.7929077E-4 2.90625 0.65657425q1.3125 0.6407738 2.25 1.7033806q0.9375 1.046978 1.46875 2.375164q0.53125 1.3281822 0.53125 2.6563072q0 1.171875 0.09375 2.2343864q0.09375 1.0468864 0.21875 1.9375267q0.078125 0.7812576 0.15625 1.5312653q0.078125 0.73438644 0.078125 1.4062614q0 1.5625 0.109375 2.5000114q0.046875 0.3437538 0.0625 0.6406326q0.015625 0.296875 0.015625 0.609375zm17.585938 -15.701149q0.34375 0.07816315 0.578125 0.43756485q0.234375 0.3437767 0.203125 0.8906479q-0.203125 0.8124771 -1.328125 0.8123512q0 -0.03125 -1.453125 -0.26578903q-1.4375 -0.23453522 -3.859375 -0.28168488q0.109375 2.2343864 0.109375 3.6718864q0 0.75 0.09375 2.1250114q0.109375 1.3593864 0.234375 2.9844017q0.140625 1.6093903 0.296875 3.3125343q0.15625 1.7031403 0.3125 3.0937843q0.15625 1.3750191 0.25 2.2969017q0.109375 0.92189026 0.109375 0.95314026q0 0.4375 -0.296875 0.73434067q-0.296875 0.29684067 -0.796875 0.37490845q-0.4375 -4.5776367E-5 -0.75 -0.28133392q-0.3125 -0.26565933 -0.34375 -0.70316315q0 -0.125 -0.125 -1.0625114q-0.109375 -0.93751526 -0.25 -2.3125305q-0.140625 -1.3906403 -0.296875 -3.0625343q-0.15625 -1.6875153 -0.296875 -3.3125305q-0.125 -1.6250153 -0.234375 -2.9844017q-0.09375 -1.3750114 -0.09375 -2.1562614q0 -1.484375 -0.109375 -3.5937614q-1.015625 0.07801056 -2.0 0.20289993q-0.96875 0.109264374 -1.734375 0.21855545q-0.765625 0.09366226 -1.25 0.17173386q-0.484375 0.078071594 -0.5625 0.078063965q-0.390625 -4.5776367E-5 -0.703125 -0.2657051q-0.3125 -0.28128433 -0.390625 -0.8281708q0 -0.390625 0.25 -0.6874695q0.25 -0.2968483 0.6875 -0.3749237q0.03125 3.8146973E-6 0.515625 -0.09369278q0.5 -0.09369278 1.25 -0.18735886q0.765625 -0.10929108 1.734375 -0.20293045q0.984375 -0.093639374 2.046875 -0.17164612q-0.078125 -1.0937576 -0.1875 -2.171894q-0.09375 -1.0781364 -0.1875 -2.062523q-0.09375 -1.0000114 -0.21875 -1.8593979q-0.109375 -0.85938644 -0.234375 -1.4844017q0 -0.390625 0.265625 -0.7030964q0.28125 -0.31246758 0.828125 -0.39053154q0.390625 4.386902E-5 0.6875 0.2344532q0.296875 0.23440742 0.375 0.65629005q0.265625 1.2187805 0.5 3.3281822q0.234375 2.1094017 0.4375 4.3281746q1.328125 1.487732E-4 2.390625 0.07839203q1.078125 0.07824707 1.84375 0.20333481q0.765625 0.10945892 1.203125 0.21888351q0.453125 0.09379959 0.5 0.09380722zm10.8125 18.907463q0.828125 9.1552734E-5 1.796875 -0.7654228q0.984375 -0.7655144 1.890625 -2.0466614q0.921875 -1.296772 1.65625 -3.031067q0.75 -1.7342911 1.109375 -3.687374q-0.28125 -1.8750305 -0.4375 -3.9375496q-0.15625 -2.0781403 -0.1875 -4.421894q-0.4375 -0.3594246 -0.4375 -0.8594246q-0.265625 -0.12503052 -0.5625 -0.20318985q-0.296875 -0.07815933 -0.640625 -0.07819748q-0.515625 -5.722046E-5 -1.453125 0.21858978q-0.9375 0.21864319 -2.03125 0.7028961q-1.09375 0.48425293 -2.203125 1.265377q-1.109375 0.7811241 -2.03125 1.9216461q-0.921875 1.124897 -1.515625 2.6092033q-0.578125 1.4843102 -0.578125 3.3593102q0 2.96875 0.484375 4.734432q0.5 1.7500534 1.296875 2.687645q0.796875 0.93758774 1.796875 1.2345772q1.0 0.29698563 2.046875 0.29710388zm8.671875 -9.530277q0.359375 2.421917 0.828125 4.3438454q0.46875 1.9063034 0.875 3.2344704q0.40625 1.3281708 0.703125 2.046955q0.296875 0.71878433 0.296875 0.76565933q0.03125 0.109378815 0.046875 0.21875381q0.03125 0.093753815 0.03125 0.20312881q0 0.71875 -0.625 1.0311813q-0.3125 0.07809067 -0.46875 0.078071594q-0.75 -8.392334E-5 -0.984375 -0.6251106q-0.078125 -0.15625763 -0.71875 -1.8594551q-0.640625 -1.7031975 -1.34375 -4.7501526q-0.625 1.5155563 -1.46875 2.812336q-0.84375 1.2811546 -1.796875 2.2185478q-0.953125 0.9373932 -2.0 1.4685249q-1.03125 0.53113556 -2.046875 0.5310211q-3.984375 -4.4631958E-4 -5.90625 -2.7350388q-1.90625 -2.7345886 -1.90625 -8.406464q0 -2.34375 0.703125 -4.15617q0.703125 -1.8124237 1.8125 -3.1716728q1.125 -1.3748741 2.5 -2.3122177q1.390625 -0.9373436 2.71875 -1.5153198q1.328125 -0.5936012 2.453125 -0.84347534q1.140625 -0.2654953 1.8125 -0.26542282q1.171875 1.335144E-4 2.03125 0.45335388q0.859375 0.45322037 1.421875 1.0157852q0.5625 0.56256485 0.828125 1.0625916q0.28125 0.48440933 0.28125 0.51565933q0.125 0.20313644 0.125 0.43751144q0 0.390625 -0.359375 0.81246185q0.359375 1.8437881 0.359375 4.843788q0 0.625 -0.0625 1.2499924q-0.0625 0.6249962 -0.140625 1.2968597zm18.875 -9.372879q0.34375 0.07816315 0.578125 0.43756485q0.234375 0.3437767 0.203125 0.8906479q-0.203125 0.8124771 -1.328125 0.8123512q0 -0.03125 -1.453125 -0.26578903q-1.4375 -0.23453522 -3.859375 -0.28168488q0.109375 2.2343903 0.109375 3.6718903q0 0.75 0.09375 2.1250076q0.109375 1.3593903 0.234375 2.9844017q0.140625 1.6093903 0.296875 3.3125343q0.15625 1.7031441 0.3125 3.0937843q0.15625 1.3750191 0.25 2.2969055q0.109375 0.92188644 0.109375 0.95313644q0 0.4375 -0.296875 0.73434067q-0.296875 0.29684067 -0.796875 0.37491226q-0.4375 -4.9591064E-5 -0.75 -0.28133392q-0.3125 -0.26566315 -0.34375 -0.70316696q0 -0.125 -0.125 -1.0625114q-0.109375 -0.93751144 -0.25 -2.3125305q-0.140625 -1.3906403 -0.296875 -3.0625305q-0.15625 -1.6875191 -0.296875 -3.3125343q-0.125 -1.6250153 -0.234375 -2.9844017q-0.09375 -1.3750114 -0.09375 -2.1562614q0 -1.484375 -0.109375 -3.5937614q-1.015625 0.07801056 -2.0 0.20289993q-0.96875 0.10926819 -1.734375 0.21855545q-0.765625 0.09366608 -1.25 0.17173386q-0.484375 0.078071594 -0.5625 0.078063965q-0.390625 -4.5776367E-5 -0.703125 -0.2657051q-0.3125 -0.28128433 -0.390625 -0.82816696q0 -0.390625 0.25 -0.6874733q0.25 -0.2968483 0.6875 -0.3749237q0.03125 3.8146973E-6 0.515625 -0.09369278q0.5 -0.09369278 1.25 -0.18735886q0.765625 -0.10928726 1.734375 -0.20293045q0.984375 -0.093639374 2.046875 -0.17164612q-0.078125 -1.0937576 -0.1875 -2.171894q-0.09375 -1.0781364 -0.1875 -2.062523q-0.09375 -1.0000076 -0.21875 -1.8593979q-0.109375 -0.85938644 -0.234375 -1.4844017q0 -0.390625 0.265625 -0.7030945q0.28125 -0.31246948 0.828125 -0.39053154q0.390625 4.386902E-5 0.6875 0.2344513q0.296875 0.23440742 0.375 0.65629387q0.265625 1.2187767 0.5 3.3281784q0.234375 2.1094017 0.4375 4.3281746q1.328125 1.487732E-4 2.390625 0.07839584q1.078125 0.078243256 1.84375 0.203331q0.765625 0.10945892 1.203125 0.21888351q0.453125 0.093803406 0.5 0.09380722zm4.5625 -2.9682388q-0.65625 -7.247925E-5 -1.109375 -0.45324707q-0.453125 -0.4531784 -0.453125 -1.1094284q0 -0.671875 0.453125 -1.0936966q0.453125 -0.4374504 1.109375 -0.43737793q0.625 7.247925E-5 1.0781403 0.43762207q0.453125 0.4219246 0.453125 1.0937996q0 0.65625 -0.453125 1.1093254q-0.45314026 0.4530754 -1.0781403 0.45300293zm0.515625 1.6406822q0.42189026 4.9591064E-5 0.71876526 0.25008392q0.296875 0.25003052 0.375 0.64066696q0 0.125 0.171875 1.2187691q0.171875 1.0937691 0.40625 2.6562958q0.234375 1.5625267 0.453125 3.3437996q0.21875 1.7656479 0.296875 3.1719093q0.078125 1.3750076 0.265625 3.2187805q0.203125 1.8281479 0.4375 3.4844208q0.234375 1.6562767 0.40625 2.8594208q0.171875 1.1875191 0.171875 1.2656441q0 0.4375 -0.28125 0.7187195q-0.265625 0.29684448 -0.8125 0.37490845q-0.421875 -4.5776367E-5 -0.71875 -0.2500801q-0.296875 -0.25003433 -0.375 -0.68754196q0 -0.109375 -0.171875 -1.2812691q-0.171875 -1.1875191 -0.40625 -2.8437958q-0.234375 -1.6562767 -0.4375 -3.4844246q-0.1875 -1.8437691 -0.265625 -3.2500305q-0.078125 -1.3750076 -0.29689026 -3.1250305q-0.21875 -1.7656517 -0.4375 -3.3281746q-0.203125 -1.5625229 -0.390625 -2.6719208q-0.171875 -1.1093941 -0.171875 -1.1875191q0 -0.390625 0.234375 -0.7030983q0.234375 -0.3124733 0.671875 -0.3905487l0.15625 1.5258789E-5zm15.820328 20.345528q0.734375 8.392334E-5 1.890625 -0.7185364q1.15625 -0.7186203 2.25 -2.0309982q1.09375 -1.3123779 1.875 -3.1404152q0.78125 -1.8436623 0.78125 -4.1092873q0 -2.1875 -0.53125 -3.8438072q-0.53125 -1.656311 -1.21875 -2.8126373q-0.671875 -1.1563263 -1.359375 -1.7345276q-0.6875 -0.5938301 -1.0 -0.67198944q-0.65625 -7.247925E-5 -1.1875 0.109241486q-0.53125 0.09369278 -0.71875 0.12491989q-0.46875 -5.340576E-5 -0.859375 -0.39072037q-0.984375 0.39051437 -2.046875 1.7653961q-1.046875 1.3592567 -1.953125 3.1872787q-0.890625 1.8124008 -1.484375 3.8592072q-0.578125 2.0468102 -0.578125 3.7655602q0 1.796875 0.625 3.0781975q0.625 1.2656937 1.5625 2.0470505q0.9375 0.781353 1.984375 1.1564713q1.0625 0.35949707 1.96875 0.35959625zm2.734375 -21.249691q0.8125 9.1552734E-5 1.890625 0.8127098q1.078125 0.7969971 2.03125 2.265854q0.953125 1.4532318 1.640625 3.531433q0.6875 2.06258 0.6875 4.640705q0 2.625 -0.90625 4.859272q-0.890625 2.2186508 -2.25 3.8591232q-1.34375 1.6404724 -2.921875 2.562172q-1.578125 0.9216957 -2.90625 0.92154694q-1.53125 -1.7166138E-4 -3.015625 -0.5940895q-1.484375 -0.59391403 -2.65625 -1.7034225q-1.171875 -1.1095047 -1.921875 -2.7502136q-0.734375 -1.6407089 -0.734375 -3.796959q0 -1.359375 0.34375 -2.9999619q0.359375 -1.640583 0.96875 -3.2967644q0.609375 -1.6718063 1.4375 -3.2029648q0.84375 -1.5467796 1.8125 -2.7497978q0.984375 -1.2186394 2.078125 -1.9372673q1.09375 -0.7342491 2.234375 -0.73412323q0.421875 4.9591064E-5 0.75 0.10945892q0.34375 0.09378815 0.609375 0.25006866q0.203125 2.2888184E-5 0.390625 -0.015579224q0.203125 -0.031227112 0.4375 -0.031200409zm29.015625 17.940758q0 0.546875 0.140625 1.1406403q0.140625 0.57814026 0.328125 1.1094131q0.203125 0.5156479 0.390625 0.95316696q0.203125 0.4218979 0.3125 0.65628433q0.125 0.23439026 0.125 0.54689026q0 0.640625 -0.546875 0.95306396q-0.15625 0.07810593 -0.28125 0.10934448q-0.109375 0.04685974 -0.265625 0.046844482q-0.625 -7.247925E-5 -0.9375 -0.5938568q-0.046875 -0.031253815 -0.28125 -0.48440552q-0.234375 -0.4531517 -0.484375 -1.1563034q-0.25 -0.7031555 -0.46875 -1.5625534q-0.21875 -0.8594017 -0.21875 -1.7187767q0 -0.203125 -0.015625 -0.453125q-0.015625 -0.25 -0.0625 -0.5625076q-0.03125 -0.5468788 -0.078125 -1.1875076q-0.03125 -0.6562538 -0.03125 -1.5468788q0 -0.59375 -0.078125 -1.2343826q-0.078125 -0.64063644 -0.15625 -1.4218941q-0.125 -0.98439026 -0.21875 -2.093773q-0.09375 -1.1093864 -0.09375 -2.3593864q0 -0.78125 -0.34375 -1.7031631q-0.328125 -0.92191315 -0.953125 -1.7032318q-0.625 -0.7813225 -1.546875 -1.2814255q-0.90625 -0.515728 -2.125 -0.5158615q-1.515625 -1.7166138E-4 -2.71875 0.5778198q-1.1875 0.5623665 -2.046875 1.4216423q-0.859375 0.85927963 -1.46875 1.859211q-0.59375 0.98431015 -0.953125 1.8748932q-0.34375 0.87496185 -0.53125 1.499939q-0.171875 0.6249809 -0.171875 0.7031059q-0.109375 0.34373856 -0.3125 0.54684067l0 0.703125q0 0.9375 0.265625 2.1562805q0.28125 1.2031555 0.640625 2.5625725q0.421875 1.7656708 0.828125 3.6875916q0.421875 1.9062996 0.421875 3.9062996q0 0.46875 -0.3125 0.78121185q-0.3125 0.31246567 -0.78125 0.31241226q-0.4375 -4.9591064E-5 -0.765625 -0.31258392q-0.328125 -0.31253815 -0.328125 -0.78128815q0 -1.8125 -0.375 -3.609417q-0.375 -1.796917 -0.796875 -3.4375877q-0.390625 -1.4375458 -0.6875 -2.78133q-0.296875 -1.3594055 -0.296875 -2.4844055q0 -1.140625 -0.15625 -2.859394q-0.15625 -1.7187691 -0.375 -3.328167q-0.203125 -1.6250229 -0.390625 -2.812542q-0.171875 -1.2031479 -0.171875 -1.2812729q0 -0.390625 0.265625 -0.7030945q0.28125 -0.31246567 0.828125 -0.39052963q0.4375 4.9591064E-5 0.71875 0.2657051q0.296875 0.25003433 0.375 0.67191696q0 0.078125 0.078125 0.5000076q0.078125 0.40625763 0.15625 1.0937691q0.078125 0.6718826 0.1875 1.5312691q0.125 0.85939026 0.25 1.7969055q0.578125 -1.0936852 1.375 -2.1404724q0.8125 -1.0624084 1.875 -1.8747902q1.078125 -0.8280029 2.40625 -1.3278542q1.328125 -0.5154762 2.96875 -0.5152893q1.609375 1.7929077E-4 2.90625 0.65657425q1.3125 0.6407738 2.25 1.7033768q0.9375 1.0469818 1.46875 2.3751678q0.53125 1.3281822 0.53125 2.6563072q0 1.171875 0.09375 2.2343864q0.09375 1.0468864 0.21875 1.9375229q0.078125 0.78126144 0.15625 1.5312691q0.078125 0.7343826 0.078125 1.4062576q0 1.5625 0.109375 2.5000153q0.046875 0.3437538 0.0625 0.6406288q0.015625 0.2968788 0.015625 0.6093788zm14.5390625 -8.670242q6.90625 3.3601494 6.90625 7.0632744q0 1.140625 -0.515625 2.2343178q-0.5 1.0936928 -1.203125 2.0154915q-0.703125 0.9061699 -1.46875 1.5935822q-0.75 0.6874161 -1.265625 0.96860886q-0.46875 0.2655716 -1.234375 0.5154877q-0.75 0.26554108 -1.5625 0.45294952q-0.796875 0.20303345 -1.515625 0.31232834q-0.71875 0.12491989 -1.1875 0.124866486q-1.015625 -1.1444092E-4 -2.171875 -0.34399414q-1.15625 -0.3282547 -2.21875 -1.093998q-1.046875 -0.76574326 -1.890625 -2.0158386q-0.828125 -1.2500916 -1.296875 -3.07827q0 -0.859375 1.09375 -1.0936279q0.34375 3.8146973E-5 0.65625 0.2188263q0.3125 0.20315933 0.390625 0.59379196q0.4375 1.6406746 1.234375 2.5626373q0.796875 0.92196655 1.640625 1.3908119q0.84375 0.46884537 1.5625 0.5626755q0.71875 0.09383011 1.0 0.093860626q0.34375 3.8146973E-5 0.96875 -0.093639374q0.625 -0.093681335 1.265625 -0.26548386q0.65625 -0.18742752 1.25 -0.37485886q0.609375 -0.20305634 0.921875 -0.390522q0.359375 -0.20308685 0.9375 -0.718647q0.59375 -0.53118134 1.109375 -1.2186241q0.53125 -0.68743896 0.921875 -1.468647q0.390625 -0.7812042 0.390625 -1.4843292q0 -0.390625 -0.234375 -0.9062767q-0.234375 -0.5312767 -0.84375 -1.1719704q-0.59375 -0.65631485 -1.71875 -1.3908195q-1.109375 -0.7501221 -2.859375 -1.6096954q-1.140625 -0.5470009 -2.375 -1.125267q-1.21875 -0.5938873 -2.28125 -1.0783806q-1.046875 -0.48449326 -1.75 -0.84394455l-0.703125 -0.3125801l-0.625 -0.26569366l0 -0.703125q0 -1.796875 0.890625 -3.1405258q0.90625 -1.3592758 2.1875 -2.2653809q1.296875 -0.92173004 2.71875 -1.3903198q1.421875 -0.46858978 2.515625 -0.4684677q1.140625 1.296997E-4 1.921875 0.28146744q0.78125 0.26571274 1.28125 0.59389496q0.515625 0.32818222 0.765625 0.6250839q0.25 0.2969017 0.296875 0.37503433q0.1875 0.26564407 0.1875 0.5781441q0 0.59375 -0.5 0.9061966q-0.3125 0.18746185 -0.59375 0.18743134q-0.578125 -6.484985E-5 -0.890625 -0.5000992q-0.046875 -3.8146973E-6 -0.1875 -0.14064789q-0.125 -0.14063644 -0.421875 -0.29692078q-0.296875 -0.15628433 -0.75 -0.28133392q-0.4375 -0.14067459 -1.109375 -0.14075089q-0.65625 -7.247925E-5 -1.59375 0.2810707q-0.9375 0.265522 -1.875 0.8279152q-0.9375 0.562397 -1.6875 1.3904343q-0.734375 0.8124199 -0.9375 1.906147q0.515625 0.23443222 1.25 0.57826614q0.75 0.32820892 1.625 0.7345581q0.875 0.40634537 1.8125 0.8595772q0.9375 0.453228 1.765625 0.84394836z" fill-rule="nonzero"></path></g></svg>

