<?xml version="1.0" standalone="yes"?>

<svg version="1.1" viewBox="0.0 0.0 326.9527559055118 105.12860892388451" fill="none" stroke="none" stroke-linecap="square" stroke-miterlimit="10" xmlns="http://www.w3.org/2000/svg" xmlns:xlink="http://www.w3.org/1999/xlink"><clipPath id="p.0"><path d="m0 0l326.95276 0l0 105.12861l-326.95276 0l0 -105.12861z" clip-rule="nonzero"></path></clipPath><g clip-path="url(#p.0)"><path fill="#000000" fill-opacity="0.0" d="m0 0l326.95276 0l0 105.12861l-326.95276 0z" fill-rule="nonzero"></path><path fill="#ead1dc" d="m6.169506 28.94514l315.0761 -1.6927433l-35.573883 18.633307l35.573883 15.2451935l-33.87851 5.0808563l30.490387 18.633308l-309.9926 -1.6927414l33.8785 -13.552452l-38.961983 -5.0808563l33.881123 -13.552452z" fill-rule="nonzero"></path><path stroke="#666666" stroke-width="2.0" stroke-linejoin="round" stroke-linecap="butt" d="m6.169506 28.94514l315.0761 -1.6927433l-35.573883 18.633307l35.573883 15.2451935l-33.87851 5.0808563l30.490387 18.633308l-309.9926 -1.6927414l33.8785 -13.552452l-38.961983 -5.0808563l33.881123 -13.552452z" fill-rule="nonzero"></path><path fill="#000000" fill-opacity="0.0" d="m57.17277 18.33777l209.67982 0.03149414l0 58.45085l-209.67982 -0.03149414z" fill-rule="nonzero"></path><path fill="#666666" d="m101.92284 46.322617q1.875 0.5159035 3.359375 1.6723785q1.484375 1.1408463 2.5 2.6097488q1.015625 1.4689026 1.5625 3.0471115q0.546875 1.5782051 0.546875 2.953205l-0.046875 0.5781212q-0.03125 1.0624924 -0.15625 2.2499733q-0.109375 1.1874847 -0.703125 2.343647q-0.578125 1.1561623 -1.859375 2.1559715q-1.265625 0.98418045 -3.53125 1.6088448q-1.125 0.35920715 -2.046875 0.4996872q-0.921875 0.14048767 -1.78125 0.14035797q-1.25 -1.8310547E-4 -2.484375 -0.28162384q-1.21875 -0.2814331 -2.984375 -0.7504425q-1.59375 -0.39086914 -2.734375 -1.266037q-1.125 -0.87517166 -1.875 -1.7502823q-0.734375 -0.8907356 -1.09375 -1.562664q-0.34375 -0.6875534 -0.390625 -0.7656822q-0.109375 -0.15626907 -0.109375 -0.43751907q0 -0.65625 0.65625 -1.0155258q0.3125 -0.07807922 0.4375 -0.07806015q0.3125 4.9591064E-5 0.59375 0.18759155q0.296875 0.17191696 0.421875 0.48443604l0.265625 0.50004196q0.28125 0.54691696 0.859375 1.2345047q0.59375 0.68758774 1.484375 1.3752213q0.90625 0.6720123 2.15625 1.0315742q1.640625 0.42211914 2.703125 0.65665436q1.078125 0.23453903 2.09375 0.23469162q1.328125 1.9836426E-4 3.25 -0.49951172q1.671875 -0.51537323 2.609375 -1.1714859q0.9375 -0.67173386 1.359375 -1.484169q0.4375 -0.82806015 0.53125 -1.7655449q0.109375 -0.93748474 0.140625 -1.9531059l0.046875 -0.7031174q0 -0.8125 -0.421875 -2.015686q-0.40625 -1.218811 -1.1875 -2.3908043q-0.78125 -1.1719933 -1.96875 -2.1409225q-1.1875 -0.9845505 -2.75 -1.375412q-1.0625 -0.31266022 -2.25 -0.4222145q-1.1875 -0.12517548 -2.359375 -0.25035095q-1.375 -0.10958481 -2.6875 -0.26602936q-1.296875 -0.15644455 -2.359375 -0.56285477q-1.046875 -0.4220314 -1.734375 -1.1408844q-0.6875 -0.718853 -0.796875 -1.9688721q0 -0.15625 -0.03125 -0.2656288q-0.015625 -0.12500381 -0.015625 -0.2500038q0 -1.515625 0.609375 -2.5936584q0.609375 -1.0780334 1.484375 -1.8122749q0.875 -0.7498703 1.828125 -1.2184753q0.96875 -0.46860504 1.671875 -0.78099823q0.890625 -0.4217415 2.15625 -0.59342957q1.28125 -0.18730545 2.765625 -0.1870842q1.328125 2.0217896E-4 2.671875 0.15665436q1.34375 0.15644836 2.640625 0.46914673q0.859375 0.20325089 0.8125 1.2969971q-0.078125 0.39060974 -0.4375 0.62493134q-0.34375 0.23432541 -0.890625 0.18736649q-1.125 -0.31266785 -2.40625 -0.42223358q-1.265625 -0.12519073 -2.4375 -0.12536621q-1.25 -1.9073486E-4 -2.28125 0.14028168q-1.03125 0.1404686 -1.734375 0.4528618q-0.828125 0.34362793 -1.609375 0.7653847q-0.78125 0.40613174 -1.375 0.952919q-0.578125 0.54678726 -0.90625 1.2967377q-0.328125 0.7343254 -0.328125 1.7499504q0.078125 1.0156364 1.53125 1.3752327q1.46875 0.34396744 4.015625 0.5318527q1.25 0.12518692 2.515625 0.26600266q1.265625 0.12519073 2.484375 0.43787384zm24.21875 8.909885q0.421875 0.54693985 1.296875 1.4845695q0.890625 0.9376335 1.9375 2.0315437q1.0625 1.0939064 2.171875 2.2346992q1.109375 1.1251678 2.03125 2.0471802q0.921875 0.9220123 1.5 1.5314789q0.59375 0.5938339 0.625 0.59384155q0.359375 0.3125534 0.359375 0.7969284q0 0.390625 -0.3125 0.7812042q-0.390625 0.31243896 -0.78125 0.31237793q-0.46875 -6.866455E-5 -0.78125 -0.31261444q-0.078125 -0.07814026 -0.703125 -0.7188568q-0.625 -0.62509155 -1.5625 -1.5314865q-0.9375 -0.9220123 -2.0625 -2.0471802q-1.109375 -1.1407928 -2.1875 -2.250328q-1.0625 -1.1251602 -1.953125 -2.0627937q-0.875 -0.9376335 -1.296875 -1.5158195q-0.859375 -1.0626297 -1.921875 -2.390915q-1.046875 -1.3282814 -2.1875 -2.531578q-0.65625 0.5780258 -1.265625 1.1716843q-0.609375 0.57803345 -1.109375 1.0467072q-0.203125 0.20309448 -0.515625 0.3124237q0.234375 2.0000343 0.5 4.0157013q0.28125 2.000042 0.515625 3.6407013q0.234375 1.6406593 0.390625 2.703186q0.15625 1.0468979 0.15625 1.1718979q0 0.4375 -0.28125 0.7187042q-0.265625 0.29683685 -0.8125 0.37487793q-0.390625 -5.340576E-5 -0.6875 -0.25009918q-0.28125 -0.25004578 -0.359375 -0.6875534q0 -0.109375 -0.1875 -1.1250305q-0.171875 -1.0312767 -0.390625 -2.546936q-0.203125 -1.5312805 -0.46875 -3.4219437q-0.25 -1.8906631 -0.484375 -3.8281975q-0.234375 -1.9375343 -0.375 -3.6875572q-0.125 -1.7656441 -0.125 -3.046894q0 -1.875 -0.125 -3.984394q-0.109375 -2.1093903 -0.25 -3.9219131q-0.140625 -1.8281441 -0.265625 -3.0312881q-0.109375 -1.2187653 -0.109375 -1.2968903q0 -0.421875 0.296875 -0.71870804q0.296875 -0.29682922 0.796875 -0.37487793q0.4375 6.484985E-5 0.75 0.29698563q0.3125 0.29692078 0.34375 0.7188034q0 0.125 0.109375 1.3437653q0.125 1.2031441 0.265625 3.0156631q0.140625 1.8125229 0.25 3.9219131q0.125 2.109394 0.125 4.031269q0 0.703125 0.046875 1.5468826q0.0625 0.82813644 0.140625 1.8437729q0.46875 -0.42180634 1.09375 -0.99983597q0.625 -0.59365845 1.265625 -1.1560593q0.65625 -0.57802963 1.28125 -1.0623093q0.625 -0.48427963 1.046875 -0.7185936q0.4375 -0.23431015 1.0 -0.8123474q0.5625 -0.5936661 1.109375 -1.218586q0.703125 -0.7811432 1.390625 -1.4372902q0.6875 -0.671772 1.34375 -1.0310478q0.234375 -0.10934067 0.515625 -0.109298706q0.625 9.536743E-5 0.96875 0.54701996q0.125 0.23439407 0.125 0.5468941q0 0.265625 -0.140625 0.5312309q-0.140625 0.24997711 -0.453125 0.40618134q-0.421875 0.23431015 -1.0 0.8279762q-0.5625 0.57803726 -1.109375 1.2029572q-0.703125 0.7811432 -1.375 1.452919q-0.65625 0.6561508 -1.3125 0.99980164q-0.28125 0.15620804 -0.9375 0.67173386q1.125 1.2501678 2.203125 2.5784569q1.078125 1.3282852 1.9375 2.37529zm10.8515625 -12.842121q-0.65625 -9.536743E-5 -1.109375 -0.45328903q-0.453125 -0.45319366 -0.453125 -1.1094437q0 -0.671875 0.453125 -1.0936813q0.453125 -0.43743134 1.109375 -0.43733597q0.625 9.536743E-5 1.078125 0.43766403q0.453125 0.42194366 0.453125 1.0938187q0 0.65625 -0.453125 1.1093063q-0.453125 0.45305634 -1.078125 0.45296097zm0.515625 1.6407051q0.421875 6.1035156E-5 0.71875 0.2501068q0.296875 0.25004578 0.375 0.6406822q0 0.125 0.171875 1.2187767q0.171875 1.0937729 0.40625 2.656311q0.234375 1.5625343 0.453125 3.3438148q0.21875 1.7656593 0.296875 3.1719208q0.078125 1.3750114 0.265625 3.218792q0.203125 1.8281555 0.4375 3.4844398q0.234375 1.6562843 0.40625 2.859436q0.171875 1.1875229 0.171875 1.2656479q0 0.4375 -0.28125 0.71871185q-0.265625 0.29683685 -0.8125 0.37487793q-0.421875 -6.866455E-5 -0.71875 -0.2501068q-0.296875 -0.25004578 -0.375 -0.68756104q0 -0.109375 -0.171875 -1.2812729q-0.171875 -1.1875267 -0.40625 -2.843811q-0.234375 -1.6562881 -0.4375 -3.4844437q-0.1875 -1.8437767 -0.265625 -3.2500381q-0.078125 -1.3750114 -0.296875 -3.1250458q-0.21875 -1.7656555 -0.4375 -3.3281898q-0.203125 -1.5625305 -0.390625 -2.6719322q-0.171875 -1.1094017 -0.171875 -1.1875267q0 -0.390625 0.234375 -0.70309067q0.234375 -0.31246567 0.671875 -0.390522l0.15625 2.2888184E-5zm11.3984375 4.220463q0 1.25 0.15625 3.015648q0.15625 1.7500229 0.375 3.6719284q0.21875 1.9062843 0.46875 3.7969475q0.25 1.8906631 0.484375 3.4375725q0.234375 1.5469093 0.390625 2.531311q0.15625 0.9687729 0.15625 1.0468979q0 0.90625 -1.09375 1.0935822q-0.421875 -6.1035156E-5 -0.71875 -0.2501068q-0.296875 -0.25004578 -0.375 -0.6875534q-0.03125 -0.10938263 -0.1875 -1.1250305q-0.15625 -1.0312729 -0.375 -2.5469322q-0.21875 -1.5312805 -0.46875 -3.4219437q-0.25 -1.8906631 -0.484375 -3.8281975q-0.234375 -1.9375381 -0.375 -3.6875572q-0.140625 -1.7656479 -0.140625 -3.046898q0 -1.875 -0.125 -3.984394q-0.109375 -2.1093903 -0.234375 -3.9219093q-0.109375 -1.8281403 -0.234375 -3.0312843q-0.109375 -1.2187653 -0.109375 -1.2968903q0 -0.421875 0.265625 -0.71871185q0.28125 -0.29683304 0.828125 -0.37487411q0.4375 6.484985E-5 0.71875 0.2969818q0.296875 0.29692078 0.375 0.7188072q0 0.125 0.109375 1.3437653q0.125 1.2031441 0.234375 3.0156593q0.125 1.8125191 0.234375 3.9219131q0.125 2.109394 0.125 4.031269zm9.7265625 0.0014572144q0 1.25 0.15625 3.0156517q0.15625 1.7500229 0.375 3.6719284q0.21875 1.9062843 0.46875 3.7969475q0.25 1.8906631 0.484375 3.4375725q0.234375 1.5469093 0.390625 2.5313072q0.15625 0.9687729 0.15625 1.0468979q0 0.90625 -1.09375 1.0935898q-0.421875 -6.866455E-5 -0.71875 -0.2501068q-0.296875 -0.25004578 -0.375 -0.68756104q-0.03125 -0.109375 -0.1875 -1.1250305q-0.15625 -1.0312691 -0.375 -2.5469284q-0.21875 -1.5312805 -0.46875 -3.4219437q-0.25 -1.8906631 -0.484375 -3.8281975q-0.234375 -1.9375381 -0.375 -3.6875572q-0.140625 -1.7656479 -0.140625 -3.046898q0 -1.875 -0.125 -3.984394q-0.109375 -2.1093903 -0.234375 -3.9219093q-0.109375 -1.8281403 -0.234375 -3.0312843q-0.109375 -1.2187653 -0.109375 -1.2968903q0 -0.421875 0.265625 -0.71871185q0.28125 -0.29683304 0.828125 -0.37487411q0.4375 6.484985E-5 0.71875 0.2969818q0.296875 0.29692078 0.375 0.7188072q0 0.125 0.109375 1.3437653q0.125 1.2031441 0.234375 3.0156593q0.125 1.8125191 0.234375 3.9219131q0.125 2.1093903 0.125 4.0312653zm31.726562 -1.9171066q1.875 0.5159035 3.359375 1.6723785q1.484375 1.1408463 2.5 2.6097488q1.015625 1.4689026 1.5625 3.0471115q0.546875 1.5782051 0.546875 2.953205l-0.046875 0.5781212q-0.03125 1.0624924 -0.15625 2.2499733q-0.109375 1.1874847 -0.703125 2.343647q-0.578125 1.1561623 -1.859375 2.1559715q-1.265625 0.98418045 -3.53125 1.6088448q-1.125 0.35920715 -2.046875 0.4996872q-0.921875 0.14048767 -1.78125 0.14035797q-1.25 -1.8310547E-4 -2.484375 -0.28162384q-1.21875 -0.2814331 -2.984375 -0.7504425q-1.59375 -0.39086914 -2.734375 -1.266037q-1.125 -0.87516785 -1.875 -1.7502823q-0.734375 -0.8907356 -1.09375 -1.562664q-0.34375 -0.6875534 -0.390625 -0.7656822q-0.109375 -0.15626907 -0.109375 -0.43751907q0 -0.65625 0.65625 -1.0155258q0.3125 -0.07807922 0.4375 -0.07806015q0.3125 4.9591064E-5 0.59375 0.18759155q0.296875 0.17191696 0.421875 0.48443604l0.265625 0.50004196q0.28125 0.54691696 0.859375 1.2345047q0.59375 0.68758774 1.484375 1.3752213q0.90625 0.6720123 2.15625 1.0315742q1.640625 0.42212296 2.703125 0.65665436q1.078125 0.23453903 2.09375 0.23469162q1.328125 1.9836426E-4 3.25 -0.49951172q1.671875 -0.51537323 2.609375 -1.1714859q0.9375 -0.67173386 1.359375 -1.484169q0.4375 -0.82806015 0.53125 -1.7655449q0.109375 -0.93748474 0.140625 -1.9531059l0.046875 -0.7031174q0 -0.8125 -0.421875 -2.015686q-0.40625 -1.218811 -1.1875 -2.3908043q-0.78125 -1.1719933 -1.96875 -2.1409225q-1.1875 -0.9845505 -2.75 -1.375412q-1.0625 -0.31266022 -2.25 -0.4222107q-1.1875 -0.12517929 -2.359375 -0.25035477q-1.375 -0.10958481 -2.6875 -0.26602936q-1.296875 -0.15644455 -2.359375 -0.56285477q-1.046875 -0.4220314 -1.734375 -1.1408844q-0.6875 -0.718853 -0.796875 -1.9688721q0 -0.15625 -0.03125 -0.2656288q-0.015625 -0.12500381 -0.015625 -0.2500038q0 -1.515625 0.609375 -2.5936584q0.609375 -1.0780334 1.484375 -1.8122749q0.875 -0.7498703 1.828125 -1.2184753q0.96875 -0.46860504 1.671875 -0.78099823q0.890625 -0.4217415 2.15625 -0.59342575q1.28125 -0.18730927 2.765625 -0.18708801q1.328125 2.0217896E-4 2.671875 0.15665436q1.34375 0.15645218 2.640625 0.46914673q0.859375 0.20325089 0.8125 1.2969971q-0.078125 0.39060974 -0.4375 0.62493134q-0.34375 0.23432541 -0.890625 0.18736649q-1.125 -0.31266785 -2.40625 -0.42223358q-1.265625 -0.12519073 -2.4375 -0.12536621q-1.25 -1.9073486E-4 -2.28125 0.14028168q-1.03125 0.1404686 -1.734375 0.4528618q-0.828125 0.34362793 -1.609375 0.7653847q-0.78125 0.40613174 -1.375 0.952919q-0.578125 0.54678726 -0.90625 1.2967377q-0.328125 0.7343254 -0.328125 1.7499504q0.078125 1.0156364 1.53125 1.3752327q1.46875 0.34396744 4.015625 0.5318527q1.25 0.12518692 2.515625 0.26600266q1.265625 0.12519073 2.484375 0.43787384zm20.8125 -0.26250076q-0.34375 -4.9591064E-5 -1.390625 0.3747902q-1.03125 0.3592224 -2.140625 1.3278046q-1.109375 0.95295715 -2.078125 2.6559372q-0.953125 1.6873589 -1.1875 4.3435707q0.671875 -0.156147 1.5 -0.34352112q0.84375 -0.20299911 1.6875 -0.37474823q0.84375 -0.17174911 1.59375 -0.28100967q0.765625 -0.12488556 1.234375 -0.124816895q0.546875 8.392334E-5 1.390625 -0.24979019q0.84375 -0.26549911 1.65625 -0.53100204q0.671875 -0.234272 1.25 -0.40605927q0.59375 -0.18741226 1.140625 -0.34358215q-0.15625 -1.5625229 -0.671875 -2.6875992q-0.5 -1.1407013 -1.171875 -1.8751755q-0.65625 -0.7500992 -1.40625 -1.1095886q-0.734375 -0.3751068 -1.40625 -0.3752098zm7.390625 17.891735q0.421875 6.484985E-5 0.71875 0.2813568q0.296875 0.26567078 0.375 0.81256104q0 0.421875 -0.265625 0.7187042q-0.25 0.29683685 -0.671875 0.37490082q-0.078125 -7.6293945E-6 -0.703125 0.09364319q-0.625 0.10928345 -1.484375 0.21852875q-0.859375 0.1248703 -1.796875 0.20285797q-0.9375 0.07798004 -1.609375 0.07788086q-5.1875 -7.7819824E-4 -7.96875 -2.7511978q-2.765625 -2.7660408 -3.046875 -7.766083q-0.078125 -2.5468864 0.453125 -4.4530563q0.53125 -1.9217949 1.40625 -3.2810402q0.875 -1.3748665 1.96875 -2.2653275q1.09375 -0.90608597 2.125 -1.4059296q1.046875 -0.5154686 1.875 -0.7184715q0.84375 -0.2186203 1.234375 -0.21856308q1.015625 1.5258789E-4 2.171875 0.51595306q1.15625 0.50017166 2.140625 1.5315704q1.0 1.0313988 1.703125 2.6408806q0.703125 1.5938568 0.859375 3.7813797q0.234375 0.31253433 0.234375 0.70315933q0 0.390625 -0.234375 0.67184067q-0.1875 0.7812195 -1.046875 0.7810936q-0.390625 -6.1035156E-5 -0.671875 -0.234478q-1.046875 0.2342186 -2.1875 0.65592194q-1.015625 0.3592224 -2.0 0.64032364q-0.96875 0.26548004 -1.75 0.2653618q-0.421875 -6.1035156E-5 -1.15625 0.12482834q-0.71875 0.10926819 -1.578125 0.3122635q-0.859375 0.1873703 -1.734375 0.4059868q-0.875 0.2029953 -1.578125 0.4060135q0.15625 2.421898 1.109375 3.8907928q0.953125 1.4532661 2.265625 2.2659645q1.3125 0.79706955 2.765625 1.0472908q1.46875 0.25022125 2.640625 0.25039673q0.625 9.1552734E-5 1.515625 -0.07789612q0.90625 -0.07798767 1.71875 -0.1872406q0.828125 -0.12487793 1.453125 -0.20291138l0.59375 -0.07803345l0.15625 -0.031227112zm16.757812 -18.591232q0.34375 0.07817459 0.578125 0.43758774q0.234375 0.34378433 0.203125 0.8906555q-0.203125 0.8124695 -1.328125 0.8122978q0 -0.03125 -1.453125 -0.26584244q-1.4375 -0.23458862 -3.859375 -0.28182983q0.109375 2.2343903 0.109375 3.6718903q0 0.75 0.09375 2.1250153q0.109375 1.3593941 0.234375 2.9844093q0.140625 1.6093979 0.296875 3.3125458q0.15625 1.7031479 0.3125 3.0937958q0.15625 1.3750267 0.25 2.2969131q0.109375 0.92189026 0.109375 0.95314026q0 0.4375 -0.296875 0.7343292q-0.296875 0.29683685 -0.796875 0.37488556q-0.4375 -6.866455E-5 -0.75 -0.28136444q-0.3125 -0.26567078 -0.34375 -0.7031784q0 -0.125 -0.125 -1.0625153q-0.109375 -0.9375191 -0.25 -2.3125381q-0.140625 -1.3906479 -0.296875 -3.0625458q-0.15625 -1.6875229 -0.296875 -3.3125458q-0.125 -1.6250191 -0.234375 -2.9844093q-0.09375 -1.3750153 -0.09375 -2.1562653q0 -1.484375 -0.109375 -3.5937653q-1.015625 0.07797241 -2.0 0.20282364q-0.96875 0.10923004 -1.734375 0.2184906q-0.765625 0.09363556 -1.25 0.17168808q-0.484375 0.07805252 -0.5625 0.07804108q-0.390625 -6.1035156E-5 -0.703125 -0.2657318q-0.3125 -0.28129578 -0.390625 -0.8281822q0 -0.390625 0.25 -0.68746567q0.25 -0.29683685 0.6875 -0.3748932q0.03125 3.8146973E-6 0.515625 -0.093673706q0.5 -0.09367752 1.25 -0.18731308q0.765625 -0.10926056 1.734375 -0.2028656q0.984375 -0.09360123 2.046875 -0.17156601q-0.078125 -1.0937614 -0.1875 -2.1719017q-0.09375 -1.0781403 -0.1875 -2.0625305q-0.09375 -1.0000153 -0.21875 -1.8594093q-0.109375 -0.85939026 -0.234375 -1.4844093q0 -0.390625 0.265625 -0.70308304q0.28125 -0.31245804 0.828125 -0.39050293q0.390625 6.1035156E-5 0.6875 0.234478q0.296875 0.23442078 0.375 0.6563072q0.265625 1.218792 0.5 3.3282013q0.234375 2.1094093 0.4375 4.32819q1.328125 1.9836426E-4 2.390625 0.07848358q1.078125 0.07828903 1.84375 0.20340347q0.765625 0.10948944 1.203125 0.21892929q0.453125 0.093818665 0.5 0.093826294z" fill-rule="nonzero"></path></g></svg>

