<?xml version="1.0" encoding="UTF-8" standalone="no"?>
<svg xmlns="http://www.w3.org/2000/svg" stroke-linecap="square" version="1.1" stroke-miterlimit="10" xmlns:xlink="http://www.w3.org/1999/xlink" viewBox="0.0 0.0 435.0 100.0" fill="none">
 <clipPath id="p.0">
  <path d="m0 0h435v100h-435v-100z"/>
 </clipPath>
 <g clip-path="url(#p.0)">
  <path fill-opacity="0" d="m0 0h435v100h-435z" fill="#000"/>
  <path d="m4.8871 30.704l415.61-25.144-45.756 23.767 47.904 14.678-44.378 8.2629 41.411 18.898-409.12 20.928 43.841-17.877-51.73-2.894 43.845-17.877z" fill="#9fc5e8"/>
  <path stroke-linejoin="round" d="m4.8871 30.704l415.61-25.144-45.756 23.767 47.904 14.678-44.378 8.2629 41.411 18.898-409.12 20.928 43.841-17.877-51.73-2.894 43.845-17.877z" stroke="#666" stroke-linecap="butt" stroke-width="2"/>
  <path fill-opacity="0" d="m22.482 22.218l375.22-20.925 3.7061 66.331-375.22 20.925z" fill="#000"/>
  <path d="m103.26 35.375q0.61027 0.27895 0.64687 0.93418 0.013077 0.23401-0.096039 0.52178-0.44518 0.99508-1.0981 2.7529-0.63735 1.757-1.3102 3.7193-0.67369 1.9468-1.2573 3.8259-0.58445 1.8636-0.90648 3.1022-0.19042 0.79308-0.64414 2.1955-0.43899 1.386-1.0192 3.0458-0.56544 1.6434-1.1742 3.3518-0.60963 1.6928-1.1249 3.1143-0.50052 1.405-0.86944 2.3646-0.35332 0.95866-0.37755 1.0852-0.20089 0.60587-0.82056 0.71867-0.19234 0.19852-0.41939 0.33637-0.22965 0.091057-0.41686 0.10149-0.70203 0.039154-1.0515-0.61427-0.053772-0.1222-0.5117-1.0356-0.45792-0.91342-1.1275-2.2532-0.65481-1.3563-1.4501-2.9864-0.79618-1.6457-1.5403-3.2005-0.72941-1.5712-1.3513-2.898-0.62273-1.3424-0.90033-2.1094-0.36693-0.96544-0.96107-2.3564-0.57854-1.3918-1.2897-2.9171-0.7112-1.5253-1.4371-3.0341-0.72593-1.5088-1.3417-2.7264-0.47629 1.2785-1.0158 2.8266-0.54035 1.5325-1.0504 3.0476-0.49442 1.5143-0.91694 2.915-0.40778 1.3842-0.6675 2.3377-0.19043 0.79308-0.65974 2.1964-0.47019 1.3877-1.0192 3.0458-0.54985 1.6425-1.1586 3.351-0.60963 1.6928-1.1249 3.1143-0.50052 1.4051-0.86945 2.3646-0.35332 0.95866-0.37754 1.0852-0.20089 0.60588-0.86736 0.72129-0.098747 0.1933-0.37259 0.33376-0.10746 0.037292-0.2158 0.058983-0.091858 0.036423-0.20107 0.042511-0.70203 0.039154-1.0515-0.61427-0.05378-0.1222-0.5117-1.0356-0.45792-0.91342-1.1275-2.2532-0.65481-1.3563-1.4501-2.9864-0.79617-1.6457-1.5403-3.2005-0.72941-1.5712-1.3513-2.898-0.62273-1.3424-0.90033-2.1094-0.45801-1.1951-1.2464-2.9821-0.77369-1.8035-1.6445-3.6641-0.87165-1.8763-1.7328-3.5653-0.86119-1.689-1.4153-2.644-0.13788-0.22705-0.1527-0.49226-0.034866-0.62403 0.54053-0.9691 0.17849-0.16645 0.49051-0.18385 0.67083-0.037411 1.0151 0.52242 0.60704 1.0616 1.4891 2.8434 0.88115 1.7662 1.7866 3.6875 0.92107 1.9204 1.6956 3.7395 0.79016 1.8182 1.21 2.8902 0.3149 0.87445 1.0634 2.5072 0.76323 1.6163 1.6487 3.4604 0.88551 1.8442 1.7693 3.6572 0.88377 1.813 1.4995 3.0306 0.44945-1.1988 1.1396-3.1308 0.68929-1.9477 1.3907-3.9586 0.71701-2.0118 1.3058-3.7974 0.58794-1.8012 0.8494-2.7234 0.28046-1.1424 0.86491-3.0059 0.58357-1.8792 1.2529-3.9039 0.66846-2.0404 1.363-3.8944 0.69366-1.8696 1.1813-2.9453 0.13857-0.32071 0.38034-0.47504 0.25736-0.1552 0.56938-0.1726 0.26521-0.01479 0.5062 0.096966 0.61027 0.27895 0.65123 1.0122 0.64086 1.1067 1.5064 2.8737 0.86555 1.767 1.7216 3.6442 0.87078 1.8606 1.6254 3.6026 0.7702 1.7411 1.19 2.8131 0.3149 0.87445 1.0634 2.5072 0.76323 1.6163 1.6487 3.4604 0.88551 1.8442 1.7693 3.6572 0.88377 1.813 1.4995 3.0306 0.44945-1.1988 1.1396-3.1308 0.68929-1.9477 1.3907-3.9586 0.71701-2.0118 1.3058-3.7974 0.58794-1.8012 0.8494-2.7234 0.28046-1.1424 0.86491-3.0059 0.58357-1.8792 1.2529-3.9039 0.66846-2.0404 1.363-3.8944 0.69366-1.8696 1.1813-2.9453 0.13857-0.32071 0.38034-0.47504 0.25737-0.1552 0.56938-0.1726 0.26521-0.01479 0.5062 0.096966zm11.888 27.772q0.73323-0.04089 1.8476-0.8229t2.1332-2.1534 1.6969-3.2401q0.67718-1.8844 0.55079-4.1465-0.12204-2.1841-0.74486-3.8082-0.62283-1.6241-1.3738-2.7403-0.73534-1.117-1.454-1.656-0.71956-0.55455-1.0359-0.61515-0.65523 0.036541-1.1796 0.17533-0.5252 0.12318-0.71066 0.16483-0.46803 0.0261-0.87984-0.34217-0.96105 0.44483-1.9452 1.8769-0.96941 1.4155-1.7723 3.2913-0.78812 1.8593-1.2668 3.936-0.46304 2.0759-0.36716 3.792 0.10024 1.7941 0.79575 3.0385 0.69463 1.2289 1.6743 1.9567 0.97963 0.72783 2.0458 1.044 1.0809 0.29965 1.9857 0.24919zm1.5447-21.369q0.81124-0.045238 1.933 0.70596 1.1209 0.7356 2.1545 2.149 1.0327 1.3978 1.8351 3.4344 0.80149 2.021 0.94532 4.5951 0.14644 2.6209-0.63376 4.9023-0.76546 2.2649-2.0312 3.9786-1.2501 1.7129-2.7744 2.7212-1.5242 1.0083-2.8503 1.0823-1.5289 0.085258-3.0441-0.42491-1.5152-0.51018-2.7471-1.5526t-2.0723-2.6387q-0.82476-1.5972-0.94505-3.7501-0.075836-1.3573 0.17586-3.0145 0.2673-1.6581 0.78333-3.3457 0.51516-1.7032 1.2566-3.2782 0.75615-1.5914 1.6563-2.8466 0.91486-1.2717 1.9668-2.0502 1.0511-0.79413 2.1899-0.85764 0.42122-0.023487 0.75494 0.067444 0.34844 0.074467 0.62238 0.21568 0.20281-0.011311 0.38914-0.037354 0.20107-0.042511 0.43508-0.055561zm21.078-0.86251q0.85803-0.047848 1.4431 0.060368 0.60068 0.10735 0.96907 0.25894 0.38402 0.15073 0.61375 0.34135 0.22887 0.17503 0.31384 0.29548 0.20203 0.25477 0.21947 0.56679 0.034866 0.62402-0.41747 0.93094-0.22356 0.20026-0.61357 0.22201-0.46802 0.0261-0.83041-0.29797-0.080627-0.042454-0.42995-0.13252-0.33458-0.10653-1.1458-0.061295-0.46802 0.026104-1.6517 0.68679-1.169 0.64421-2.343 2.0399t-2.053 3.5886q-0.8799 2.1774-0.70818 5.2507 0.15356 0.50786 0.2924 1.0322 0.15358 0.50786 0.34009 1.0452 0.51971 1.7394 1.0482 3.6348 0.54317 1.8789 0.65474 3.8758 0.026154 0.46802-0.28403 0.7983-0.3102 0.33028-0.74701 0.35464-0.46802 0.0261-0.79747-0.26852-0.32945-0.29461-0.35561-0.76263-0.1011-1.8097-0.59137-3.582-0.49026-1.7723-1.003-3.3869-0.47021-1.4135-0.84158-2.7386-0.37225-1.3407-0.43501-2.464-0.063629-1.1388-0.31552-2.8462-0.2519-1.7074-0.56009-3.3021-0.29346-1.6112-0.51572-2.7881-0.22313-1.1926-0.22749-1.2706-0.02179-0.39002 0.22599-0.71682 0.26337-0.32767 0.80505-0.43613 0.39002-0.021748 0.68565 0.2278 0.31036 0.23308 0.41191 0.64995 0.0043488 0.078003 0.1302 0.65001 0.14059 0.55553 0.29774 1.4075 0.17274 0.85108 0.35857 1.9362 0.20142 1.0842 0.38724 2.1693 0.69026-1.6504 1.6831-2.9264 1.0076-1.2925 2.0855-2.1664 1.0927-0.89035 2.1152-1.3543 1.0373-0.48038 1.7862-0.52214zm18.56 10.78q0.45172 0.52253 1.3777 1.4099 0.94154 0.88645 2.0478 1.9202 1.1219 1.0329 2.2932 2.11 1.1704 1.0615 2.1423 1.9306 0.97188 0.86911 1.5831 1.4453 0.62595 0.55976 0.65715 0.55803 0.37625 0.292 0.40327 0.77562 0.02179 0.39001-0.26843 0.79743-0.37259 0.33377-0.7626 0.35551-0.46802 0.0261-0.79747-0.26851-0.082367-0.07365-0.74213-0.67848-0.6589-0.58923-1.6455-1.4419-0.98747-0.86824-2.1735-1.9288-1.1713-1.0771-2.3096-2.1247-1.1236-1.0641-2.0652-1.9505-0.92595-0.88732-1.3794-1.4411-0.91733-1.013-2.0523-2.2799-1.1194-1.2678-2.3253-2.4055-0.62299 0.61377-1.1983 1.2405-0.57619 0.61116-1.0493 1.107-0.19148 0.21412-0.49739 0.34072 0.34558 1.9838 0.72324 3.9815 0.3924 1.9812 0.71793 3.6062 0.32555 1.625 0.54082 2.6772 0.21442 1.0365 0.22139 1.1614 0.024399 0.43682-0.24072 0.73329-0.24864 0.3112-0.79031 0.41966-0.39001 0.021748-0.70038-0.21133-0.29477-0.23395-0.39717-0.66642-0.0061035-0.1092-0.24997-1.1128-0.22914-1.0201-0.5321-2.5212-0.28824-1.5176-0.65892-3.3904-0.35509-1.8738-0.69717-3.7952-0.3421-1.9214-0.58014-3.6609-0.2233-1.7559-0.29478-3.0352-0.1046-1.8721-0.34708-3.9712-0.22688-2.1-0.4684-3.9018-0.2424-1.8174-0.43433-3.0117-0.17719-1.2108-0.18155-1.2888-0.023529-0.42122 0.25632-0.73416 0.27986-0.31294 0.77472-0.41879 0.43683-0.024361 0.7654 0.25465 0.32858 0.27901 0.38332 0.69849 0.0069733 0.12481 0.18417 1.3356 0.19193 1.1943 0.43344 2.9961 0.24152 1.8018 0.4684 3.9018 0.24248 2.0991 0.3497 4.018 0.03923 0.70203 0.1331 1.5419 0.1086 0.82336 0.24326 1.833 0.44449-0.44732 1.0363-1.0593 0.59091-0.62762 1.1992-1.2249 0.62297-0.61377 1.22-1.1322 0.59702-0.51842 1.0052-0.77592 0.42374-0.25837 0.95312-0.86692 0.5285-0.62415 1.0397-1.2786 0.65845-0.81918 1.3083-1.5127 0.64896-0.70911 1.2841-1.1045 0.22791-0.12225 0.50873-0.13791 0.62402-0.034801 0.99776 0.49208 0.13788 0.22705 0.1553 0.53907 0.014832 0.26521-0.11076 0.53825-0.12646 0.25744-0.42976 0.43085-0.40814 0.2575-0.95224 0.88252-0.52937 0.60854-1.0405 1.263-0.65845 0.81918-1.2918 1.5274-0.61862 0.69177-1.2547 1.0715-0.27209 0.17167-0.89856 0.72303 1.193 1.1854 2.3435 2.4514t2.067 2.2634zm43.338 6.112q0.86938 0.15496 0.9304 1.247-0.054474 0.42557-0.38374 0.69432-0.31454 0.25228-0.86319 0.23593-0.031204 0.0017395-1.8236-0.14869-1.7933-0.16603-4.8355 0.003624-1.5133 0.084393-3.1132 0.29881-1.5852 0.19794-2.9355 0.39844-1.3347 0.19963-2.2022 0.35755-0.86667 0.17353-0.94467 0.17788l-0.74884 0.041759q-0.42122 0.023491-0.74893-0.23992-0.3277-0.26341-0.39804-0.68202-0.038177-0.12307-0.19968-1.053-0.1459-0.93082-0.36302-2.2958-0.20238-1.3815-0.45166-3.0421-0.25015-1.6762-0.4812-3.2908-0.23106-1.6146-0.40051-2.9667-0.1703-1.3676-0.21388-2.1477-0.065384-1.1701-0.27657-2.9892-0.19647-1.8357-0.45969-3.7458-0.2641-1.9258-0.56453-3.6617-0.28572-1.7524-0.5322-2.8028-0.02179-0.39002 0.22598-0.71682 0.26338-0.32767 0.80505-0.43613 0.85805-0.047852 1.0914 0.76854 0.25902-0.40568 0.72269-0.50978 0.078003-0.0043507 0.94554-0.16228 0.86667-0.17352 2.2005-0.38875 1.3494-0.2161 2.9814-0.41665 1.6311-0.21616 3.2224-0.3049 3.1982-0.17835 5.1015-0.0028133 1.9181 0.15907 1.9987 0.20152 0.8685 0.13936 0.92952 1.2314-0.15488 0.86935-1.2781 0.93199-0.78615-0.065704-1.8089-0.16516-0.8624-0.030151-2.1001-0.055023-1.2386-0.040474-2.7206 0.042175-1.5133 0.084393-3.1132 0.29881-1.5852 0.19795-2.9346 0.41404-1.3338 0.21523-2.2005 0.38876-0.86754 0.15792-0.94554 0.16227-0.35883 0.020012-0.68216-0.1654 0.27515 1.2835 0.5253 2.9597 0.24928 1.6606 0.45262 3.3394 0.21808 1.6623 0.37976 3.1556t0.2166 2.4762q0.34061-0.065941 1.1154-0.20304 0.77481-0.13711 1.846-0.29074 1.0703-0.16924 2.3452-0.31858 1.2905-0.15022 2.6434-0.30391 0.43683-0.024361 0.78188 0.26938t0.3712 0.76176q0.024399 0.43682-0.2693 0.78183-0.29372 0.34501-0.71494 0.3685-1.3997 0.1563-2.7821 0.34294-1.3832 0.17104-2.4701 0.32554-1.0868 0.15451-1.8296 0.30547-0.72801 0.13449-0.8372 0.14059 0.15208 1.3217 0.39876 2.9355 0.24579 1.5982 0.49245 3.2119 0.24666 1.6138 0.44992 3.0109 0.21886 1.3962 0.3916 2.2473 0.46541-0.072903 1.4109-0.23518 0.94467-0.17788 2.1866-0.35668 1.2411-0.1944 2.6252-0.34984 1.3841-0.15543 2.7414-0.23112 3.1982-0.17835 5.1015-0.0028114 1.9181 0.15907 1.9961 0.15472zm16.238-3.3312q0.50725 0.67593 1.0448 1.3345 0.55319 0.65772 1.0049 1.1803 0.46733 0.52166 0.79852 0.84748l0.30086 0.34315q0.28003 0.25042 0.30444 0.68724 0.030502 0.54602-0.34383 0.84859-0.2504 0.28-0.68721 0.30436-0.54604 0.030453-0.83304-0.34478-0.048538-0.028591-0.36501-0.37088-0.29999-0.32755-0.80113-0.89428-0.50114-0.56672-1.0708-1.2392-0.56966-0.67245-1.1098-1.3778-0.33641-0.41942-0.84105-1.0485-0.50551-0.64473-1.0925-1.3475-0.58786-0.71838-1.2399-1.4645-0.65201-0.7461-1.2373-1.4177-0.9892 1.9018-1.6977 3.5062-0.70847 1.6044-1.1744 2.7885-0.46678 1.1684-0.69713 1.8072l-0.24333 0.68649q-0.226 0.71682-0.97484 0.75858-0.2652 0.01479-0.39436-0.056252-0.71686-0.22606-0.7587-0.97489-0.0087128-0.15601 0.056213-0.39437 0.039825-0.12742 0.31-0.89365 0.2693-0.78183 0.79153-2.0785 0.53696-1.3132 1.3303-3.0788 0.80896-1.7665 1.9151-3.8157l-0.30086-0.34315q-0.28265-0.29722-0.75356-1.163-0.45618-0.88222-1.4188-2.7064-0.38419-0.71409-0.78659-1.4741-0.38681-0.76089-0.78572-1.4585-0.38419-0.71409-0.71198-1.2592-0.32779-0.54509-0.53244-0.84667-0.22025-0.3007-0.23767-0.61272-0.033127-0.59283 0.41747-0.93094 0.30156-0.20461 0.61357-0.22201 0.59282-0.033062 0.93098 0.41756 0.54019 0.70539 1.345 2.2254 0.8204 1.5192 1.6946 3.1605 0.4397 0.86749 0.89587 1.7497 0.45531 0.86662 0.76489 1.3658 1.1365-2.0665 2.5321-4.257 1.4112-2.1914 3.1613-4.4798 0.24342-0.40481 0.78944-0.43526 0.39001-0.021751 0.7151 0.19486 0.41008 0.33707 0.43797 0.83629 0.024399 0.43682-0.226 0.71682-1.7899 2.4159-3.2721 4.7364-1.4675 2.304-2.6291 4.4815 0.58525 0.67158 1.3049 1.5078 0.73524 0.83536 1.4402 1.6881 0.71965 0.83623 1.3249 1.5849 0.62082 0.74784 0.99193 1.2279zm21.05-5.7122q0.15932-0.50966 0.19383-1.0124 0.03363-0.5183 0.0048676-1.0331-0.069733-1.2481-0.55634-2.3946-0.47099-1.1474-1.1967-2.0929-0.71103-0.9619-1.5823-1.7114-0.85657-0.766-1.6957-1.22-1.0134-0.49121-2.3706-0.41552-1.2169 0.06786-2.5168 0.60983t-2.2885 1.6143q-0.37259 0.33376-0.7314 0.35378-0.23402 0.01305-0.47501-0.098705 0.2708 1.2055 0.59285 2.7682 0.32205 1.5626 0.65456 3.3124 0.33165 1.7342 0.66852 3.5621 0.336 1.8122 0.58614 3.4884 0.55911 0.20356 0.70493 0.8527 0.0026093 0.046799 0.10928 0.27559 0.12228 0.22792 0.52538 0.44018 0.64322 0.30841 1.3764 0.26752 0.46802-0.0261 0.91434-0.16053 0.44545-0.15004 0.82938-0.28099 1.0235-0.44831 2.013-1.2234 1.0043-0.79152 1.843-1.746 0.85342-0.9709 1.4667-2.038 0.62804-1.0835 0.93019-2.1176zm-3.812-11.368q1.1781 0.63852 2.2644 1.5951 1.0863 0.95662 1.9361 2.1612 0.84978 1.2046 1.3806 2.5834 0.53088 1.3788 0.61369 2.8609 0.081055 1.4509-0.28603 2.7233-0.35149 1.2715-1.093 2.5648-0.72591 1.2924-1.7257 2.4436-0.98424 1.1503-2.2 2.0788-1.2157 0.92851-2.4844 1.4687-1.2505 0.58617-2.4673 0.65403-1.2481 0.069603-2.4071-0.50739l0.053177 0.95164q0.11942 2.1373 0.37933 4.5484 0.27551 2.4103 0.54657 4.4609 0.27194 2.0662 0.48993 3.4468t0.22235 1.4586q0.023529 0.42122-0.23985 0.74889-0.24777 0.32681-0.79118 0.40405-0.43683 0.024361-0.74893-0.23992-0.29562-0.24955-0.39804-0.68201-0.0017395-0.031204-0.21973-1.4118t-0.4908-3.4624q-0.27194-2.0662-0.55006-4.5233-0.26166-2.4423-0.3837-4.6264-0.079315-1.4197-0.37985-3.4373-0.28493-2.0185-0.65744-4.2043t-0.80656-4.3525-0.81248-3.8983q-0.36371-1.7481-0.61281-2.8453-0.23438-1.1137-0.23874-1.1917-0.049683-0.88924 1.031-1.1529 0.43683-0.024361 0.73071 0.19399 0.30949 0.21748 0.41191 0.64995l0.16577 0.72627q1.33-1.4044 2.9661-2.0903 1.6509-0.70239 3.2422-0.79113 2.0749-0.11571 3.5599 0.69349zm17.948-0.1715q-0.34322 0.019138-1.3675 0.45185-1.0096 0.41624-2.0632 1.4452-1.0545 1.0134-1.9267 2.7678-0.85751 1.7379-0.94334 4.4031 0.66212-0.19342 1.4785-0.42674 0.83112-0.24979 1.664-0.46838 0.83286-0.21859 1.5756-0.36955 0.75746-0.16744 1.2255-0.19354 0.54602-0.030449 1.3745-0.32704 0.82762-0.31219 1.6241-0.62264 0.65775-0.27142 1.2254-0.47522 0.58237-0.22027 1.1197-0.40672-0.24318-1.5514-0.82077-2.6459-0.56285-1.111-1.2747-1.8068-0.69707-0.71229-1.466-1.0293-0.75415-0.33352-1.425-0.29611zm8.3772 17.451q0.42123-0.023487 0.73334 0.24079 0.31122 0.24868 0.41974 0.79036 0.023529 0.42122-0.2251 0.73242-0.23306 0.31033-0.64993 0.41183-0.078003 0.0043488-0.69681 0.13276-0.61792 0.144-1.4698 0.30106-0.85107 0.17266-1.7828 0.30286-0.93169 0.1302-1.6025 0.16761-5.1795 0.28885-8.1098-2.302-2.9156-2.6073-3.4754-7.5839-0.22008-2.5386 0.20399-4.4714 0.42322-1.9485 1.221-3.3544 0.79694-1.4216 1.8393-2.3717 1.0415-0.96574 2.0432-1.5224 1.0165-0.57311 1.832-0.82203 0.83023-0.26539 1.2203-0.28714 1.014-0.056553 2.1973 0.39389 1.1823 0.43484 2.2227 1.4097 1.056 0.97396 1.8478 2.5417 0.79095 1.5521 1.069 3.7275 0.25146 0.29896 0.27325 0.68898t-0.19653 0.68388q-0.14362 0.79047-1.0017 0.83832-0.39001 0.021751-0.6839-0.1966-1.0322 0.2923-2.1475 0.77703-0.994 0.41537-1.9612 0.75099-0.95242 0.31915-1.7325 0.36265-0.42122 0.023491-1.1475 0.18919-0.71153 0.14923-1.5582 0.39989-0.84758 0.23506-1.709 0.50219-0.8623 0.25153-1.553 0.49349 0.29112 2.4094 1.3247 3.8228 1.0327 1.3978 2.3885 2.1359 1.3549 0.72255 2.8197 0.89125 1.4804 0.16783 2.6505 0.10258 0.62404-0.034798 1.5089-0.16239 0.9005-0.12846 1.7056-0.28291 0.81985-0.17092 1.4395-0.28372l0.58847-0.11106 0.15427-0.039902zm13.949-21.325q0.85803-0.047852 1.4431 0.060364 0.60068 0.10735 0.96909 0.25894 0.384 0.15073 0.61374 0.34136 0.22888 0.17503 0.31384 0.29548 0.20203 0.25477 0.21945 0.56678 0.034882 0.62403-0.41745 0.93094-0.22354 0.20026-0.61359 0.22201-0.46802 0.0261-0.83041-0.29797-0.080597-0.04245-0.42993-0.13251-0.33459-0.10654-1.1458-0.061295-0.46805 0.0261-1.6518 0.68679-1.169 0.64421-2.343 2.0399t-2.053 3.5886q-0.87991 2.1774-0.70819 5.2507 0.15356 0.50786 0.29242 1.0322 0.15356 0.50786 0.34009 1.0452 0.51971 1.7394 1.0482 3.6348 0.54315 1.8789 0.65472 3.8758 0.026154 0.46802-0.28403 0.7983t-0.74701 0.35464q-0.46802 0.0261-0.79749-0.26851-0.32944-0.29461-0.35559-0.76263-0.1011-1.8097-0.59137-3.582-0.49026-1.7723-1.003-3.3869-0.47018-1.4135-0.84158-2.7386-0.37225-1.3407-0.435-2.464-0.063629-1.1388-0.31552-2.8462t-0.56009-3.3021q-0.29346-1.6112-0.51572-2.7881-0.22311-1.1926-0.22748-1.2706-0.02179-0.39001 0.22598-0.71682 0.26337-0.32767 0.80505-0.43613 0.39001-0.021751 0.68564 0.2278 0.31036 0.23308 0.4119 0.64995 0.004364 0.078003 0.13022 0.65001 0.14059 0.55553 0.29773 1.4075 0.17276 0.85107 0.35858 1.9362 0.20142 1.0842 0.38724 2.1693 0.69028-1.6504 1.6831-2.9264 1.0076-1.2925 2.0855-2.1664 1.0927-0.89035 2.1152-1.3543 1.0373-0.48038 1.7862-0.52214zm6.9541-1.4363q-0.65524 0.036539-1.1329-0.39065-0.47769-0.42719-0.51431-1.0824-0.037476-0.67083 0.39142-1.1173 0.42801-0.46205 1.0833-0.49859 0.62402-0.034801 1.1009 0.37679 0.47595 0.39599 0.51343 1.0668 0.036621 0.65523-0.39053 1.1329-0.42715 0.47765-1.0512 0.51245zm0.60635 1.6094q0.42123-0.023491 0.73157 0.20959 0.31036 0.23308 0.41016 0.61875 0.0069885 0.12481 0.23962 1.2073 0.2326 1.0825 0.5538 2.6295 0.32117 1.547 0.63895 3.3133 0.31693 1.7507 0.47336 3.1504 0.15472 1.3685 0.44479 3.1989 0.30478 1.814 0.6312 3.4546t0.56512 2.8323q0.23785 1.1761 0.24222 1.2541 0.024414 0.43682-0.24072 0.73329-0.24863 0.3112-0.79031 0.41965-0.4212 0.023491-0.73157-0.20959-0.31036-0.23308-0.41278-0.66555-0.0061035-0.1092-0.24307-1.2697-0.23785-1.1761-0.56427-2.8167t-0.6312-3.4546q-0.29007-1.8304-0.44653-3.2301-0.15472-1.3685-0.47076-3.1036-0.31689-1.7507-0.62247-3.2986-0.28998-1.5488-0.53909-2.646-0.23349-1.0981-0.23785-1.1761-0.02179-0.39001 0.19479-0.71508 0.21658-0.32506 0.64905-0.42743l0.15601-0.0087013zm16.642 1.1063q-0.34323 0.019138-1.3676 0.45185-1.0096 0.41624-2.0632 1.4452-1.0545 1.0134-1.9267 2.7678-0.85751 1.7379-0.94333 4.4031 0.66211-0.19342 1.4785-0.42673 0.83112-0.24979 1.664-0.46838 0.83286-0.21859 1.5756-0.36955 0.75745-0.16743 1.2255-0.19353 0.54602-0.030453 1.3745-0.32704 0.82761-0.31219 1.624-0.62265 0.65778-0.27142 1.2254-0.47522 0.58237-0.22027 1.1197-0.40673-0.24319-1.5514-0.82077-2.6459-0.56287-1.111-1.2747-1.8068-0.69708-0.71229-1.4659-1.0293-0.75418-0.33353-1.425-0.29612zm8.3772 17.451q0.42123-0.023491 0.73334 0.24079 0.31122 0.24868 0.41974 0.79035 0.023529 0.42122-0.2251 0.73242-0.23306 0.31033-0.64993 0.41183-0.078003 0.0043488-0.69681 0.13276-0.61792 0.144-1.4698 0.30106-0.85107 0.17266-1.7828 0.30286-0.93167 0.1302-1.6025 0.16761-5.1794 0.28885-8.1098-2.302-2.9156-2.6073-3.4754-7.5839-0.22009-2.5386 0.20401-4.4714 0.42319-1.9485 1.221-3.3544 0.79694-1.4216 1.8393-2.3717 1.0415-0.96574 2.0433-1.5224 1.0165-0.57311 1.832-0.82203 0.83026-0.26539 1.2203-0.28714 1.014-0.056553 2.1973 0.39389 1.1823 0.43484 2.2227 1.4097 1.056 0.97396 1.8478 2.5417 0.79095 1.5521 1.069 3.7275 0.25146 0.29897 0.27325 0.68898 0.02179 0.39002-0.19653 0.68388-0.14362 0.79047-1.0017 0.83833-0.39001 0.021748-0.6839-0.1966-1.0322 0.2923-2.1475 0.77703-0.99402 0.41537-1.9612 0.75099-0.95245 0.31915-1.7325 0.36266-0.4212 0.023491-1.1475 0.18919-0.71152 0.14922-1.5582 0.39988-0.8476 0.23506-1.709 0.50219-0.86234 0.25153-1.553 0.49349 0.29111 2.4094 1.3247 3.8228 1.0327 1.3978 2.3885 2.1359 1.3549 0.72255 2.8197 0.89125 1.4804 0.16783 2.6505 0.10258 0.62402-0.034801 1.5089-0.1624 0.90048-0.12846 1.7056-0.28291 0.81985-0.17092 1.4395-0.28372l0.58847-0.11106 0.15427-0.039902zm22.842-4.169q0.030518 0.54602 0.20404 1.131 0.17267 0.56939 0.3895 1.0894 0.23157 0.50351 0.44321 0.92989 0.22635 0.40991 0.3486 0.63782 0.13791 0.22705 0.15533 0.53907 0.035736 0.63963-0.49286 0.98209-0.15164 0.086704-0.27472 0.12487-0.1066 0.052891-0.2626 0.061592-0.62402 0.034798-0.96915-0.54063-0.048553-0.028591-0.30786-0.46796-0.25928-0.43937-0.54813-1.1275-0.28882-0.68811-0.55518-1.534-0.26636-0.84586-0.3143-1.7039-0.011322-0.20281-0.040863-0.45155-0.029572-0.24874-0.093781-0.55814-0.061737-0.54428-0.14426-1.1813-0.06781-0.65349-0.11749-1.5427-0.033142-0.59283-0.14688-1.2281-0.11374-0.63528-0.23532-1.411-0.17972-0.97588-0.33521-2.0783-0.15552-1.1024-0.22525-2.3505-0.043579-0.78003-0.43823-1.6813-0.37903-0.90217-1.0466-1.6474-0.66763-0.74523-1.616-1.1931-0.93359-0.46436-2.1505-0.3965-1.5133 0.084393-2.6823 0.72861-1.1543 0.62775-1.9644 1.5336-0.81012 0.90589-1.3628 1.9383-0.5379 1.0159-0.84705 1.9252-0.2944 0.89278-0.44672 1.5272-0.13675 0.6336-0.13239 0.7116-0.090027 0.3493-0.28152 0.56342l0.039215 0.70203q0.052307 0.93604 0.38553 2.1381 0.34793 1.1856 0.78256 2.5228 0.51974 1.7394 1.0326 3.6356 0.52756 1.8798 0.63913 3.8767 0.026154 0.46802-0.26843 0.79743-0.29456 0.32941-0.7626 0.35551-0.4368 0.024361-0.78186-0.26938t-0.37119-0.76176q-0.10114-1.8097-0.57578-3.5829-0.47467-1.7732-0.98743-3.3878-0.47021-1.4135-0.84158-2.7386-0.37225-1.3407-0.435-2.464-0.063629-1.1388-0.31552-2.8462t-0.56009-3.3021q-0.29346-1.6112-0.54694-2.7864-0.23871-1.1917-0.24307-1.2697-0.02179-0.39002 0.22598-0.71682 0.2634-0.32767 0.80505-0.43613 0.43683-0.024361 0.73245 0.22519 0.31036 0.23308 0.4119 0.64995 0.004364 0.078003 0.1059 0.49487 0.10068 0.40127 0.21704 1.0833 0.11548 0.66648 0.27261 1.5184 0.17276 0.85108 0.34985 1.7802 0.5162-1.1242 1.2534-2.2139 0.75198-1.1061 1.7675-1.9765 1.0303-0.88687 2.3284-1.46 1.2973-0.58877 2.9354-0.68012 1.6069-0.089613 2.9384 0.4934 1.3462 0.56655 2.3415 1.5752 0.99445 0.99305 1.5989 2.2895 0.60452 1.2965 0.67862 2.6225 0.065369 1.17 0.21826 2.2257 0.15201 1.04 0.32651 1.9223 0.12158 0.77568 0.24142 1.5202 0.11896 0.72888 0.15643 1.3997 0.087189 1.5601 0.24869 2.49 0.065979 0.3406 0.098145 0.63615 0.032166 0.29554 0.049591 0.60756zm15.202 1.6561q0.2565-0.1708 0.61533-0.19081 0.57721-0.032192 0.91537 0.41843 0.22025 0.3007 0.2377 0.61272 0.027893 0.49922-0.46515 0.91795l-0.25388 0.2176q-0.30069 0.22021-0.80505 0.43613-0.48788 0.23065-1.1335 0.4388-0.63004 0.20728-1.3633 0.24817-0.93604 0.0522-2.2943-0.45107-1.3575-0.48767-2.7117-1.758-1.3387-1.2712-2.4444-3.4161-1.091-2.1614-1.5055-5.3776-0.044281-0.23227-0.056488-0.45068t-0.025269-0.45242q-0.1412-2.5273 0.6503-4.6059 0.80713-2.0794 2.0071-3.5704 1.2147-1.5075 2.5587-2.3805 1.344-0.87306 2.3069-1.005 0.2002-0.058111 0.40302-0.069422 0.21841-0.01218 0.42123-0.023491 1.1232-0.062641 1.9779 0.10879 0.85464 0.17143 1.1754 0.31004 0.4256 0.054512 0.92325 0.55883 0.4968 0.48872 0.57959 1.9708 0.026154 0.46802-0.28403 0.7983t-0.74701 0.35464q-0.46802 0.0261-0.79745-0.26851-0.32947-0.29461-0.35562-0.76263-0.017426-0.31201-0.11285-0.61968-0.23837-0.064953-0.83994-0.1879-0.58594-0.12382-1.3972-0.078575-0.15601 0.0086994-0.29639 0.016531-0.14041 0.0078297-0.32501 0.065071-0.61966 0.1128-1.6301 0.79512-0.99478 0.68145-1.9287 1.8916-0.91922 1.1937-1.5765 2.8735-0.64172 1.679-0.52579 3.7538 0.010468 0.18721 0.019196 0.34322 0.0086975 0.15601 0.051239 0.35707 0.3042 2.6434 1.1377 4.3966 0.84909 1.7523 1.8626 2.8069 1.0291 1.0537 2.0087 1.4999 0.97867 0.43055 1.6495 0.39314 0.46805-0.0261 0.88315-0.1588 0.42984-0.14916 0.76523-0.30871 0.35098-0.16042 0.52945-0.32686l0.19672-0.12051zm13.525-18.281q-0.3432 0.01914-1.3675 0.45185-1.0096 0.41624-2.0632 1.4452-1.0545 1.0134-1.9267 2.7678-0.85751 1.7379-0.94336 4.4031 0.66214-0.19342 1.4785-0.42673 0.83112-0.24979 1.664-0.46838 0.83282-0.21859 1.5756-0.36955 0.75748-0.16743 1.2255-0.19353 0.54602-0.030453 1.3745-0.32704 0.82764-0.31219 1.6241-0.62265 0.65778-0.27142 1.2254-0.47522 0.58237-0.22027 1.1197-0.40673-0.24319-1.5514-0.82077-2.6459-0.56287-1.111-1.2747-1.8068-0.69708-0.71229-1.466-1.0293-0.75415-0.33352-1.425-0.29611zm8.3772 17.451q0.42123-0.023491 0.73334 0.24079 0.31122 0.24868 0.41974 0.79035 0.023529 0.42122-0.22513 0.73242-0.23303 0.31033-0.6499 0.41183-0.078003 0.0043488-0.69681 0.13276-0.61792 0.144-1.4698 0.30106-0.85107 0.17266-1.7828 0.30286-0.93167 0.1302-1.6025 0.16761-5.1794 0.28885-8.1098-2.302-2.9156-2.6073-3.4754-7.5839-0.22009-2.5386 0.20401-4.4714 0.42319-1.9485 1.221-3.3544 0.79694-1.4216 1.8393-2.3717 1.0415-0.96574 2.0433-1.5224 1.0165-0.57311 1.832-0.82203 0.83026-0.26539 1.2203-0.28714 1.014-0.056551 2.1973 0.39389 1.1823 0.43484 2.2227 1.4097 1.056 0.97396 1.8478 2.5417 0.79092 1.5521 1.069 3.7275 0.25146 0.29897 0.27325 0.68898 0.02179 0.39002-0.19653 0.68388-0.14365 0.79047-1.0017 0.83833-0.39001 0.021751-0.6839-0.1966-1.0322 0.2923-2.1475 0.77703-0.99402 0.41537-1.9612 0.75099-0.95242 0.31915-1.7325 0.36265-0.42123 0.023491-1.1475 0.18919-0.71152 0.14922-1.5582 0.39988-0.8476 0.23506-1.709 0.50219-0.86234 0.25153-1.553 0.49349 0.29114 2.4094 1.3247 3.8228 1.0327 1.3978 2.3885 2.1359 1.3549 0.72255 2.8197 0.89125 1.4804 0.16783 2.6505 0.10258 0.62405-0.034801 1.5089-0.1624 0.90048-0.12846 1.7056-0.28291 0.81989-0.17092 1.4395-0.28372l0.58847-0.11106 0.15427-0.039902z" fill="#666"/>
 </g>
</svg>
