<?xml version="1.0" encoding="UTF-8" standalone="no"?>
<svg
   xmlns:dc="http://purl.org/dc/elements/1.1/"
   xmlns:cc="http://creativecommons.org/ns#"
   xmlns:rdf="http://www.w3.org/1999/02/22-rdf-syntax-ns#"
   xmlns:svg="http://www.w3.org/2000/svg"
   xmlns="http://www.w3.org/2000/svg"
   xmlns:sodipodi="http://sodipodi.sourceforge.net/DTD/sodipodi-0.dtd"
   xmlns:inkscape="http://www.inkscape.org/namespaces/inkscape"
   version="1.1"
   viewBox="0.0 0.0 326.9527559055118 105.12860892388451"
   fill="none"
   stroke="none"
   stroke-linecap="square"
   stroke-miterlimit="10"
   id="svg2"
   inkscape:version="0.91 r"
   sodipodi:docname="contact.svg">
  <metadata
     id="metadata23">
    <rdf:RDF>
      <cc:Work
         rdf:about="">
        <dc:format>image/svg+xml</dc:format>
        <dc:type
           rdf:resource="http://purl.org/dc/dcmitype/StillImage" />
      </cc:Work>
    </rdf:RDF>
  </metadata>
  <defs
     id="defs21" />
  <sodipodi:namedview
     pagecolor="#ffffff"
     bordercolor="#666666"
     borderopacity="1"
     objecttolerance="10"
     gridtolerance="10"
     guidetolerance="10"
     inkscape:pageopacity="0"
     inkscape:pageshadow="2"
     inkscape:window-width="640"
     inkscape:window-height="480"
     id="namedview19"
     showgrid="false"
     inkscape:zoom="0.85027574"
     inkscape:cx="163.47638"
     inkscape:cy="52.564304"
     inkscape:window-x="57"
     inkscape:window-y="34"
     inkscape:window-maximized="0"
     inkscape:current-layer="svg2" />
  <clipPath
     id="p.0">
    <path
       d="m0 0l326.95276 0l0 105.12861l-326.95276 0l0 -105.12861z"
       clip-rule="nonzero"
       id="path5" />
  </clipPath>
  <g
     clip-path="url(#p.0)"
     id="g7"
     transform="matrix(0.99906241,-0.04329317,0.04329317,0.99906241,-2.1224017,7.1266942)">
    <path
       d="m 0,0 326.95276,0 0,105.12861 -326.95276,0 z"
       id="path9"
       inkscape:connector-curvature="0"
       style="fill:#000000;fill-opacity:0;fill-rule:nonzero" />
    <path
       d="m 9.88346,10.930877 313.13077,35.060314 -37.50479,14.358261 33.55417,19.289845 -34.2406,1.095673 28.11017,22.06213 L 5.246138,64.967109 40.474615,55.45745 2.370088,45.867724 37.601175,36.358374 Z"
       id="path11"
       inkscape:connector-curvature="0"
       style="fill:#ead1dc;fill-rule:nonzero" />
    <path
       d="m 9.88346,10.930877 313.13077,35.060314 -37.50479,14.358261 33.55417,19.289845 -34.2406,1.095673 28.11017,22.06213 L 5.246138,64.967109 40.474615,55.45745 2.370088,45.867724 37.601175,36.358374 Z"
       id="path13"
       inkscape:connector-curvature="0"
       style="fill-rule:nonzero;stroke:#666666;stroke-width:2;stroke-linecap:butt;stroke-linejoin:round" />
    <path
       d="M 61.77681,6.3432183 270.02698,30.825609 263.21094,88.878954 54.96076,64.396563 Z"
       id="path15"
       inkscape:connector-curvature="0"
       style="fill:#000000;fill-opacity:0;fill-rule:nonzero" />
    <path
       d="m 112.96886,55.44679 q 0.3468,-0.27388 0.81235,-0.219151 0.46554,0.05473 0.69838,0.349556 0.31501,0.398884 0.26034,0.864438 -0.0492,0.418994 -0.39599,0.692878 -0.052,0.04108 -0.6708,0.487511 -0.61696,0.430912 -1.67935,0.903854 -1.06058,0.457424 -2.51552,0.789822 -1.45311,0.316879 -3.19114,0.112553 -2.06391,-0.242642 -4.31423,-1.309555 -2.248494,-1.082436 -4.087353,-3.107865 -1.823342,-2.023605 -2.822655,-5.035885 -0.999306,-3.012283 -0.512825,-7.155697 0.15123,-1.288029 0.339958,-2.225529 0.188736,-0.9375 0.448716,-1.677833 0.259979,-0.740334 0.581146,-1.331883 0.336693,-0.589721 0.745506,-1.123768 0.05566,-0.07212 0.669792,-0.880943 0.63147,-0.822521 1.538567,-1.848629 0.908913,-1.041626 2.025968,-1.98012 1.11888,-0.954011 2.13567,-1.306455 1.19295,-0.378929 2.33758,-0.480353 1.16015,-0.0996 2.16883,0.01898 1.08627,0.127705 1.86589,0.455347 0.37884,0.123202 0.97406,0.413433 0.59521,0.290232 1.19866,0.644362 0.62079,0.340435 1.12748,0.714657 0.5067,0.374218 0.7085,0.665397 0.25934,0.471001 0.28139,1.087166 0.0239,0.600643 -0.0399,1.143788 -0.051,0.434516 -0.39964,0.723915 -0.34862,0.289402 -0.81417,0.234668 -0.41899,-0.04925 -0.72213,-0.415279 -0.28761,-0.364197 -0.2366,-0.798714 0.0219,-0.186218 0.0492,-0.418995 0.0273,-0.232776 0.0145,-0.391609 -0.36426,-0.247349 -1.23246,-0.758461 -0.8682,-0.511116 -1.65146,-0.807724 -0.30125,-0.114078 -0.639,-0.185249 -0.32042,-0.08487 -0.70837,-0.130474 -0.80695,-0.09487 -1.74438,-0.01629 -0.93561,0.06307 -1.79175,0.387199 -0.57046,0.168923 -1.30057,0.75959 -0.71277,0.576977 -1.4474,1.340172 -0.73463,0.763195 -1.429996,1.593937 -0.678032,0.817047 -1.151619,1.500805 -0.339455,0.479271 -0.616829,0.965836 -0.26004,0.472873 -0.472588,1.07719 -0.212539,0.604317 -0.371185,1.419495 -0.141296,0.801483 -0.268837,1.887771 -0.309746,2.63813 0.08141,4.666424 0.391151,2.02829 1.199348,3.586437 0.825531,1.544453 1.973183,2.62333 1.163167,1.080699 2.352717,1.802654 1.19137,0.706432 2.31421,1.058693 1.12465,0.336742 1.90056,0.427959 1.39663,0.164189 2.55949,-0.09242 1.17837,-0.25478 2.02446,-0.627293 0.84608,-0.372509 1.36082,-0.736775 l 0.48006,-0.336879 z m 11.72698,4.635303 q 0.72936,0.08574 1.96151,-0.493103 1.23216,-0.578842 2.47147,-1.754684 1.23932,-1.175842 2.22841,-2.90028 0.9909,-1.739952 1.25509,-3.99012 0.25508,-2.172577 -0.0794,-3.879559 -0.33448,-1.706977 -0.88245,-2.935611 -0.53246,-1.226807 -1.14783,-1.88126 -0.61357,-0.669972 -0.91482,-0.78405 -0.65175,-0.07662 -1.19213,-0.03002 -0.53855,0.03108 -0.7284,0.04023 -0.46555,-0.05473 -0.80796,-0.488296 -1.02319,0.273025 -2.23876,1.514587 -1.19823,1.227871 -2.31145,2.937714 -1.09589,1.696144 -1.92427,3.659732 -0.81285,1.965409 -1.01327,3.672432 -0.20954,1.784619 0.26178,3.130101 0.47315,1.329963 1.31313,2.215347 0.83999,0.88538 1.83598,1.380055 1.01332,0.48098 1.91337,0.586792 z m 5.19363,-20.78577 q 0.80693,0.09486 1.78294,1.027703 0.97783,0.91732 1.75316,2.487335 0.77716,1.554497 1.21764,3.698715 0.44229,2.1287 0.14164,4.68924 -0.30609,2.60709 -1.46669,4.720409 -1.14326,2.099625 -2.68464,3.570339 -1.52588,1.472538 -3.20071,2.203865 -1.67483,0.731327 -2.99387,0.57626 -1.52078,-0.178787 -2.92576,-0.941799 -1.40499,-0.763012 -2.43948,-2.001648 -1.0345,-1.238632 -1.58806,-2.955632 -0.53804,-1.715179 -0.2866,-3.85672 0.15851,-1.350097 0.69122,-2.939396 0.54823,-1.587471 1.34657,-3.161274 0.80017,-1.589321 1.80118,-3.013431 1.01837,-1.437809 2.12078,-2.519615 1.11976,-1.095501 2.28984,-1.681645 1.17191,-0.601661 2.30473,-0.468483 0.41899,0.04926 0.73212,0.196198 0.33047,0.133247 0.57606,0.319443 0.20172,0.02372 0.38977,0.03009 0.20539,-0.0073 0.43816,0.02005 z m 26.72548,21.202942 q -0.0638,0.543145 0.007,1.149266 0.0722,0.590599 0.19651,1.140117 0.14161,0.535824 0.27681,0.99223 0.15255,0.442718 0.23383,0.688263 0.0968,0.247368 0.0604,0.557739 -0.0747,0.636253 -0.65428,0.882767 -0.16429,0.05935 -0.29207,0.07579 -0.11411,0.03378 -0.26929,0.01554 -0.62071,-0.07297 -0.86185,-0.699157 -0.0429,-0.03651 -0.22283,-0.513909 -0.17994,-0.477402 -0.34624,-1.204918 -0.16629,-0.727516 -0.28334,-1.606571 -0.11705,-0.879051 -0.0168,-1.732563 0.0237,-0.20174 0.0373,-0.451858 0.0136,-0.250119 0.004,-0.56596 0.0327,-0.546795 0.0609,-1.188523 0.0455,-0.655422 0.14936,-1.53997 0.0692,-0.589699 0.0663,-1.235077 -0.003,-0.645374 0.0106,-1.430416 -0.009,-0.992256 0.0269,-2.105007 0.0363,-1.112755 0.18201,-2.354226 0.0911,-0.77592 -0.14279,-1.731643 -0.21839,-0.953896 -0.748,-1.802792 -0.52964,-0.848892 -1.38691,-1.453117 -0.83992,-0.61792 -2.05033,-0.76022 -1.50525,-0.176964 -2.76757,0.256745 -1.24496,0.420013 -2.19868,1.173183 -0.95371,0.753174 -1.67552,1.675201 -0.70447,0.908337 -1.16524,1.750924 -0.44344,0.828895 -0.70253,1.427742 -0.24359,0.600666 -0.2527,0.678257 -0.14871,0.328636 -0.37413,0.50666 l -0.082,0.698326 q -0.10933,0.931107 0.0124,2.172554 0.13904,1.227757 0.33743,2.619816 0.21311,1.802837 0.39248,3.759037 0.1967,1.942501 -0.0365,3.92886 -0.0547,0.465545 -0.40146,0.739433 -0.34681,0.27388 -0.81234,0.219147 -0.43451,-0.05108 -0.72396,-0.399758 -0.28944,-0.348678 -0.23478,-0.814232 0.21136,-1.800136 0.0485,-3.62854 -0.16291,-1.828399 -0.39058,-3.507087 -0.22034,-1.473305 -0.35849,-2.842549 -0.13632,-1.384765 -0.005,-2.50209 0.13301,-1.132843 0.17825,-2.858109 0.0452,-1.725269 0.0156,-3.349205 -0.0122,-1.63763 -0.06,-2.838924 -0.0304,-1.214985 -0.0213,-1.292576 0.0455,-0.387958 0.3458,-0.667313 0.31576,-0.27753 0.86801,-0.291271 0.43451,0.05108 0.68286,0.347733 0.26568,0.282959 0.29408,0.711075 -0.009,0.07759 0.0193,0.50571 0.0302,0.412602 0.0276,1.104534 -7.7e-4,0.676411 0.008,1.542694 0.0239,0.868107 0.0387,1.813809 0.70171,-1.018788 1.61521,-1.965481 0.93085,-0.960384 2.08082,-1.643288 1.16732,-0.696594 2.54467,-1.038112 1.37916,-0.357037 3.00857,-0.165482 1.59836,0.187908 2.80985,0.9911 1.22882,0.789502 2.03601,1.954213 0.809,1.149196 1.18174,2.530288 0.37276,1.381092 0.21789,2.700158 -0.13666,1.163879 -0.16744,2.230075 -0.029,1.050679 -0.009,1.949826 -0.0135,0.785041 -0.0234,1.539047 -0.008,0.738483 -0.0864,1.405777 -0.18219,1.551842 -0.1829,2.495716 0.006,0.346878 -0.0126,0.643551 -0.0191,0.296673 -0.0555,0.60704 z m 19.29678,-13.54269 q 0.33229,0.11773 0.52316,0.502015 0.19269,0.36877 0.0979,0.908268 -0.29649,0.783241 -1.41379,0.651886 0.004,-0.03104 -1.41221,-0.433476 -1.40035,-0.400616 -3.80019,-0.729946 -0.15192,2.231903 -0.31955,3.659596 -0.0874,0.744884 -0.15468,2.121448 -0.0499,1.362873 -0.11523,2.991383 -0.048,1.614814 -0.0914,3.324562 -0.0434,1.709751 -0.0504,3.109131 -0.005,1.383865 -0.0195,2.310394 0.001,0.92836 -0.003,0.959396 -0.051,0.434517 -0.38048,0.694702 -0.32947,0.260186 -0.83516,0.279396 -0.43451,-0.05108 -0.71207,-0.366897 -0.27938,-0.300301 -0.25941,-0.738465 0.0146,-0.124145 -2.5e-4,-1.069847 6.9e-4,-0.94387 0.0214,-2.325912 0.0225,-1.397556 0.0623,-3.076271 0.0416,-1.694229 0.0914,-3.324562 0.0653,-1.62851 0.11523,-2.991383 0.0672,-1.376564 0.15833,-2.152485 0.17309,-1.474247 0.31044,-3.582004 -1.01779,-0.04099 -2.01001,-0.03178 -0.97489,-0.0045 -1.74802,0.01476 -0.77133,0.0037 -1.2615,0.02475 -0.49016,0.02104 -0.56775,0.01192 -0.38796,-0.04561 -0.66734,-0.345909 -0.27758,-0.315819 -0.2914,-0.868084 0.0456,-0.387958 0.32846,-0.653622 0.28291,-0.265659 0.72653,-0.292167 0.031,0.0036 0.52303,-0.03291 0.5075,-0.03473 1.26332,-0.04027 0.77313,-0.01924 1.7462,7.63e-4 0.98857,0.02182 2.05292,0.06829 0.0499,-1.09541 0.067,-2.178952 0.0326,-1.081714 0.0543,-2.07032 0.0235,-1.004124 -4.3e-4,-1.87223 -0.008,-0.866284 -0.0597,-1.501614 0.0456,-0.387962 0.3458,-0.667316 0.31576,-0.277527 0.86801,-0.291268 0.38795,0.04561 0.65547,0.313046 0.2675,0.26744 0.2959,0.695556 0.1217,1.241452 0.10849,3.3638 -0.0132,2.122353 -0.0702,4.349682 1.31905,0.155068 2.36517,0.356716 1.06163,0.203473 1.80745,0.417012 0.74764,0.198024 1.16939,0.357734 0.43909,0.146016 0.48564,0.15149 z m 8.53391,20.03972 q 0.82246,0.09669 1.87385,-0.550606 1.06693,-0.645462 2.11638,-1.812165 1.0668,-1.180389 1.9984,-2.817188 0.94711,-1.634972 1.53178,-3.532814 -0.0607,-1.895046 0.0247,-3.961719 0.0871,-2.082192 0.3294,-4.413601 -0.39259,-0.408005 -0.33429,-0.904595 -0.24923,-0.155159 -0.53497,-0.267414 -0.28574,-0.112255 -0.62712,-0.152389 -0.5121,-0.0602 -1.46871,0.04759 -0.95658,0.107795 -2.09935,0.461162 -1.14274,0.353367 -2.33563,0.99976 -1.19288,0.646389 -2.24145,1.671597 -1.04676,1.009689 -1.80954,2.414611 -0.74727,1.40675 -0.96591,3.268956 -0.34618,2.948497 -0.071,4.758632 0.29251,1.796444 0.97461,2.820584 0.68211,1.024147 1.64065,1.43576 0.95854,0.411606 1.99825,0.533836 z m 9.724,-8.453712 q 0.0745,2.447311 0.31593,4.410804 0.24325,1.947975 0.49185,3.314476 0.24861,1.366493 0.45964,2.115006 0.21103,0.748504 0.20557,0.795067 0.0183,0.112274 0.021,0.222724 0.0201,0.09676 0.007,0.205391 -0.0838,0.713845 -0.74098,0.951241 -0.31947,0.04111 -0.47465,0.02286 -0.74488,-0.08756 -0.90476,-0.735665 -0.0594,-0.164306 -0.49702,-1.93061 -0.43764,-1.766304 -0.78066,-4.874493 -0.79747,1.432316 -1.78668,2.621822 -0.98738,1.173996 -2.0433,1.993821 -1.05593,0.819816 -2.1576,1.225212 -1.08613,0.407219 -2.09481,0.288635 -3.95713,-0.46521 -5.547,-3.405327 -1.57436,-2.93829 -0.91297,-8.571472 0.2733,-2.327759 1.18297,-4.045799 0.90967,-1.718037 2.16999,-2.93861 1.27763,-1.234268 2.75254,-2.00483 1.49044,-0.768737 2.8769,-1.187847 1.38827,-0.434631 2.53472,-0.551571 1.16381,-0.130638 1.83109,-0.05219 1.16385,0.136826 1.96451,0.687199 0.80066,0.550373 1.29371,1.174709 0.49308,0.62434 0.69858,1.151944 0.22284,0.513908 0.21919,0.544944 0.10047,0.216336 0.0731,0.449112 -0.0456,0.387959 -0.45168,0.764996 0.14193,1.873135 -0.2079,4.852665 -0.0729,0.620739 -0.20784,1.234177 -0.13494,0.613437 -0.29087,1.27161 z M 209.40319,69.2224 q 0.28202,-0.124177 0.63894,-0.08221 0.57418,0.0675 0.82988,0.569542 0.16529,0.334084 0.12885,0.644455 -0.0583,0.49659 -0.61595,0.824341 l -0.28749,0.17073 q -0.33405,0.165245 -0.86802,0.291268 -0.52026,0.143356 -1.19207,0.237442 -0.65628,0.0959 -1.38564,0.01016 -0.93109,-0.109459 -2.18271,-0.838707 -1.25345,-0.713738 -2.36925,-2.197915 -1.10026,-1.482353 -1.82101,-3.785385 -0.70338,-2.316723 -0.55901,-5.556396 -0.004,-0.236427 0.0218,-0.453682 0.0255,-0.217259 0.0528,-0.450035 0.29517,-2.513981 1.43208,-4.42556 1.15242,-1.90976 2.59072,-3.172337 1.45562,-1.276272 2.92967,-1.905342 1.47403,-0.629074 2.44527,-0.593555 0.2072,-0.02284 0.40893,8.77e-4 0.21726,0.02554 0.41899,0.04926 1.11731,0.131352 1.92978,0.447125 0.81247,0.315773 1.10462,0.507442 0.40988,0.12685 0.81347,0.709206 0.40541,0.566837 0.23232,2.041088 -0.0547,0.465549 -0.41698,0.73761 -0.36232,0.272056 -0.79683,0.220974 -0.46554,-0.05473 -0.73947,-0.401585 -0.27391,-0.346855 -0.21925,-0.812408 0.0364,-0.310368 -0.005,-0.62986 -0.22366,-0.104958 -0.79512,-0.329464 -0.55595,-0.222687 -1.3629,-0.317551 -0.15518,-0.01825 -0.29484,-0.03466 -0.13967,-0.01642 -0.33135,0.0082 -0.62984,0.0046 -1.74243,0.503125 -1.09708,0.500328 -2.22507,1.531932 -1.11065,1.01791 -2.04683,2.559773 -0.92067,1.54369 -1.16299,3.607635 -0.0219,0.186223 -0.0401,0.341404 -0.0182,0.155186 -0.0109,0.360573 -0.15457,2.656372 0.36525,4.526737 0.53534,1.872185 1.35258,3.085274 0.83277,1.21492 1.72106,1.822792 0.89014,0.592354 1.5574,0.670799 0.46555,0.05473 0.8973,-0.0046 0.44908,-0.07307 0.80688,-0.172593 0.37331,-0.09771 0.57774,-0.231002 l 0.2145,-0.08491 z m 20.93838,-15.86692 q 0.33229,0.117725 0.52316,0.502014 0.19269,0.36877 0.0979,0.908268 -0.29647,0.783237 -1.41378,0.651886 0.004,-0.03104 -1.4122,-0.43348 -1.40035,-0.400615 -3.80019,-0.729942 -0.15192,2.231899 -0.31955,3.659596 -0.0874,0.74488 -0.15468,2.121448 -0.0499,1.362869 -0.11523,2.991379 -0.048,1.614818 -0.0914,3.324566 -0.0434,1.709747 -0.0504,3.109131 -0.005,1.383865 -0.0196,2.310394 0.001,0.92836 -0.003,0.959396 -0.051,0.43451 -0.38048,0.694703 -0.32945,0.260185 -0.83514,0.279396 -0.43451,-0.05108 -0.71208,-0.366898 -0.27939,-0.300301 -0.2594,-0.738464 0.0146,-0.124146 -2.6e-4,-1.069847 7e-4,-0.943871 0.0214,-2.325913 0.0225,-1.39756 0.0623,-3.076271 0.0416,-1.694229 0.0914,-3.324562 0.0654,-1.628509 0.11524,-2.991383 0.0672,-1.376564 0.15834,-2.152485 0.17308,-1.47425 0.31042,-3.582004 -1.01777,-0.04099 -2.00999,-0.03178 -0.97489,-0.0045 -1.74803,0.01476 -0.77132,0.0037 -1.26149,0.02475 -0.49018,0.02104 -0.56777,0.01192 -0.38795,-0.04561 -0.66734,-0.345909 -0.27756,-0.315818 -0.29138,-0.868084 0.0456,-0.387962 0.32846,-0.653621 0.28291,-0.26566 0.72653,-0.292172 0.031,0.0037 0.52303,-0.0329 0.5075,-0.03473 1.2633,-0.04027 0.77315,-0.01924 1.7462,7.63e-4 0.98859,0.02182 2.05292,0.06829 0.05,-1.09541 0.067,-2.178952 0.0326,-1.081714 0.0543,-2.07032 0.0235,-1.004123 -4.4e-4,-1.87223 -0.008,-0.866284 -0.0597,-1.501614 0.0455,-0.387962 0.34581,-0.667316 0.31576,-0.277531 0.86801,-0.291268 0.38794,0.04561 0.65546,0.313046 0.26751,0.267441 0.29591,0.695557 0.12169,1.241451 0.10849,3.3638 -0.0132,2.122348 -0.0702,4.349682 1.31905,0.155067 2.36516,0.356716 1.06164,0.203472 1.80746,0.417011 0.74764,0.198021 1.16939,0.357735 0.43909,0.146015 0.48564,0.151489 z"
       id="path17"
       inkscape:connector-curvature="0"
       style="fill:#666666;fill-rule:nonzero" />
  </g>
</svg>
