<?xml version="1.0" encoding="UTF-8" standalone="no"?>
<!-- Created with Inkscape (http://www.inkscape.org/) -->
<svg id="svg3415" xmlns:rdf="http://www.w3.org/1999/02/22-rdf-syntax-ns#" xmlns="http://www.w3.org/2000/svg" height="34mm" width="20.066mm" version="1.1" xmlns:cc="http://creativecommons.org/ns#" xmlns:dc="http://purl.org/dc/elements/1.1/" viewBox="0 0 71.099149 120.47244">
 <defs id="defs3417">
  <clipPath id="p.0-8-0">
   <path id="path5-9-62" d="m0 0h200.89v105.3h-200.89v-105.3z"/>
  </clipPath>
  <clipPath id="p.0-0">
   <path id="path5-7" d="m0 0h122.83v100h-122.83v-100z"/>
  </clipPath>
 </defs>
 <metadata id="metadata3420">
  <rdf:RDF>
   <cc:Work rdf:about="">
    <dc:format>image/svg+xml</dc:format>
    <dc:type rdf:resource="http://purl.org/dc/dcmitype/StillImage"/>
    <dc:title/>
   </cc:Work>
  </rdf:RDF>
 </metadata>
 <g id="layer1" transform="translate(-30.032 -86.424)">
  <g id="g3552" transform="translate(-27.857 4.2857)">
   <text id="text10846" style="word-spacing:0px;letter-spacing:0px" transform="matrix(.036478 -1.1049 .90359 .044605 0 0)" xml:space="preserve" line-height="125%" font-size="15px" y="142.70027" x="-161.43411" font-family="&apos;Coming Soon&apos;" fill="#999999"><tspan id="tspan10848" y="142.70027" x="-161.43411">React</tspan><tspan id="tspan11329" y="161.45027" x="-161.43411"/></text>
   <g id="g7016" transform="matrix(.16075 .45453 .45453 -.16075 -155.7 50.527)">
    <g id="g7018">
     <g id="g7020">
      <g id="g7022">
       <g id="g7024" transform="translate(254.33 318.67)" fill="#fff" clip-path="url(#p.0-8-0)">
        <path id="path7026" fill-opacity="0" d="m0 0h200.89v105.3h-200.89z"/>
        <path id="path7028" fill-opacity="0" d="m60.228 87.103c44.232-15.773 89.562-30.798 136.17-43.125"/>
        <path id="path7030" stroke-linejoin="round" d="m60.228 87.103c44.232-15.773 89.562-30.798 136.17-43.125" fill-rule="evenodd" stroke="#999" fill="#fff"/>
        <path id="path7032" fill-opacity="0" d="m184.02 1.5508c-44 17.343-90.814 33.048-138.3 47.723"/>
        <path id="path7034" stroke-linejoin="round" d="m184.02 1.5508c-44 17.343-90.814 33.048-138.3 47.723" fill-rule="evenodd" stroke="#999" fill="#fff"/>
        <path id="path7036" fill-opacity="0" d="m5.2808 85.171c12.602-14.225 26.503-25.886 40.834-36.126"/>
        <path id="path7038" stroke-linejoin="round" d="m5.2808 85.171c12.602-14.225 26.503-25.886 40.834-36.126" fill-rule="evenodd" stroke="#999" fill="#fff"/>
        <path id="path7040" fill-opacity="0" d="m5.8253 84.881c18.396 2.6562 36.78 3.0005 54.888 2.2132"/>
        <path id="path7042" stroke-linejoin="round" d="m5.8253 84.881c18.396 2.6562 36.78 3.0005 54.888 2.2132" fill-rule="evenodd" stroke="#999" fill="#fff"/>
        <path id="path7044" fill-opacity="0" d="m46.26 49.046c10.995 5.0582 20.963 28.583 12.59 38.216"/>
        <path id="path7046" stroke-linejoin="round" d="m46.26 49.046c10.995 5.0582 20.963 28.583 12.59 38.216" fill-rule="evenodd" stroke="#999" fill="#fff"/>
        <path id="path7048" fill-opacity="0" d="m15.066 74.893c3.8119 0 8.9498 8.1748 6.509 11.872"/>
        <path id="path7050" stroke-linejoin="round" d="m15.066 74.893c3.8119 0 8.9498 8.1748 6.509 11.872" fill-rule="evenodd" stroke="#999" fill="#fff"/>
        <path id="path7052" d="m6.3413 84.771 8.8058-9.7977 3.0971 1.205 2.853 4.2563 0.979 4.1761-0.57218 1.7661z" fill="#fff"/>
        <path id="path7054" stroke-linejoin="round" d="m6.3413 84.771 8.8058-9.7977 3.0971 1.205 2.853 4.2563 0.979 4.1761-0.57218 1.7661z" stroke="#999" fill="#fff"/>
        <path id="path7056" fill-opacity="0" d="m164 8.9368c10.995 5.3388 20.963 30.168 12.59 40.335"/>
        <path id="path7058" stroke-linejoin="round" d="m164 8.9368c10.995 5.3388 20.963 30.168 12.59 40.335" fill-rule="evenodd" stroke="#999" fill="#fff"/>
        <path id="path7060" fill-opacity="0" d="m183.65 1.9654c14.16 3.9834 20.56 29.7 12.39 41.764"/>
        <path id="path7062" stroke-linejoin="round" d="m183.65 1.9654c14.16 3.9834 20.56 29.7 12.39 41.764" fill-rule="evenodd" stroke="#999" fill="#fff"/>
       </g>
      </g>
     </g>
    </g>
    <g id="g7064" transform="translate(91.924 -18.183)">
     <path id="path7066" fill="#fff" d="m176.09 421.82c-2.8816-0.32463-5.4206-0.62704-5.6422-0.67204-0.27713-0.0563 0.7927-1.4053 3.4281-4.3226 4.1228-4.5639 3.7984-4.3602 5.6861-3.5715 1.7518 0.73197 4.3443 5.9462 4.1174 8.2814-0.0732 0.7536-0.13428 0.79557-1.2135 0.83421-0.62503 0.0224-3.4941-0.22491-6.3758-0.54954z"/>
     <path id="path7068" fill="#fff" d="m175.93 421.81c-2.9707-0.33067-5.5076-0.63666-5.6376-0.67998-0.21006-0.07 6.7376-8.0049 7.329-8.3704 0.13066-0.0807 0.77137 0.0351 1.4238 0.25739 1.0528 0.35873 1.3387 0.63516 2.5418 2.4577 1.4119 2.1388 2.2418 4.5396 2.0942 6.0582-0.0732 0.75329-0.13471 0.79567-1.2135 0.83595-0.62503 0.0233-3.567-0.22812-6.5377-0.55878z"/>
     <path id="path7070" transform="matrix(1.1109 -.30479 .23907 .83440 -120.44 121.7)" fill="#999" d="m181.51 427.33-6.5712-2.9615-6.5712-2.9615 5.8504-4.2101 5.8503-4.2101 0.72085 7.1716z"/>
     <ellipse id="ellipse7072" rx="2.7393" ry="5.9515" transform="matrix(.94507 -.32687 .35546 .93469 0 0)" cy="454.72" cx="20.464" fill="#999"/>
    </g>
   </g>
   <g id="g11066" transform="matrix(.16075 .45453 .45453 -.16075 -132.56 51.208)">
    <g id="g11068">
     <g id="g11070">
      <g id="g11072">
       <g id="g11074" clip-path="url(#p.0-8-0)" fill="#fff" transform="translate(254.33 318.67)">
        <path id="path11076" fill-opacity="0" d="m0 0h200.89v105.3h-200.89z"/>
        <path id="path11078" fill-opacity="0" d="m60.228 87.103c44.232-15.773 89.562-30.798 136.17-43.125"/>
        <path id="path11080" stroke-linejoin="round" d="m60.228 87.103c44.232-15.773 89.562-30.798 136.17-43.125" fill-rule="evenodd" stroke="#999" fill="#fff"/>
        <path id="path11082" fill-opacity="0" d="m184.02 1.5508c-44 17.343-90.814 33.048-138.3 47.723"/>
        <path id="path11084" stroke-linejoin="round" d="m184.02 1.5508c-44 17.343-90.814 33.048-138.3 47.723" fill-rule="evenodd" stroke="#999" fill="#fff"/>
        <path id="path11086" fill-opacity="0" d="m5.2808 85.171c12.602-14.225 26.503-25.886 40.834-36.126"/>
        <path id="path11088" stroke-linejoin="round" d="m5.2808 85.171c12.602-14.225 26.503-25.886 40.834-36.126" fill-rule="evenodd" stroke="#999" fill="#fff"/>
        <path id="path11090" fill-opacity="0" d="m5.8253 84.881c18.396 2.6562 36.78 3.0005 54.888 2.2132"/>
        <path id="path11092" stroke-linejoin="round" d="m5.8253 84.881c18.396 2.6562 36.78 3.0005 54.888 2.2132" fill-rule="evenodd" stroke="#999" fill="#fff"/>
        <path id="path11094" fill-opacity="0" d="m46.26 49.046c10.995 5.0582 20.963 28.583 12.59 38.216"/>
        <path id="path11096" stroke-linejoin="round" d="m46.26 49.046c10.995 5.0582 20.963 28.583 12.59 38.216" fill-rule="evenodd" stroke="#999" fill="#fff"/>
        <path id="path11098" fill-opacity="0" d="m15.066 74.893c3.8119 0 8.9498 8.1748 6.509 11.872"/>
        <path id="path11100" stroke-linejoin="round" d="m15.066 74.893c3.8119 0 8.9498 8.1748 6.509 11.872" fill-rule="evenodd" stroke="#999" fill="#fff"/>
        <path id="path11102" fill="#fff" d="m6.3413 84.771 8.8058-9.7977 3.0971 1.205 2.853 4.2563 0.979 4.1761-0.57218 1.7661z"/>
        <path id="path11104" stroke-linejoin="round" d="m6.3413 84.771 8.8058-9.7977 3.0971 1.205 2.853 4.2563 0.979 4.1761-0.57218 1.7661z" stroke="#999" fill="#fff"/>
        <path id="path11106" fill-opacity="0" d="m164 8.9368c10.995 5.3388 20.963 30.168 12.59 40.335"/>
        <path id="path11108" stroke-linejoin="round" d="m164 8.9368c10.995 5.3388 20.963 30.168 12.59 40.335" fill-rule="evenodd" stroke="#999" fill="#fff"/>
        <path id="path11110" fill-opacity="0" d="m183.65 1.9654c14.16 3.9834 20.56 29.7 12.39 41.764"/>
        <path id="path11112" stroke-linejoin="round" d="m183.65 1.9654c14.16 3.9834 20.56 29.7 12.39 41.764" fill-rule="evenodd" stroke="#999" fill="#fff"/>
       </g>
      </g>
     </g>
    </g>
    <g id="g11114" transform="translate(91.924 -18.183)">
     <path id="path11116" d="m176.09 421.82c-2.8816-0.32463-5.4206-0.62704-5.6422-0.67204-0.27713-0.0563 0.7927-1.4053 3.4281-4.3226 4.1228-4.5639 3.7984-4.3602 5.6861-3.5715 1.7518 0.73197 4.3443 5.9462 4.1174 8.2814-0.0732 0.7536-0.13428 0.79557-1.2135 0.83421-0.62503 0.0224-3.4941-0.22491-6.3758-0.54954z" fill="#fff"/>
     <path id="path11118" d="m175.93 421.81c-2.9707-0.33067-5.5076-0.63666-5.6376-0.67998-0.21006-0.07 6.7376-8.0049 7.329-8.3704 0.13066-0.0807 0.77137 0.0351 1.4238 0.25739 1.0528 0.35873 1.3387 0.63516 2.5418 2.4577 1.4119 2.1388 2.2418 4.5396 2.0942 6.0582-0.0732 0.75329-0.13471 0.79567-1.2135 0.83595-0.62503 0.0233-3.567-0.22812-6.5377-0.55878z" fill="#fff"/>
     <path id="path11120" d="m181.51 427.33-6.5712-2.9615-6.5712-2.9615 5.8504-4.2101 5.8503-4.2101 0.72085 7.1716z" transform="matrix(1.1109 -.30479 .23907 .83440 -120.44 121.7)" fill="#999"/>
     <ellipse id="ellipse11122" rx="2.7393" transform="matrix(.94507 -.32687 .35546 .93469 0 0)" ry="5.9515" cy="454.72" cx="20.464" fill="#999"/>
    </g>
   </g>
   <g id="g11124" transform="matrix(-.16075 .45453 -.45453 -.16075 343.55 51.208)">
    <g id="g11126">
     <g id="g11128">
      <g id="g11130">
       <g id="g11132" transform="translate(254.33 318.67)" fill="#fff" clip-path="url(#p.0-8-0)">
        <path id="path11134" fill-opacity="0" d="m0 0h200.89v105.3h-200.89z"/>
        <path id="path11136" fill-opacity="0" d="m60.228 87.103c44.232-15.773 89.562-30.798 136.17-43.125"/>
        <path id="path11138" stroke-linejoin="round" d="m60.228 87.103c44.232-15.773 89.562-30.798 136.17-43.125" fill-rule="evenodd" stroke="#999" fill="#fff"/>
        <path id="path11140" fill-opacity="0" d="m184.02 1.5508c-44 17.343-90.814 33.048-138.3 47.723"/>
        <path id="path11142" stroke-linejoin="round" d="m184.02 1.5508c-44 17.343-90.814 33.048-138.3 47.723" fill-rule="evenodd" stroke="#999" fill="#fff"/>
        <path id="path11144" fill-opacity="0" d="m5.2808 85.171c12.602-14.225 26.503-25.886 40.834-36.126"/>
        <path id="path11146" stroke-linejoin="round" d="m5.2808 85.171c12.602-14.225 26.503-25.886 40.834-36.126" fill-rule="evenodd" stroke="#999" fill="#fff"/>
        <path id="path11148" fill-opacity="0" d="m5.8253 84.881c18.396 2.6562 36.78 3.0005 54.888 2.2132"/>
        <path id="path11150" stroke-linejoin="round" d="m5.8253 84.881c18.396 2.6562 36.78 3.0005 54.888 2.2132" fill-rule="evenodd" stroke="#999" fill="#fff"/>
        <path id="path11152" fill-opacity="0" d="m46.26 49.046c10.995 5.0582 20.963 28.583 12.59 38.216"/>
        <path id="path11154" stroke-linejoin="round" d="m46.26 49.046c10.995 5.0582 20.963 28.583 12.59 38.216" fill-rule="evenodd" stroke="#999" fill="#fff"/>
        <path id="path11156" fill-opacity="0" d="m15.066 74.893c3.8119 0 8.9498 8.1748 6.509 11.872"/>
        <path id="path11158" stroke-linejoin="round" d="m15.066 74.893c3.8119 0 8.9498 8.1748 6.509 11.872" fill-rule="evenodd" stroke="#999" fill="#fff"/>
        <path id="path11160" d="m6.3413 84.771 8.8058-9.7977 3.0971 1.205 2.853 4.2563 0.979 4.1761-0.57218 1.7661z" fill="#fff"/>
        <path id="path11162" stroke-linejoin="round" d="m6.3413 84.771 8.8058-9.7977 3.0971 1.205 2.853 4.2563 0.979 4.1761-0.57218 1.7661z" stroke="#999" fill="#fff"/>
        <path id="path11164" fill-opacity="0" d="m164 8.9368c10.995 5.3388 20.963 30.168 12.59 40.335"/>
        <path id="path11166" stroke-linejoin="round" d="m164 8.9368c10.995 5.3388 20.963 30.168 12.59 40.335" fill-rule="evenodd" stroke="#999" fill="#fff"/>
        <path id="path11168" fill-opacity="0" d="m183.65 1.9654c14.16 3.9834 20.56 29.7 12.39 41.764"/>
        <path id="path11170" stroke-linejoin="round" d="m183.65 1.9654c14.16 3.9834 20.56 29.7 12.39 41.764" fill-rule="evenodd" stroke="#999" fill="#fff"/>
       </g>
      </g>
     </g>
    </g>
    <g id="g11172" transform="translate(91.924 -18.183)">
     <path id="path11174" fill="#fff" d="m176.09 421.82c-2.8816-0.32463-5.4206-0.62704-5.6422-0.67204-0.27713-0.0563 0.7927-1.4053 3.4281-4.3226 4.1228-4.5639 3.7984-4.3602 5.6861-3.5715 1.7518 0.73197 4.3443 5.9462 4.1174 8.2814-0.0732 0.7536-0.13428 0.79557-1.2135 0.83421-0.62503 0.0224-3.4941-0.22491-6.3758-0.54954z"/>
     <path id="path11176" fill="#fff" d="m175.93 421.81c-2.9707-0.33067-5.5076-0.63666-5.6376-0.67998-0.21006-0.07 6.7376-8.0049 7.329-8.3704 0.13066-0.0807 0.77137 0.0351 1.4238 0.25739 1.0528 0.35873 1.3387 0.63516 2.5418 2.4577 1.4119 2.1388 2.2418 4.5396 2.0942 6.0582-0.0732 0.75329-0.13471 0.79567-1.2135 0.83595-0.62503 0.0233-3.567-0.22812-6.5377-0.55878z"/>
     <path id="path11178" transform="matrix(1.1109 -.30479 .23907 .83440 -120.44 121.7)" fill="#999" d="m181.51 427.33-6.5712-2.9615-6.5712-2.9615 5.8504-4.2101 5.8503-4.2101 0.72085 7.1716z"/>
     <ellipse id="ellipse11180" rx="2.7393" ry="5.9515" transform="matrix(.94507 -.32687 .35546 .93469 0 0)" cy="454.72" cx="20.464" fill="#999"/>
    </g>
   </g>
   <text id="text11331" style="word-spacing:0px;letter-spacing:0px" xml:space="preserve" transform="matrix(.036478 -1.1049 .90359 .044605 0 0)" line-height="125%" font-size="18.043px" y="114.20019" x="-160.38664" font-family="&apos;Coming Soon&apos;" fill="#999999"><tspan id="tspan11335" font-size="15px" y="114.20019" x="-160.38664" fill="#999999">SVG</tspan></text>
   <text id="text11339" style="word-spacing:0px;letter-spacing:-1.02px" transform="matrix(.036478 -1.1049 .90359 .044605 0 0)" xml:space="preserve" line-height="125%" font-size="18.043px" y="88.543358" x="-167.11139" font-family="&apos;Coming Soon&apos;" fill="#999999"><tspan id="tspan11341" style="letter-spacing:-1.02px" font-size="15px" y="88.543358" x="-167.11139" fill="#999999">Inkscape</tspan></text>
  </g>
  <g id="g7" transform="matrix(.65110 0 0 .68051 26.933 41.067)" fill="#fff" clip-path="url(#p.0-0)">
   <path id="path9" fill-opacity="0" d="m0 0h122.83v100h-122.83z"/>
   <path id="path11" d="m5.345 69.361 113.36-0.7096-12.799 7.8111 12.799 6.3908-12.189 2.1299 10.97 7.8111-111.54-0.7096 12.189-5.6812-14.019-2.1299 12.19-5.6812z" fill="#fff"/>
   <path id="path13" stroke-linejoin="round" d="m7.1669 69.331 105.37-0.71146-11.897 7.8315 11.897 6.4075-11.33 2.1355 10.197 7.8315l-103.68-0.714 11.334-5.696-13.03-2.136 11.33-5.696z" stroke="#999" stroke-width="1.9307" fill="#fff"/>
   <path id="path15" fill-opacity="0" d="m12.442 62.008 97.943 0.03149v23.62l-97.943-0.03149z"/>
   <text id="text3478" style="word-spacing:0px;letter-spacing:0px" xml:space="preserve" transform="scale(1.0539 .94883)" font-size="15.37px" y="88.743797" x="20.243176" font-family="sans-serif" line-height="125%" fill="#808080"><tspan id="tspan3480" font-size="17.638px" y="88.743797" x="20.243176" font-family="&apos;Coming Soon&apos;" fill="#808080">Learning</tspan></text>
  </g>
 </g>
</svg>
