<?xml version="1.0" encoding="UTF-8" standalone="no"?>
<!-- Created with Inkscape (http://www.inkscape.org/) -->

<svg
   xmlns:dc="http://purl.org/dc/elements/1.1/"
   xmlns:cc="http://creativecommons.org/ns#"
   xmlns:rdf="http://www.w3.org/1999/02/22-rdf-syntax-ns#"
   xmlns:svg="http://www.w3.org/2000/svg"
   xmlns="http://www.w3.org/2000/svg"
   xmlns:sodipodi="http://sodipodi.sourceforge.net/DTD/sodipodi-0.dtd"
   xmlns:inkscape="http://www.inkscape.org/namespaces/inkscape"
   width="34mm"
   height="30mm"
   viewBox="0 0 120.47243 106.29921"
   id="svg3415"
   version="1.1"
   inkscape:version="0.91 r"
   sodipodi:docname="skill24.svg">
  <defs
     id="defs3417">
    <clipPath
       id="p.0">
      <path
         style="clip-rule:nonzero"
         inkscape:connector-curvature="0"
         d="m 0,0 200.8924,0 0,105.30446 L 0,105.30446 0,0 Z"
         id="path5" />
    </clipPath>
    <clipPath
       id="p.0-1">
      <path
         style="clip-rule:nonzero"
         inkscape:connector-curvature="0"
         d="m 0,0 200.8924,0 0,105.30446 L 0,105.30446 0,0 Z"
         id="path5-3" />
    </clipPath>
    <clipPath
       id="p.0-8">
      <path
         style="clip-rule:nonzero"
         inkscape:connector-curvature="0"
         d="m 0,0 200.8924,0 0,105.30446 L 0,105.30446 0,0 Z"
         id="path5-9" />
    </clipPath>
    <clipPath
       id="clipPath6016">
      <path
         style="clip-rule:nonzero"
         inkscape:connector-curvature="0"
         d="m 0,0 200.8924,0 0,105.30446 L 0,105.30446 0,0 Z"
         id="path6018" />
    </clipPath>
    <clipPath
       id="p.0-8-8">
      <path
         style="clip-rule:nonzero"
         inkscape:connector-curvature="0"
         d="m 0,0 200.8924,0 0,105.30446 L 0,105.30446 0,0 Z"
         id="path5-9-2" />
    </clipPath>
    <clipPath
       id="clipPath10770">
      <path
         style="clip-rule:nonzero"
         inkscape:connector-curvature="0"
         d="m 0,0 200.8924,0 0,105.30446 L 0,105.30446 0,0 Z"
         id="path10772" />
    </clipPath>
    <clipPath
       id="p.0-8-7">
      <path
         style="clip-rule:nonzero"
         inkscape:connector-curvature="0"
         d="m 0,0 200.8924,0 0,105.30446 L 0,105.30446 0,0 Z"
         id="path5-9-1" />
    </clipPath>
    <clipPath
       id="p.0-8-9">
      <path
         style="clip-rule:nonzero"
         inkscape:connector-curvature="0"
         d="m 0,0 200.8924,0 0,105.30446 L 0,105.30446 0,0 Z"
         id="path5-9-7" />
    </clipPath>
  </defs>
  <sodipodi:namedview
     id="base"
     pagecolor="#ffffff"
     bordercolor="#666666"
     borderopacity="1.0"
     inkscape:pageopacity="0.0"
     inkscape:pageshadow="2"
     inkscape:zoom="1.4"
     inkscape:cx="168.95986"
     inkscape:cy="95.888373"
     inkscape:document-units="px"
     inkscape:current-layer="layer1"
     showgrid="false"
     inkscape:window-width="1319"
     inkscape:window-height="744"
     inkscape:window-x="47"
     inkscape:window-y="24"
     inkscape:window-maximized="1"
     fit-margin-top="0"
     fit-margin-left="0"
     fit-margin-right="0"
     fit-margin-bottom="0" />
  <metadata
     id="metadata3420">
    <rdf:RDF>
      <cc:Work
         rdf:about="">
        <dc:format>image/svg+xml</dc:format>
        <dc:type
           rdf:resource="http://purl.org/dc/dcmitype/StillImage" />
        <dc:title></dc:title>
      </cc:Work>
    </rdf:RDF>
  </metadata>
  <g
     inkscape:label="Layer 1"
     inkscape:groupmode="layer"
     id="layer1"
     transform="translate(-24.21268,-102.87046)">
    <g
       transform="translate(-476.87958,-88.163134)"
       id="g10850">
      <g
         id="g7248"
         transform="matrix(0.66445861,-0.24583881,0.24583881,0.66445861,231.92665,89.96631)">
        <g
           id="g7250">
          <g
             id="g7252">
            <g
               id="g7254">
              <g
                 clip-path="url(#p.0-8-9)"
                 id="g7256"
                 transform="translate(254.33482,318.67008)"
                 style="fill:#ffffff">
                <path
                   style="fill:#ffffff;fill-opacity:0;fill-rule:nonzero"
                   inkscape:connector-curvature="0"
                   d="m 0,0 200.8924,0 0,105.30446 -200.8924,0 z"
                   id="path7258" />
                <path
                   style="fill:#ffffff;fill-opacity:0;fill-rule:evenodd"
                   inkscape:connector-curvature="0"
                   d="M 60.227837,87.10315 C 104.45856,71.329758 149.78971,56.305089 196.39556,43.97824"
                   id="path7260" />
                <path
                   style="fill:#ffffff;fill-rule:evenodd;stroke:#999999;stroke-width:1;stroke-linecap:butt;stroke-linejoin:round"
                   inkscape:connector-curvature="0"
                   d="M 60.227837,87.10315 C 104.45856,71.329758 149.78971,56.305089 196.39556,43.97824"
                   id="path7262" />
                <path
                   style="fill:#ffffff;fill-opacity:0;fill-rule:evenodd"
                   inkscape:connector-curvature="0"
                   d="M 184.01866,1.550778 C 140.01582,18.894435 93.20614,34.598954 45.71553,49.274118"
                   id="path7264" />
                <path
                   style="fill:#ffffff;fill-rule:evenodd;stroke:#999999;stroke-width:1;stroke-linecap:butt;stroke-linejoin:round"
                   inkscape:connector-curvature="0"
                   d="M 184.01866,1.550778 C 140.01582,18.894435 93.20614,34.598954 45.71553,49.274118"
                   id="path7266" />
                <path
                   style="fill:#ffffff;fill-opacity:0;fill-rule:evenodd"
                   inkscape:connector-curvature="0"
                   d="M 5.280823,85.17146 C 17.883236,70.945706 31.784418,59.284863 46.11454,49.04521"
                   id="path7268" />
                <path
                   style="fill:#ffffff;fill-rule:evenodd;stroke:#999999;stroke-width:1;stroke-linecap:butt;stroke-linejoin:round"
                   inkscape:connector-curvature="0"
                   d="M 5.280823,85.17146 C 17.883236,70.945706 31.784418,59.284863 46.11454,49.04521"
                   id="path7270" />
                <path
                   style="fill:#ffffff;fill-opacity:0;fill-rule:evenodd"
                   inkscape:connector-curvature="0"
                   d="m 5.825283,84.88129 c 18.395832,2.656158 36.779644,3.000542 54.887768,2.213196"
                   id="path7272" />
                <path
                   style="fill:#ffffff;fill-rule:evenodd;stroke:#999999;stroke-width:1;stroke-linecap:butt;stroke-linejoin:round"
                   inkscape:connector-curvature="0"
                   d="m 5.825283,84.88129 c 18.395832,2.656158 36.779644,3.000542 54.887768,2.213196"
                   id="path7274" />
                <path
                   style="fill:#ffffff;fill-opacity:0;fill-rule:evenodd"
                   inkscape:connector-curvature="0"
                   d="m 46.259888,49.045506 c 10.994724,5.058235 20.96289,28.58305 12.589863,38.21587"
                   id="path7276" />
                <path
                   style="fill:#ffffff;fill-rule:evenodd;stroke:#999999;stroke-width:1;stroke-linecap:butt;stroke-linejoin:round"
                   inkscape:connector-curvature="0"
                   d="m 46.259888,49.045506 c 10.994724,5.058235 20.96289,28.58305 12.589863,38.21587"
                   id="path7278" />
                <path
                   style="fill:#ffffff;fill-opacity:0;fill-rule:evenodd"
                   inkscape:connector-curvature="0"
                   d="m 15.065661,74.89346 c 3.811921,0 8.949769,8.17482 6.509049,11.871841"
                   id="path7280" />
                <path
                   style="fill:#ffffff;fill-rule:evenodd;stroke:#999999;stroke-width:1;stroke-linecap:butt;stroke-linejoin:round"
                   inkscape:connector-curvature="0"
                   d="m 15.065661,74.89346 c 3.811921,0 8.949769,8.17482 6.509049,11.871841"
                   id="path7282" />
                <path
                   style="fill:#ffffff;fill-rule:nonzero"
                   inkscape:connector-curvature="0"
                   d="m 6.3412523,84.77132 8.8057737,-9.797691 3.097113,1.204994 2.85302,4.256272 0.979002,4.176109 -0.572178,1.766121 z"
                   id="path7284" />
                <path
                   style="fill:#ffffff;fill-rule:nonzero;stroke:#999999;stroke-width:1;stroke-linecap:butt;stroke-linejoin:round"
                   inkscape:connector-curvature="0"
                   d="m 6.3412523,84.77132 8.8057737,-9.797691 3.097113,1.204994 2.85302,4.256272 0.979002,4.176109 -0.572178,1.766121 z"
                   id="path7286" />
                <path
                   style="fill:#ffffff;fill-opacity:0;fill-rule:evenodd"
                   inkscape:connector-curvature="0"
                   d="m 164,8.936783 c 10.99472,5.33875 20.96289,30.168182 12.58986,40.335213"
                   id="path7288" />
                <path
                   style="fill:#ffffff;fill-rule:evenodd;stroke:#999999;stroke-width:1;stroke-linecap:butt;stroke-linejoin:round"
                   inkscape:connector-curvature="0"
                   d="m 164,8.936783 c 10.99472,5.33875 20.96289,30.168182 12.58986,40.335213"
                   id="path7290" />
                <path
                   style="fill:#ffffff;fill-opacity:0;fill-rule:evenodd"
                   inkscape:connector-curvature="0"
                   d="M 183.65097,1.9653884 C 197.80649,5.9488212 204.2132,31.664532 196.04204,43.729075"
                   id="path7292" />
                <path
                   style="fill:#ffffff;fill-rule:evenodd;stroke:#999999;stroke-width:1;stroke-linecap:butt;stroke-linejoin:round"
                   inkscape:connector-curvature="0"
                   d="M 183.65097,1.9653884 C 197.80649,5.9488212 204.2132,31.664532 196.04204,43.729075"
                   id="path7294" />
              </g>
            </g>
          </g>
        </g>
        <g
           transform="translate(91.923882,-18.182746)"
           id="g7296">
          <path
             style="fill:#ffffff;fill-opacity:1"
             d="m 176.08913,421.82249 c -2.88165,-0.32463 -5.42065,-0.62704 -5.64221,-0.67204 -0.27713,-0.0563 0.7927,-1.40528 3.42807,-4.32261 4.12279,-4.56389 3.79844,-4.36017 5.68608,-3.57146 1.75185,0.73197 4.34429,5.94623 4.11738,8.28144 -0.0732,0.7536 -0.13428,0.79557 -1.21353,0.83421 -0.62503,0.0224 -3.49413,-0.22491 -6.37579,-0.54954 z"
             id="path7298"
             inkscape:connector-curvature="0" />
          <path
             style="fill:#ffffff;fill-opacity:1"
             d="m 175.92723,421.81499 c -2.97071,-0.33067 -5.50761,-0.63666 -5.63758,-0.67998 -0.21006,-0.07 6.73757,-8.0049 7.32897,-8.37041 0.13066,-0.0807 0.77137,0.0351 1.42381,0.25739 1.05282,0.35873 1.33871,0.63516 2.54178,2.45766 1.41189,2.13882 2.2418,4.53958 2.09424,6.05817 -0.0732,0.75329 -0.13471,0.79567 -1.21353,0.83595 -0.62503,0.0233 -3.56699,-0.22812 -6.53769,-0.55878 z"
             id="path7300"
             inkscape:connector-curvature="0" />
          <path
             sodipodi:type="star"
             style="fill:#999999;fill-opacity:1"
             id="path7302"
             sodipodi:sides="3"
             sodipodi:cx="176.65044"
             sodipodi:cy="420.57492"
             sodipodi:r1="8.3227501"
             sodipodi:r2="4.1613755"
             sodipodi:arg1="0.94701952"
             sodipodi:arg2="1.9942171"
             inkscape:flatsided="false"
             inkscape:rounded="0"
             inkscape:randomized="0"
             d="m 181.5118,427.33032 -6.5712,-2.96152 -6.57119,-2.96152 5.85035,-4.21006 5.85034,-4.21006 0.72085,7.17158 z"
             inkscape:transform-center-x="0.99243145"
             inkscape:transform-center-y="-1.609225"
             transform="matrix(1.1108876,-0.3047859,0.23906678,0.83439739,-120.43919,121.70137)" />
          <ellipse
             style="fill:#999999;fill-opacity:1"
             id="ellipse7304"
             cx="20.463949"
             cy="454.72006"
             rx="2.7393048"
             ry="5.951479"
             transform="matrix(0.94506792,-0.32687402,0.35546116,0.93469105,0,0)" />
        </g>
      </g>
      <text
         transform="matrix(0.79282689,-0.6094469,0.6094469,0.79282689,0,0)"
         sodipodi:linespacing="125%"
         id="text7314"
         y="546.2724"
         x="268.74902"
         style="font-style:normal;font-variant:normal;font-weight:normal;font-stretch:normal;font-size:25px;line-height:125%;font-family:'Coming Soon';-inkscape-font-specification:'Coming Soon';letter-spacing:0px;word-spacing:0px;fill:#999999;fill-opacity:1;stroke:none;stroke-width:1px;stroke-linecap:butt;stroke-linejoin:miter;stroke-opacity:1"
         xml:space="preserve"><tspan
           style="fill:#999999;fill-opacity:1"
           y="546.2724"
           x="268.74902"
           id="tspan7316"
           sodipodi:role="line">SCSS</tspan></text>
    </g>
  </g>
</svg>
