<?xml version="1.0" encoding="UTF-8" standalone="no"?>
<!-- Created with Inkscape (http://www.inkscape.org/) -->

<svg
   xmlns:dc="http://purl.org/dc/elements/1.1/"
   xmlns:cc="http://creativecommons.org/ns#"
   xmlns:rdf="http://www.w3.org/1999/02/22-rdf-syntax-ns#"
   xmlns:svg="http://www.w3.org/2000/svg"
   xmlns="http://www.w3.org/2000/svg"
   xmlns:sodipodi="http://sodipodi.sourceforge.net/DTD/sodipodi-0.dtd"
   xmlns:inkscape="http://www.inkscape.org/namespaces/inkscape"
   id="svg3377"
   version="1.1"
   inkscape:version="0.91 r"
   width="160"
   height="160"
   viewBox="0 0 160 160"
   sodipodi:docname="social_linkedin.svg">
  <metadata
     id="metadata3383">
    <rdf:RDF>
      <cc:Work
         rdf:about="">
        <dc:format>image/svg+xml</dc:format>
        <dc:type
           rdf:resource="http://purl.org/dc/dcmitype/StillImage" />
        <dc:title />
      </cc:Work>
    </rdf:RDF>
  </metadata>
  <defs
     id="defs3381">
    <filter
       inkscape:label="Opacity"
       style="color-interpolation-filters:sRGB;"
       id="filter3405">
      <feColorMatrix
         values="1 0 0 0 0 0 1 0 0 0 0 0 1 0 0 0 0 0 5 -1 "
         result="colormatrix"
         id="feColorMatrix3407" />
      <feComposite
         in2="colormatrix"
         operator="arithmetic"
         k2="0.57754"
         result="fbSourceGraphic"
         id="feComposite3409" />
      <feColorMatrix
         result="fbSourceGraphicAlpha"
         in="fbSourceGraphic"
         values="0 0 0 -1 0 0 0 0 -1 0 0 0 0 -1 0 0 0 0 1 0"
         id="feColorMatrix3411" />
      <feColorMatrix
         id="feColorMatrix3413"
         values="1 0 0 0 0 0 1 0 0 0 0 0 1 0 0 0 0 0 5 -1 "
         result="colormatrix"
         in="fbSourceGraphic" />
      <feComposite
         id="feComposite3415"
         in2="colormatrix"
         operator="arithmetic"
         k2="0.58"
         result="fbSourceGraphic" />
      <feColorMatrix
         result="fbSourceGraphicAlpha"
         in="fbSourceGraphic"
         values="0 0 0 -1 0 0 0 0 -1 0 0 0 0 -1 0 0 0 0 1 0"
         id="feColorMatrix3417" />
      <feColorMatrix
         id="feColorMatrix3419"
         values="1 0 0 0 0 0 1 0 0 0 0 0 1 0 0 0 0 0 5 -1 "
         result="colormatrix"
         in="fbSourceGraphic" />
      <feComposite
         id="feComposite3421"
         in2="colormatrix"
         operator="arithmetic"
         k2="0.47"
         result="fbSourceGraphic" />
      <feColorMatrix
         result="fbSourceGraphicAlpha"
         in="fbSourceGraphic"
         values="0 0 0 -1 0 0 0 0 -1 0 0 0 0 -1 0 0 0 0 1 0"
         id="feColorMatrix3423" />
      <feColorMatrix
         id="feColorMatrix3425"
         values="1 0 0 0 0 0 1 0 0 0 0 0 1 0 0 0 0 0 5 -1 "
         result="colormatrix"
         in="fbSourceGraphic" />
      <feComposite
         id="feComposite3427"
         in2="colormatrix"
         operator="arithmetic"
         k2="0.47"
         result="composite" />
    </filter>
  </defs>
  <sodipodi:namedview
     pagecolor="#ffffff"
     bordercolor="#666666"
     borderopacity="1"
     objecttolerance="10"
     gridtolerance="10"
     guidetolerance="10"
     inkscape:pageopacity="0"
     inkscape:pageshadow="2"
     inkscape:window-width="664"
     inkscape:window-height="480"
     id="namedview3379"
     showgrid="false"
     inkscape:zoom="1.475"
     inkscape:cx="52.881356"
     inkscape:cy="88.135593"
     inkscape:window-x="57"
     inkscape:window-y="34"
     inkscape:window-maximized="0"
     inkscape:current-layer="svg3377" />
  <path
     style="fill:#808080;fill-opacity:1;stroke:#808080;stroke-width:3.91493607;stroke-miterlimit:4;stroke-dasharray:none;stroke-opacity:1"
     d="M 6.6312294,154.13546 C 6.1751295,153.65879 5.8019571,130.27222 5.8019571,102.16528 l 0,-51.10353 17.6518249,0.346103 17.651824,0.346113 0,51.278544 0,51.27853 -16.822553,0.34555 c -9.252402,0.19004 -17.1957238,-0.0444 -17.6518236,-0.52113 z m 31.1975806,-51.41563 0.313401,-47.839125 -14.375024,0 -14.3750283,0 0,47.318005 c 0,26.02491 0.3756626,47.7106 0.8348063,48.19045 0.459142,0.47984 6.786872,0.71435 14.061622,0.52111 l 13.226818,-0.35131 0.313405,-47.83913 z m 17.995019,51.54785 c -0.38652,-0.40394 -0.477256,-23.63479 -0.201637,-51.62408 l 0.501123,-50.889634 17.323373,-0.346113 17.323374,-0.346103 0,4.326288 0,4.326298 6.06988,-4.268916 c 7.898438,-5.554931 14.254898,-7.266394 23.848458,-6.421134 12.76179,1.124396 21.83619,6.704261 28.29655,17.399614 5.67644,9.3975 6.47521,16.383288 6.12913,53.6033 l -0.31876,34.28384 -16.75428,0 -16.75428,0 -0.59836,-32.51809 c -0.50135,-27.246238 -0.92334,-33.137607 -2.6029,-36.339369 -3.60567,-6.873535 -12.68137,-8.880953 -19.75947,-4.370512 -6.69849,4.268525 -6.90598,5.386437 -7.555968,40.709881 l -0.598367,32.51809 -16.822553,0.34555 c -9.252403,0.19004 -17.138795,0.015 -17.525313,-0.38891 z M 87.17986,119.06693 c 0.557067,-29.318389 0.768673,-31.73018 3.065779,-34.942219 8.739885,-12.220971 24.543851,-12.217489 30.801631,0.007 2.47316,4.831169 2.6567,7.022178 3.02422,36.098079 l 0.39127,30.95473 13.73776,0 13.73776,0 -0.36659,-35.95752 C 151.2204,80.769282 151.09025,79.008762 148.45116,73.016097 142.89462,60.398704 133.63422,53.643165 120.5493,52.661478 c -10.52819,-0.789869 -18.51374,1.996602 -24.9255,8.697471 -2.669555,2.789933 -4.853738,5.569199 -4.853738,6.176157 0,0.606959 -0.807796,1.103555 -1.795101,1.103555 -1.378057,0 -1.795101,-1.598109 -1.795101,-6.878829 l 0,-6.878828 -14.061623,8.2e-4 -14.061623,8.21e-4 -0.308444,47.004065 c -0.169642,25.85222 0.0074,47.53817 0.39349,48.19102 0.395924,0.66949 6.530166,1.03319 14.070884,0.83423 l 13.36895,-0.3527 0.598366,-31.49203 z M 14.663218,38.741874 C 7.4392465,35.313165 4.1696185,29.119918 4.8770091,20.205079 5.3597825,14.120964 5.9978073,12.654864 9.709989,9.099505 18.299534,0.87282836 30.454493,0.97160032 38.207232,9.3310748 c 3.352571,3.6149432 4.006473,5.3238282 4.382955,11.4542502 0.557003,9.069912 -2.318528,14.433177 -9.587259,17.881577 -6.374639,3.024233 -12.076769,3.047546 -18.33971,0.07494 z M 31.413768,35.62703 C 33.610319,34.667866 36.285673,32.572795 37.359,30.971308 39.930179,27.134913 39.889737,17.550275 37.2856,13.573348 34.668548,9.5767305 33.650044,8.8709598 28.240717,7.3057186 14.526157,3.3372789 3.6135523,16.979025 10.067972,30.023301 c 3.264679,6.597862 13.135114,9.189064 21.345796,5.603729 z"
     id="path5589"
     inkscape:connector-curvature="0" />
</svg>
