<?xml version="1.0" encoding="UTF-8" standalone="no"?>
<!-- Created with Inkscape (http://www.inkscape.org/) -->

<svg
   xmlns:dc="http://purl.org/dc/elements/1.1/"
   xmlns:cc="http://creativecommons.org/ns#"
   xmlns:rdf="http://www.w3.org/1999/02/22-rdf-syntax-ns#"
   xmlns:svg="http://www.w3.org/2000/svg"
   xmlns="http://www.w3.org/2000/svg"
   xmlns:sodipodi="http://sodipodi.sourceforge.net/DTD/sodipodi-0.dtd"
   xmlns:inkscape="http://www.inkscape.org/namespaces/inkscape"
   id="svg4136"
   version="1.1"
   inkscape:version="0.91 r"
   width="511.54709"
   height="512"
   viewBox="0 0 511.54709 512"
   sodipodi:docname="social_skype.svg">
  <metadata
     id="metadata4142">
    <rdf:RDF>
      <cc:Work
         rdf:about="">
        <dc:format>image/svg+xml</dc:format>
        <dc:type
           rdf:resource="http://purl.org/dc/dcmitype/StillImage" />
        <dc:title></dc:title>
      </cc:Work>
    </rdf:RDF>
  </metadata>
  <defs
     id="defs4140" />
  <sodipodi:namedview
     pagecolor="#ffffff"
     bordercolor="#666666"
     borderopacity="1"
     objecttolerance="10"
     gridtolerance="10"
     guidetolerance="10"
     inkscape:pageopacity="0"
     inkscape:pageshadow="2"
     inkscape:window-width="1319"
     inkscape:window-height="744"
     id="namedview4138"
     showgrid="false"
     fit-margin-top="0"
     fit-margin-left="0"
     fit-margin-right="0"
     fit-margin-bottom="0"
     inkscape:zoom="0.975"
     inkscape:cx="308.80259"
     inkscape:cy="307.36379"
     inkscape:window-x="47"
     inkscape:window-y="24"
     inkscape:window-maximized="1"
     inkscape:current-layer="svg4136" />
  <path
     style="fill:#808080;fill-opacity:1"
     d="m 350.61462,511.01909 c -17.77795,-1.42072 -33.88526,-5.74539 -51.07034,-13.71192 l -8.85914,-4.10687 -9.90139,1.24893 c -12.62952,1.59304 -41.22945,1.58329 -54.71822,-0.0187 C 171.17267,487.91148 121.94887,463.93638 82.737094,424.62058 43.236102,385.01481 20.414612,338.35933 13.393912,282.85777 c -1.830202,-14.46858 -1.865013,-44.76902 -0.06712,-58.40572 1.296437,-9.83309 1.285989,-9.94454 -1.514517,-16.1549 C 3.379465,189.59661 -0.05474698,172.17218 6.5902366e-4,148.36766 0.06094902,122.48555 3.351032,107.66495 14.094064,84.88297 33.234145,44.29393 71.148234,13.65641 114.67529,3.6055302 c 28.61228,-6.60689 62.77025,-4.00658996 88.74618,6.7558698 l 9.09475,3.76817 11.46477,-1.40901 c 16.41175,-2.01701 49.1263,-1.71869 64.61962,0.58925 41.99988,6.25643 79.00362,22.03336 114.64772,48.88122 11.31209,8.52052 34.85179,32.37917 43.89183,44.48655 25.10467,33.62283 39.95708,68.74508 46.93936,110.99984 2.22748,13.48018 2.63033,55.05495 0.63855,65.90137 l -1.19234,6.49301 4.58801,9.81812 c 9.76759,20.90202 13.51027,38.65198 13.43215,63.70276 -0.0789,25.33751 -3.44473,40.36642 -14.10059,62.96357 -19.14008,40.58903 -57.05417,71.22654 -100.58123,81.27743 -7.91437,1.82751 -31.62509,4.58893 -35.30582,4.1118 -0.57324,-0.0743 -5.49789,-0.49119 -10.94364,-0.92639 z m 34.53974,-23.44536 c 51.07714,-9.43912 90.97704,-47.9848 102.07791,-98.61334 6.43384,-29.34322 1.20548,-62.84122 -13.8478,-88.72246 l -2.90153,-4.98865 1.60769,-10.64513 c 7.30792,-48.3882 -2.82456,-100.0352 -28.00639,-142.75346 -21.7076,-36.82457 -58.08879,-70.1785 -95.55412,-87.6031 C 306.72581,34.80498 260.91338,28.53667 216.68526,36.20787 l -7.29577,1.26541 -8.33801,-3.92575 C 191.76899,29.1771 177.84113,24.91758 167.35615,23.24259 159.81491,22.03788 138.38238,21.75773 132.0592,22.78122 76.250493,31.81461 35.31623,70.23285 23.789799,124.39586 c -2.550549,11.98508 -2.557377,36.77371 -0.01334,48.46473 2.37013,10.89191 5.91307,21.40658 10.325005,30.64235 l 3.561308,7.45508 -1.898699,12.73998 c -2.155377,14.46215 -2.59564,40.13386 -0.925003,53.93624 2.898094,23.94333 10.109977,49.14509 20.009419,69.92244 33.15743,69.5922 98.730631,116.11822 176.263751,125.06405 12.12866,1.39942 43.25817,0.706 55.50336,-1.23634 l 8.43746,-1.33836 9.28082,4.77152 c 19.56833,10.06056 36.2594,14.18155 57.89097,14.29315 8.68401,0.0448 17.6066,-0.55329 22.92954,-1.53697 z M 226.44155,414.64081 c -49.5243,-6.75735 -86.55239,-33.06012 -98.72038,-70.12567 -7.73121,-23.5504 0.69829,-45.41956 21.4436,-55.63245 6.67078,-3.28401 7.60797,-3.45891 18.53465,-3.45891 10.92669,0 11.86387,0.1749 18.53465,3.45891 8.64451,4.25568 16.48252,12.00521 20.08439,19.85765 1.48001,3.22657 3.24547,7.03903 3.92323,8.47213 1.68871,3.57065 12.86126,8.90826 22.8151,10.89974 10.21681,2.0441 26.75464,2.06931 34.49734,0.0527 11.89613,-3.09858 23.65214,-10.91662 23.65214,-15.72929 0,-5.11367 -10.52338,-8.57666 -59.92949,-19.72133 -54.51431,-12.29691 -87.6974,-35.55537 -98.87735,-69.3044 -5.27978,-15.93807 -5.75223,-39.53676 -1.10591,-55.23935 2.5967,-8.77579 10.23267,-22.79267 16.66496,-30.59084 22.44712,-27.21367 66.99689,-45.20718 106.48962,-43.01082 36.04223,2.00449 70.12018,15.67404 93.85275,37.64675 18.22447,16.87307 25.27214,32.39015 22.21712,48.91619 -4.37526,23.6681 -24.08114,37.78395 -48.62227,34.82948 -10.58235,-1.274 -18.44635,-5.61532 -27.72421,-15.30517 -9.07802,-9.48112 -13.71233,-12.47806 -25.26774,-16.34027 -15.66908,-5.23714 -31.11345,-4.52747 -44.92273,2.0642 -7.90223,3.77201 -10.66066,6.31067 -9.32787,8.58469 2.79045,4.76112 19.8404,10.18213 58.16147,18.49239 52.00265,11.27724 81.37703,29.20111 95.5377,58.29587 7.18839,14.7694 8.70305,21.80428 8.77797,40.76941 0.0471,11.89482 -0.38112,17.25401 -1.79008,22.40842 -10.95512,40.07735 -51.60572,72.48847 -99.90148,79.65247 -13.17639,1.95453 -34.90739,1.98008 -48.99718,0.0575 z m 55.4612,-23.75251 c 22.9947,-5.96726 36.61293,-13.45286 51.55388,-28.33787 7.734,-7.70506 11.43704,-12.32475 14.20263,-17.71828 6.66085,-12.99028 7.65372,-17.22624 7.573,-32.30982 -0.063,-11.7648 -0.43897,-14.65818 -2.85505,-21.96901 -3.50477,-10.60516 -8.98587,-19.10241 -17.2324,-26.71508 -15.22479,-14.05456 -34.49978,-21.71939 -79.4044,-31.57573 -32.60561,-7.15676 -46.2463,-12.00231 -54.71186,-19.43518 -7.13766,-6.26694 -10.28975,-16.65045 -7.82669,-25.78239 3.95971,-14.68088 30.27202,-28.27631 54.65711,-28.24107 24.75712,0.0358 47.33217,9.49937 61.98222,25.98333 5.61502,6.31787 7.3219,7.57088 12.27466,9.01069 6.85872,1.99389 13.36129,0.83666 18.86757,-3.35778 7.57233,-5.76825 10.16939,-17.47096 5.75165,-25.91754 -5.74423,-10.98276 -24.02744,-26.53658 -40.41615,-34.38265 -29.65854,-14.19899 -61.57373,-17.46567 -90.09657,-9.22185 -38.86359,11.23257 -62.30603,34.50577 -65.60977,65.13612 -3.41816,31.69151 10.87957,55.29117 42.8757,70.77012 11.75793,5.68817 30.26967,11.53975 50.81666,16.06315 35.59014,7.83515 50.6518,12.82632 59.82939,19.82641 8.50106,6.48408 11.64754,21.49307 6.61732,31.56512 -5.21837,10.44878 -21.22922,21.04932 -38.32034,25.37129 -7.57688,1.91603 -10.75725,2.13101 -24.91993,1.68443 -32.62247,-1.02864 -52.27024,-10.3437 -59.00782,-27.97575 -4.27472,-11.18683 -10.97855,-16.59501 -20.5101,-16.54612 -12.49046,0.0641 -23.15077,12.07194 -21.04364,23.70378 2.2397,12.36368 9.76646,25.23892 20.68451,35.38284 20.82528,19.34868 50.82865,28.86982 88.13538,27.96852 12.92582,-0.31228 18.14935,-0.90787 26.13304,-2.97968 z"
     id="path4146"
     inkscape:connector-curvature="0" />
</svg>
