<?xml version="1.0" encoding="UTF-8" standalone="no"?>
<!-- Generator: Adobe Illustrator 16.2.1, SVG Export Plug-In . SVG Version: 6.00 Build 0)  -->

<svg
   xmlns:dc="http://purl.org/dc/elements/1.1/"
   xmlns:cc="http://creativecommons.org/ns#"
   xmlns:rdf="http://www.w3.org/1999/02/22-rdf-syntax-ns#"
   xmlns:svg="http://www.w3.org/2000/svg"
   xmlns="http://www.w3.org/2000/svg"
   xmlns:sodipodi="http://sodipodi.sourceforge.net/DTD/sodipodi-0.dtd"
   xmlns:inkscape="http://www.inkscape.org/namespaces/inkscape"
   version="1.1"
   id="Layer_1"
   x="0px"
   y="0px"
   width="512px"
   height="512px"
   viewBox="0 0 512 512"
   style="enable-background:new 0 0 512 512;"
   xml:space="preserve"
   inkscape:version="0.91 r"
   sodipodi:docname="social_twitter.svg"><metadata
     id="metadata9"><rdf:RDF><cc:Work
         rdf:about=""><dc:format>image/svg+xml</dc:format><dc:type
           rdf:resource="http://purl.org/dc/dcmitype/StillImage" /></cc:Work></rdf:RDF></metadata><defs
     id="defs7" /><sodipodi:namedview
     pagecolor="#ffffff"
     bordercolor="#666666"
     borderopacity="1"
     objecttolerance="10"
     gridtolerance="10"
     guidetolerance="10"
     inkscape:pageopacity="0"
     inkscape:pageshadow="2"
     inkscape:window-width="640"
     inkscape:window-height="480"
     id="namedview5"
     showgrid="false"
     inkscape:zoom="0.4609375"
     inkscape:cx="256"
     inkscape:cy="256"
     inkscape:window-x="57"
     inkscape:window-y="34"
     inkscape:window-maximized="0"
     inkscape:current-layer="Layer_1" /><path
     d="m 492,152.88983 c -17.4,7.7 -36,12.9 -55.6,15.3 20,-12 35.4,-31 42.6,-53.6 -18.7,11.1 -39.4,19.2 -61.5,23.5 -17.7,-18.9 -43,-30.7 -70.7,-30.7 -53.5,0 -96.8,43.4 -96.8,96.9 0,7.6 0.8,15 2.5,22.1 -80.5,-4 -152,-42.6 -199.7,-101.3 -8.3,14.3 -13.1,31 -13.1,48.7 0,33.6 17.1,63.3 43.1,80.7 -15.8,-0.4 -30.8,-4.8 -43.8,-12.1 0,0.4 0,0.8 0,1.2 0,47 33.4,86.1 77.7,95 -8.1,2.2 -16.7,3.4 -25.5,3.4 -6.2,0 -12.3,-0.6 -18.2,-1.8 12.3,38.5 48.1,66.5 90.5,67.3 -33.1,26 -74.9,41.5 -120.3,41.5 -7.8,0 -15.5,-0.5 -23.1,-1.4 42.7,27.8 93.6,43.8 148.2,43.8 178.2,0 275.7,-147.7 275.7,-275.8 0,-4.2 -0.1,-8.4 -0.3,-12.5 18.8,-13.7 35.3,-30.7 48.3,-50.2 z m -57.8,37.2 -7,5.1 0.4,8.6 c 0.2,3.8 0.3,7.8 0.3,11.8 0,30.2 -5.9,61.8 -17,91.5 -11.7,31.2 -28.5,59.4 -50,83.8 -23,26.1 -50.2,46.5 -81.1,60.8 -33.8,15.7 -71.3,23.6 -111.5,23.6 -28.9,0 -57.4,-4.8 -84.5,-14.2 9.9,-1.9 19.6,-4.6 29.1,-7.9 21.7,-7.6 41.9,-18.7 60.1,-33 l 35.3,-27.7 -44.9,-0.8 c -26.1,-0.5 -49.7,-13.4 -64.3,-33.9 7.3,-0.5 14.5,-1.8 21.5,-3.7 l 60.7,-20.2 -61.7,-10.9 c -29.6,-5.9 -52.8,-27.9 -61.3,-55.8 7.8,2 15.4,2.8 23.9,3.3 0,0 31.8,1.4 55.8,-0.1 -13,-6.2 -46.4,-29.2 -46.4,-29.2 -22.5,-15.1 -36,-40.2 -36,-67.4 0,-6.4 0.8,-12.8 2.2,-19 21.9,22.4 47,41.1 75.1,55.5 37,19.1 76.9,29.8 118.6,31.9 l 21.2,1.1 -4.8,-20.7 c -1.4,-5.9 -2.1,-12.1 -2.1,-18.5 0,-44.4 36.3,-80.7 80.9,-80.7 22.3,0 43.8,9.3 59,25.6 l 6.1,6.5 8.7,-1.7 c 4.5,-0.9 8.9,-1.9 13.3,-3.1 -1,1.4 -5.7,6.1 -11,10.8 -4.5,4 -17.8,16.5 -17.8,16.5 0,0 13,4.1 21.1,5 8.1,0.9 17.4,-0.6 18.9,-0.8 -2.8,2.3 -7.8,5.8 -10.8,7.9 z"
     id="path3"
     style="fill:#808080"
     inkscape:connector-curvature="0" /></svg>