<?xml version="1.0" encoding="UTF-8" standalone="no"?>
<!-- Generator: Adobe Illustrator 18.0.0, SVG Export Plug-In . SVG Version: 6.00 Build 0)  -->

<svg
   xmlns:osb="http://www.openswatchbook.org/uri/2009/osb"
   xmlns:dc="http://purl.org/dc/elements/1.1/"
   xmlns:cc="http://creativecommons.org/ns#"
   xmlns:rdf="http://www.w3.org/1999/02/22-rdf-syntax-ns#"
   xmlns:svg="http://www.w3.org/2000/svg"
   xmlns="http://www.w3.org/2000/svg"
   xmlns:sodipodi="http://sodipodi.sourceforge.net/DTD/sodipodi-0.dtd"
   xmlns:inkscape="http://www.inkscape.org/namespaces/inkscape"
   version="1.1"
   id="Capa_1"
   x="0px"
   y="0px"
   viewBox="0 0 125 125"
   xml:space="preserve"
   inkscape:version="0.91 r"
   sodipodi:docname="social_wordpress.svg"
   width="125"
   height="125"><metadata
     id="metadata43"><rdf:RDF><cc:Work
         rdf:about=""><dc:format>image/svg+xml</dc:format><dc:type
           rdf:resource="http://purl.org/dc/dcmitype/StillImage" /><dc:title></dc:title></cc:Work></rdf:RDF></metadata><defs
     id="defs41"><linearGradient
       id="linearGradient5921"
       osb:paint="solid"><stop
         style="stop-color:#000000;stop-opacity:1;"
         offset="0"
         id="stop5923" /></linearGradient><marker
       inkscape:stockid="Arrow1Lstart"
       orient="auto"
       refY="0"
       refX="0"
       id="Arrow1Lstart"
       style="overflow:visible"
       inkscape:isstock="true"><path
         id="path4175"
         d="M 0,0 5,-5 -12.5,0 5,5 0,0 Z"
         style="fill-rule:evenodd;stroke:#000000;stroke-width:1pt"
         transform="matrix(0.8,0,0,0.8,10,0)"
         inkscape:connector-curvature="0" /></marker></defs><sodipodi:namedview
     pagecolor="#ffffff"
     bordercolor="#666666"
     borderopacity="1"
     objecttolerance="10"
     gridtolerance="10"
     guidetolerance="10"
     inkscape:pageopacity="0"
     inkscape:pageshadow="2"
     inkscape:window-width="1319"
     inkscape:window-height="744"
     id="namedview39"
     showgrid="false"
     inkscape:zoom="3.5725462"
     inkscape:cx="56.320072"
     inkscape:cy="87.823749"
     inkscape:window-x="47"
     inkscape:window-y="24"
     inkscape:window-maximized="1"
     inkscape:current-layer="Capa_1" /><g
     id="g3"
     style="opacity:1;stroke:#808080;stroke-width:5.03361225;stroke-miterlimit:4;stroke-dasharray:none;stroke-opacity:1"
     transform="matrix(0.96494815,0,0,0.96494815,2.4898505,-56.364272)"><path
       d="m 63.279858,62.740551 c -34.123349,0 -61.8853339,27.636412 -61.8853339,61.606069 0,33.96966 27.7619849,61.60542 61.8853339,61.60542 34.124671,0 61.886652,-27.63641 61.886652,-61.60542 0,-33.969657 -27.761981,-61.606069 -61.886652,-61.606069 z m 0,113.320559 c -28.644348,0 -51.94881,-23.19905 -51.94881,-51.71449 0,-28.51544 23.304462,-51.71449 51.94881,-51.71449 28.645673,0 51.950132,23.19905 51.950132,51.71449 0,28.51544 -23.304459,51.71449 -51.950132,51.71449 z"
       id="path5"
       style="opacity:1;fill:#ffffff;fill-opacity:1;stroke:#808080;stroke-width:5.03361225;stroke-miterlimit:4;stroke-dasharray:none;stroke-opacity:1"
       inkscape:connector-curvature="0" /><path
       d="M 105.03446,107.46697 97.820541,96.580962 c -1.511011,-2.280339 -4.592662,-2.908784 -6.883363,-1.405264 -2.2907,1.504179 -2.922662,4.571887 -1.411647,6.852232 l 5.814185,8.77382 -12.896277,33.83053 -17.695625,-42.11242 c -1.058571,-2.51971 -3.970635,-3.707358 -6.500474,-2.653576 -2.531827,1.053786 -3.725534,3.951366 -2.666301,6.471076 l 5.556505,13.22241 -9.557612,25.07251 -17.696949,-42.11242 c -1.059233,-2.51971 -3.968647,-3.707358 -6.500474,-2.653576 -2.531164,1.054446 -3.724871,3.951366 -2.665637,6.471076 l 22.504901,53.55432 c 0.774387,1.84182 2.582834,3.03671 4.582725,3.03671 0.02782,0 0.05631,-6.5e-4 0.08413,-6.5e-4 2.033014,-0.0336 3.840136,-1.29778 4.56219,-3.19037 l 10.260454,-26.91564 11.37467,27.06995 c 0.773725,1.84182 2.582835,3.03671 4.582726,3.03671 0.02782,0 0.05565,-6.5e-4 0.08347,-6.5e-4 2.033014,-0.0336 3.840136,-1.29778 4.56219,-3.19037 l 18.218942,-47.79281 c 0.56571,-1.48505 0.38024,-3.15146 -0.49881,-4.47759 z"
       id="path7"
       style="opacity:1;fill:#ffffff;fill-opacity:1;stroke:#808080;stroke-width:5.03361225;stroke-miterlimit:4;stroke-dasharray:none;stroke-opacity:1"
       inkscape:connector-curvature="0" /></g><g
     id="g9"
     transform="translate(0,-61.843994)" /><g
     id="g11"
     transform="translate(0,-61.843994)" /><g
     id="g13"
     transform="translate(0,-61.843994)" /><g
     id="g15"
     transform="translate(0,-61.843994)" /><g
     id="g17"
     transform="translate(0,-61.843994)" /><g
     id="g19"
     transform="translate(0,-61.843994)" /><g
     id="g21"
     transform="translate(0,-61.843994)" /><g
     id="g23"
     transform="translate(0,-61.843994)" /><g
     id="g25"
     transform="translate(0,-61.843994)" /><g
     id="g27"
     transform="translate(0,-61.843994)" /><g
     id="g29"
     transform="translate(0,-61.843994)" /><g
     id="g31"
     transform="translate(0,-61.843994)" /><g
     id="g33"
     transform="translate(0,-61.843994)" /><g
     id="g35"
     transform="translate(0,-61.843994)" /><g
     id="g37"
     transform="translate(0,-61.843994)" /></svg>