<?xml version="1.0" standalone="yes"?>

<svg version="1.1" viewBox="0.0 0.0 871.6692913385826 273.1758530183727" fill="none" stroke="none" stroke-linecap="square" stroke-miterlimit="10" xmlns="http://www.w3.org/2000/svg" xmlns:xlink="http://www.w3.org/1999/xlink"><clipPath id="p.0"><path d="m0 0l871.6693 0l0 273.17584l-871.6693 0l0 -273.17584z" clip-rule="nonzero"></path></clipPath><g clip-path="url(#p.0)"><path fill="#000000" fill-opacity="0.0" d="m0 0l871.6693 0l0 273.17584l-871.6693 0z" fill-rule="nonzero"></path><path fill="#000000" fill-opacity="0.0" d="m484.15445 43.825985c-9.161835 1.890091 -19.08081 13.691509 -15.983704 22.169498c3.4509888 9.446686 19.709686 19.994576 27.857971 13.734886c8.337433 -6.405014 17.32315 -20.990631 10.640808 -28.982048c-5.21817 -6.240402 -19.078918 -10.713337 -24.551056 -4.6761017" fill-rule="evenodd"></path><path stroke="#666666" stroke-width="2.0" stroke-linejoin="round" stroke-linecap="butt" d="m484.15445 43.825985c-9.161835 1.890091 -19.08081 13.691509 -15.983704 22.169498c3.4509888 9.446686 19.709686 19.994576 27.857971 13.734886c8.337433 -6.405014 17.32315 -20.990631 10.640808 -28.982048c-5.21817 -6.240402 -19.078918 -10.713337 -24.551056 -4.6761017" fill-rule="evenodd"></path><path fill="#000000" fill-opacity="0.0" d="m485.56665 82.653c-8.149109 30.38089 -63.434143 31.088783 -95.13052 23.2779" fill-rule="evenodd"></path><path stroke="#666666" stroke-width="2.0" stroke-linejoin="round" stroke-linecap="butt" d="m485.56665 82.653c-8.149109 30.38089 -63.434143 31.088783 -95.13052 23.2779" fill-rule="evenodd"></path><path fill="#000000" fill-opacity="0.0" d="m485.56726 82.651855l13.603973 29.480309" fill-rule="nonzero"></path><path stroke="#666666" stroke-width="2.0" stroke-linejoin="round" stroke-linecap="butt" d="m485.56726 82.651855l13.603973 29.480309" fill-rule="nonzero"></path><path fill="#000000" fill-opacity="0.0" d="m500.08844 76.6122l-0.55862427 34.204727" fill-rule="nonzero"></path><path stroke="#666666" stroke-width="2.0" stroke-linejoin="round" stroke-linecap="butt" d="m500.08844 76.6122l-0.55862427 34.204727" fill-rule="nonzero"></path><path fill="#000000" fill-opacity="0.0" d="m499.39706 79.1898l11.0737915 1.354332" fill-rule="nonzero"></path><path stroke="#666666" stroke-width="2.0" stroke-linejoin="round" stroke-linecap="butt" d="m499.39706 79.1898l11.0737915 1.354332" fill-rule="nonzero"></path><path fill="#000000" fill-opacity="0.0" d="m392.02292 96.01883c11.120148 -6.647415 24.444885 -23.738907 34.71521 -16.856598c9.976257 6.685257 17.15863 17.144333 24.975677 26.484642" fill-rule="evenodd"></path><path stroke="#666666" stroke-width="2.0" stroke-linejoin="round" stroke-linecap="butt" d="m392.02292 96.01883c11.120148 -6.647415 24.444885 -23.738907 34.71521 -16.856598c9.976257 6.685257 17.15863 17.144333 24.975677 26.484642" fill-rule="evenodd"></path><path fill="#000000" fill-opacity="0.0" d="m489.60074 83.64689c-18.249634 -1.737793 -37.105896 0.47663116 -54.867737 -3.9003906c-6.6632385 -1.6420135 -23.821686 -9.700333 -17.095184 -11.08535" fill-rule="evenodd"></path><path stroke="#666666" stroke-width="2.0" stroke-linejoin="round" stroke-linecap="butt" d="m489.60074 83.64689c-18.249634 -1.737793 -37.105896 0.47663116 -54.867737 -3.9003906c-6.6632385 -1.6420135 -23.821686 -9.700333 -17.095184 -11.08535" fill-rule="evenodd"></path><path fill="#000000" fill-opacity="0.0" d="m475.66077 69.90543c-2.6800842 -0.66064453 4.50473 3.580803 7.2514954 3.7283478c5.441681 0.29232025 11.796692 -1.9884262 14.240631 -5.9790497" fill-rule="evenodd"></path><path stroke="#666666" stroke-width="2.0" stroke-linejoin="round" stroke-linecap="butt" d="m475.66077 69.90543c-2.6800842 -0.66064453 4.50473 3.580803 7.2514954 3.7283478c5.441681 0.29232025 11.796692 -1.9884262 14.240631 -5.9790497" fill-rule="evenodd"></path><path fill="#cfe2f3" d="m515.7287 73.4067c-7.350586 1.5909882 41.02002 29.318024 5.6902466 35.454063c-35.329834 6.1360474 -151.75134 -0.22878265 -217.6691 1.3622055c-65.917755 1.5909882 -143.21872 -7.0437393 -177.83746 8.183731c-34.61876 15.22747 -58.328957 63.863075 -29.875076 83.1811c28.453888 19.318024 117.13439 31.818024 200.59839 32.727036c83.46402 0.90901184 217.90729 -22.95494 300.1856 -27.272964c82.27832 -4.3180237 158.15442 14.546799 193.48425 1.3648224c35.329773 -13.181976 34.38098 -61.592728 18.494629 -80.45669c-15.886414 -18.863953 -73.26654 -27.954506 -113.812805 -32.727036c-40.546326 -4.7725296 -99.58862 7.727913 -129.46509 4.0918655c-29.876404 -3.6360474 -42.443054 -27.499123 -49.79358 -25.908134z" fill-rule="nonzero"></path><path stroke="#000000" stroke-width="1.0" stroke-linejoin="round" stroke-linecap="butt" d="m515.7287 73.4067c-7.350586 1.5909882 41.02002 29.318024 5.6902466 35.454063c-35.329834 6.1360474 -151.75134 -0.22878265 -217.6691 1.3622055c-65.917755 1.5909882 -143.21872 -7.0437393 -177.83746 8.183731c-34.61876 15.22747 -58.328957 63.863075 -29.875076 83.1811c28.453888 19.318024 117.13439 31.818024 200.59839 32.727036c83.46402 0.90901184 217.90729 -22.95494 300.1856 -27.272964c82.27832 -4.3180237 158.15442 14.546799 193.48425 1.3648224c35.329773 -13.181976 34.38098 -61.592728 18.494629 -80.45669c-15.886414 -18.863953 -73.26654 -27.954506 -113.812805 -32.727036c-40.546326 -4.7725296 -99.58862 7.727913 -129.46509 4.0918655c-29.876404 -3.6360474 -42.443054 -27.499123 -49.79358 -25.908134z" fill-rule="nonzero"></path><path fill="#000000" fill-opacity="0.0" d="m78.01733 126.476364l741.44946 0l0 75.81102l-741.44946 0z" fill-rule="nonzero"></path><path fill="#666666" d="m134.40613 158.36073q0 0.75 0.09375 2.125q0.109375 1.359375 0.234375 2.984375q0.140625 1.609375 0.296875 3.3125q0.15625 1.703125 0.296875 3.09375q0.140625 1.375 0.234375 2.296875q0.09375 0.921875 0.09375 0.953125q0 0.4375 -0.28125 0.75q-0.265625 0.3125 -0.8125 0.359375q-0.421875 0 -0.71875 -0.28125q-0.296875 -0.28125 -0.328125 -0.703125q0 -0.125 -0.109375 -0.875q-0.09375 -0.765625 -0.21875 -1.921875q-0.109375 -1.15625 -0.265625 -2.59375q-0.15625 -1.453125 -0.296875 -2.9375q-0.125 -1.484375 -0.25 -2.84375q-0.109375 -1.375 -0.15625 -2.421875q-0.03125 0 -1.8125 -0.265625q-1.78125 -0.28125 -4.8281326 -0.28125q-1.125 0 -2.328125 0.078125q-1.1875 0.078125 -2.28125 0.171875q-1.09375 0.09375 -2.03125 0.203125q-0.9375 0.09375 -1.5625 0.171875q0.046875 1.015625 0.15625 2.40625q0.125 1.375 0.25 2.859375q0.140625 1.484375 0.28125 2.921875q0.140625 1.421875 0.25 2.578125q0.125 1.140625 0.203125 1.875q0.078125 0.71875 0.078125 0.75q0 0.4375 -0.28125 0.75q-0.265625 0.3125 -0.8125 0.359375q-0.4375 0 -0.734375 -0.28125q-0.28125 -0.28125 -0.328125 -0.703125q-0.03125 -0.125 -0.140625 -1.0625q-0.09375 -0.9375 -0.234375 -2.3125q-0.125 -1.390625 -0.28125 -3.0625q-0.15625 -1.6875 -0.296875 -3.3125q-0.140625 -1.625 -0.234375 -2.984375q-0.09375 -1.375 -0.09375 -2.15625q0 -1.171875 -0.109375 -3.0q-0.09375 -1.84375 -0.25 -3.765625q-0.15625 -1.9375 -0.359375 -3.6875q-0.1875 -1.765625 -0.375 -2.828125q0 -0.390625 0.265625 -0.703125q0.28125 -0.3125 0.828125 -0.390625q0.390625 0 0.671875 0.234375q0.296875 0.234375 0.375 0.625q0.203125 1.015625 0.390625 2.640625q0.203125 1.625 0.328125 3.4375q0.140625 1.8125 0.234375 3.578125q0.109375 1.75 0.140625 3.0q0.671875 -0.078125 1.609375 -0.171875q0.9375 -0.09375 2.046875 -0.1875q1.109375 -0.109375 2.296875 -0.15625q1.203125 -0.0625 2.328125 -0.0625q2.5000076 0 4.2031326 0.203125q1.703125 0.1875 2.40625 0.296875q-0.046875 -1.328125 -0.140625 -3.0625q-0.09375 -1.734375 -0.25 -3.46875q-0.15625 -1.75 -0.34375 -3.3125q-0.171875 -1.5625 -0.328125 -2.5q0 -0.390625 0.265625 -0.703125q0.28125 -0.3125 0.828125 -0.390625q0.390625 0 0.6875 0.234375q0.296875 0.234375 0.375 0.625q0.234375 1.09375 0.421875 2.921875q0.203125 1.8125 0.359375 3.8125q0.15625 1.984375 0.25 3.84375q0.09375 1.84375 0.09375 2.9375zm13.40625 14.140625q0.734375 0 1.890625 -0.71875q1.15625 -0.71875 2.25 -2.03125q1.09375 -1.3125 1.875 -3.140625q0.78125 -1.84375 0.78125 -4.109375q0 -2.1875 -0.53125 -3.84375q-0.53125 -1.65625 -1.21875 -2.8125q-0.671875 -1.15625 -1.359375 -1.734375q-0.6875 -0.59375 -1.0 -0.671875q-0.65625 0 -1.1875 0.109375q-0.53125 0.09375 -0.71875 0.125q-0.46875 0 -0.859375 -0.390625q-0.984375 0.390625 -2.046875 1.765625q-1.046875 1.359375 -1.953125 3.1875q-0.890625 1.8125 -1.484375 3.859375q-0.578125 2.046875 -0.578125 3.765625q0 1.796875 0.625 3.078125q0.625 1.265625 1.5625 2.046875q0.9375 0.78125 1.984375 1.15625q1.0625 0.359375 1.96875 0.359375zm2.734375 -21.25q0.8125 0 1.890625 0.8125q1.078125 0.796875 2.03125 2.265625q0.953125 1.453125 1.640625 3.53125q0.6875 2.0625 0.6875 4.640625q0 2.625 -0.90625 4.859375q-0.890625 2.21875 -2.25 3.859375q-1.34375 1.640625 -2.921875 2.5625q-1.578125 0.921875 -2.90625 0.921875q-1.53125 0 -3.015625 -0.59375q-1.484375 -0.59375 -2.65625 -1.703125q-1.171875 -1.109375 -1.921875 -2.75q-0.734375 -1.640625 -0.734375 -3.796875q0 -1.359375 0.34375 -3.0q0.359375 -1.640625 0.96875 -3.296875q0.609375 -1.671875 1.4375 -3.203125q0.84375 -1.546875 1.8125 -2.75q0.984375 -1.21875 2.078125 -1.9375q1.09375 -0.734375 2.234375 -0.734375q0.421875 0 0.75 0.109375q0.34375 0.09375 0.609375 0.25q0.203125 0 0.390625 -0.015625q0.203125 -0.03125 0.4375 -0.03125zm13.15625 5.125q0 1.25 0.15625 3.015625q0.15625 1.75 0.375 3.671875q0.21875 1.90625 0.46875 3.796875q0.25 1.890625 0.484375 3.4375q0.234375 1.546875 0.390625 2.53125q0.15625 0.96875 0.15625 1.046875q0 0.90625 -1.09375 1.09375q-0.421875 0 -0.71875 -0.25q-0.296875 -0.25 -0.375 -0.6875q-0.03125 -0.109375 -0.1875 -1.125q-0.15625 -1.03125 -0.375 -2.546875q-0.21875 -1.53125 -0.46875 -3.421875q-0.25 -1.890625 -0.484375 -3.828125q-0.234375 -1.9375 -0.375 -3.6875q-0.140625 -1.765625 -0.140625 -3.046875q0 -1.875 -0.125 -3.984375q-0.109375 -2.109375 -0.234375 -3.921875q-0.109375 -1.828125 -0.234375 -3.03125q-0.109375 -1.21875 -0.109375 -1.296875q0 -0.421875 0.265625 -0.71875q0.28125 -0.296875 0.828125 -0.375q0.4375 0 0.71875 0.296875q0.296875 0.296875 0.375 0.71875q0 0.125 0.109375 1.34375q0.125 1.203125 0.234375 3.015625q0.125 1.8125 0.234375 3.921875q0.125 2.109375 0.125 4.03125zm19.851562 12.890625q0.1875 -0.28125 0.578125 -0.390625q-0.234375 -1.53125 -0.453125 -3.265625q-0.203125 -1.734375 -0.390625 -3.4375q-0.171875 -1.703125 -0.296875 -3.234375q-0.109375 -1.546875 -0.109375 -2.6875q0 -0.265625 0 -0.53125q0 -0.28125 -0.03125 -0.59375q-0.625 -0.203125 -0.75 -0.90625q0 -0.078125 -0.09375 -0.25q-0.09375 -0.171875 -0.40625 -0.328125q-0.3125 -0.15625 -0.75 -0.15625q-0.421875 0 -0.859375 0.140625q-0.421875 0.125 -0.78125 0.28125q-1.09375 0.515625 -2.234375 1.5q-1.125 0.96875 -2.125 2.1875q-0.984375 1.203125 -1.75 2.546875q-0.765625 1.34375 -1.109375 2.59375q-0.28125 1.0625 -0.28125 2.15625q0 1.359375 0.453125 2.53125q0.453125 1.171875 1.125 2.109375q0.6875 0.9375 1.5 1.59375q0.828125 0.640625 1.578125 0.984375q0.46875 0.234375 1.203125 0.234375q1.296875 0 2.953125 -0.71875q1.65625 -0.71875 3.03125 -2.359375zm1.515625 -13.015625q0 1.25 0.140625 3.015625q0.140625 1.75 0.375 3.671875q0.234375 1.90625 0.484375 3.8125q0.25 1.890625 0.46875 3.4375q0.21875 1.53125 0.375 2.515625q0.15625 0.96875 0.15625 1.046875q0 0.40625 -0.28125 0.71875q-0.265625 0.3125 -0.8125 0.390625q-0.390625 0 -0.703125 -0.265625q-0.3125 -0.25 -0.390625 -0.671875q0 -0.09375 -0.109375 -0.75q-0.09375 -0.671875 -0.25 -1.765625q-1.59375 1.640625 -3.4375 2.390625q-1.828125 0.75 -3.46875 0.75q-1.328125 0 -2.15625 -0.4375q-1.171875 -0.546875 -2.25 -1.46875q-1.0625 -0.921875 -1.890625 -2.109375q-0.8125 -1.1875 -1.3125 -2.625q-0.484375 -1.453125 -0.484375 -3.0625q0 -1.28125 0.359375 -2.6875q0.390625 -1.484375 1.265625 -3.046875q0.875 -1.5625 2.0 -2.921875q1.140625 -1.375 2.46875 -2.484375q1.328125 -1.125 2.65625 -1.75q1.40625 -0.65625 2.578125 -0.65625q0.46875 0 0.890625 0.09375q0.4375 0.09375 0.984375 0.375q-0.078125 -1.453125 -0.171875 -2.8125q-0.09375 -1.375 -0.203125 -2.4375q-0.09375 -1.078125 -0.15625 -1.734375q-0.046875 -0.671875 -0.046875 -0.75q0 -0.4375 0.28125 -0.71875q0.296875 -0.296875 0.8125 -0.375q0.421875 0 0.71875 0.296875q0.296875 0.28125 0.375 0.71875q0 0.109375 0.109375 1.328125q0.125 1.203125 0.25 3.0q0.140625 1.796875 0.25 3.9375q0.125 2.125 0.125 4.03125zm37.820312 -4.609375q0.546875 0.3125 0.546875 0.9375q0 0.359375 -0.15625 0.546875l-0.3125 0.546875q-0.3125 0.59375 -0.78125 1.46875q-0.46875 0.875 -1.015625 1.921875q-0.546875 1.03125 -1.015625 2.0q-0.390625 0.828125 -0.515625 1.359375q-0.109375 0.515625 -0.1875 1.109375q-0.078125 0.390625 -0.140625 0.828125q-0.0625 0.421875 -0.203125 0.984375q-0.125 0.5625 -0.359375 1.265625q-0.234375 0.703125 -0.625 1.609375q-0.859375 1.953125 -1.09375 3.21875q-0.234375 1.265625 -0.390625 2.515625l-0.078125 1.0625q0 0.265625 -0.125 0.5q-0.078125 0.4375 -0.15625 0.890625q-0.078125 0.453125 -0.1875 1.0q-0.3125 1.328125 -0.578125 2.15625q-0.25 0.84375 -0.515625 1.625q-0.3125 0.90625 -0.65625 2.0q-0.328125 1.09375 -0.71875 3.0q-0.34375 1.765625 -0.625 3.265625q-0.265625 1.5 -0.421875 2.59375q-0.15625 1.09375 -0.234375 1.71875l-0.078125 0.625q-0.078125 0.4375 -0.390625 0.6875q-0.3125 0.25 -0.828125 0.25q-0.96875 -0.109375 -0.96875 -1.203125q0 -0.046875 0.09375 -0.6875q0.09375 -0.640625 0.25 -1.765625q0.15625 -1.109375 0.421875 -2.609375q0.28125 -1.5 0.640625 -3.296875q0.1875 -1.015625 0.375 -1.796875q0.203125 -0.78125 0.375 -1.40625q0.1875 -0.625 0.359375 -1.140625q0.171875 -0.5 0.328125 -0.96875q0.28125 -0.75 0.515625 -1.53125q0.234375 -0.78125 0.5 -1.984375q0.125 -0.46875 0.171875 -0.890625q0.0625 -0.40625 0.140625 -0.796875q-0.390625 -0.546875 -1.078125 -1.546875q-0.671875 -1.0 -1.296875 -2.09375q-0.359375 -0.625 -1.03125 -1.609375q-0.65625 -1.0 -1.375 -2.046875q-0.71875 -1.0625 -1.40625 -2.015625q-0.6875 -0.96875 -1.078125 -1.546875l-0.3125 -0.46875q-0.234375 -0.3125 -0.609375 -1.203125q-0.359375 -0.90625 -1.109375 -2.78125q-0.3125 -0.75 -0.625 -1.53125q-0.3125 -0.78125 -0.609375 -1.5q-0.28125 -0.71875 -0.5625 -1.28125q-0.265625 -0.578125 -0.46875 -0.890625q-0.15625 -0.390625 -0.15625 -0.546875q0 -0.625 0.546875 -0.9375q0.203125 -0.15625 0.546875 -0.15625q0.671875 0 0.9375 0.515625q0.4375 0.734375 1.09375 2.28125q0.671875 1.546875 1.328125 3.265625q0.234375 0.546875 0.453125 1.109375q0.21875 0.5625 0.421875 1.0625q0.21875 0.484375 0.375 0.875q0.15625 0.390625 0.234375 0.5l0.3125 0.4375q0.390625 0.578125 1.078125 1.5625q0.6875 0.96875 1.421875 2.0625q0.75 1.09375 1.40625 2.109375q0.671875 1.015625 1.0625 1.640625q0.1875 0.390625 0.4375 0.765625q0.265625 0.375 0.5 0.765625q0.1875 -0.9375 0.484375 -2.046875q0.296875 -1.125 0.921875 -2.609375q0.65625 -1.640625 0.875 -2.546875q0.21875 -0.921875 0.328125 -1.625q0.078125 -0.671875 0.234375 -1.375q0.15625 -0.703125 0.625 -1.71875q0.46875 -0.96875 1.015625 -2.015625q0.546875 -1.0625 1.03125 -1.9375q0.5 -0.890625 0.828125 -1.46875q0.328125 -0.59375 0.375 -0.671875q0.3125 -0.546875 0.9375 -0.546875q0.34375 0 0.546875 0.15625zm10.2734375 20.859375q0.734375 0 1.890625 -0.71875q1.15625 -0.71875 2.25 -2.03125q1.09375 -1.3125 1.875 -3.140625q0.78125 -1.84375 0.78125 -4.109375q0 -2.1875 -0.53125 -3.84375q-0.53125 -1.65625 -1.21875 -2.8125q-0.671875 -1.15625 -1.359375 -1.734375q-0.6875 -0.59375 -1.0 -0.671875q-0.65625 0 -1.1875 0.109375q-0.53125 0.09375 -0.71875 0.125q-0.46875 0 -0.859375 -0.390625q-0.984375 0.390625 -2.046875 1.765625q-1.046875 1.359375 -1.953125 3.1875q-0.890625 1.8125 -1.484375 3.859375q-0.578125 2.046875 -0.578125 3.765625q0 1.796875 0.625 3.078125q0.625 1.265625 1.5625 2.046875q0.9375 0.78125 1.984375 1.15625q1.0625 0.359375 1.96875 0.359375zm2.734375 -21.25q0.8125 0 1.890625 0.8125q1.078125 0.796875 2.03125 2.265625q0.953125 1.453125 1.640625 3.53125q0.6875 2.0625 0.6875 4.640625q0 2.625 -0.90625 4.859375q-0.890625 2.21875 -2.25 3.859375q-1.34375 1.640625 -2.921875 2.5625q-1.578125 0.921875 -2.90625 0.921875q-1.53125 0 -3.015625 -0.59375q-1.484375 -0.59375 -2.65625 -1.703125q-1.171875 -1.109375 -1.921875 -2.75q-0.734375 -1.640625 -0.734375 -3.796875q0 -1.359375 0.34375 -3.0q0.359375 -1.640625 0.96875 -3.296875q0.609375 -1.671875 1.4375 -3.203125q0.84375 -1.546875 1.8125 -2.75q0.984375 -1.21875 2.078125 -1.9375q1.09375 -0.734375 2.234375 -0.734375q0.421875 0 0.75 0.109375q0.34375 0.09375 0.609375 0.25q0.203125 0 0.390625 -0.015625q0.203125 -0.03125 0.4375 -0.03125zm27.84375 13.015625q0.859375 0.1875 0.859375 1.28125q-0.1875 0.78125 -0.53125 1.78125q-0.328125 1.0 -0.875 2.015625q0.234375 1.875 0.421875 3.25q0.203125 1.359375 0.25 1.515625q0 0.4375 -0.28125 0.71875q-0.265625 0.296875 -0.8125 0.375q-0.4375 0 -0.734375 -0.25q-0.28125 -0.25 -0.359375 -0.6875q0 -0.078125 -0.109375 -0.6875q-0.09375 -0.609375 -0.203125 -1.546875q-1.21875 1.375 -2.90625 2.265625q-1.671875 0.90625 -3.890625 0.90625q-1.609375 0 -2.9375 -0.640625q-1.328125 -0.640625 -2.265625 -1.703125q-0.9375 -1.0625 -1.453125 -2.359375q-0.5 -1.3125 -0.5 -2.6875q0 -1.171875 -0.09375 -2.21875q-0.09375 -1.0625 -0.21875 -1.953125q-0.078125 -0.78125 -0.15625 -1.5q-0.078125 -0.734375 -0.078125 -1.4375q0 -0.78125 -0.046875 -1.40625q-0.03125 -0.625 -0.109375 -1.09375q-0.03125 -0.34375 -0.0625 -0.640625q-0.015625 -0.296875 -0.015625 -0.609375q0 -0.546875 -0.140625 -1.125q-0.125 -0.59375 -0.3125 -1.109375q-0.171875 -0.53125 -0.375 -0.953125q-0.1875 -0.4375 -0.296875 -0.671875q-0.15625 -0.203125 -0.15625 -0.515625q0 -0.65625 0.578125 -0.96875q0.234375 -0.125 0.515625 -0.125q0.65625 0 0.96875 0.546875q0 0.046875 0.234375 0.5q0.234375 0.4375 0.484375 1.140625q0.265625 0.703125 0.46875 1.5625q0.21875 0.859375 0.21875 1.71875q0 0.203125 0.015625 0.484375q0.03125 0.265625 0.0625 0.578125q0.078125 0.5 0.109375 1.15625q0.046875 0.640625 0.046875 1.53125q0 0.59375 0.078125 1.234375q0.078125 0.640625 0.15625 1.421875q0.078125 1.015625 0.1875 2.109375q0.125 1.09375 0.125 2.34375q0 0.828125 0.328125 1.734375q0.34375 0.890625 0.96875 1.671875q0.625 0.78125 1.53125 1.296875q0.921875 0.5 2.140625 0.5q1.203125 0 2.171875 -0.34375q0.984375 -0.359375 1.765625 -0.9375q0.78125 -0.59375 1.390625 -1.3125q0.609375 -0.734375 1.03125 -1.515625q-0.1875 -1.4375 -0.328125 -2.875q-0.140625 -1.453125 -0.21875 -2.625q-0.078125 -1.375 -0.296875 -3.125q-0.203125 -1.765625 -0.421875 -3.328125q-0.21875 -1.5625 -0.390625 -2.671875q-0.171875 -1.109375 -0.171875 -1.1875q0 -0.390625 0.265625 -0.703125q0.28125 -0.3125 0.828125 -0.390625q0.390625 0 0.671875 0.25q0.296875 0.25 0.375 0.640625q0 0.125 0.171875 1.21875q0.1875 1.09375 0.421875 2.65625q0.234375 1.5625 0.4375 3.34375q0.21875 1.765625 0.296875 3.171875q0 0.3125 0.015625 0.65625q0.03125 0.328125 0.0625 0.71875q0.203125 -0.203125 0.4375 -0.3125q0.234375 -0.125 0.65625 -0.078125zm15.90625 -12.703125q0.859375 0 1.4375 0.140625q0.59375 0.140625 0.953125 0.3125q0.375 0.171875 0.59375 0.375q0.21875 0.1875 0.296875 0.3125q0.1875 0.265625 0.1875 0.578125q0 0.625 -0.46875 0.90625q-0.234375 0.1875 -0.625 0.1875q-0.46875 0 -0.8125 -0.34375q-0.078125 -0.046875 -0.421875 -0.15625q-0.328125 -0.125 -1.140625 -0.125q-0.46875 0 -1.6875 0.59375q-1.203125 0.578125 -2.453125 1.90625q-1.25 1.328125 -2.25 3.46875q-1.0 2.125 -1.0 5.203125q0.125 0.515625 0.234375 1.046875q0.125 0.515625 0.28125 1.0625q0.421875 1.765625 0.84375 3.6875q0.4375 1.90625 0.4375 3.90625q0 0.46875 -0.328125 0.78125q-0.328125 0.3125 -0.765625 0.3125q-0.46875 0 -0.78125 -0.3125q-0.3125 -0.3125 -0.3125 -0.78125q0 -1.8125 -0.390625 -3.609375q-0.390625 -1.796875 -0.8125 -3.4375q-0.390625 -1.4375 -0.6875 -2.78125q-0.296875 -1.359375 -0.296875 -2.484375q0 -1.140625 -0.15625 -2.859375q-0.15625 -1.71875 -0.375 -3.328125q-0.203125 -1.625 -0.359375 -2.8125q-0.15625 -1.203125 -0.15625 -1.28125q0 -0.390625 0.265625 -0.703125q0.28125 -0.3125 0.828125 -0.390625q0.390625 0 0.671875 0.265625q0.296875 0.25 0.375 0.671875q0 0.078125 0.09375 0.65625q0.109375 0.5625 0.21875 1.421875q0.125 0.859375 0.25 1.953125q0.140625 1.09375 0.265625 2.1875q0.78125 -1.609375 1.84375 -2.828125q1.078125 -1.234375 2.203125 -2.046875q1.140625 -0.828125 2.1875 -1.234375q1.0625 -0.421875 1.8125 -0.421875zm38.507812 6.796875q0 0.75 0.09375 2.125q0.109375 1.359375 0.234375 2.984375q0.140625 1.609375 0.296875 3.3125q0.15625 1.703125 0.296875 3.09375q0.140625 1.375 0.234375 2.296875q0.09375 0.921875 0.09375 0.953125q0 0.4375 -0.28125 0.75q-0.265625 0.3125 -0.8125 0.359375q-0.421875 0 -0.71875 -0.28125q-0.296875 -0.28125 -0.328125 -0.703125q0 -0.125 -0.109375 -0.875q-0.09375 -0.765625 -0.21875 -1.921875q-0.109375 -1.15625 -0.265625 -2.59375q-0.15625 -1.453125 -0.296875 -2.9375q-0.125 -1.484375 -0.25 -2.84375q-0.109375 -1.375 -0.15625 -2.421875q-0.03125 0 -1.8125 -0.265625q-1.78125 -0.28125 -4.828125 -0.28125q-1.125 0 -2.328125 0.078125q-1.1875 0.078125 -2.28125 0.171875q-1.09375 0.09375 -2.03125 0.203125q-0.9375 0.09375 -1.5625 0.171875q0.046875 1.015625 0.15625 2.40625q0.125 1.375 0.25 2.859375q0.140625 1.484375 0.28125 2.921875q0.140625 1.421875 0.25 2.578125q0.125 1.140625 0.203125 1.875q0.078125 0.71875 0.078125 0.75q0 0.4375 -0.28125 0.75q-0.265625 0.3125 -0.8125 0.359375q-0.4375 0 -0.734375 -0.28125q-0.28125 -0.28125 -0.328125 -0.703125q-0.03125 -0.125 -0.140625 -1.0625q-0.09375 -0.9375 -0.234375 -2.3125q-0.125 -1.390625 -0.28125 -3.0625q-0.15625 -1.6875 -0.296875 -3.3125q-0.140625 -1.625 -0.234375 -2.984375q-0.09375 -1.375 -0.09375 -2.15625q0 -1.171875 -0.109375 -3.0q-0.09375 -1.84375 -0.25 -3.765625q-0.15625 -1.9375 -0.359375 -3.6875q-0.1875 -1.765625 -0.375 -2.828125q0 -0.390625 0.265625 -0.703125q0.28125 -0.3125 0.828125 -0.390625q0.390625 0 0.671875 0.234375q0.296875 0.234375 0.375 0.625q0.203125 1.015625 0.390625 2.640625q0.203125 1.625 0.328125 3.4375q0.140625 1.8125 0.234375 3.578125q0.109375 1.75 0.140625 3.0q0.671875 -0.078125 1.609375 -0.171875q0.9375 -0.09375 2.046875 -0.1875q1.109375 -0.109375 2.296875 -0.15625q1.203125 -0.0625 2.328125 -0.0625q2.5 0 4.203125 0.203125q1.703125 0.1875 2.40625 0.296875q-0.046875 -1.328125 -0.140625 -3.0625q-0.09375 -1.734375 -0.25 -3.46875q-0.15625 -1.75 -0.34375 -3.3125q-0.171875 -1.5625 -0.328125 -2.5q0 -0.390625 0.265625 -0.703125q0.28125 -0.3125 0.828125 -0.390625q0.390625 0 0.6875 0.234375q0.296875 0.234375 0.375 0.625q0.234375 1.09375 0.421875 2.921875q0.203125 1.8125 0.359375 3.8125q0.15625 1.984375 0.25 3.84375q0.09375 1.84375 0.09375 2.9375zm13.40625 14.140625q0.734375 0 1.890625 -0.71875q1.15625 -0.71875 2.25 -2.03125q1.09375 -1.3125 1.875 -3.140625q0.78125 -1.84375 0.78125 -4.109375q0 -2.1875 -0.53125 -3.84375q-0.53125 -1.65625 -1.21875 -2.8125q-0.671875 -1.15625 -1.359375 -1.734375q-0.6875 -0.59375 -1.0 -0.671875q-0.65625 0 -1.1875 0.109375q-0.53125 0.09375 -0.71875 0.125q-0.46875 0 -0.859375 -0.390625q-0.984375 0.390625 -2.046875 1.765625q-1.046875 1.359375 -1.953125 3.1875q-0.890625 1.8125 -1.484375 3.859375q-0.578125 2.046875 -0.578125 3.765625q0 1.796875 0.625 3.078125q0.625 1.265625 1.5625 2.046875q0.9375 0.78125 1.984375 1.15625q1.0625 0.359375 1.96875 0.359375zm2.734375 -21.25q0.8125 0 1.890625 0.8125q1.078125 0.796875 2.03125 2.265625q0.953125 1.453125 1.640625 3.53125q0.6875 2.0625 0.6875 4.640625q0 2.625 -0.90625 4.859375q-0.890625 2.21875 -2.25 3.859375q-1.34375 1.640625 -2.921875 2.5625q-1.578125 0.921875 -2.90625 0.921875q-1.53125 0 -3.015625 -0.59375q-1.484375 -0.59375 -2.65625 -1.703125q-1.171875 -1.109375 -1.921875 -2.75q-0.734375 -1.640625 -0.734375 -3.796875q0 -1.359375 0.34375 -3.0q0.359375 -1.640625 0.96875 -3.296875q0.609375 -1.671875 1.4375 -3.203125q0.84375 -1.546875 1.8125 -2.75q0.984375 -1.21875 2.078125 -1.9375q1.09375 -0.734375 2.234375 -0.734375q0.421875 0 0.75 0.109375q0.34375 0.09375 0.609375 0.25q0.203125 0 0.390625 -0.015625q0.203125 -0.03125 0.4375 -0.03125zm21.09375 0.3125q0.859375 0 1.4375 0.140625q0.59375 0.140625 0.953125 0.3125q0.375 0.171875 0.59375 0.375q0.21875 0.1875 0.296875 0.3125q0.1875 0.265625 0.1875 0.578125q0 0.625 -0.46875 0.90625q-0.234375 0.1875 -0.625 0.1875q-0.46875 0 -0.8125 -0.34375q-0.078125 -0.046875 -0.421875 -0.15625q-0.328125 -0.125 -1.140625 -0.125q-0.46875 0 -1.6875 0.59375q-1.203125 0.578125 -2.453125 1.90625q-1.25 1.328125 -2.25 3.46875q-1.0 2.125 -1.0 5.203125q0.125 0.515625 0.234375 1.046875q0.125 0.515625 0.28125 1.0625q0.421875 1.765625 0.84375 3.6875q0.4375 1.90625 0.4375 3.90625q0 0.46875 -0.328125 0.78125q-0.328125 0.3125 -0.765625 0.3125q-0.46875 0 -0.78125 -0.3125q-0.3125 -0.3125 -0.3125 -0.78125q0 -1.8125 -0.390625 -3.609375q-0.390625 -1.796875 -0.8125 -3.4375q-0.390625 -1.4375 -0.6875 -2.78125q-0.296875 -1.359375 -0.296875 -2.484375q0 -1.140625 -0.15625 -2.859375q-0.15625 -1.71875 -0.375 -3.328125q-0.203125 -1.625 -0.359375 -2.8125q-0.15625 -1.203125 -0.15625 -1.28125q0 -0.390625 0.265625 -0.703125q0.28125 -0.3125 0.828125 -0.390625q0.390625 0 0.671875 0.265625q0.296875 0.25 0.375 0.671875q0 0.078125 0.09375 0.65625q0.109375 0.5625 0.21875 1.421875q0.125 0.859375 0.25 1.953125q0.140625 1.09375 0.265625 2.1875q0.78125 -1.609375 1.84375 -2.828125q1.078125 -1.234375 2.203125 -2.046875q1.140625 -0.828125 2.1875 -1.234375q1.0625 -0.421875 1.8125 -0.421875zm15.8984375 8.953125q6.90625 3.359375 6.90625 7.0625q0 1.140625 -0.515625 2.234375q-0.5 1.09375 -1.203125 2.015625q-0.703125 0.90625 -1.46875 1.59375q-0.75 0.6875 -1.265625 0.96875q-0.46875 0.265625 -1.234375 0.515625q-0.75 0.265625 -1.5625 0.453125q-0.796875 0.203125 -1.515625 0.3125q-0.71875 0.125 -1.1875 0.125q-1.015625 0 -2.171875 -0.34375q-1.15625 -0.328125 -2.21875 -1.09375q-1.046875 -0.765625 -1.890625 -2.015625q-0.828125 -1.25 -1.296875 -3.078125q0 -0.859375 1.09375 -1.09375q0.34375 0 0.65625 0.21875q0.3125 0.203125 0.390625 0.59375q0.4375 1.640625 1.234375 2.5625q0.796875 0.921875 1.640625 1.390625q0.84375 0.46875 1.5625 0.5625q0.71875 0.09375 1.0 0.09375q0.34375 0 0.96875 -0.09375q0.625 -0.09375 1.265625 -0.265625q0.65625 -0.1875 1.25 -0.375q0.609375 -0.203125 0.921875 -0.390625q0.359375 -0.203125 0.9375 -0.71875q0.59375 -0.53125 1.109375 -1.21875q0.53125 -0.6875 0.921875 -1.46875q0.390625 -0.78125 0.390625 -1.484375q0 -0.390625 -0.234375 -0.90625q-0.234375 -0.53125 -0.84375 -1.171875q-0.59375 -0.65625 -1.71875 -1.390625q-1.109375 -0.75 -2.859375 -1.609375q-1.140625 -0.546875 -2.375 -1.125q-1.21875 -0.59375 -2.28125 -1.078125q-1.046875 -0.484375 -1.75 -0.84375l-0.703125 -0.3125l-0.625 -0.265625l0 -0.703125q0 -1.796875 0.890625 -3.140625q0.90625 -1.359375 2.1875 -2.265625q1.296875 -0.921875 2.71875 -1.390625q1.421875 -0.46875 2.515625 -0.46875q1.140625 0 1.921875 0.28125q0.78125 0.265625 1.28125 0.59375q0.515625 0.328125 0.765625 0.625q0.25 0.296875 0.296875 0.375q0.1875 0.265625 0.1875 0.578125q0 0.59375 -0.5 0.90625q-0.3125 0.1875 -0.59375 0.1875q-0.578125 0 -0.890625 -0.5q-0.046875 0 -0.1875 -0.140625q-0.125 -0.140625 -0.421875 -0.296875q-0.296875 -0.15625 -0.75 -0.28125q-0.4375 -0.140625 -1.109375 -0.140625q-0.65625 0 -1.59375 0.28125q-0.9375 0.265625 -1.875 0.828125q-0.9375 0.5625 -1.6875 1.390625q-0.734375 0.8125 -0.9375 1.90625q0.515625 0.234375 1.25 0.578125q0.75 0.328125 1.625 0.734375q0.875 0.40625 1.8125 0.859375q0.9375 0.453125 1.765625 0.84375zm18.9375 -6.328125q-0.34375 0 -1.390625 0.375q-1.03125 0.359375 -2.140625 1.328125q-1.109375 0.953125 -2.078125 2.65625q-0.953125 1.6875 -1.1875 4.34375q0.671875 -0.15625 1.5 -0.34375q0.84375 -0.203125 1.6875 -0.375q0.84375 -0.171875 1.59375 -0.28125q0.765625 -0.125 1.234375 -0.125q0.546875 0 1.390625 -0.25q0.84375 -0.265625 1.65625 -0.53125q0.671875 -0.234375 1.25 -0.40625q0.59375 -0.1875 1.140625 -0.34375q-0.15625 -1.5625 -0.671875 -2.6875q-0.5 -1.140625 -1.171875 -1.875q-0.65625 -0.75 -1.40625 -1.109375q-0.734375 -0.375 -1.40625 -0.375zm7.390625 17.890625q0.421875 0 0.71875 0.28125q0.296875 0.265625 0.375 0.8125q0 0.421875 -0.265625 0.71875q-0.25 0.296875 -0.671875 0.375q-0.078125 0 -0.703125 0.09375q-0.625 0.109375 -1.484375 0.21875q-0.859375 0.125 -1.796875 0.203125q-0.9375 0.078125 -1.609375 0.078125q-5.1875 0 -7.96875 -2.75q-2.765625 -2.765625 -3.046875 -7.765625q-0.078125 -2.546875 0.453125 -4.453125q0.53125 -1.921875 1.40625 -3.28125q0.875 -1.375 1.96875 -2.265625q1.09375 -0.90625 2.125 -1.40625q1.046875 -0.515625 1.875 -0.71875q0.84375 -0.21875 1.234375 -0.21875q1.015625 0 2.171875 0.515625q1.15625 0.5 2.140625 1.53125q1.0 1.03125 1.703125 2.640625q0.703125 1.59375 0.859375 3.78125q0.234375 0.3125 0.234375 0.703125q0 0.390625 -0.234375 0.671875q-0.1875 0.78125 -1.046875 0.78125q-0.390625 0 -0.671875 -0.234375q-1.046875 0.234375 -2.1875 0.65625q-1.015625 0.359375 -2.0 0.640625q-0.96875 0.265625 -1.75 0.265625q-0.421875 0 -1.15625 0.125q-0.71875 0.109375 -1.578125 0.3125q-0.859375 0.1875 -1.734375 0.40625q-0.875 0.203125 -1.578125 0.40625q0.15625 2.421875 1.109375 3.890625q0.953125 1.453125 2.265625 2.265625q1.3125 0.796875 2.765625 1.046875q1.46875 0.25 2.640625 0.25q0.625 0 1.515625 -0.078125q0.90625 -0.078125 1.71875 -0.1875q0.828125 -0.125 1.453125 -0.203125l0.59375 -0.078125l0.15625 -0.03125zm13.7109375 -11.5625q6.90625 3.359375 6.90625 7.0625q0 1.140625 -0.515625 2.234375q-0.5 1.09375 -1.203125 2.015625q-0.703125 0.90625 -1.46875 1.59375q-0.75 0.6875 -1.265625 0.96875q-0.46875 0.265625 -1.234375 0.515625q-0.75 0.265625 -1.5625 0.453125q-0.796875 0.203125 -1.515625 0.3125q-0.71875 0.125 -1.1875 0.125q-1.015625 0 -2.171875 -0.34375q-1.15625 -0.328125 -2.21875 -1.09375q-1.046875 -0.765625 -1.890625 -2.015625q-0.828125 -1.25 -1.296875 -3.078125q0 -0.859375 1.09375 -1.09375q0.34375 0 0.65625 0.21875q0.3125 0.203125 0.390625 0.59375q0.4375 1.640625 1.234375 2.5625q0.796875 0.921875 1.640625 1.390625q0.84375 0.46875 1.5625 0.5625q0.71875 0.09375 1.0 0.09375q0.34375 0 0.96875 -0.09375q0.625 -0.09375 1.265625 -0.265625q0.65625 -0.1875 1.25 -0.375q0.609375 -0.203125 0.921875 -0.390625q0.359375 -0.203125 0.9375 -0.71875q0.59375 -0.53125 1.109375 -1.21875q0.53125 -0.6875 0.921875 -1.46875q0.390625 -0.78125 0.390625 -1.484375q0 -0.390625 -0.234375 -0.90625q-0.234375 -0.53125 -0.84375 -1.171875q-0.59375 -0.65625 -1.71875 -1.390625q-1.109375 -0.75 -2.859375 -1.609375q-1.140625 -0.546875 -2.375 -1.125q-1.21875 -0.59375 -2.28125 -1.078125q-1.046875 -0.484375 -1.75 -0.84375l-0.703125 -0.3125l-0.625 -0.265625l0 -0.703125q0 -1.796875 0.890625 -3.140625q0.90625 -1.359375 2.1875 -2.265625q1.296875 -0.921875 2.71875 -1.390625q1.421875 -0.46875 2.515625 -0.46875q1.140625 0 1.921875 0.28125q0.78125 0.265625 1.28125 0.59375q0.515625 0.328125 0.765625 0.625q0.25 0.296875 0.296875 0.375q0.1875 0.265625 0.1875 0.578125q0 0.59375 -0.5 0.90625q-0.3125 0.1875 -0.59375 0.1875q-0.578125 0 -0.890625 -0.5q-0.046875 0 -0.1875 -0.140625q-0.125 -0.140625 -0.421875 -0.296875q-0.296875 -0.15625 -0.75 -0.28125q-0.4375 -0.140625 -1.109375 -0.140625q-0.65625 0 -1.59375 0.28125q-0.9375 0.265625 -1.875 0.828125q-0.9375 0.5625 -1.6875 1.390625q-0.734375 0.8125 -0.9375 1.90625q0.515625 0.234375 1.25 0.578125q0.75 0.328125 1.625 0.734375q0.875 0.40625 1.8125 0.859375q0.9375 0.453125 1.765625 0.84375zm11.203125 11.203125q0.671875 0 1.109375 0.453125q0.453125 0.453125 0.453125 1.109375q0 0.671875 -0.453125 1.09375q-0.4375 0.4375 -1.109375 0.4375q-0.625 0 -1.078125 -0.4375q-0.4375 -0.421875 -0.4375 -1.09375q0 -0.65625 0.4375 -1.109375q0.453125 -0.453125 1.078125 -0.453125zm5.078125 0q0.671875 0 1.109375 0.453125q0.453125 0.453125 0.453125 1.109375q0 0.671875 -0.453125 1.09375q-0.4375 0.4375 -1.109375 0.4375q-0.625 0 -1.078125 -0.4375q-0.4375 -0.421875 -0.4375 -1.09375q0 -0.65625 0.4375 -1.109375q0.453125 -0.453125 1.078125 -0.453125zm62.265625 -27.609375q0.59375 0.3125 0.59375 0.96875q0 0.234375 -0.125 0.515625q-0.5 0.96875 -1.25 2.6875q-0.734375 1.71875 -1.515625 3.640625q-0.78125 1.90625 -1.46875 3.75q-0.6875 1.828125 -1.078125 3.046875q-0.234375 0.78125 -0.765625 2.15625q-0.515625 1.359375 -1.1875 2.984375q-0.65625 1.609375 -1.359375 3.28125q-0.703125 1.65625 -1.296875 3.046875q-0.578125 1.375 -1.0 2.3125q-0.40625 0.9375 -0.4375 1.0625q-0.234375 0.59375 -0.859375 0.671875q-0.203125 0.1875 -0.4375 0.3125q-0.234375 0.078125 -0.421875 0.078125q-0.703125 0 -1.015625 -0.671875q-0.046875 -0.125 -0.453125 -1.0625q-0.40625 -0.9375 -1.0 -2.3125q-0.578125 -1.390625 -1.28125 -3.0625q-0.703125 -1.6875 -1.359375 -3.28125q-0.640625 -1.609375 -1.1875 -2.96875q-0.546875 -1.375 -0.78125 -2.15625q-0.3125 -0.984375 -0.828125 -2.40625q-0.5 -1.421875 -1.125 -2.984375q-0.625 -1.5625 -1.265625 -3.109375q-0.640625 -1.546875 -1.1875 -2.796875q-0.546875 1.25 -1.171875 2.765625q-0.625 1.5 -1.21875 2.984375q-0.578125 1.484375 -1.078125 2.859375q-0.484375 1.359375 -0.796875 2.296875q-0.234375 0.78125 -0.78125 2.15625q-0.546875 1.359375 -1.1875 2.984375q-0.640625 1.609375 -1.34375 3.28125q-0.703125 1.65625 -1.296875 3.046875q-0.578125 1.375 -1.0 2.3125q-0.40625 0.9375 -0.4375 1.0625q-0.234375 0.59375 -0.90625 0.671875q-0.109375 0.1875 -0.390625 0.3125q-0.109375 0.03125 -0.21875 0.046875q-0.09375 0.03125 -0.203125 0.03125q-0.703125 0 -1.015625 -0.671875q-0.046875 -0.125 -0.453125 -1.0625q-0.40625 -0.9375 -1.0 -2.3125q-0.578125 -1.390625 -1.28125 -3.0625q-0.703125 -1.6875 -1.359375 -3.28125q-0.640625 -1.609375 -1.1875 -2.96875q-0.546875 -1.375 -0.78125 -2.15625q-0.390625 -1.21875 -1.078125 -3.046875q-0.671875 -1.84375 -1.4375 -3.75q-0.765625 -1.921875 -1.53125 -3.65625q-0.765625 -1.734375 -1.265625 -2.71875q-0.125 -0.234375 -0.125 -0.5q0 -0.625 0.59375 -0.9375q0.1875 -0.15625 0.5 -0.15625q0.671875 0 0.984375 0.578125q0.546875 1.09375 1.328125 2.921875q0.78125 1.8125 1.578125 3.78125q0.8125 1.96875 1.484375 3.828125q0.6875 1.859375 1.046875 2.953125q0.265625 0.890625 0.921875 2.5625q0.671875 1.65625 1.453125 3.546875q0.78125 1.890625 1.5625 3.75q0.78125 1.859375 1.328125 3.109375q0.515625 -1.171875 1.3125 -3.0625q0.796875 -1.90625 1.609375 -3.875q0.828125 -1.96875 1.515625 -3.71875q0.6875 -1.765625 1.0 -2.671875q0.34375 -1.125 1.03125 -2.953125q0.6875 -1.84375 1.46875 -3.828125q0.78125 -2.0 1.578125 -3.8125q0.796875 -1.828125 1.34375 -2.875q0.15625 -0.3125 0.40625 -0.453125q0.265625 -0.140625 0.578125 -0.140625q0.265625 0 0.5 0.125q0.59375 0.3125 0.59375 1.046875q0.578125 1.140625 1.34375 2.953125q0.765625 1.8125 1.515625 3.734375q0.765625 1.90625 1.421875 3.6875q0.671875 1.78125 1.03125 2.875q0.265625 0.890625 0.921875 2.5625q0.671875 1.65625 1.453125 3.546875q0.78125 1.890625 1.5625 3.75q0.78125 1.859375 1.328125 3.109375q0.515625 -1.171875 1.3125 -3.0625q0.796875 -1.90625 1.609375 -3.875q0.828125 -1.96875 1.515625 -3.71875q0.6875 -1.765625 1.0 -2.671875q0.34375 -1.125 1.03125 -2.953125q0.6875 -1.84375 1.46875 -3.828125q0.78125 -2.0 1.578125 -3.8125q0.796875 -1.828125 1.34375 -2.875q0.15625 -0.3125 0.40625 -0.453125q0.265625 -0.140625 0.578125 -0.140625q0.265625 0 0.5 0.125zm10.3203125 28.390625q0.734375 0 1.890625 -0.71875q1.15625 -0.71875 2.25 -2.03125q1.09375 -1.3125 1.875 -3.140625q0.78125 -1.84375 0.78125 -4.109375q0 -2.1875 -0.53125 -3.84375q-0.53125 -1.65625 -1.21875 -2.8125q-0.671875 -1.15625 -1.359375 -1.734375q-0.6875 -0.59375 -1.0 -0.671875q-0.65625 0 -1.1875 0.109375q-0.53125 0.09375 -0.71875 0.125q-0.46875 0 -0.859375 -0.390625q-0.984375 0.390625 -2.046875 1.765625q-1.046875 1.359375 -1.953125 3.1875q-0.890625 1.8125 -1.484375 3.859375q-0.578125 2.046875 -0.578125 3.765625q0 1.796875 0.625 3.078125q0.625 1.265625 1.5625 2.046875q0.9375 0.78125 1.984375 1.15625q1.0625 0.359375 1.96875 0.359375zm2.734375 -21.25q0.8125 0 1.890625 0.8125q1.078125 0.796875 2.03125 2.265625q0.953125 1.453125 1.640625 3.53125q0.6875 2.0625 0.6875 4.640625q0 2.625 -0.90625 4.859375q-0.890625 2.21875 -2.25 3.859375q-1.34375 1.640625 -2.921875 2.5625q-1.578125 0.921875 -2.90625 0.921875q-1.53125 0 -3.015625 -0.59375q-1.484375 -0.59375 -2.65625 -1.703125q-1.171875 -1.109375 -1.921875 -2.75q-0.734375 -1.640625 -0.734375 -3.796875q0 -1.359375 0.34375 -3.0q0.359375 -1.640625 0.96875 -3.296875q0.609375 -1.671875 1.4375 -3.203125q0.84375 -1.546875 1.8125 -2.75q0.984375 -1.21875 2.078125 -1.9375q1.09375 -0.734375 2.234375 -0.734375q0.421875 0 0.75 0.109375q0.34375 0.09375 0.609375 0.25q0.203125 0 0.390625 -0.015625q0.203125 -0.03125 0.4375 -0.03125zm21.09375 0.3125q0.859375 0 1.4375 0.140625q0.59375 0.140625 0.953125 0.3125q0.375 0.171875 0.59375 0.375q0.21875 0.1875 0.296875 0.3125q0.1875 0.265625 0.1875 0.578125q0 0.625 -0.46875 0.90625q-0.234375 0.1875 -0.625 0.1875q-0.46875 0 -0.8125 -0.34375q-0.078125 -0.046875 -0.421875 -0.15625q-0.328125 -0.125 -1.140625 -0.125q-0.46875 0 -1.6875 0.59375q-1.203125 0.578125 -2.453125 1.90625q-1.25 1.328125 -2.25 3.46875q-1.0 2.125 -1.0 5.203125q0.125 0.515625 0.234375 1.046875q0.125 0.515625 0.28125 1.0625q0.421875 1.765625 0.84375 3.6875q0.4375 1.90625 0.4375 3.90625q0 0.46875 -0.328125 0.78125q-0.328125 0.3125 -0.765625 0.3125q-0.46875 0 -0.78125 -0.3125q-0.3125 -0.3125 -0.3125 -0.78125q0 -1.8125 -0.390625 -3.609375q-0.390625 -1.796875 -0.8125 -3.4375q-0.390625 -1.4375 -0.6875 -2.78125q-0.296875 -1.359375 -0.296875 -2.484375q0 -1.140625 -0.15625 -2.859375q-0.15625 -1.71875 -0.375 -3.328125q-0.203125 -1.625 -0.359375 -2.8125q-0.15625 -1.203125 -0.15625 -1.28125q0 -0.390625 0.265625 -0.703125q0.28125 -0.3125 0.828125 -0.390625q0.390625 0 0.671875 0.265625q0.296875 0.25 0.375 0.671875q0 0.078125 0.09375 0.65625q0.109375 0.5625 0.21875 1.421875q0.125 0.859375 0.25 1.953125q0.140625 1.09375 0.265625 2.1875q0.78125 -1.609375 1.84375 -2.828125q1.078125 -1.234375 2.203125 -2.046875q1.140625 -0.828125 2.1875 -1.234375q1.0625 -0.421875 1.8125 -0.421875zm17.929688 11.796875q0.421875 0.546875 1.296875 1.484375q0.890625 0.9375 1.9375 2.03125q1.0625 1.09375 2.171875 2.234375q1.109375 1.125 2.03125 2.046875q0.921875 0.921875 1.5 1.53125q0.59375 0.59375 0.625 0.59375q0.359375 0.3125 0.359375 0.796875q0 0.390625 -0.3125 0.78125q-0.390625 0.3125 -0.78125 0.3125q-0.46875 0 -0.78125 -0.3125q-0.078125 -0.078125 -0.703125 -0.71875q-0.625 -0.625 -1.5625 -1.53125q-0.9375 -0.921875 -2.0625 -2.046875q-1.109375 -1.140625 -2.1875 -2.25q-1.0625 -1.125 -1.953125 -2.0625q-0.875 -0.9375 -1.296875 -1.515625q-0.859375 -1.0625 -1.921875 -2.390625q-1.046875 -1.328125 -2.1875 -2.53125q-0.65625 0.578125 -1.265625 1.171875q-0.609375 0.578125 -1.109375 1.046875q-0.203125 0.203125 -0.515625 0.3125q0.234375 2.0 0.5 4.015625q0.28125 2.0 0.515625 3.640625q0.234375 1.640625 0.390625 2.703125q0.15625 1.046875 0.15625 1.171875q0 0.4375 -0.28125 0.71875q-0.265625 0.296875 -0.8125 0.375q-0.390625 0 -0.6875 -0.25q-0.28125 -0.25 -0.359375 -0.6875q0 -0.109375 -0.1875 -1.125q-0.171875 -1.03125 -0.390625 -2.546875q-0.203125 -1.53125 -0.46875 -3.421875q-0.25 -1.890625 -0.484375 -3.828125q-0.234375 -1.9375 -0.375 -3.6875q-0.125 -1.765625 -0.125 -3.046875q0 -1.875 -0.125 -3.984375q-0.109375 -2.109375 -0.25 -3.921875q-0.140625 -1.828125 -0.265625 -3.03125q-0.109375 -1.21875 -0.109375 -1.296875q0 -0.421875 0.296875 -0.71875q0.296875 -0.296875 0.796875 -0.375q0.4375 0 0.75 0.296875q0.3125 0.296875 0.34375 0.71875q0 0.125 0.109375 1.34375q0.125 1.203125 0.265625 3.015625q0.140625 1.8125 0.25 3.921875q0.125 2.109375 0.125 4.03125q0 0.703125 0.046875 1.546875q0.0625 0.828125 0.140625 1.84375q0.46875 -0.421875 1.09375 -1.0q0.625 -0.59375 1.265625 -1.15625q0.65625 -0.578125 1.28125 -1.0625q0.625 -0.484375 1.046875 -0.71875q0.4375 -0.234375 1.0 -0.8125q0.5625 -0.59375 1.109375 -1.21875q0.703125 -0.78125 1.390625 -1.4375q0.6875 -0.671875 1.34375 -1.03125q0.234375 -0.109375 0.515625 -0.109375q0.625 0 0.96875 0.546875q0.125 0.234375 0.125 0.546875q0 0.265625 -0.140625 0.53125q-0.140625 0.25 -0.453125 0.40625q-0.421875 0.234375 -1.0 0.828125q-0.5625 0.578125 -1.109375 1.203125q-0.703125 0.78125 -1.375 1.453125q-0.65625 0.65625 -1.3125 1.0q-0.28125 0.15625 -0.9375 0.671875q1.125 1.25 2.203125 2.578125q1.078125 1.328125 1.9375 2.375zm24.132812 -12.84375q-0.65625 0 -1.109375 -0.453125q-0.453125 -0.453125 -0.453125 -1.109375q0 -0.671875 0.453125 -1.09375q0.453125 -0.4375 1.109375 -0.4375q0.625 0 1.078125 0.4375q0.453125 0.421875 0.453125 1.09375q0 0.65625 -0.453125 1.109375q-0.453125 0.453125 -1.078125 0.453125zm0.515625 1.640625q0.421875 0 0.71875 0.25q0.296875 0.25 0.375 0.640625q0 0.125 0.171875 1.21875q0.171875 1.09375 0.40625 2.65625q0.234375 1.5625 0.453125 3.34375q0.21875 1.765625 0.296875 3.171875q0.078125 1.375 0.265625 3.21875q0.203125 1.828125 0.4375 3.484375q0.234375 1.65625 0.40625 2.859375q0.171875 1.1875 0.171875 1.265625q0 0.4375 -0.28125 0.71875q-0.265625 0.296875 -0.8125 0.375q-0.421875 0 -0.71875 -0.25q-0.296875 -0.25 -0.375 -0.6875q0 -0.109375 -0.171875 -1.28125q-0.171875 -1.1875 -0.40625 -2.84375q-0.234375 -1.65625 -0.4375 -3.484375q-0.1875 -1.84375 -0.265625 -3.25q-0.078125 -1.375 -0.296875 -3.125q-0.21875 -1.765625 -0.4375 -3.328125q-0.203125 -1.5625 -0.390625 -2.671875q-0.171875 -1.109375 -0.171875 -1.1875q0 -0.390625 0.234375 -0.703125q0.234375 -0.3125 0.671875 -0.390625l0.15625 0zm27.257812 17.03125q0 0.546875 0.140625 1.140625q0.140625 0.578125 0.328125 1.109375q0.203125 0.515625 0.390625 0.953125q0.203125 0.421875 0.3125 0.65625q0.125 0.234375 0.125 0.546875q0 0.640625 -0.546875 0.953125q-0.15625 0.078125 -0.28125 0.109375q-0.109375 0.046875 -0.265625 0.046875q-0.625 0 -0.9375 -0.59375q-0.046875 -0.03125 -0.28125 -0.484375q-0.234375 -0.453125 -0.484375 -1.15625q-0.25 -0.703125 -0.46875 -1.5625q-0.21875 -0.859375 -0.21875 -1.71875q0 -0.203125 -0.015625 -0.453125q-0.015625 -0.25 -0.0625 -0.5625q-0.03125 -0.546875 -0.078125 -1.1875q-0.03125 -0.65625 -0.03125 -1.546875q0 -0.59375 -0.078125 -1.234375q-0.078125 -0.640625 -0.15625 -1.421875q-0.125 -0.984375 -0.21875 -2.09375q-0.09375 -1.109375 -0.09375 -2.359375q0 -0.78125 -0.34375 -1.703125q-0.328125 -0.921875 -0.953125 -1.703125q-0.625 -0.78125 -1.546875 -1.28125q-0.90625 -0.515625 -2.125 -0.515625q-1.515625 0 -2.71875 0.578125q-1.1875 0.5625 -2.046875 1.421875q-0.859375 0.859375 -1.46875 1.859375q-0.59375 0.984375 -0.953125 1.875q-0.34375 0.875 -0.53125 1.5q-0.171875 0.625 -0.171875 0.703125q-0.109375 0.34375 -0.3125 0.546875l0 0.703125q0 0.9375 0.265625 2.15625q0.28125 1.203125 0.640625 2.5625q0.421875 1.765625 0.828125 3.6875q0.421875 1.90625 0.421875 3.90625q0 0.46875 -0.3125 0.78125q-0.3125 0.3125 -0.78125 0.3125q-0.4375 0 -0.765625 -0.3125q-0.328125 -0.3125 -0.328125 -0.78125q0 -1.8125 -0.375 -3.609375q-0.375 -1.796875 -0.796875 -3.4375q-0.390625 -1.4375 -0.6875 -2.78125q-0.296875 -1.359375 -0.296875 -2.484375q0 -1.140625 -0.15625 -2.859375q-0.15625 -1.71875 -0.375 -3.328125q-0.203125 -1.625 -0.390625 -2.8125q-0.171875 -1.203125 -0.171875 -1.28125q0 -0.390625 0.265625 -0.703125q0.28125 -0.3125 0.828125 -0.390625q0.4375 0 0.71875 0.265625q0.296875 0.25 0.375 0.671875q0 0.078125 0.078125 0.5q0.078125 0.40625 0.15625 1.09375q0.078125 0.671875 0.1875 1.53125q0.125 0.859375 0.25 1.796875q0.578125 -1.09375 1.375 -2.140625q0.8125 -1.0625 1.875 -1.875q1.078125 -0.828125 2.40625 -1.328125q1.328125 -0.515625 2.96875 -0.515625q1.609375 0 2.90625 0.65625q1.3125 0.640625 2.25 1.703125q0.9375 1.046875 1.46875 2.375q0.53125 1.328125 0.53125 2.65625q0 1.171875 0.09375 2.234375q0.09375 1.046875 0.21875 1.9375q0.078125 0.78125 0.15625 1.53125q0.078125 0.734375 0.078125 1.40625q0 1.5625 0.109375 2.5q0.046875 0.34375 0.0625 0.640625q0.015625 0.296875 0.015625 0.609375zm35.507812 -15.859375q0 -0.671875 -0.25 -1.546875q-0.25 -0.875 -0.796875 -1.734375q-0.546875 -0.859375 -1.375 -1.5625q-0.8125 -0.703125 -1.90625 -1.015625q-2.109375 -0.546875 -3.640625 -0.78125q-1.515625 -0.234375 -2.765625 -0.234375q-1.375 0 -2.53125 0.234375q-1.140625 0.234375 -2.515625 0.546875q0.15625 1.328125 0.296875 2.90625q0.140625 1.578125 0.234375 3.109375q0.09375 1.515625 0.15625 2.890625q0.0625 1.359375 0.0625 2.21875q0 0.203125 0 0.484375q0 0.265625 0.03125 0.578125q0.546875 0 1.078125 0q0.53125 0 1.078125 0.03125q0.859375 0.046875 1.6875 0.046875q0.84375 0 1.703125 0q1.5625 0 2.953125 -0.078125q1.390625 -0.078125 2.40625 -0.359375q1.328125 -0.390625 2.109375 -0.90625q0.78125 -0.53125 1.171875 -1.15625q0.390625 -0.625 0.515625 -1.359375q0.140625 -0.75 0.21875 -1.53125l0.046875 -0.46875l0.03125 -0.3125zm-3.78125 -7.96875q1.4375 0.390625 2.5625 1.296875q1.140625 0.890625 1.875 2.03125q0.75 1.125 1.140625 2.359375q0.390625 1.21875 0.390625 2.28125q0 0.15625 -0.015625 0.28125q-0.015625 0.109375 -0.015625 0.265625l-0.046875 0.46875q-0.078125 0.8125 -0.28125 1.78125q-0.1875 0.953125 -0.734375 1.890625q-0.546875 0.9375 -1.640625 1.78125q-1.09375 0.828125 -2.96875 1.34375q-1.171875 0.34375 -2.671875 0.453125q-1.5 0.09375 -3.21875 0.09375q-0.859375 0 -1.71875 0q-0.859375 0 -1.765625 -0.046875q-0.5 -0.03125 -1.0 -0.03125q-0.484375 0 -0.984375 0q0.109375 1.71875 0.296875 3.6875q0.203125 1.96875 0.375 3.6875q0.1875 1.71875 0.3125 2.890625q0.140625 1.171875 0.140625 1.25q0 0.4375 -0.296875 0.75q-0.28125 0.3125 -0.796875 0.359375q-0.421875 0 -0.734375 -0.28125q-0.3125 -0.28125 -0.359375 -0.703125q-0.03125 -0.125 -0.140625 -1.0625q-0.09375 -0.9375 -0.234375 -2.3125q-0.125 -1.390625 -0.28125 -3.0625q-0.15625 -1.6875 -0.296875 -3.3125q-0.140625 -1.625 -0.234375 -2.984375q-0.09375 -1.375 -0.09375 -2.15625q0 -0.96875 -0.0625 -2.375q-0.0625 -1.40625 -0.1875 -2.96875q-0.109375 -1.5625 -0.25 -3.109375q-0.125 -1.546875 -0.28125 -2.796875q-0.078125 -0.078125 -0.125 -0.203125q-0.03125 -0.140625 -0.109375 -0.453125q0 -0.15625 0.078125 -0.390625q-0.046875 -0.203125 -0.0625 -0.4375q-0.015625 -0.234375 -0.09375 -0.546875q0 -0.390625 0.265625 -0.703125q0.28125 -0.3125 0.828125 -0.390625q0.390625 0 0.703125 0.28125q0.3125 0.265625 0.390625 0.8125q1.40625 -0.34375 2.65625 -0.578125q1.25 -0.234375 2.6875 -0.234375q1.375 0 3.03125 0.25q1.65625 0.25 3.96875 0.84375zm20.78125 6.203125q0.859375 0 1.4375 0.140625q0.59375 0.140625 0.953125 0.3125q0.375 0.171875 0.59375 0.375q0.21875 0.1875 0.296875 0.3125q0.1875 0.265625 0.1875 0.578125q0 0.625 -0.46875 0.90625q-0.234375 0.1875 -0.625 0.1875q-0.46875 0 -0.8125 -0.34375q-0.078125 -0.046875 -0.421875 -0.15625q-0.328125 -0.125 -1.140625 -0.125q-0.46875 0 -1.6875 0.59375q-1.203125 0.578125 -2.453125 1.90625q-1.25 1.328125 -2.25 3.46875q-1.0 2.125 -1.0 5.203125q0.125 0.515625 0.234375 1.046875q0.125 0.515625 0.28125 1.0625q0.421875 1.765625 0.84375 3.6875q0.4375 1.90625 0.4375 3.90625q0 0.46875 -0.328125 0.78125q-0.328125 0.3125 -0.765625 0.3125q-0.46875 0 -0.78125 -0.3125q-0.3125 -0.3125 -0.3125 -0.78125q0 -1.8125 -0.390625 -3.609375q-0.390625 -1.796875 -0.8125 -3.4375q-0.390625 -1.4375 -0.6875 -2.78125q-0.296875 -1.359375 -0.296875 -2.484375q0 -1.140625 -0.15625 -2.859375q-0.15625 -1.71875 -0.375 -3.328125q-0.203125 -1.625 -0.359375 -2.8125q-0.15625 -1.203125 -0.15625 -1.28125q0 -0.390625 0.265625 -0.703125q0.28125 -0.3125 0.828125 -0.390625q0.390625 0 0.671875 0.265625q0.296875 0.25 0.375 0.671875q0 0.078125 0.09375 0.65625q0.109375 0.5625 0.21875 1.421875q0.125 0.859375 0.25 1.953125q0.140625 1.09375 0.265625 2.1875q0.78125 -1.609375 1.84375 -2.828125q1.078125 -1.234375 2.203125 -2.046875q1.140625 -0.828125 2.1875 -1.234375q1.0625 -0.421875 1.8125 -0.421875zm13.7890625 20.9375q0.734375 0 1.890625 -0.71875q1.15625 -0.71875 2.25 -2.03125q1.09375 -1.3125 1.875 -3.140625q0.78125 -1.84375 0.78125 -4.109375q0 -2.1875 -0.53125 -3.84375q-0.53125 -1.65625 -1.21875 -2.8125q-0.671875 -1.15625 -1.359375 -1.734375q-0.6875 -0.59375 -1.0 -0.671875q-0.65625 0 -1.1875 0.109375q-0.53125 0.09375 -0.71875 0.125q-0.46875 0 -0.859375 -0.390625q-0.984375 0.390625 -2.046875 1.765625q-1.046875 1.359375 -1.953125 3.1875q-0.890625 1.8125 -1.484375 3.859375q-0.578125 2.046875 -0.578125 3.765625q0 1.796875 0.625 3.078125q0.625 1.265625 1.5625 2.046875q0.9375 0.78125 1.984375 1.15625q1.0625 0.359375 1.96875 0.359375zm2.734375 -21.25q0.8125 0 1.890625 0.8125q1.078125 0.796875 2.03125 2.265625q0.953125 1.453125 1.640625 3.53125q0.6875 2.0625 0.6875 4.640625q0 2.625 -0.90625 4.859375q-0.890625 2.21875 -2.25 3.859375q-1.34375 1.640625 -2.921875 2.5625q-1.578125 0.921875 -2.90625 0.921875q-1.53125 0 -3.015625 -0.59375q-1.484375 -0.59375 -2.65625 -1.703125q-1.171875 -1.109375 -1.921875 -2.75q-0.734375 -1.640625 -0.734375 -3.796875q0 -1.359375 0.34375 -3.0q0.359375 -1.640625 0.96875 -3.296875q0.609375 -1.671875 1.4375 -3.203125q0.84375 -1.546875 1.8125 -2.75q0.984375 -1.21875 2.078125 -1.9375q1.09375 -0.734375 2.234375 -0.734375q0.421875 0 0.75 0.109375q0.34375 0.09375 0.609375 0.25q0.203125 0 0.390625 -0.015625q0.203125 -0.03125 0.4375 -0.03125zm23.78125 16.796875q0.125 -0.34375 0.515625 -0.546875q-0.28125 -2.6875 -0.453125 -4.984375q-0.171875 -2.3125 -0.171875 -3.765625l0 -0.46875q-0.390625 -0.1875 -0.546875 -0.5q-0.828125 -1.53125 -1.625 -2.1875q-0.796875 -0.671875 -1.03125 -0.703125q-0.671875 0 -1.203125 0.078125q-0.515625 0.078125 -0.71875 0.109375q-0.5 0 -0.8125 -0.390625q-0.984375 0.390625 -2.0625 1.765625q-1.0625 1.359375 -1.96875 3.1875q-0.890625 1.8125 -1.484375 3.859375q-0.578125 2.046875 -0.578125 3.765625q0 1.84375 0.625 3.09375q0.625 1.25 1.5625 2.046875q0.9375 0.796875 2.0 1.15625q1.078125 0.359375 1.984375 0.359375q0.578125 0 1.375 -0.40625q0.8125 -0.421875 1.640625 -1.1875q0.84375 -0.765625 1.625 -1.828125q0.78125 -1.078125 1.328125 -2.453125zm2.078125 -9.296875q0 0.90625 0.078125 2.25q0.078125 1.34375 0.203125 2.9375q0.140625 1.578125 0.296875 3.359375q0.15625 1.765625 0.359375 3.5625q0.15625 1.765625 0.328125 3.421875q0.171875 1.671875 0.28125 3.125q0.125 1.46875 0.203125 2.671875q0.078125 1.21875 0.078125 2.046875q0 1.40625 -0.546875 2.78125q-0.546875 1.390625 -1.609375 2.484375q-1.046875 1.09375 -2.59375 1.78125q-1.53125 0.6875 -3.5625 0.6875q-5.78125 0 -8.28125 -6.328125q-0.078125 -0.15625 -0.078125 -0.4375q0 -0.703125 0.65625 -1.015625q0.125 -0.03125 0.21875 -0.0625q0.09375 -0.015625 0.21875 -0.015625q0.703125 0 1.015625 0.75q0.1875 0.5 0.59375 1.34375q0.421875 0.84375 1.125 1.625q0.703125 0.78125 1.8125 1.359375q1.109375 0.59375 2.71875 0.59375q1.671875 0 2.84375 -0.546875q1.171875 -0.546875 1.890625 -1.390625q0.734375 -0.84375 1.0625 -1.828125q0.328125 -0.96875 0.328125 -1.78125q0 -0.78125 -0.078125 -1.984375q-0.078125 -1.1875 -0.203125 -2.640625q-0.109375 -1.4375 -0.265625 -3.0625q-0.15625 -1.625 -0.3125 -3.265625q-0.734375 1.171875 -1.625 2.078125q-0.875 0.90625 -1.796875 1.546875q-0.90625 0.640625 -1.796875 0.96875q-0.875 0.34375 -1.609375 0.34375q-1.53125 0 -3.03125 -0.578125q-1.5 -0.5625 -2.671875 -1.671875q-1.171875 -1.125 -1.921875 -2.78125q-0.734375 -1.65625 -0.734375 -3.8125q0 -1.359375 0.34375 -3.0q0.359375 -1.640625 0.953125 -3.28125q0.609375 -1.640625 1.453125 -3.203125q0.84375 -1.5625 1.8125 -2.75q0.984375 -1.203125 2.078125 -1.921875q1.09375 -0.71875 2.21875 -0.71875q0.828125 0 1.375 0.34375q0.1875 -0.03125 0.375 -0.03125q0.203125 0 0.4375 0q0.703125 0 1.5625 0.546875q0.859375 0.546875 1.640625 1.515625q0.078125 -0.46875 0.25 -0.859375q0.1875 -0.390625 0.8125 -0.421875l1.015625 -0.078125l0.15625 1.015625q0 0.078125 0 0.140625q0 0.046875 -0.046875 0.328125q0 0.234375 -0.015625 1.0625q-0.015625 0.8125 -0.015625 2.796875zm16.640625 -7.1875q0.859375 0 1.4375 0.140625q0.59375 0.140625 0.953125 0.3125q0.375 0.171875 0.59375 0.375q0.21875 0.1875 0.296875 0.3125q0.1875 0.265625 0.1875 0.578125q0 0.625 -0.46875 0.90625q-0.234375 0.1875 -0.625 0.1875q-0.46875 0 -0.8125 -0.34375q-0.078125 -0.046875 -0.421875 -0.15625q-0.328125 -0.125 -1.140625 -0.125q-0.46875 0 -1.6875 0.59375q-1.203125 0.578125 -2.453125 1.90625q-1.25 1.328125 -2.25 3.46875q-1.0 2.125 -1.0 5.203125q0.125 0.515625 0.234375 1.046875q0.125 0.515625 0.28125 1.0625q0.421875 1.765625 0.84375 3.6875q0.4375 1.90625 0.4375 3.90625q0 0.46875 -0.328125 0.78125q-0.328125 0.3125 -0.765625 0.3125q-0.46875 0 -0.78125 -0.3125q-0.3125 -0.3125 -0.3125 -0.78125q0 -1.8125 -0.390625 -3.609375q-0.390625 -1.796875 -0.8125 -3.4375q-0.390625 -1.4375 -0.6875 -2.78125q-0.296875 -1.359375 -0.296875 -2.484375q0 -1.140625 -0.15625 -2.859375q-0.15625 -1.71875 -0.375 -3.328125q-0.203125 -1.625 -0.359375 -2.8125q-0.15625 -1.203125 -0.15625 -1.28125q0 -0.390625 0.265625 -0.703125q0.28125 -0.3125 0.828125 -0.390625q0.390625 0 0.671875 0.265625q0.296875 0.25 0.375 0.671875q0 0.078125 0.09375 0.65625q0.109375 0.5625 0.21875 1.421875q0.125 0.859375 0.25 1.953125q0.140625 1.09375 0.265625 2.1875q0.78125 -1.609375 1.84375 -2.828125q1.078125 -1.234375 2.203125 -2.046875q1.140625 -0.828125 2.1875 -1.234375q1.0625 -0.421875 1.8125 -0.421875zm14.5234375 2.625q-0.34375 0 -1.390625 0.375q-1.03125 0.359375 -2.140625 1.328125q-1.109375 0.953125 -2.078125 2.65625q-0.953125 1.6875 -1.1875 4.34375q0.671875 -0.15625 1.5 -0.34375q0.84375 -0.203125 1.6875 -0.375q0.84375 -0.171875 1.59375 -0.28125q0.765625 -0.125 1.234375 -0.125q0.546875 0 1.390625 -0.25q0.84375 -0.265625 1.65625 -0.53125q0.671875 -0.234375 1.25 -0.40625q0.59375 -0.1875 1.140625 -0.34375q-0.15625 -1.5625 -0.671875 -2.6875q-0.5 -1.140625 -1.171875 -1.875q-0.65625 -0.75 -1.40625 -1.109375q-0.734375 -0.375 -1.40625 -0.375zm7.390625 17.890625q0.421875 0 0.71875 0.28125q0.296875 0.265625 0.375 0.8125q0 0.421875 -0.265625 0.71875q-0.25 0.296875 -0.671875 0.375q-0.078125 0 -0.703125 0.09375q-0.625 0.109375 -1.484375 0.21875q-0.859375 0.125 -1.796875 0.203125q-0.9375 0.078125 -1.609375 0.078125q-5.1875 0 -7.96875 -2.75q-2.765625 -2.765625 -3.046875 -7.765625q-0.078125 -2.546875 0.453125 -4.453125q0.53125 -1.921875 1.40625 -3.28125q0.875 -1.375 1.96875 -2.265625q1.09375 -0.90625 2.125 -1.40625q1.046875 -0.515625 1.875 -0.71875q0.84375 -0.21875 1.234375 -0.21875q1.015625 0 2.171875 0.515625q1.15625 0.5 2.140625 1.53125q1.0 1.03125 1.703125 2.640625q0.703125 1.59375 0.859375 3.78125q0.234375 0.3125 0.234375 0.703125q0 0.390625 -0.234375 0.671875q-0.1875 0.78125 -1.046875 0.78125q-0.390625 0 -0.671875 -0.234375q-1.046875 0.234375 -2.1875 0.65625q-1.015625 0.359375 -2.0 0.640625q-0.96875 0.265625 -1.75 0.265625q-0.421875 0 -1.15625 0.125q-0.71875 0.109375 -1.578125 0.3125q-0.859375 0.1875 -1.734375 0.40625q-0.875 0.203125 -1.578125 0.40625q0.15625 2.421875 1.109375 3.890625q0.953125 1.453125 2.265625 2.265625q1.3125 0.796875 2.765625 1.046875q1.46875 0.25 2.640625 0.25q0.625 0 1.515625 -0.078125q0.90625 -0.078125 1.71875 -0.1875q0.828125 -0.125 1.453125 -0.203125l0.59375 -0.078125l0.15625 -0.03125zm13.7109375 -11.5625q6.90625 3.359375 6.90625 7.0625q0 1.140625 -0.515625 2.234375q-0.5 1.09375 -1.203125 2.015625q-0.703125 0.90625 -1.46875 1.59375q-0.75 0.6875 -1.265625 0.96875q-0.46875 0.265625 -1.234375 0.515625q-0.75 0.265625 -1.5625 0.453125q-0.796875 0.203125 -1.515625 0.3125q-0.71875 0.125 -1.1875 0.125q-1.015625 0 -2.171875 -0.34375q-1.15625 -0.328125 -2.21875 -1.09375q-1.046875 -0.765625 -1.890625 -2.015625q-0.828125 -1.25 -1.296875 -3.078125q0 -0.859375 1.09375 -1.09375q0.34375 0 0.65625 0.21875q0.3125 0.203125 0.390625 0.59375q0.4375 1.640625 1.234375 2.5625q0.796875 0.921875 1.640625 1.390625q0.84375 0.46875 1.5625 0.5625q0.71875 0.09375 1.0 0.09375q0.34375 0 0.96875 -0.09375q0.625 -0.09375 1.265625 -0.265625q0.65625 -0.1875 1.25 -0.375q0.609375 -0.203125 0.921875 -0.390625q0.359375 -0.203125 0.9375 -0.71875q0.59375 -0.53125 1.109375 -1.21875q0.53125 -0.6875 0.921875 -1.46875q0.390625 -0.78125 0.390625 -1.484375q0 -0.390625 -0.234375 -0.90625q-0.234375 -0.53125 -0.84375 -1.171875q-0.59375 -0.65625 -1.71875 -1.390625q-1.109375 -0.75 -2.859375 -1.609375q-1.140625 -0.546875 -2.375 -1.125q-1.21875 -0.59375 -2.28125 -1.078125q-1.046875 -0.484375 -1.75 -0.84375l-0.703125 -0.3125l-0.625 -0.265625l0 -0.703125q0 -1.796875 0.890625 -3.140625q0.90625 -1.359375 2.1875 -2.265625q1.296875 -0.921875 2.71875 -1.390625q1.421875 -0.46875 2.515625 -0.46875q1.140625 0 1.921875 0.28125q0.78125 0.265625 1.28125 0.59375q0.515625 0.328125 0.765625 0.625q0.25 0.296875 0.296875 0.375q0.1875 0.265625 0.1875 0.578125q0 0.59375 -0.5 0.90625q-0.3125 0.1875 -0.59375 0.1875q-0.578125 0 -0.890625 -0.5q-0.046875 0 -0.1875 -0.140625q-0.125 -0.140625 -0.421875 -0.296875q-0.296875 -0.15625 -0.75 -0.28125q-0.4375 -0.140625 -1.109375 -0.140625q-0.65625 0 -1.59375 0.28125q-0.9375 0.265625 -1.875 0.828125q-0.9375 0.5625 -1.6875 1.390625q-0.734375 0.8125 -0.9375 1.90625q0.515625 0.234375 1.25 0.578125q0.75 0.328125 1.625 0.734375q0.875 0.40625 1.8125 0.859375q0.9375 0.453125 1.765625 0.84375zm20.3125 0q6.90625 3.359375 6.90625 7.0625q0 1.140625 -0.515625 2.234375q-0.5 1.09375 -1.203125 2.015625q-0.703125 0.90625 -1.46875 1.59375q-0.75 0.6875 -1.265625 0.96875q-0.46875 0.265625 -1.234375 0.515625q-0.75 0.265625 -1.5625 0.453125q-0.796875 0.203125 -1.515625 0.3125q-0.71875 0.125 -1.1875 0.125q-1.015625 0 -2.171875 -0.34375q-1.15625 -0.328125 -2.21875 -1.09375q-1.046875 -0.765625 -1.890625 -2.015625q-0.828125 -1.25 -1.296875 -3.078125q0 -0.859375 1.09375 -1.09375q0.34375 0 0.65625 0.21875q0.3125 0.203125 0.390625 0.59375q0.4375 1.640625 1.234375 2.5625q0.796875 0.921875 1.640625 1.390625q0.84375 0.46875 1.5625 0.5625q0.71875 0.09375 1.0 0.09375q0.34375 0 0.96875 -0.09375q0.625 -0.09375 1.265625 -0.265625q0.65625 -0.1875 1.25 -0.375q0.609375 -0.203125 0.921875 -0.390625q0.359375 -0.203125 0.9375 -0.71875q0.59375 -0.53125 1.109375 -1.21875q0.53125 -0.6875 0.921875 -1.46875q0.390625 -0.78125 0.390625 -1.484375q0 -0.390625 -0.234375 -0.90625q-0.234375 -0.53125 -0.84375 -1.171875q-0.59375 -0.65625 -1.71875 -1.390625q-1.109375 -0.75 -2.859375 -1.609375q-1.140625 -0.546875 -2.375 -1.125q-1.21875 -0.59375 -2.28125 -1.078125q-1.046875 -0.484375 -1.75 -0.84375l-0.703125 -0.3125l-0.625 -0.265625l0 -0.703125q0 -1.796875 0.890625 -3.140625q0.90625 -1.359375 2.1875 -2.265625q1.296875 -0.921875 2.71875 -1.390625q1.421875 -0.46875 2.515625 -0.46875q1.140625 0 1.921875 0.28125q0.78125 0.265625 1.28125 0.59375q0.515625 0.328125 0.765625 0.625q0.25 0.296875 0.296875 0.375q0.1875 0.265625 0.1875 0.578125q0 0.59375 -0.5 0.90625q-0.3125 0.1875 -0.59375 0.1875q-0.578125 0 -0.890625 -0.5q-0.046875 0 -0.1875 -0.140625q-0.125 -0.140625 -0.421875 -0.296875q-0.296875 -0.15625 -0.75 -0.28125q-0.4375 -0.140625 -1.109375 -0.140625q-0.65625 0 -1.59375 0.28125q-0.9375 0.265625 -1.875 0.828125q-0.9375 0.5625 -1.6875 1.390625q-0.734375 0.8125 -0.9375 1.90625q0.515625 0.234375 1.25 0.578125q0.75 0.328125 1.625 0.734375q0.875 0.40625 1.8125 0.859375q0.9375 0.453125 1.765625 0.84375zm11.203125 11.203125q0.671875 0 1.109375 0.453125q0.453125 0.453125 0.453125 1.109375q0 0.671875 -0.453125 1.09375q-0.4375 0.4375 -1.109375 0.4375q-0.625 0 -1.078125 -0.4375q-0.4375 -0.421875 -0.4375 -1.09375q0 -0.65625 0.4375 -1.109375q0.453125 -0.453125 1.078125 -0.453125zm5.078125 0q0.671875 0 1.109375 0.453125q0.453125 0.453125 0.453125 1.109375q0 0.671875 -0.453125 1.09375q-0.4375 0.4375 -1.109375 0.4375q-0.625 0 -1.078125 -0.4375q-0.4375 -0.421875 -0.4375 -1.09375q0 -0.65625 0.4375 -1.109375q0.453125 -0.453125 1.078125 -0.453125zm5.078125 0q0.671875 0 1.109375 0.453125q0.453125 0.453125 0.453125 1.109375q0 0.671875 -0.453125 1.09375q-0.4375 0.4375 -1.109375 0.4375q-0.625 0 -1.078125 -0.4375q-0.4375 -0.421875 -0.4375 -1.09375q0 -0.65625 0.4375 -1.109375q0.453125 -0.453125 1.078125 -0.453125z" fill-rule="nonzero"></path></g></svg>

